<svg xmlns="http://www.w3.org/2000/svg" viewBox="0 0 300 300" style="fill-rule:evenodd;clip-rule:evenodd;stroke-linejoin:round;stroke-miterlimit:2"><defs/><path style="fill:#ebebeb" d="M0 0h300v300H0z"/><path d="M19 12c-8 5-9 8-9 31 0 33 0 34 34 34h23l3-3c7-5 7-7 7-32-1-24-1-26-9-30-6-3-44-3-49 0zm42 9c6 3 7 6 7 22 0 24-1 25-24 25-24 0-25-1-25-24s1-25 24-25c12 0 16 0 18 2z" style="fill:#005e9f;fill-rule:nonzero"/><path d="M33 30c-5 2-6 22-1 26 4 3 20 3 24 0 3-4 3-20 0-24-2-3-18-4-23-2zM90 11c-3 1-2 6 0 7s3 1 4-1c4-3 0-9-4-6zM100 11c-3 1-2 6 0 7s7-2 6-4c-1-3-4-4-6-3zM158 11c-3 1-2 6 0 7s3 1 4-1c4-3 0-8-4-6zM167 12c-4 2 0 8 4 6l2-4c0-3-3-4-6-2zM187 11c-3 1-2 6 0 7s3 1 4-1c4-3 0-8-4-6zM196 12c-4 2 0 8 4 6l2-4c0-3-3-4-6-2zM206 12c-4 3 0 8 4 6 3-1 3-6 0-7-2-1-3-1-4 1zM232 12c-8 4-8 6-8 32v23l2 3c5 7 7 7 32 7 32-1 32-1 32-34 0-24-1-26-8-31-6-3-44-3-50 0zm42 9c6 3 7 6 7 22 0 24-1 25-24 25-24 0-25-1-25-24s1-25 24-25c12 0 16 0 18 2z" style="fill:#005e9f;fill-rule:nonzero"/><path d="M246 30c-5 2-6 21-2 26 4 3 20 3 24 0 3-3 4-22 1-25-2-2-19-3-23-1zM147 21c-3 4 1 9 5 6 3-2 2-7-2-7l-3 1zM157 21c-2 3-1 6 2 7 4 0 6-3 3-6-2-2-3-2-5-1zM176 21c-3 4 1 9 5 6 3-2 2-7-2-7l-3 1zM186 21c-2 3-1 6 2 7 4 0 6-3 3-6-2-2-3-2-5-1zM89 31c-3 4 1 9 5 6 3-2 2-7-2-7l-3 1zM118 31c-3 4 1 9 5 6 3-2 2-7-2-7l-3 1zM128 31v6c4 3 8-1 6-5-1-2-5-3-6-1zM137 32v4c2 4 8 2 7-3-1-3-5-4-7-2zM147 31c-3 4 1 9 5 6 3-2 2-7-2-7l-3 1zM157 31v6c3 3 9-2 6-5-1-2-5-3-6-1zM186 31v6c3 3 9-2 6-5-1-2-5-3-6-1zM195 32c-2 4 1 7 5 5 2 0 2-1 2-3-1-4-5-5-7-2zM205 31c-3 4 1 9 5 6 3-2 2-7-2-7l-3 1zM100 40c-3 1-2 6 0 7s7-2 6-4c-1-3-4-4-6-3zM196 41c-4 2 0 8 4 6l2-4c0-3-3-4-6-2zM89 41c-2 1-1 5 1 6 4 2 7-1 5-5 0-2-5-3-6-1zM118 41c-2 1-1 5 1 6 3 2 6 0 6-4-1-3-5-4-7-2zM176 41c-2 1-1 5 1 6 3 2 6 0 6-4 0-3-5-4-7-2zM89 50l-1 5c1 3 6 3 7 0 3-4-3-8-6-5zM99 50c-2 3-1 6 2 7 4 0 6-4 3-6-2-2-3-2-5-1zM109 51c-3 3-1 6 3 6 3-1 4-4 2-7-2-1-3-1-5 1zM118 50c-3 4 1 9 5 6 3-2 2-7-2-7l-3 1zM138 51c-2 2-2 3-1 5 3 2 6 1 7-2 0-4-3-6-6-3zM176 50c-3 4 1 9 5 6 3-2 2-7-2-7l-3 1zM196 51c-2 1-2 2-1 4 2 3 6 2 7-1 0-4-3-6-6-3zM99 60c-2 1-1 6 1 6 4 2 7-1 5-5-1-2-5-3-6-1zM128 60c-2 1-1 6 1 6 4 2 7-1 5-5-1-2-5-3-6-1zM147 60c-3 4 1 9 5 6 3-2 2-7-2-7l-3 1zM186 60v6c3 3 9-2 6-5-1-2-5-3-6-1zM195 61c-2 4 2 8 6 5l1-4c-1-3-5-4-7-1zM89 70c-2 1-1 5 1 6 4 2 7-1 5-5 0-2-5-3-6-1zM108 70l-1 4c2 4 8 3 8-2-1-3-5-4-7-2zM128 70c-2 1-1 5 1 6 4 2 8-2 5-6-1-1-5-2-6 0zM147 70c-2 1-1 5 1 6 3 2 6 0 6-4 0-2-5-4-7-2zM166 70l-1 4c2 4 8 3 8-2-1-3-5-4-7-2zM186 70c-2 1-1 5 1 6 4 2 8-2 5-6-1-1-5-2-6 0zM205 71c-1 2-1 4 1 5 3 2 6 0 6-4-1-3-6-4-7-1zM99 79c-2 3-1 6 2 7 4 0 6-4 3-6-2-2-3-2-5-1zM118 79l-1 5c1 3 6 3 7 0 3-4-3-8-6-5zM138 80c-2 2-2 3-1 5 3 2 6 1 7-2 0-4-3-6-6-3zM147 79c-3 4 1 9 5 6 3-2 2-7-2-7l-3 1zM157 79c-2 3-1 6 2 7 4 0 6-3 3-6-2-2-3-2-5-1zM176 79c-2 3 0 7 4 7l3-3c1-4-4-7-7-4zM205 79c-2 3 0 7 4 7l3-3c1-4-4-7-7-4zM11 90c-2 3 1 7 5 5 4-1 3-7-1-7l-4 2zM21 89c-3 4 1 9 5 6 3-2 2-7-2-7l-3 1zM31 89c-3 4 1 9 5 6 3-2 2-7-2-7l-3 1zM41 89c-2 1-1 6 1 6 4 2 7-1 5-5-1-2-5-3-6-1zM70 89c-2 1-1 6 1 6 4 2 7-1 5-5-1-2-5-3-6-1zM89 89c-3 4 1 9 5 6 3-2 2-7-2-7l-3 1zM137 90v4c2 4 7 2 7-3-1-3-5-4-7-2zM147 89c-3 4 1 9 5 6 3-2 2-7-2-7l-3 1zM176 89c-3 4 1 9 5 6 3-2 2-7-2-7l-3 1zM186 89v6c3 3 9-2 6-5-1-2-5-3-6-1zM215 89l-1 2c0 5 5 6 7 3 2-4-2-7-6-5zM244 89c-3 4 1 9 5 6 3-2 2-7-2-7l-3 1zM253 90c-2 4 2 8 6 5l1-4c-1-3-5-4-7-1zM263 89c-3 4 1 9 5 6 3-2 2-7-2-7l-3 1zM282 90c-2 4 3 8 6 4 2-1 2-2 1-4-1-3-6-3-7 0zM11 100c-1 2 1 6 4 6l2-2c2-3 1-6-2-6l-4 2zM50 99l-1 4c2 4 8 3 8-2-1-3-5-4-7-2zM79 99c-3 4 2 9 6 6l1-4c-1-3-5-4-7-2zM89 99c-2 1-1 5 1 6 4 2 7-1 5-5 0-2-5-3-6-1zM99 99v6c4 3 9-2 6-6-1-1-5-2-6 0zM166 99c-2 2 0 6 2 7 3 0 5-2 5-5-1-3-5-4-7-2zM195 99c-2 2 0 6 2 7 3 0 5-2 5-5-1-3-5-4-7-2zM205 100c-1 2-1 4 1 5 3 2 6 0 6-4-1-3-6-4-7-1zM224 99c-2 2-1 3 1 6 3 2 6 0 6-4 0-3-4-4-7-2zM234 100c-1 2-1 4 1 5 3 2 6 0 6-4-1-3-6-4-7-1zM244 99c-2 1-1 5 1 6 4 2 8-2 5-6-1-1-5-2-6 0zM282 100c-1 2 1 6 4 6l2-2c2-3 1-6-3-6l-3 2zM41 109c-1 2-2 3-1 4 1 3 6 3 7 0 3-5-3-8-6-4zM70 108c-2 3-1 6 2 7 4 0 6-4 3-6-2-2-3-2-5-1zM80 109c-3 3-1 6 3 6 3-1 4-4 2-7-2-1-3-1-5 1zM89 108c-2 3-1 6 2 7 4 0 7-5 3-7h-5zM147 109c-2 2 0 6 3 6l4-2c0-3-1-6-4-6l-3 2zM167 109c-2 2-2 3-1 5 3 2 6 1 7-2 0-4-3-6-6-3zM176 108c-2 3 0 7 4 7l3-3c1-4-4-7-7-4zM186 108c-2 3-1 6 2 7 4 0 6-3 3-6-2-2-3-2-5-1zM215 108c-2 3-1 6 2 7 4 0 6-3 3-6-2-2-3-2-5-1zM235 108c-4 2-1 7 3 7 3-1 4-4 2-7h-5zM264 108c-4 2-1 7 3 7 3-1 4-4 2-7h-5zM273 108c-2 3-1 6 2 7 4 0 6-3 3-6-2-2-3-2-5-1zM11 119c-1 3 0 6 4 6l3-2c2-3 0-6-3-6l-4 2zM31 118c-3 4 1 9 5 6 3-2 2-7-2-7l-3 1zM60 118c-3 4 1 9 5 6 3-2 2-7-2-7l-3 1zM89 118c-3 4 1 9 5 6 3-2 2-7-2-7l-3 1zM118 118c-3 4 1 9 5 6 3-2 2-7-2-7l-3 1zM128 118c-2 1-1 6 1 6 4 2 7-1 5-5-1-2-5-3-6-1zM137 119c-2 4 2 8 6 5l1-4c-1-3-5-4-7-1zM147 118c-3 4 1 9 5 6 3-2 2-7-2-7l-3 1zM195 119c-2 4 2 8 6 5l1-4c-1-3-5-4-7-1zM215 118l-1 2c0 5 5 6 7 3 2-4-2-7-6-5zM224 119c-2 4 2 8 6 5l1-4c-1-3-5-4-7-1zM244 118c-3 4 1 9 5 6 3-2 2-7-2-7l-3 1zM282 119c-1 3 0 6 4 6 3 0 5-3 3-6l-3-2-4 2zM11 129c-1 2 1 6 4 6l2-2c2-3 1-6-2-6l-4 2zM31 128c-2 1-1 5 1 6 4 2 8-2 5-6-1-1-5-2-6 0zM50 128c-3 4 2 9 6 6 2-2 1-6-2-7l-4 1zM60 128c-2 1-1 5 1 6 4 2 7-1 5-5 0-2-5-3-6-1zM70 128v6c4 3 8-1 6-5-1-2-5-3-6-1zM99 128v6c4 3 9-2 6-6-1-1-5-2-6 0zM118 128c-2 1-1 5 1 6 4 2 7-1 5-5 0-2-5-3-6-1zM176 129c-1 2-1 4 1 5 3 2 6 0 6-4-1-3-6-4-7-1zM253 129c-1 2 1 6 4 6 2 0 4-4 3-6-1-3-6-3-7 0zM263 128c-2 2-1 5 1 6 4 2 6 0 6-4-1-3-5-4-7-2zM12 138c-2 3-1 6 3 6 3 0 4-3 2-6l-2-2-3 2zM41 138c-1 2-2 3-1 4 1 3 6 3 7 0 3-5-3-8-6-4zM51 138c-2 2-2 3-1 5 3 2 6 1 7-2 0-4-3-6-6-3zM80 138c-2 2-2 3-1 5 3 2 6 1 7-2 0-4-3-6-6-3zM89 137c-2 3-1 6 3 7 3 0 3 0 4-3 1-4-4-7-7-4zM99 137c-2 3-1 6 2 7 4 0 6-3 3-6-2-2-3-2-5-1zM109 138c-2 2-2 3-1 5 3 2 6 1 7-2 0-4-3-6-6-3zM119 137c-3 2-2 6 2 7 3 0 3 0 4-3 1-4-3-6-6-4zM138 138c-2 2-2 3-1 5 3 2 6 1 7-2 0-4-3-6-6-3zM157 137c-2 3-1 6 2 7 4 0 6-3 3-6-2-2-3-2-5-1zM167 138c-2 2-2 3-1 5 3 2 6 1 7-2 0-4-3-6-6-3zM196 138c-2 2-2 3-1 5 3 2 6 1 7-2 0-4-3-6-6-3zM225 138c-2 1-2 2-1 4 2 3 6 2 7-1 0-4-3-6-6-3zM264 137c-4 2-1 7 3 7 3-1 4-4 2-7h-5zM273 137c-2 3-1 6 2 7 4 0 6-3 3-6-2-2-3-2-5-1zM283 138c-3 2-1 6 3 6 3 0 4-3 2-6-1-3-3-3-5 0zM21 147c-3 4 1 9 5 6 3-2 2-7-2-7l-3 1zM31 147c-3 4 1 9 5 6 3-2 2-7-2-7l-3 1zM60 147c-3 4 1 9 5 6 3-2 2-7-2-7l-3 1zM69 147c-1 4 0 6 3 7 4 0 6-3 4-6-1-2-6-3-7-1zM79 147c-3 4 1 9 5 6 3-2 2-7-2-7l-3 1zM89 147c-3 4 1 9 5 6 3-2 2-7-2-7l-3 1zM98 147c-1 4 0 6 3 7 4 0 6-3 4-6-1-2-6-3-7-1zM128 147c-2 0-1 6 1 6 2 1 4 1 5-1 2-4-1-7-6-5zM147 147c-3 4 1 9 5 6 3-2 2-7-2-7l-3 1zM166 148c-1 2 0 6 2 6 3 0 5-1 5-4 0-4-5-6-7-2zM195 148c-2 3 0 6 4 6 2 0 3-1 3-4 0-4-5-6-7-2zM205 147c-3 4 1 9 5 6 3-2 2-7-2-7l-3 1zM224 148c-2 3 0 6 4 6 2 0 3-1 3-4 0-4-5-6-7-2zM263 147c-3 4 1 9 5 6 3-2 2-7-2-7l-3 1zM273 147c-3 4 1 9 5 6 3-2 2-7-2-7l-3 1zM282 148c-1 3 0 6 4 6 3 0 5-3 3-6l-3-2-4 2zM11 158c-1 2 1 6 4 6l2-2c2-3 1-6-2-6l-4 2zM40 158c-1 1-1 2 1 4 3 4 8 0 6-4-1-3-6-3-7 0zM50 157c-3 4 2 9 6 6l1-4c-1-3-5-4-7-2zM60 157c-2 1-1 5 1 6 3 3 8-3 5-6h-6zM79 157c-3 4 2 9 6 6l1-4c-1-3-5-4-7-2zM89 157c-2 1-1 5 1 6 3 3 7-1 5-5 0-2-5-3-6-1zM99 157v6c4 3 9-2 6-6h-6zM108 157c-3 4 2 9 6 6l1-4c-1-3-5-4-7-2zM128 157v6c2 2 6 0 7-2 1-4-5-7-7-4zM137 157c-2 2 0 6 2 7 3 0 5-2 5-5-1-3-5-4-7-2zM186 157v6c2 2 6 0 7-2 1-4-5-7-7-4zM195 157c-2 2 0 6 2 7 3 0 5-2 5-5-1-3-5-4-7-2zM204 159c-1 4 4 7 7 4 2-3 1-6-3-7-2 0-3 0-4 3zM215 157v6c2 2 6 0 7-2 1-4-5-7-7-4zM224 158c-1 2 0 5 2 6 3 0 5-2 5-5-1-3-5-4-7-1zM234 157c-2 2-1 5 1 6 4 2 6 0 6-4-1-3-5-4-7-2zM244 157v6c2 2 6 0 7-2 1-4-5-7-7-4zM273 157v6c4 3 9-2 6-6h-6zM12 167c-2 3-1 6 3 6 3 0 4-3 2-6l-2-2-3 2zM22 167c-3 3-1 6 3 6 3-1 4-4 2-7-2-1-3-1-5 1zM41 167c-2 3-1 6 3 6 3 0 5-4 2-6-2-3-4-2-5 0zM61 166c-3 2-2 6 2 7 3 0 3 0 4-3 1-4-3-6-6-4zM70 166c-2 3-1 6 2 7 4 0 6-3 3-6-2-2-3-3-5-1zM80 167c-2 2-2 3-1 5 3 2 6 1 7-2 0-4-3-6-6-3zM99 166c-2 3-1 6 2 7 4 0 6-3 3-6-2-2-3-2-5-1zM109 167c-2 2-2 3-1 5 3 2 6 1 7-2 0-4-3-6-6-3zM119 166c-3 2-2 6 2 7 3 0 3 0 4-3 1-4-3-6-6-4zM186 166c-2 3-1 6 2 7 4 0 6-3 3-6-2-2-3-2-5-1zM196 167c-2 2-2 3-1 5 3 2 6 1 7-2 0-4-3-6-6-3zM206 166c-4 3-2 7 2 7 4-1 5-5 2-7h-4zM244 166c-2 3-1 6 2 7 4 0 6-3 3-6-2-2-3-2-5-1zM254 167c-3 2-1 6 3 6 3 0 4-3 2-6-1-2-3-3-5 0zM273 166c-2 3-1 6 2 7 4 0 6-3 3-6-2-2-3-2-5-1zM21 176c-3 4 1 9 5 6 3-2 2-7-2-7l-3 1zM40 176c-1 4 0 6 3 7 4 0 6-3 4-6-1-2-6-3-7-1zM50 176c-3 4 1 9 5 6 3-2 2-7-2-7l-3 1zM99 176l-1 4c1 3 5 4 7 1 2-4-2-8-6-5zM128 176l-1 4c1 3 5 4 7 1 2-4-2-8-6-5zM137 177c-2 3 0 6 4 6 2 0 3-1 3-3 0-5-5-7-7-3zM157 176l-1 4c1 3 5 4 7 1 2-4-2-8-6-5zM234 176c-3 4 1 9 5 6 3-2 2-7-2-7l-3 1zM253 177c-2 3 0 6 4 6 2 0 3-1 3-4 0-4-5-6-7-2zM263 176c-3 4 1 9 5 6 3-2 2-7-2-7l-3 1zM273 176c-3 4 1 9 5 6 3-2 2-7-2-7l-3 1zM11 187c-1 2 1 6 3 6 3 0 5-4 4-6-1-3-6-3-7 0zM31 186c-2 1-1 5 1 6 3 3 8-3 5-6h-6zM70 186v6c4 3 8-1 6-5-1-2-5-3-6-1zM117 188c0 2 1 5 4 5s4-3 4-5c-1-2-2-3-4-3s-3 1-4 3zM128 186v6c4 3 9-2 6-6-1-1-5-2-6 0zM157 186v6c4 3 9-2 6-6-1-1-5-2-6 0zM186 186v6c4 3 9-2 6-6-1-1-5-2-6 0zM205 186c-2 2-1 5 1 6 4 2 6 0 6-4-1-3-5-4-7-2zM224 187c-1 2 0 5 2 6 3 0 5-2 5-5-1-3-5-4-7-1zM234 186c-2 2-1 5 1 6 4 2 6 0 6-4-1-3-5-4-7-2zM244 186v6c4 3 9-2 6-6-1-1-5-2-6 0zM263 186c-2 2-1 5 1 6 4 2 6 0 6-4-1-3-5-4-7-2zM41 196c-2 3-1 6 3 6 3 0 4-3 2-6l-3-2-2 2zM61 195c-3 3-2 6 2 7 3 0 3 0 4-3 1-4-3-6-6-4zM80 196c-3 3-1 6 3 6 3-1 4-5 1-7-2-1-2-1-4 1zM90 195c-3 3-2 6 2 7 3 0 3 0 4-3 1-4-3-6-6-4zM99 195c-2 3-1 6 2 7 4 0 6-3 3-6-2-2-3-2-5-1zM128 195c-2 3-1 6 2 7 4 0 6-3 3-6-2-2-3-2-5-1zM167 196c-2 2-2 3-1 5 3 2 6 1 7-2 0-4-3-6-6-3zM177 195c-4 3-2 7 2 7 4-1 5-5 2-7h-4zM186 195c-2 3-1 6 2 7 4 0 6-3 3-6-2-2-3-2-5-1zM224 196c-2 3 0 6 4 6 3 0 4-4 2-7-2-2-3-1-6 1zM235 195c-4 3-2 7 2 7 4-1 5-5 2-7h-4zM245 195c-3 2-2 6 1 7 4 0 6-3 3-6-1-2-2-2-4-1zM264 196c-3 3-2 6 3 6 3-1 4-5 1-7-2-1-2-1-4 1zM212 205l-5 1c-5 0-5 36 1 42l3 3h33l7-7v-16c0-24-1-25-23-25-9 0-14 1-16 2zm28 10c2 2 2 3 2 12 0 14-1 15-15 15s-14 0-14-14c0-15 0-15 14-15 9 0 11 0 13 2z" style="fill:#005e9f;fill-rule:nonzero"/><path d="M223 224c-1 5 0 7 5 7 6 1 6-7 0-8l-5 1zM21 205c-3 4 1 9 5 6 3-2 2-7-2-7l-3 1zM41 205l-1 4c1 3 5 4 7 1 2-4-2-8-6-5zM60 205c-3 4 1 9 5 6 3-2 2-7-2-7l-3 1zM70 205l-1 4c1 3 5 4 7 1 2-4-2-8-6-5zM79 205c-3 3 0 8 5 7 4-1 2-8-2-8l-3 1zM89 205c-3 4 1 9 5 6 3-2 2-7-2-7l-3 1zM108 206c-2 4 0 6 4 6 2 0 3-1 3-3 1-5-5-7-7-3zM118 205c-3 4 1 9 5 6 3-2 2-7-2-7l-3 1zM128 205l-1 4c1 3 5 4 7 1 2-4-2-8-6-5zM137 206c-2 4 0 6 4 6 2 0 3-1 3-3 0-5-5-7-7-3zM166 206c-2 3 0 6 4 6 2 0 3-1 3-3 0-5-5-7-7-3zM176 205c-3 4 1 9 5 6 3-2 2-7-2-7l-3 1zM186 205c-2 3-1 6 2 7 4 0 6-2 4-6-1-2-4-3-6-1zM253 206c-2 3 0 6 4 6 2 0 3-1 3-3 0-5-5-7-7-3zM263 205c-3 4 1 9 5 6 3-2 2-7-2-7l-3 1zM88 216c-1 5 5 8 7 4 2-3 0-5-3-6-2 0-3 0-4 2zM99 215v6c4 3 8-1 6-5-1-2-5-3-6-1zM108 215c-3 4 2 9 6 6 2-2 1-6-2-7l-4 1zM128 215v6c4 3 9-2 6-6-1-1-5-2-6 0zM137 215c-3 4 2 9 6 6 2-2 1-6-2-7l-4 1zM147 215c-3 4 1 9 5 6 3-2 2-7-2-7l-3 1zM166 215c-3 4 2 9 6 6 2-2 1-6-2-7l-4 1zM176 215c-2 3 0 7 3 7s4-3 4-5c-1-3-5-4-7-2zM186 215v6c4 3 9-2 6-6-1-1-5-2-6 0zM253 216c-2 4 3 8 6 4 2-2 2-3 1-4-1-3-6-3-7 0zM263 215c-2 2-1 5 1 6 4 2 6 0 6-4-1-3-5-4-7-2zM273 215v6c4 3 9-2 6-6-1-1-5-2-6 0zM282 216c-2 4 3 8 6 4 2-2 2-3 1-4-1-3-6-3-7 0zM21 224c-9 3-11 8-11 33 0 32 1 33 34 33 32 0 33 0 33-34v-23l-3-3c-5-7-7-7-31-7l-22 1zm40 10c6 3 7 6 7 22 0 23-1 25-24 25s-25-2-25-24c0-24 1-25 24-25 12 0 16 0 18 2z" style="fill:#005e9f;fill-rule:nonzero"/><path d="M32 244c-3 3-4 22-1 25s23 2 25-1c3-4 3-20 0-24-4-3-20-3-24 0zM119 224c-3 3-2 6 2 7 3 0 3 0 4-3 1-4-3-6-6-4zM128 224c-2 3-1 6 2 6 4 1 6-2 4-5-3-2-4-3-6-1zM138 225c-3 3-1 6 3 6 3-1 4-5 1-7-2-1-2-1-4 1zM166 225c-2 3 0 6 4 6 3 0 4-4 2-7-2-2-3-1-6 1zM177 224c-4 3-2 7 2 7 4-1 5-5 2-7h-4zM195 225c-2 3 0 6 4 6 3 0 4-5 1-7-2-1-2-1-5 1zM254 225c-2 3-1 6 3 6 3 0 4-3 2-6l-3-2-2 2zM274 224c-3 2-2 6 1 7 4 0 6-3 3-6-2-2-2-2-4-1zM99 234l-1 4c1 3 5 4 7 1 2-4-2-8-6-5zM157 234c-2 3-1 6 2 7 4 0 6-2 4-6-1-2-4-3-6-1zM253 235c-2 3 0 6 4 6 2 0 3-1 3-3 0-5-5-7-7-3zM273 234c-3 4 1 9 5 6 3-2 2-7-2-7l-3 1zM99 244v6c4 3 8-1 6-5-1-2-5-3-6-1zM108 244c-3 4 2 9 6 6l1-4c-1-3-5-4-7-2zM128 244v6c4 3 9-2 6-6h-6zM147 244c-3 4 1 9 5 6 2-1 3-4 1-6h-6zM176 244c-3 4 1 9 5 6 2-1 3-4 1-6h-6zM263 244c-3 4 1 9 5 6 3-1 2-6-1-7l-4 1zM273 244v6c4 3 9-2 6-6h-6zM90 253c-3 3-2 6 2 7 3 0 3 0 4-3 1-4-3-6-6-4zM109 254c-4 3 0 8 4 6 3-1 3-6 0-7-2-1-3-1-4 1zM119 253c-4 3-2 7 2 7 3 0 4-1 4-3s-2-5-4-5l-2 1zM129 253c-3 1-2 6 0 7 4 2 8-3 4-6-2-2-2-2-4-1zM148 253c-4 3-2 7 2 7 3 0 4-1 4-3s-2-5-4-5l-2 1zM158 253c-3 1-2 6 0 7 4 2 8-3 4-6-1-2-2-2-4-1zM196 254c-3 3 0 8 4 6 3-1 3-6 0-7-2-1-2-1-4 1zM216 253c-3 1-2 6 0 7 4 2 8-3 4-6-1-2-2-2-4-1zM235 253c-4 3-2 7 2 7 4-1 5-4 2-7h-4zM245 253c-3 1-2 6 0 7 4 2 8-3 4-6-1-2-2-2-4-1zM254 254c-4 4 1 9 5 5 2-2 2-4-1-6-2-1-2-1-4 1zM283 254c-2 2-2 5 1 6 3 2 7-2 5-5-1-3-4-3-6-1zM89 263c-1 2-1 5 1 6 4 3 8-2 5-6h-6zM108 264c-2 4 0 6 4 6 2 0 3-1 3-3 1-5-5-7-7-3zM118 263c-1 2-1 5 1 6 4 3 8-2 5-6h-6zM137 264c-2 4 0 6 4 6 2 0 3-1 3-3 1-5-5-7-7-3zM167 264c-2 2-2 2-1 4 2 3 6 2 7-1 0-4-3-6-6-3zM205 263c-1 2-1 5 1 6 4 3 8-2 5-6h-6zM234 263c-1 2-1 5 1 6 4 3 8-2 5-6h-6zM263 263c-1 2-1 5 1 6 4 3 8-2 5-6h-6zM283 264c-2 1-2 2-1 4 2 4 9 1 7-3-1-3-4-4-6-1zM89 273c-1 2-1 5 1 6 4 3 8-2 5-6h-6zM99 273v6c4 3 8-1 6-5-1-2-5-3-6-1zM118 273c-1 2-1 5 1 6 4 3 8-2 5-6h-6zM147 273c-3 4 1 9 5 6 2-1 3-4 1-6h-6zM205 273c-1 2-1 5 1 6 4 3 8-2 5-6h-6zM215 273v6c4 3 9-2 6-6-1-1-5-2-6 0zM234 273c-1 2-1 5 1 6 4 3 8-2 5-6h-6zM253 274c-2 4 1 7 5 5 2 0 2-1 2-3-1-4-5-5-7-2zM272 273c-1 4 3 8 6 6 4-2 2-7-3-7l-3 1zM90 282c-4 2-1 9 3 7 3-1 4-4 1-6-1-2-2-2-4-1zM109 283c-3 3 0 8 4 6 3-1 3-6 0-7-2-1-2-1-4 1zM129 282c-3 1-2 6 0 7s7-2 6-4c-1-3-4-4-6-3zM148 282c-5 3 0 9 4 7 3-1 3-6 0-7h-4zM167 283c-4 2 0 8 4 6l2-3c0-4-3-5-6-3zM187 282c-3 1-2 6 0 7 4 2 8-3 4-6-2-2-2-2-4-1zM196 283c-4 2 0 8 4 6l2-3c0-4-3-5-6-3zM206 282c-5 3 0 9 4 7 3-1 3-6 0-7h-4zM216 282c-3 1-2 6 0 7 4 2 8-3 4-6-1-2-2-2-4-1zM225 283c-4 2 0 8 4 6l2-3c0-4-3-5-6-3zM274 282c-4 2-1 9 3 7 3-1 4-4 1-6-1-2-2-2-4-1z" style="fill:#005e9f;fill-rule:nonzero"/></svg>