<svg xmlns="http://www.w3.org/2000/svg" style="fill-rule:evenodd;clip-rule:evenodd" viewBox="0 0 1000 1000"><defs/><path d="M0 0h1000v1000H0z" style="fill:#fff"/><path d="M809 98h88v22h-88z" style="fill:#007;stroke:#000;stroke-width:1px"/><text style="font-family:'ArialMT','Arial',sans-serif;font-size:13.144px;fill:#fff" transform="translate(814 114) scale(1.32473)">admin</text><path d="M809 121h88v21h-88z" style="fill:#aea;stroke:#000;stroke-width:1px"/><text style="font-family:'ArialMT','Arial',sans-serif;font-size:13.144px" transform="translate(814 136) scale(1.32473)">id_admin</text><path d="M809 142h88v21h-88z" style="fill:none;stroke:#000;stroke-width:1px"/><text style="font-family:'ArialMT','Arial',sans-serif;font-size:13.144px" transform="translate(814 157) scale(1.32473)">username</text><path d="M809 164h88v22h-88z" style="fill:none;stroke:#000;stroke-width:1px"/><text style="font-family:'ArialMT','Arial',sans-serif;font-size:13.144px" transform="translate(814 179) scale(1.32473)">password</text><g><path d="M287 702l6 8h-10l6-2-2-6z"/><path d="M154 652l135 56" style="fill:none;stroke:#000;stroke-width:2px;stroke-linejoin:round;stroke-miterlimit:1"/><path d="M391 710h-11l6-8-2 6 7 2z"/><path d="M361 627c84 19 93 46 23 81" style="fill:none;stroke:#000;stroke-width:2px;stroke-linejoin:round;stroke-miterlimit:1"/><path d="M285 825l7 7-10 2 6-3-3-6z"/><path d="M292 753c-56 41-48 64-4 78" style="fill:none;stroke:#000;stroke-width:2px;stroke-linejoin:round;stroke-miterlimit:1"/><path d="M284 602l9 3-8 6 4-5-5-4z"/><path d="M154 631l135-25" style="fill:none;stroke:#000;stroke-width:2px;stroke-linejoin:round;stroke-miterlimit:1"/><path d="M164 512l-10-5 9-4-4 4 5 5z"/><path d="M398 498c-84 3-42 3-239 9" style="fill:none;stroke:#000;stroke-width:2px;stroke-linejoin:round;stroke-miterlimit:1"/><path d="M163 507l-9-5 10-4-5 4 4 5z"/><path d="M428 152c-72 35 34 357-269 350" style="fill:none;stroke:#000;stroke-width:2px;stroke-linejoin:round;stroke-miterlimit:1"/><path d="M164 492l-10 1 5-9-1 7 6 1z"/><path d="M174 181c53 4 157 179-16 310" style="fill:none;stroke:#000;stroke-width:2px;stroke-linejoin:round;stroke-miterlimit:1"/><path d="M164 500l-10-3 9-6-4 6 5 3z"/><path d="M174 135c145 65 259 316-15 362" style="fill:none;stroke:#000;stroke-width:2px;stroke-linejoin:round;stroke-miterlimit:1"/><path d="M164 525l-10-2 8-6-3 5 5 3z"/><path d="M174 156c78 35 237 295-15 366" style="fill:none;stroke:#000;stroke-width:2px;stroke-linejoin:round;stroke-miterlimit:1"/><g><path d="M390 736l-9-4 9-5-5 5 5 4z"/><path d="M825 605c-116 96-270 126-440 127" style="fill:none;stroke:#000;stroke-width:2px;stroke-linejoin:round;stroke-miterlimit:1"/></g><g><path d="M409 879l-10-4 9-5-4 5 5 4z"/><path d="M825 583c-318 7-280 274-421 292" style="fill:none;stroke:#000;stroke-width:2px;stroke-linejoin:round;stroke-miterlimit:1"/></g><g><path d="M370 610l-9-5 9-4-5 4 5 5z"/><path d="M825 627l-460-22" style="fill:none;stroke:#000;stroke-width:2px;stroke-linejoin:round;stroke-miterlimit:1"/></g><g><path d="M182 120l-8-5 9-4-5 5 4 4z"/><path d="M428 133l-250-17" style="fill:none;stroke:#000;stroke-width:2px;stroke-linejoin:round;stroke-miterlimit:1"/></g><g><path d="M818 505l7 7-10 2 6-3-3-6z"/><path d="M724 304c80 23 3 175 97 207" style="fill:none;stroke:#000;stroke-width:2px;stroke-linejoin:round;stroke-miterlimit:1"/></g><g><path d="M817 515l8 6-10 2 5-3-3-5z"/><path d="M527 474c131 18 125 15 293 46" style="fill:none;stroke:#000;stroke-width:2px;stroke-linejoin:round;stroke-miterlimit:1"/></g><g><path d="M581 279l10 1-7 7 3-5-6-3z"/><path d="M527 456c47-68 22-159 60-174" style="fill:none;stroke:#000;stroke-width:2px;stroke-linejoin:round;stroke-miterlimit:1"/></g><g><path d="M42 494l8 6-10 3 6-4-4-5z"/><path d="M50 378c-27 42-44 113-4 121" style="fill:none;stroke:#000;stroke-width:2px;stroke-linejoin:round;stroke-miterlimit:1"/></g><g><path d="M50 323h88v22H50z" style="fill:#007;stroke:#000;stroke-width:1px"/><text style="font-family:'ArialMT','Arial',sans-serif;font-size:13.144px;fill:#fff" transform="matrix(1.32473 0 0 1.32473 55 339)">logs</text><path d="M50 346h88v21H50z" style="fill:#aea;stroke:#000;stroke-width:1px"/><text style="font-family:'ArialMT','Arial',sans-serif;font-size:13.144px" transform="matrix(1.32473 0 0 1.32473 55 361)">id</text><path d="M50 367h88v21H50z" style="fill:none;stroke:#000;stroke-width:1px"/><text style="font-family:'ArialMT','Arial',sans-serif;font-size:13.144px" transform="matrix(1.32473 0 0 1.32473 55 382)">id_user</text><path d="M50 389h88v22H50zM50 411h88v22H50z" style="fill:none;stroke:#000;stroke-width:1px"/><text style="font-family:'ArialMT','Arial',sans-serif;font-size:13.144px" transform="matrix(1.32473 0 0 1.32473 55 404)">action</text><text style="font-family:'ArialMT','Arial',sans-serif;font-size:13.144px" transform="matrix(1.32473 0 0 1.32473 55 426)">cdate</text><g><path d="M398 400h129v21H398z" style="fill:#007;stroke:#000;stroke-width:1px"/><text style="font-family:'ArialMT','Arial',sans-serif;font-size:13.144px;fill:#fff" transform="matrix(1.32473 0 0 1.32473 404 415)">apply_job_post</text><path d="M398 422h129v22H398z" style="fill:#aea;stroke:#000;stroke-width:1px"/><text style="font-family:'ArialMT','Arial',sans-serif;font-size:13.144px" transform="matrix(1.32473 0 0 1.32473 404 437)">id_apply</text><path d="M398 443h129v22H398z" style="fill:none;stroke:#000;stroke-width:1px"/><text style="font-family:'ArialMT','Arial',sans-serif;font-size:13.144px" transform="matrix(1.32473 0 0 1.32473 404 459)">id_jobpost</text><path d="M398 466h129v22H398z" style="fill:none;stroke:#000;stroke-width:1px"/><text style="font-family:'ArialMT','Arial',sans-serif;font-size:13.144px" transform="matrix(1.32473 0 0 1.32473 404 480)">id_company</text><path d="M398 487h129v22H398z" style="fill:none;stroke:#000;stroke-width:1px"/><text style="font-family:'ArialMT','Arial',sans-serif;font-size:13.144px" transform="matrix(1.32473 0 0 1.32473 404 502)">id_user</text><path d="M398 508h129v22H398z" style="fill:none;stroke:#000;stroke-width:1px"/><text style="font-family:'ArialMT','Arial',sans-serif;font-size:13.144px" transform="matrix(1.32473 0 0 1.32473 404 524)">status</text></g><g><path d="M293 550h68v22h-68z" style="fill:#007;stroke:#000;stroke-width:1px"/><text style="font-family:'ArialMT','Arial',sans-serif;font-size:13.144px;fill:#fff" transform="matrix(1.32473 0 0 1.32473 299 566)">cities</text><path d="M293 573h68v22h-68z" style="fill:#aea;stroke:#000;stroke-width:1px"/><text style="font-family:'ArialMT','Arial',sans-serif;font-size:13.144px" transform="matrix(1.32473 0 0 1.32473 299 588)">id</text><path d="M293 594h68v22h-68z" style="fill:none;stroke:#000;stroke-width:1px"/><text style="font-family:'ArialMT','Arial',sans-serif;font-size:13.144px" transform="matrix(1.32473 0 0 1.32473 299 609)">name</text><path d="M293 617h68v21h-68z" style="fill:none;stroke:#000;stroke-width:1px"/><text style="font-family:'ArialMT','Arial',sans-serif;font-size:13.144px" transform="matrix(1.32473 0 0 1.32473 299 631)">state_id</text></g><g><path d="M825 485h125v22H825z" style="fill:#007;stroke:#000;stroke-width:1px"/><text style="font-family:'ArialMT','Arial',sans-serif;font-size:13.144px;fill:#fff" transform="matrix(1.32473 0 0 1.32473 830 501)">company</text><path d="M825 508h125v22H825z" style="fill:#aea;stroke:#000;stroke-width:1px"/><text style="font-family:'ArialMT','Arial',sans-serif;font-size:13.144px" transform="matrix(1.32473 0 0 1.32473 830 522)">id_company</text><path d="M825 529h125v22H825z" style="fill:none;stroke:#000;stroke-width:1px"/><text style="font-family:'ArialMT','Arial',sans-serif;font-size:13.144px" transform="matrix(1.32473 0 0 1.32473 830 544)">name</text><path d="M825 550h125v22H825z" style="fill:none;stroke:#000;stroke-width:1px"/><text style="font-family:'ArialMT','Arial',sans-serif;font-size:13.144px" transform="matrix(1.32473 0 0 1.32473 830 566)">companyname</text><path d="M825 573h125v21H825z" style="fill:none;stroke:#000;stroke-width:1px"/><text style="font-family:'ArialMT','Arial',sans-serif;font-size:13.144px" transform="matrix(1.32473 0 0 1.32473 830 588)">country</text><path d="M825 594h125v22H825z" style="fill:none;stroke:#000;stroke-width:1px"/><text style="font-family:'ArialMT','Arial',sans-serif;font-size:13.144px" transform="matrix(1.32473 0 0 1.32473 830 609)">state</text><path d="M825 616h125v22H825z" style="fill:none;stroke:#000;stroke-width:1px"/><text style="font-family:'ArialMT','Arial',sans-serif;font-size:13.144px" transform="matrix(1.32473 0 0 1.32473 830 631)">city</text><path d="M825 638h125v21H825z" style="fill:none;stroke:#000;stroke-width:1px"/><text style="font-family:'ArialMT','Arial',sans-serif;font-size:13.144px" transform="matrix(1.32473 0 0 1.32473 830 653)">contactno</text><path d="M825 660h125v22H825z" style="fill:none;stroke:#000;stroke-width:1px"/><text style="font-family:'ArialMT','Arial',sans-serif;font-size:13.144px" transform="matrix(1.32473 0 0 1.32473 830 675)">website</text><path d="M825 681h125v22H825z" style="fill:none;stroke:#000;stroke-width:1px"/><text style="font-family:'ArialMT','Arial',sans-serif;font-size:13.144px" transform="matrix(1.32473 0 0 1.32473 830 697)">email</text><path d="M825 703h125v21H825z" style="fill:none;stroke:#000;stroke-width:1px"/><text style="font-family:'ArialMT','Arial',sans-serif;font-size:13.144px" transform="matrix(1.32473 0 0 1.32473 830 718)">password</text><path d="M825 725h125v22H825z" style="fill:none;stroke:#000;stroke-width:1px"/><text style="font-family:'ArialMT','Arial',sans-serif;font-size:13.144px" transform="matrix(1.32473 0 0 1.32473 830 740)">aboutme</text><path d="M825 746h125v22H825z" style="fill:none;stroke:#000;stroke-width:1px"/><text style="font-family:'ArialMT','Arial',sans-serif;font-size:13.144px" transform="matrix(1.32473 0 0 1.32473 830 762)">logo</text><path d="M825 769h125v22H825z" style="fill:none;stroke:#000;stroke-width:1px"/><text style="font-family:'ArialMT','Arial',sans-serif;font-size:13.144px" transform="matrix(1.32473 0 0 1.32473 830 784)">createdAt</text><path d="M825 790h125v22H825z" style="fill:none;stroke:#000;stroke-width:1px"/><text style="font-family:'ArialMT','Arial',sans-serif;font-size:13.144px" transform="matrix(1.32473 0 0 1.32473 830 805)">active</text></g><g><path d="M292 799h107v21H292z" style="fill:#007;stroke:#000;stroke-width:1px"/><path d="M292 821h107v22H292z" style="fill:#aea;stroke:#000;stroke-width:1px"/><path d="M292 842h107v22H292zM292 865h107v22H292z" style="fill:none;stroke:#000;stroke-width:1px"/><path d="M292 886h107v22H292z" style="fill:none;stroke:#000;stroke-width:1px"/><text style="font-family:'ArialMT','Arial',sans-serif;font-size:13.144px;fill:#fff" transform="matrix(1.32473 0 0 1.32473 297 814)">countries</text><text style="font-family:'ArialMT','Arial',sans-serif;font-size:13.144px" transform="matrix(1.32473 0 0 1.32473 297 880)">name</text><text style="font-family:'ArialMT','Arial',sans-serif;font-size:13.144px" transform="matrix(1.32473 0 0 1.32473 297 858)">countrycode</text><text style="font-family:'ArialMT','Arial',sans-serif;font-size:13.144px" transform="matrix(1.32473 0 0 1.32473 297 836)">id</text><text style="font-family:'ArialMT','Arial',sans-serif;font-size:13.144px" transform="matrix(1.32473 0 0 1.32473 297 901)">phonecode</text></g><g><path d="M591 247h133v22H591z" style="fill:#007;stroke:#000;stroke-width:1px"/><text style="font-family:'ArialMT','Arial',sans-serif;font-size:13.144px;fill:#fff" transform="matrix(1.32473 0 0 1.32473 597 263)">job_post</text><path d="M591 270h133v21H591z" style="fill:#aea;stroke:#000;stroke-width:1px"/><text style="font-family:'ArialMT','Arial',sans-serif;font-size:13.144px" transform="matrix(1.32473 0 0 1.32473 597 284)">id_jobpost</text><path d="M591 291h133v22H591z" style="fill:none;stroke:#000;stroke-width:1px"/><text style="font-family:'ArialMT','Arial',sans-serif;font-size:13.144px" transform="matrix(1.32473 0 0 1.32473 597 306)">id_company</text><path d="M591 313h133v22H591z" style="fill:none;stroke:#000;stroke-width:1px"/><text style="font-family:'ArialMT','Arial',sans-serif;font-size:13.144px" transform="matrix(1.32473 0 0 1.32473 597 328)">jobtitle</text><path d="M591 335h133v21H591z" style="fill:none;stroke:#000;stroke-width:1px"/><text style="font-family:'ArialMT','Arial',sans-serif;font-size:13.144px" transform="matrix(1.32473 0 0 1.32473 597 350)">description</text><path d="M591 356h133v22H591z" style="fill:none;stroke:#000;stroke-width:1px"/><text style="font-family:'ArialMT','Arial',sans-serif;font-size:13.144px" transform="matrix(1.32473 0 0 1.32473 597 372)">minimumsalary</text><path d="M591 378h133v22H591z" style="fill:none;stroke:#000;stroke-width:1px"/><text style="font-family:'ArialMT','Arial',sans-serif;font-size:13.144px" transform="matrix(1.32473 0 0 1.32473 597 393)">maximumsalary</text><path d="M591 400h133v21H591z" style="fill:none;stroke:#000;stroke-width:1px"/><text style="font-family:'ArialMT','Arial',sans-serif;font-size:13.144px" transform="matrix(1.32473 0 0 1.32473 597 415)">experience</text><path d="M591 422h133v22H591z" style="fill:none;stroke:#000;stroke-width:1px"/><text style="font-family:'ArialMT','Arial',sans-serif;font-size:13.144px" transform="matrix(1.32473 0 0 1.32473 597 437)">qualiﬁcation</text><path d="M591 443h133v22H591z" style="fill:none;stroke:#000;stroke-width:1px"/><text style="font-family:'ArialMT','Arial',sans-serif;font-size:13.144px" transform="matrix(1.32473 0 0 1.32473 597 459)">createdat</text></g><g><path d="M76 82h98v22H76z" style="fill:#007;stroke:#000;stroke-width:1px"/><text style="font-family:'ArialMT','Arial',sans-serif;font-size:13.144px;fill:#fff" transform="matrix(1.32473 0 0 1.32473 81 98)">mailbox</text><path d="M76 105h98v22H76zM429 98h113v21H429z" style="fill:#aea;stroke:#000;stroke-width:1px"/><text style="font-family:'ArialMT','Arial',sans-serif;font-size:13.144px" transform="matrix(1.32473 0 0 1.32473 81 120)">id_mailbox</text><path d="M76 126h98v22H76z" style="fill:none;stroke:#000;stroke-width:1px"/><text style="font-family:'ArialMT','Arial',sans-serif;font-size:13.144px" transform="matrix(1.32473 0 0 1.32473 81 141)">id_fromuser</text><path d="M76 148h98v22H76z" style="fill:none;stroke:#000;stroke-width:1px"/><text style="font-family:'ArialMT','Arial',sans-serif;font-size:13.144px" transform="matrix(1.32473 0 0 1.32473 81 163)">fromuser</text><path d="M76 170h98v21H76z" style="fill:none;stroke:#000;stroke-width:1px"/><text style="font-family:'ArialMT','Arial',sans-serif;font-size:13.144px" transform="matrix(1.32473 0 0 1.32473 81 185)">id_touser</text><path d="M76 191h98v22H76z" style="fill:none;stroke:#000;stroke-width:1px"/><text style="font-family:'ArialMT','Arial',sans-serif;font-size:13.144px" transform="matrix(1.32473 0 0 1.32473 81 207)">subject</text><path d="M76 213h98v22H76z" style="fill:none;stroke:#000;stroke-width:1px"/><text style="font-family:'ArialMT','Arial',sans-serif;font-size:13.144px" transform="matrix(1.32473 0 0 1.32473 81 228)">message</text><path d="M76 235h98v21H76z" style="fill:none;stroke:#000;stroke-width:1px"/><text style="font-family:'ArialMT','Arial',sans-serif;font-size:13.144px" transform="matrix(1.32473 0 0 1.32473 81 250)">createdAt</text></g><g><path d="M429 75h113v22H429z" style="fill:#007;stroke:#000;stroke-width:1px"/><text style="font-family:'ArialMT','Arial',sans-serif;font-size:13.144px;fill:#fff" transform="matrix(1.32473 0 0 1.32473 434 91)">reply_mailbox</text><path d="M429 98h113v22H429z" style="fill:none;stroke:#000;stroke-width:1px"/><text style="font-family:'ArialMT','Arial',sans-serif;font-size:13.144px" transform="matrix(1.32473 0 0 1.32473 434 113)">id_reply</text><path d="M429 119h113v22H429z" style="fill:none;stroke:#000;stroke-width:1px"/><text style="font-family:'ArialMT','Arial',sans-serif;font-size:13.144px" transform="matrix(1.32473 0 0 1.32473 434 134)">id_mailbox</text><path d="M429 140h113v22H429z" style="fill:none;stroke:#000;stroke-width:1px"/><text style="font-family:'ArialMT','Arial',sans-serif;font-size:13.144px" transform="matrix(1.32473 0 0 1.32473 434 156)">id_user</text><path d="M429 163h113v22H429z" style="fill:none;stroke:#000;stroke-width:1px"/><text style="font-family:'ArialMT','Arial',sans-serif;font-size:13.144px" transform="matrix(1.32473 0 0 1.32473 434 178)">usertype</text><path d="M429 184h113v22H429z" style="fill:none;stroke:#000;stroke-width:1px"/><text style="font-family:'ArialMT','Arial',sans-serif;font-size:13.144px" transform="matrix(1.32473 0 0 1.32473 434 200)">message</text><path d="M429 207h113v21H429z" style="fill:none;stroke:#000;stroke-width:1px"/><text style="font-family:'ArialMT','Arial',sans-serif;font-size:13.144px" transform="matrix(1.32473 0 0 1.32473 434 221)">createdAt</text></g><g><path d="M293 677h87v22h-87z" style="fill:#007;stroke:#000;stroke-width:1px"/><text style="font-family:'ArialMT','Arial',sans-serif;font-size:13.144px;fill:#fff" transform="matrix(1.32473 0 0 1.32473 299 692)">states</text><path d="M293 699h87v21h-87z" style="fill:#aea;stroke:#000;stroke-width:1px"/><text style="font-family:'ArialMT','Arial',sans-serif;font-size:13.144px" transform="matrix(1.32473 0 0 1.32473 299 714)">id</text><path d="M293 721h87v22h-87z" style="fill:none;stroke:#000;stroke-width:1px"/><text style="font-family:'ArialMT','Arial',sans-serif;font-size:13.144px" transform="matrix(1.32473 0 0 1.32473 299 736)">name</text><path d="M293 742h87v22h-87z" style="fill:none;stroke:#000;stroke-width:1px"/><text style="font-family:'ArialMT','Arial',sans-serif;font-size:13.144px" transform="matrix(1.32473 0 0 1.32473 299 758)">country_id</text></g><g><path d="M50 467h104v22H50z" style="fill:#007;stroke:#000;stroke-width:1px"/><text style="font-family:'ArialMT','Arial',sans-serif;font-size:13.144px;fill:#fff" transform="matrix(1.32473 0 0 1.32473 55 483)">users</text><path d="M50 490h104v21H50z" style="fill:#aea;stroke:#000;stroke-width:1px"/><text style="font-family:'ArialMT','Arial',sans-serif;font-size:13.144px" transform="matrix(1.32473 0 0 1.32473 55 504)">id_user</text><path d="M50 511h104v22H50z" style="fill:none;stroke:#000;stroke-width:1px"/><text style="font-family:'ArialMT','Arial',sans-serif;font-size:13.144px" transform="matrix(1.32473 0 0 1.32473 55 526)">ﬁrstname</text><path d="M50 533h104v22H50z" style="fill:none;stroke:#000;stroke-width:1px"/><text style="font-family:'ArialMT','Arial',sans-serif;font-size:13.144px" transform="matrix(1.32473 0 0 1.32473 55 548)">lastname</text><path d="M50 555h104v21H50z" style="fill:none;stroke:#000;stroke-width:1px"/><text style="font-family:'ArialMT','Arial',sans-serif;font-size:13.144px" transform="matrix(1.32473 0 0 1.32473 55 570)">email</text><path d="M50 576h104v22H50z" style="fill:none;stroke:#000;stroke-width:1px"/><text style="font-family:'ArialMT','Arial',sans-serif;font-size:13.144px" transform="matrix(1.32473 0 0 1.32473 55 591)">password</text><path d="M50 598h104v22H50z" style="fill:none;stroke:#000;stroke-width:1px"/><text style="font-family:'ArialMT','Arial',sans-serif;font-size:13.144px" transform="matrix(1.32473 0 0 1.32473 55 613)">address</text><path d="M50 619h104v22H50z" style="fill:none;stroke:#000;stroke-width:1px"/><text style="font-family:'ArialMT','Arial',sans-serif;font-size:13.144px" transform="matrix(1.32473 0 0 1.32473 55 635)">city</text><path d="M50 642h104v22H50z" style="fill:none;stroke:#000;stroke-width:1px"/><text style="font-family:'ArialMT','Arial',sans-serif;font-size:13.144px" transform="matrix(1.32473 0 0 1.32473 55 657)">state</text><path d="M50 663h104v22H50z" style="fill:none;stroke:#000;stroke-width:1px"/><text style="font-family:'ArialMT','Arial',sans-serif;font-size:13.144px" transform="matrix(1.32473 0 0 1.32473 55 679)">contactno</text><path d="M50 686h104v21H50z" style="fill:none;stroke:#000;stroke-width:1px"/><text style="font-family:'ArialMT','Arial',sans-serif;font-size:13.144px" transform="matrix(1.32473 0 0 1.32473 55 700)">qualiﬁcation</text><path d="M50 707h104v22H50z" style="fill:none;stroke:#000;stroke-width:1px"/><text style="font-family:'ArialMT','Arial',sans-serif;font-size:13.144px" transform="matrix(1.32473 0 0 1.32473 55 722)">stream</text><path d="M50 728h104v22H50z" style="fill:none;stroke:#000;stroke-width:1px"/><text style="font-family:'ArialMT','Arial',sans-serif;font-size:13.144px" transform="matrix(1.32473 0 0 1.32473 55 744)">passingyear</text><path d="M50 751h104v21H50z" style="fill:none;stroke:#000;stroke-width:1px"/><text style="font-family:'ArialMT','Arial',sans-serif;font-size:13.144px" transform="matrix(1.32473 0 0 1.32473 55 766)">dob</text><path d="M50 772h104v22H50z" style="fill:none;stroke:#000;stroke-width:1px"/><text style="font-family:'ArialMT','Arial',sans-serif;font-size:13.144px" transform="matrix(1.32473 0 0 1.32473 55 787)">age</text><path d="M50 794h104v22H50z" style="fill:none;stroke:#000;stroke-width:1px"/><text style="font-family:'ArialMT','Arial',sans-serif;font-size:13.144px" transform="matrix(1.32473 0 0 1.32473 55 809)">designation</text><path d="M50 816h104v21H50z" style="fill:none;stroke:#000;stroke-width:1px"/><text style="font-family:'ArialMT','Arial',sans-serif;font-size:13.144px" transform="matrix(1.32473 0 0 1.32473 55 831)">resume</text><path d="M50 838h104v22H50z" style="fill:none;stroke:#000;stroke-width:1px"/><text style="font-family:'ArialMT','Arial',sans-serif;font-size:13.144px" transform="matrix(1.32473 0 0 1.32473 55 853)">hash</text><path d="M50 859h104v22H50z" style="fill:none;stroke:#000;stroke-width:1px"/><text style="font-family:'ArialMT','Arial',sans-serif;font-size:13.144px" transform="matrix(1.32473 0 0 1.32473 55 874)">active</text><path d="M50 880h104v22H50z" style="fill:none;stroke:#000;stroke-width:1px"/><text style="font-family:'ArialMT','Arial',sans-serif;font-size:13.144px" transform="matrix(1.32473 0 0 1.32473 55 896)">aboutme</text><path d="M50 903h104v22H50z" style="fill:none;stroke:#000;stroke-width:1px"/><text style="font-family:'ArialMT','Arial',sans-serif;font-size:13.144px" transform="matrix(1.32473 0 0 1.32473 55 918)">skills</text></g></g></g></svg>