<?xml version="1.0" encoding="UTF-8" standalone="no"?>
<!DOCTYPE svg PUBLIC "-//W3C//DTD SVG 1.1//EN" "http://www.w3.org/Graphics/SVG/1.1/DTD/svg11.dtd">
<svg width="100%" height="100%" viewBox="0 0 1500 1000" version="1.1" xmlns="http://www.w3.org/2000/svg" xmlns:xlink="http://www.w3.org/1999/xlink" xml:space="preserve" xmlns:serif="http://www.serif.com/" style="fill-rule:evenodd;clip-rule:evenodd;stroke-linecap:square;stroke-linejoin:round;">
    <g transform="matrix(2.09644,0,0,2.09644,-20.4403,-48.218)">
        <g transform="matrix(0.914077,0,0,0.914077,10.1426,8.22669)">
            <g transform="matrix(1.01921,0,0,0.905969,-0.4295,16.162)">
                <rect x="0" y="0" width="768" height="576" style="fill:white;fill-rule:nonzero;"/>
            </g>
            <g transform="matrix(1,0,0,1,0,-38)">
                <rect x="96" y="69.12" width="595.2" height="443.52" style="fill:white;fill-rule:nonzero;"/>
            </g>
            <g transform="matrix(1,0,0,1,0,-38)">
                <clipPath id="_clip1">
                    <rect x="96" y="69.12" width="595.2" height="443.52"/>
                </clipPath>
                <g clip-path="url(#_clip1)">
                    <path d="M96,512.64L96,69.12" style="fill:none;fill-rule:nonzero;stroke:rgb(176,176,176);stroke-width:1.07px;"/>
                </g>
            </g>
            <g id="b" transform="matrix(1,0,0,1,96,474.64)">
                <path d="M0,0L0,4.667" style="fill:none;fill-rule:nonzero;stroke:black;stroke-width:1.07px;stroke-linecap:butt;"/>
            </g>
            <g id="c" transform="matrix(0.1,0,0,-0.1,87.5173,494.104)">
                <path d="M42.375,88.541C35.61,88.541 30.52,85.208 27.104,78.541C23.701,71.889 22,61.875 22,48.5C22,35.181 23.701,25.188 27.104,18.521C30.521,11.855 35.611,8.521 42.375,8.521C49.194,8.521 54.305,11.855 57.708,18.521C61.125,25.188 62.833,35.181 62.833,48.5C62.833,61.875 61.125,71.889 57.708,78.541C54.305,85.208 49.194,88.541 42.375,88.541ZM42.375,98.959C53.278,98.959 61.604,94.646 67.355,86.021C73.104,77.41 75.979,64.903 75.979,48.5C75.979,32.139 73.104,19.646 67.355,11.02C61.604,2.409 53.277,-1.896 42.375,-1.896C31.486,-1.896 23.167,2.41 17.417,11.021C11.666,19.646 8.791,32.139 8.791,48.5C8.791,64.903 11.666,77.409 17.417,86.02C23.166,94.647 31.484,98.96 42.373,98.96L42.375,98.959Z" style="fill-rule:nonzero;"/>
            </g>
            <g id="d" transform="matrix(0.1,0,0,-0.1,96.0004,494.104)">
                <path d="M16.541,11.063L38.021,11.063L38.021,85.229L14.645,80.541L14.645,92.521L37.896,97.208L51.043,97.208L51.043,11.061L72.52,11.061L72.52,0L16.541,0L16.541,11.063Z" style="fill-rule:nonzero;"/>
            </g>
            <g transform="matrix(0.1,0,0,-0.1,83.4213,509.035)">
                <path d="M13.084,97.208L32.688,97.208L57.479,31.061L82.416,97.208L102.021,97.208L102.021,0L89.187,0L89.187,85.355L64.124,18.688L50.915,18.688L25.853,85.355L25.853,0L13.084,0L13.084,97.208Z" style="fill-rule:nonzero;"/>
            </g>
            <g id="e" transform="matrix(0.1,0,0,-0.1,94.9252,509.035)">
                <path d="M45.708,36.645C36.028,36.645 29.32,35.541 25.584,33.333C21.847,31.125 19.979,27.348 19.979,22C19.979,17.75 21.382,14.375 24.188,11.875C26.993,9.388 30.799,8.145 35.604,8.145C42.257,8.145 47.591,10.5 51.604,15.208C55.618,19.916 57.625,26.173 57.625,33.979L57.625,36.645L45.708,36.645ZM69.604,41.605L69.604,0L57.627,0L57.627,11.063C54.889,6.646 51.479,3.382 47.396,1.271C43.312,-0.84 38.32,-1.896 32.417,-1.896C24.959,-1.896 19.021,0.201 14.604,4.396C10.201,8.591 8,14.202 8,21.229C8,29.424 10.743,35.604 16.229,39.771C21.729,43.938 29.923,46.021 40.812,46.021L57.625,46.021L57.625,47.208C57.625,52.722 55.813,56.986 52.188,60C48.563,63.013 43.473,64.52 36.917,64.52C32.75,64.52 28.688,64.02 24.729,63.021C20.784,62.021 16.993,60.521 13.355,58.521L13.355,69.604C17.729,71.298 21.979,72.562 26.104,73.396C30.228,74.243 34.242,74.667 38.145,74.667C48.701,74.667 56.583,71.931 61.792,66.459C67.001,61.001 69.605,52.716 69.605,41.605L69.604,41.605Z" style="fill-rule:nonzero;"/>
            </g>
            <g id="f" transform="matrix(0.1,0,0,-0.1,103.096,509.035)">
                <path d="M54.813,61.729C53.466,62.507 52,63.076 50.417,63.437C48.832,63.812 47.089,64 45.187,64C38.409,64 33.208,61.799 29.583,57.396C25.957,52.993 24.144,46.667 24.144,38.417L24.144,0L12.107,0L12.107,72.917L24.147,72.917L24.147,61.584C26.675,66.014 29.952,69.299 33.98,71.437C38.021,73.59 42.93,74.667 48.708,74.667C49.528,74.667 50.437,74.611 51.437,74.5C52.437,74.402 53.541,74.242 54.749,74.02L54.813,61.729Z" style="fill-rule:nonzero;"/>
            </g>
            <g id="g" transform="matrix(0.1,0,0,-0.1,79.0333,523.965)">
                <path d="M25.584,11.063L71.479,11.063L71.479,0L9.773,0L9.773,11.063C14.759,16.229 21.557,23.16 30.168,31.855C38.793,40.563 44.21,46.181 46.419,48.708C50.627,53.431 53.564,57.431 55.231,60.708C56.911,63.986 57.751,67.208 57.751,70.375C57.751,75.542 55.938,79.75 52.313,83C48.688,86.264 43.966,87.896 38.147,87.896C34.022,87.896 29.668,87.18 25.084,85.749C20.515,84.319 15.626,82.146 10.417,79.229L10.417,92.521C15.71,94.645 20.654,96.249 25.251,97.333C29.862,98.417 34.078,98.959 37.897,98.959C47.967,98.959 55.994,96.438 61.98,91.396C67.967,86.368 70.96,79.646 70.96,71.229C70.96,67.229 70.21,63.438 68.709,59.855C67.223,56.285 64.501,52.069 60.543,47.208C59.46,45.944 56.009,42.305 50.189,36.292C44.383,30.278 36.182,21.868 25.585,11.063L25.584,11.063Z" style="fill-rule:nonzero;"/>
            </g>
            <g id="c1" serif:id="c" transform="matrix(0.1,0,0,-0.1,87.5164,523.965)">
                <path d="M42.375,88.541C35.61,88.541 30.52,85.208 27.104,78.541C23.701,71.889 22,61.875 22,48.5C22,35.181 23.701,25.188 27.104,18.521C30.521,11.855 35.611,8.521 42.375,8.521C49.194,8.521 54.305,11.855 57.708,18.521C61.125,25.188 62.833,35.181 62.833,48.5C62.833,61.875 61.125,71.889 57.708,78.541C54.305,85.208 49.194,88.541 42.375,88.541ZM42.375,98.959C53.278,98.959 61.604,94.646 67.355,86.021C73.104,77.41 75.979,64.903 75.979,48.5C75.979,32.139 73.104,19.646 67.355,11.02C61.604,2.409 53.277,-1.896 42.375,-1.896C31.486,-1.896 23.167,2.41 17.417,11.021C11.666,19.646 8.791,32.139 8.791,48.5C8.791,64.903 11.666,77.409 17.417,86.02C23.166,94.647 31.484,98.96 42.373,98.96L42.375,98.959Z" style="fill-rule:nonzero;"/>
            </g>
            <g id="g1" serif:id="g" transform="matrix(0.1,0,0,-0.1,95.9995,523.965)">
                <path d="M25.584,11.063L71.479,11.063L71.479,0L9.773,0L9.773,11.063C14.759,16.229 21.557,23.16 30.168,31.855C38.793,40.563 44.21,46.181 46.419,48.708C50.627,53.431 53.564,57.431 55.231,60.708C56.911,63.986 57.751,67.208 57.751,70.375C57.751,75.542 55.938,79.75 52.313,83C48.688,86.264 43.966,87.896 38.147,87.896C34.022,87.896 29.668,87.18 25.084,85.749C20.515,84.319 15.626,82.146 10.417,79.229L10.417,92.521C15.71,94.645 20.654,96.249 25.251,97.333C29.862,98.417 34.078,98.959 37.897,98.959C47.967,98.959 55.994,96.438 61.98,91.396C67.967,86.368 70.96,79.646 70.96,71.229C70.96,67.229 70.21,63.438 68.709,59.855C67.223,56.285 64.501,52.069 60.543,47.208C59.46,45.944 56.009,42.305 50.189,36.292C44.383,30.278 36.182,21.868 25.585,11.063L25.584,11.063Z" style="fill-rule:nonzero;"/>
            </g>
            <g id="c2" serif:id="c" transform="matrix(0.1,0,0,-0.1,104.483,523.965)">
                <path d="M42.375,88.541C35.61,88.541 30.52,85.208 27.104,78.541C23.701,71.889 22,61.875 22,48.5C22,35.181 23.701,25.188 27.104,18.521C30.521,11.855 35.611,8.521 42.375,8.521C49.194,8.521 54.305,11.855 57.708,18.521C61.125,25.188 62.833,35.181 62.833,48.5C62.833,61.875 61.125,71.889 57.708,78.541C54.305,85.208 49.194,88.541 42.375,88.541ZM42.375,98.959C53.278,98.959 61.604,94.646 67.355,86.021C73.104,77.41 75.979,64.903 75.979,48.5C75.979,32.139 73.104,19.646 67.355,11.02C61.604,2.409 53.277,-1.896 42.375,-1.896C31.486,-1.896 23.167,2.41 17.417,11.021C11.666,19.646 8.791,32.139 8.791,48.5C8.791,64.903 11.666,77.409 17.417,86.02C23.166,94.647 31.484,98.96 42.373,98.96L42.375,98.959Z" style="fill-rule:nonzero;"/>
            </g>
            <g transform="matrix(1,0,0,1,0,-38)">
                <clipPath id="_clip2">
                    <rect x="96" y="69.12" width="595.2" height="443.52"/>
                </clipPath>
                <g clip-path="url(#_clip2)">
                    <path d="M691.2,512.64L691.2,69.12" style="fill:none;fill-rule:nonzero;stroke:rgb(176,176,176);stroke-width:1.07px;"/>
                </g>
            </g>
            <g id="b1" serif:id="b" transform="matrix(1,0,0,1,691.2,474.64)">
                <path d="M0,0L0,4.667" style="fill:none;fill-rule:nonzero;stroke:black;stroke-width:1.07px;stroke-linecap:butt;"/>
            </g>
            <g id="g2" serif:id="g" transform="matrix(0.1,0,0,-0.1,682.717,494.104)">
                <path d="M25.584,11.063L71.479,11.063L71.479,0L9.773,0L9.773,11.063C14.759,16.229 21.557,23.16 30.168,31.855C38.793,40.563 44.21,46.181 46.419,48.708C50.627,53.431 53.564,57.431 55.231,60.708C56.911,63.986 57.751,67.208 57.751,70.375C57.751,75.542 55.938,79.75 52.313,83C48.688,86.264 43.966,87.896 38.147,87.896C34.022,87.896 29.668,87.18 25.084,85.749C20.515,84.319 15.626,82.146 10.417,79.229L10.417,92.521C15.71,94.645 20.654,96.249 25.251,97.333C29.862,98.417 34.078,98.959 37.897,98.959C47.967,98.959 55.994,96.438 61.98,91.396C67.967,86.368 70.96,79.646 70.96,71.229C70.96,67.229 70.21,63.438 68.709,59.855C67.223,56.285 64.501,52.069 60.543,47.208C59.46,45.944 56.009,42.305 50.189,36.292C44.383,30.278 36.182,21.868 25.585,11.063L25.584,11.063Z" style="fill-rule:nonzero;"/>
            </g>
            <g id="h" transform="matrix(0.1,0,0,-0.1,691.2,494.104)">
                <path d="M10.937,97.208L73.437,97.208L73.437,91.604L38.147,0L24.416,0L57.627,86.125L10.937,86.125L10.937,97.208Z" style="fill-rule:nonzero;"/>
            </g>
            <g id="i" transform="matrix(1,0,0,1,96,474.64)">
                <path d="M0,0L0,2.667" style="fill:none;fill-rule:nonzero;stroke:black;stroke-width:0.8px;stroke-linecap:butt;"/>
            </g>
            <g id="i1" serif:id="i" transform="matrix(1,0,0,1,118.892,474.64)">
                <path d="M0,0L0,2.667" style="fill:none;fill-rule:nonzero;stroke:black;stroke-width:0.8px;stroke-linecap:butt;"/>
            </g>
            <g id="c3" serif:id="c" transform="matrix(0.1,0,0,-0.1,110.409,491.971)">
                <path d="M42.375,88.541C35.61,88.541 30.52,85.208 27.104,78.541C23.701,71.889 22,61.875 22,48.5C22,35.181 23.701,25.188 27.104,18.521C30.521,11.855 35.611,8.521 42.375,8.521C49.194,8.521 54.305,11.855 57.708,18.521C61.125,25.188 62.833,35.181 62.833,48.5C62.833,61.875 61.125,71.889 57.708,78.541C54.305,85.208 49.194,88.541 42.375,88.541ZM42.375,98.959C53.278,98.959 61.604,94.646 67.355,86.021C73.104,77.41 75.979,64.903 75.979,48.5C75.979,32.139 73.104,19.646 67.355,11.02C61.604,2.409 53.277,-1.896 42.375,-1.896C31.486,-1.896 23.167,2.41 17.417,11.021C11.666,19.646 8.791,32.139 8.791,48.5C8.791,64.903 11.666,77.409 17.417,86.02C23.166,94.647 31.484,98.96 42.373,98.96L42.375,98.959Z" style="fill-rule:nonzero;"/>
            </g>
            <g id="g3" serif:id="g" transform="matrix(0.1,0,0,-0.1,118.892,491.971)">
                <path d="M25.584,11.063L71.479,11.063L71.479,0L9.773,0L9.773,11.063C14.759,16.229 21.557,23.16 30.168,31.855C38.793,40.563 44.21,46.181 46.419,48.708C50.627,53.431 53.564,57.431 55.231,60.708C56.911,63.986 57.751,67.208 57.751,70.375C57.751,75.542 55.938,79.75 52.313,83C48.688,86.264 43.966,87.896 38.147,87.896C34.022,87.896 29.668,87.18 25.084,85.749C20.515,84.319 15.626,82.146 10.417,79.229L10.417,92.521C15.71,94.645 20.654,96.249 25.251,97.333C29.862,98.417 34.078,98.959 37.897,98.959C47.967,98.959 55.994,96.438 61.98,91.396C67.967,86.368 70.96,79.646 70.96,71.229C70.96,67.229 70.21,63.438 68.709,59.855C67.223,56.285 64.501,52.069 60.543,47.208C59.46,45.944 56.009,42.305 50.189,36.292C44.383,30.278 36.182,21.868 25.585,11.063L25.584,11.063Z" style="fill-rule:nonzero;"/>
            </g>
            <g id="i2" serif:id="i" transform="matrix(1,0,0,1,141.784,474.64)">
                <path d="M0,0L0,2.667" style="fill:none;fill-rule:nonzero;stroke:black;stroke-width:0.8px;stroke-linecap:butt;"/>
            </g>
            <g id="c4" serif:id="c" transform="matrix(0.1,0,0,-0.1,133.301,491.971)">
                <path d="M42.375,88.541C35.61,88.541 30.52,85.208 27.104,78.541C23.701,71.889 22,61.875 22,48.5C22,35.181 23.701,25.188 27.104,18.521C30.521,11.855 35.611,8.521 42.375,8.521C49.194,8.521 54.305,11.855 57.708,18.521C61.125,25.188 62.833,35.181 62.833,48.5C62.833,61.875 61.125,71.889 57.708,78.541C54.305,85.208 49.194,88.541 42.375,88.541ZM42.375,98.959C53.278,98.959 61.604,94.646 67.355,86.021C73.104,77.41 75.979,64.903 75.979,48.5C75.979,32.139 73.104,19.646 67.355,11.02C61.604,2.409 53.277,-1.896 42.375,-1.896C31.486,-1.896 23.167,2.41 17.417,11.021C11.666,19.646 8.791,32.139 8.791,48.5C8.791,64.903 11.666,77.409 17.417,86.02C23.166,94.647 31.484,98.96 42.373,98.96L42.375,98.959Z" style="fill-rule:nonzero;"/>
            </g>
            <g id="j" transform="matrix(0.1,0,0,-0.1,141.784,491.971)">
                <path d="M54.104,52.417C60.396,51.07 65.305,48.264 68.833,44C72.375,39.75 74.145,34.5 74.145,28.249C74.145,18.667 70.847,11.244 64.249,5.979C57.653,0.729 48.278,-1.896 36.125,-1.896C32.056,-1.896 27.861,-1.493 23.541,-0.688C19.221,0.118 14.763,1.327 10.167,2.939L10.167,15.625C13.806,13.501 17.792,11.896 22.125,10.812C26.472,9.729 31.013,9.188 35.749,9.188C43.986,9.188 50.264,10.813 54.583,14.063C58.903,17.312 61.063,22.041 61.063,28.249C61.063,33.986 59.056,38.466 55.041,41.688C51.028,44.924 45.445,46.541 38.292,46.541L26.959,46.541L26.959,57.355L38.812,57.355C45.271,57.355 50.215,58.646 53.645,61.229C57.076,63.812 58.792,67.535 58.792,72.396C58.792,77.383 57.021,81.209 53.479,83.876C49.952,86.556 44.889,87.896 38.292,87.896C34.68,87.896 30.812,87.5 26.688,86.709C22.563,85.931 18.028,84.722 13.084,83.083L13.084,94.792C18.083,96.18 22.763,97.222 27.124,97.917C31.486,98.611 35.597,98.957 39.457,98.957C49.444,98.957 57.34,96.687 63.145,92.145C68.965,87.618 71.875,81.494 71.875,73.772C71.875,68.383 70.333,63.834 67.251,60.125C64.166,56.417 59.784,53.847 54.104,52.416L54.104,52.417Z" style="fill-rule:nonzero;"/>
            </g>
            <g id="i3" serif:id="i" transform="matrix(1,0,0,1,164.677,474.64)">
                <path d="M0,0L0,2.667" style="fill:none;fill-rule:nonzero;stroke:black;stroke-width:0.8px;stroke-linecap:butt;"/>
            </g>
            <g id="c5" serif:id="c" transform="matrix(0.1,0,0,-0.1,156.193,491.971)">
                <path d="M42.375,88.541C35.61,88.541 30.52,85.208 27.104,78.541C23.701,71.889 22,61.875 22,48.5C22,35.181 23.701,25.188 27.104,18.521C30.521,11.855 35.611,8.521 42.375,8.521C49.194,8.521 54.305,11.855 57.708,18.521C61.125,25.188 62.833,35.181 62.833,48.5C62.833,61.875 61.125,71.889 57.708,78.541C54.305,85.208 49.194,88.541 42.375,88.541ZM42.375,98.959C53.278,98.959 61.604,94.646 67.355,86.021C73.104,77.41 75.979,64.903 75.979,48.5C75.979,32.139 73.104,19.646 67.355,11.02C61.604,2.409 53.277,-1.896 42.375,-1.896C31.486,-1.896 23.167,2.41 17.417,11.021C11.666,19.646 8.791,32.139 8.791,48.5C8.791,64.903 11.666,77.409 17.417,86.02C23.166,94.647 31.484,98.96 42.373,98.96L42.375,98.959Z" style="fill-rule:nonzero;"/>
            </g>
            <g id="k" transform="matrix(0.1,0,0,-0.1,164.676,491.971)">
                <path d="M50.396,85.751L17.187,33.853L50.395,33.853L50.396,85.751ZM46.937,97.208L63.48,97.208L63.48,33.855L77.356,33.855L77.356,22.917L63.479,22.917L63.479,0L50.396,0L50.396,22.917L6.52,22.917L6.52,35.604L46.937,97.208Z" style="fill-rule:nonzero;"/>
            </g>
            <g id="i4" serif:id="i" transform="matrix(1,0,0,1,187.569,474.64)">
                <path d="M0,0L0,2.667" style="fill:none;fill-rule:nonzero;stroke:black;stroke-width:0.8px;stroke-linecap:butt;"/>
            </g>
            <g id="c6" serif:id="c" transform="matrix(0.1,0,0,-0.1,179.085,491.971)">
                <path d="M42.375,88.541C35.61,88.541 30.52,85.208 27.104,78.541C23.701,71.889 22,61.875 22,48.5C22,35.181 23.701,25.188 27.104,18.521C30.521,11.855 35.611,8.521 42.375,8.521C49.194,8.521 54.305,11.855 57.708,18.521C61.125,25.188 62.833,35.181 62.833,48.5C62.833,61.875 61.125,71.889 57.708,78.541C54.305,85.208 49.194,88.541 42.375,88.541ZM42.375,98.959C53.278,98.959 61.604,94.646 67.355,86.021C73.104,77.41 75.979,64.903 75.979,48.5C75.979,32.139 73.104,19.646 67.355,11.02C61.604,2.409 53.277,-1.896 42.375,-1.896C31.486,-1.896 23.167,2.41 17.417,11.021C11.666,19.646 8.791,32.139 8.791,48.5C8.791,64.903 11.666,77.409 17.417,86.02C23.166,94.647 31.484,98.96 42.373,98.96L42.375,98.959Z" style="fill-rule:nonzero;"/>
            </g>
            <g id="l" transform="matrix(0.1,0,0,-0.1,187.568,491.971)">
                <path d="M14.396,97.208L66.021,97.208L66.021,86.125L26.437,86.125L26.437,62.312C28.34,62.965 30.242,63.452 32.145,63.771C34.063,64.091 35.98,64.251 37.896,64.251C48.743,64.251 57.333,61.278 63.667,55.333C70.013,49.388 73.187,41.34 73.187,31.187C73.187,20.729 69.93,12.597 63.416,6.792C56.902,1 47.722,-1.896 35.875,-1.896C31.792,-1.896 27.632,-1.549 23.395,-0.855C19.172,-0.16 14.805,0.882 10.292,2.271L10.292,15.5C14.194,13.376 18.229,11.792 22.396,10.749C26.562,9.708 30.965,9.188 35.604,9.188C43.118,9.188 49.062,11.16 53.437,15.104C57.827,19.049 60.021,24.41 60.021,31.188C60.021,37.952 57.827,43.306 53.437,47.251C49.062,51.209 43.118,53.188 35.604,53.188C32.09,53.188 28.584,52.799 25.084,52.021C21.598,51.244 18.035,50.028 14.396,48.375L14.396,97.208Z" style="fill-rule:nonzero;"/>
            </g>
            <g id="i5" serif:id="i" transform="matrix(1,0,0,1,210.461,474.64)">
                <path d="M0,0L0,2.667" style="fill:none;fill-rule:nonzero;stroke:black;stroke-width:0.8px;stroke-linecap:butt;"/>
            </g>
            <g id="c7" serif:id="c" transform="matrix(0.1,0,0,-0.1,201.979,491.971)">
                <path d="M42.375,88.541C35.61,88.541 30.52,85.208 27.104,78.541C23.701,71.889 22,61.875 22,48.5C22,35.181 23.701,25.188 27.104,18.521C30.521,11.855 35.611,8.521 42.375,8.521C49.194,8.521 54.305,11.855 57.708,18.521C61.125,25.188 62.833,35.181 62.833,48.5C62.833,61.875 61.125,71.889 57.708,78.541C54.305,85.208 49.194,88.541 42.375,88.541ZM42.375,98.959C53.278,98.959 61.604,94.646 67.355,86.021C73.104,77.41 75.979,64.903 75.979,48.5C75.979,32.139 73.104,19.646 67.355,11.02C61.604,2.409 53.277,-1.896 42.375,-1.896C31.486,-1.896 23.167,2.41 17.417,11.021C11.666,19.646 8.791,32.139 8.791,48.5C8.791,64.903 11.666,77.409 17.417,86.02C23.166,94.647 31.484,98.96 42.373,98.96L42.375,98.959Z" style="fill-rule:nonzero;"/>
            </g>
            <g id="m" transform="matrix(0.1,0,0,-0.1,210.462,491.971)">
                <path d="M44.021,53.833C38.118,53.833 33.437,51.812 29.979,47.771C26.534,43.743 24.812,38.216 24.812,31.188C24.812,24.201 26.534,18.673 29.979,14.604C33.437,10.549 38.118,8.521 44.021,8.521C49.924,8.521 54.597,10.549 58.041,14.604C61.486,18.673 63.208,24.201 63.208,31.188C63.208,38.216 61.486,43.743 58.041,47.771C54.597,51.812 49.924,53.833 44.021,53.833ZM70.125,95.063L70.125,83.084C66.82,84.64 63.486,85.827 60.125,86.645C56.764,87.479 53.43,87.896 50.125,87.896C41.444,87.896 34.812,84.965 30.229,79.104C25.66,73.243 23.049,64.388 22.396,52.541C24.952,56.319 28.16,59.215 32.021,61.229C35.896,63.244 40.153,64.251 44.792,64.251C54.556,64.251 62.271,61.285 67.939,55.355C73.604,49.437 76.437,41.382 76.437,31.188C76.437,21.201 73.486,13.187 67.584,7.145C61.681,1.119 53.827,-1.895 44.021,-1.895C32.771,-1.895 24.173,2.411 18.229,11.021C12.284,19.646 9.312,32.139 9.312,48.5C9.312,63.861 12.958,76.111 20.251,85.251C27.542,94.388 37.327,98.957 49.604,98.957C52.91,98.957 56.243,98.631 59.604,97.979C62.965,97.326 66.472,96.354 70.124,95.063L70.125,95.063Z" style="fill-rule:nonzero;"/>
            </g>
            <g id="i6" serif:id="i" transform="matrix(1,0,0,1,233.353,474.64)">
                <path d="M0,0L0,2.667" style="fill:none;fill-rule:nonzero;stroke:black;stroke-width:0.8px;stroke-linecap:butt;"/>
            </g>
            <g id="c8" serif:id="c" transform="matrix(0.1,0,0,-0.1,224.871,491.971)">
                <path d="M42.375,88.541C35.61,88.541 30.52,85.208 27.104,78.541C23.701,71.889 22,61.875 22,48.5C22,35.181 23.701,25.188 27.104,18.521C30.521,11.855 35.611,8.521 42.375,8.521C49.194,8.521 54.305,11.855 57.708,18.521C61.125,25.188 62.833,35.181 62.833,48.5C62.833,61.875 61.125,71.889 57.708,78.541C54.305,85.208 49.194,88.541 42.375,88.541ZM42.375,98.959C53.278,98.959 61.604,94.646 67.355,86.021C73.104,77.41 75.979,64.903 75.979,48.5C75.979,32.139 73.104,19.646 67.355,11.02C61.604,2.409 53.277,-1.896 42.375,-1.896C31.486,-1.896 23.167,2.41 17.417,11.021C11.666,19.646 8.791,32.139 8.791,48.5C8.791,64.903 11.666,77.409 17.417,86.02C23.166,94.647 31.484,98.96 42.373,98.96L42.375,98.959Z" style="fill-rule:nonzero;"/>
            </g>
            <g id="h1" serif:id="h" transform="matrix(0.1,0,0,-0.1,233.354,491.971)">
                <path d="M10.937,97.208L73.437,97.208L73.437,91.604L38.147,0L24.416,0L57.627,86.125L10.937,86.125L10.937,97.208Z" style="fill-rule:nonzero;"/>
            </g>
            <g id="i7" serif:id="i" transform="matrix(1,0,0,1,256.247,474.64)">
                <path d="M0,0L0,2.667" style="fill:none;fill-rule:nonzero;stroke:black;stroke-width:0.8px;stroke-linecap:butt;"/>
            </g>
            <g id="c9" serif:id="c" transform="matrix(0.1,0,0,-0.1,247.763,491.971)">
                <path d="M42.375,88.541C35.61,88.541 30.52,85.208 27.104,78.541C23.701,71.889 22,61.875 22,48.5C22,35.181 23.701,25.188 27.104,18.521C30.521,11.855 35.611,8.521 42.375,8.521C49.194,8.521 54.305,11.855 57.708,18.521C61.125,25.188 62.833,35.181 62.833,48.5C62.833,61.875 61.125,71.889 57.708,78.541C54.305,85.208 49.194,88.541 42.375,88.541ZM42.375,98.959C53.278,98.959 61.604,94.646 67.355,86.021C73.104,77.41 75.979,64.903 75.979,48.5C75.979,32.139 73.104,19.646 67.355,11.02C61.604,2.409 53.277,-1.896 42.375,-1.896C31.486,-1.896 23.167,2.41 17.417,11.021C11.666,19.646 8.791,32.139 8.791,48.5C8.791,64.903 11.666,77.409 17.417,86.02C23.166,94.647 31.484,98.96 42.373,98.96L42.375,98.959Z" style="fill-rule:nonzero;"/>
            </g>
            <g id="n" transform="matrix(0.1,0,0,-0.1,256.246,491.971)">
                <path d="M42.375,46.167C36.125,46.167 31.208,44.493 27.625,41.145C24.056,37.799 22.271,33.202 22.271,27.355C22.271,21.493 24.056,16.889 27.625,13.541C31.208,10.195 36.124,8.521 42.373,8.521C48.624,8.521 53.548,10.201 57.144,13.561C60.756,16.937 62.561,21.535 62.561,27.355C62.561,33.202 60.77,37.799 57.187,41.145C53.617,44.493 48.679,46.167 42.373,46.167L42.375,46.167ZM29.228,51.751C23.59,53.139 19.194,55.764 16.041,59.625C12.903,63.501 11.333,68.216 11.333,73.772C11.333,81.535 14.097,87.673 19.625,92.188C25.167,96.702 32.75,98.959 42.375,98.959C52.055,98.959 59.652,96.702 65.167,92.188C70.68,87.673 73.437,81.534 73.437,73.771C73.437,68.215 71.861,63.5 68.708,59.624C65.569,55.764 61.201,53.139 55.604,51.749C61.937,50.277 66.868,47.388 70.396,43.083C73.937,38.791 75.708,33.548 75.708,27.355C75.708,17.924 72.833,10.687 67.084,5.645C61.333,0.618 53.096,-1.896 42.375,-1.896C31.666,-1.896 23.43,0.618 17.667,5.645C11.916,10.687 9.041,17.924 9.041,27.355C9.041,33.548 10.819,38.792 14.375,43.084C17.944,47.389 22.896,50.278 29.228,51.751ZM24.419,72.52C24.419,67.492 25.988,63.568 29.125,60.749C32.279,57.93 36.696,56.52 42.376,56.52C48.029,56.52 52.446,57.93 55.627,60.749C58.82,63.568 60.417,67.492 60.417,72.52C60.417,77.562 58.82,81.492 55.627,84.311C52.446,87.13 48.029,88.54 42.376,88.54C36.696,88.54 32.28,87.13 29.127,84.311C25.987,81.491 24.417,77.561 24.417,72.52L24.419,72.52Z" style="fill-rule:nonzero;"/>
            </g>
            <g id="i8" serif:id="i" transform="matrix(1,0,0,1,279.139,474.64)">
                <path d="M0,0L0,2.667" style="fill:none;fill-rule:nonzero;stroke:black;stroke-width:0.8px;stroke-linecap:butt;"/>
            </g>
            <g id="c10" serif:id="c" transform="matrix(0.1,0,0,-0.1,270.655,491.971)">
                <path d="M42.375,88.541C35.61,88.541 30.52,85.208 27.104,78.541C23.701,71.889 22,61.875 22,48.5C22,35.181 23.701,25.188 27.104,18.521C30.521,11.855 35.611,8.521 42.375,8.521C49.194,8.521 54.305,11.855 57.708,18.521C61.125,25.188 62.833,35.181 62.833,48.5C62.833,61.875 61.125,71.889 57.708,78.541C54.305,85.208 49.194,88.541 42.375,88.541ZM42.375,98.959C53.278,98.959 61.604,94.646 67.355,86.021C73.104,77.41 75.979,64.903 75.979,48.5C75.979,32.139 73.104,19.646 67.355,11.02C61.604,2.409 53.277,-1.896 42.375,-1.896C31.486,-1.896 23.167,2.41 17.417,11.021C11.666,19.646 8.791,32.139 8.791,48.5C8.791,64.903 11.666,77.409 17.417,86.02C23.166,94.647 31.484,98.96 42.373,98.96L42.375,98.959Z" style="fill-rule:nonzero;"/>
            </g>
            <g id="o" transform="matrix(0.1,0,0,-0.1,279.138,491.971)">
                <path d="M14.645,2.021L14.645,14C17.952,12.43 21.292,11.236 24.667,10.416C28.056,9.597 31.382,9.188 34.645,9.188C43.326,9.188 49.952,12.104 54.521,17.937C59.104,23.771 61.722,32.639 62.375,44.541C59.861,40.805 56.667,37.937 52.792,35.937C48.931,33.937 44.66,32.937 39.979,32.937C30.257,32.937 22.563,35.875 16.896,41.751C11.229,47.64 8.396,55.688 8.396,65.896C8.396,75.868 11.347,83.868 17.249,89.896C23.152,95.938 31.007,98.959 40.812,98.959C52.063,98.959 60.646,94.646 66.563,86.021C72.493,77.41 75.459,64.903 75.459,48.5C75.459,33.181 71.82,20.952 64.541,11.812C57.277,2.675 47.507,-1.893 35.229,-1.893C31.924,-1.893 28.576,-1.567 25.188,-0.915C21.813,-0.262 18.299,0.717 14.645,2.023L14.645,2.021ZM40.813,43.229C46.716,43.229 51.39,45.243 54.835,49.271C58.292,53.312 60.021,58.854 60.021,65.896C60.021,72.883 58.292,78.404 54.835,82.459C51.39,86.514 46.716,88.541 40.813,88.541C34.911,88.541 30.238,86.514 26.793,82.459C23.349,78.403 21.627,72.882 21.627,65.896C21.627,58.854 23.349,53.312 26.793,49.271C30.238,45.243 34.911,43.229 40.813,43.229Z" style="fill-rule:nonzero;"/>
            </g>
            <g id="i9" serif:id="i" transform="matrix(1,0,0,1,302.031,474.64)">
                <path d="M0,0L0,2.667" style="fill:none;fill-rule:nonzero;stroke:black;stroke-width:0.8px;stroke-linecap:butt;"/>
            </g>
            <g id="d1" serif:id="d" transform="matrix(0.1,0,0,-0.1,293.547,491.971)">
                <path d="M16.541,11.063L38.021,11.063L38.021,85.229L14.645,80.541L14.645,92.521L37.896,97.208L51.043,97.208L51.043,11.061L72.52,11.061L72.52,0L16.541,0L16.541,11.063Z" style="fill-rule:nonzero;"/>
            </g>
            <g id="c11" serif:id="c" transform="matrix(0.1,0,0,-0.1,302.03,491.971)">
                <path d="M42.375,88.541C35.61,88.541 30.52,85.208 27.104,78.541C23.701,71.889 22,61.875 22,48.5C22,35.181 23.701,25.188 27.104,18.521C30.521,11.855 35.611,8.521 42.375,8.521C49.194,8.521 54.305,11.855 57.708,18.521C61.125,25.188 62.833,35.181 62.833,48.5C62.833,61.875 61.125,71.889 57.708,78.541C54.305,85.208 49.194,88.541 42.375,88.541ZM42.375,98.959C53.278,98.959 61.604,94.646 67.355,86.021C73.104,77.41 75.979,64.903 75.979,48.5C75.979,32.139 73.104,19.646 67.355,11.02C61.604,2.409 53.277,-1.896 42.375,-1.896C31.486,-1.896 23.167,2.41 17.417,11.021C11.666,19.646 8.791,32.139 8.791,48.5C8.791,64.903 11.666,77.409 17.417,86.02C23.166,94.647 31.484,98.96 42.373,98.96L42.375,98.959Z" style="fill-rule:nonzero;"/>
            </g>
            <g id="i10" serif:id="i" transform="matrix(1,0,0,1,324.923,474.64)">
                <path d="M0,0L0,2.667" style="fill:none;fill-rule:nonzero;stroke:black;stroke-width:0.8px;stroke-linecap:butt;"/>
            </g>
            <g id="d2" serif:id="d" transform="matrix(0.1,0,0,-0.1,316.44,491.971)">
                <path d="M16.541,11.063L38.021,11.063L38.021,85.229L14.645,80.541L14.645,92.521L37.896,97.208L51.043,97.208L51.043,11.061L72.52,11.061L72.52,0L16.541,0L16.541,11.063Z" style="fill-rule:nonzero;"/>
            </g>
            <g id="d3" serif:id="d" transform="matrix(0.1,0,0,-0.1,324.923,491.971)">
                <path d="M16.541,11.063L38.021,11.063L38.021,85.229L14.645,80.541L14.645,92.521L37.896,97.208L51.043,97.208L51.043,11.061L72.52,11.061L72.52,0L16.541,0L16.541,11.063Z" style="fill-rule:nonzero;"/>
            </g>
            <g id="i11" serif:id="i" transform="matrix(1,0,0,1,347.816,474.64)">
                <path d="M0,0L0,2.667" style="fill:none;fill-rule:nonzero;stroke:black;stroke-width:0.8px;stroke-linecap:butt;"/>
            </g>
            <g transform="matrix(0.1,0,0,-0.1,339.332,491.971)">
                <path id="d4" serif:id="d" d="M16.541,11.063L38.021,11.063L38.021,85.229L14.645,80.541L14.645,92.521L37.896,97.208L51.043,97.208L51.043,11.061L72.52,11.061L72.52,0L16.541,0L16.541,11.063Z" style="fill-rule:nonzero;"/>
                <g id="g4" serif:id="g" transform="matrix(1,0,0,1,84.8307,0)">
                    <path d="M25.584,11.063L71.479,11.063L71.479,0L9.773,0L9.773,11.063C14.759,16.229 21.557,23.16 30.168,31.855C38.793,40.563 44.21,46.181 46.419,48.708C50.627,53.431 53.564,57.431 55.231,60.708C56.911,63.986 57.751,67.208 57.751,70.375C57.751,75.542 55.938,79.75 52.313,83C48.688,86.264 43.966,87.896 38.147,87.896C34.022,87.896 29.668,87.18 25.084,85.749C20.515,84.319 15.626,82.146 10.417,79.229L10.417,92.521C15.71,94.645 20.654,96.249 25.251,97.333C29.862,98.417 34.078,98.959 37.897,98.959C47.967,98.959 55.994,96.438 61.98,91.396C67.967,86.368 70.96,79.646 70.96,71.229C70.96,67.229 70.21,63.438 68.709,59.855C67.223,56.285 64.501,52.069 60.543,47.208C59.46,45.944 56.009,42.305 50.189,36.292C44.383,30.278 36.182,21.868 25.585,11.063L25.584,11.063Z" style="fill-rule:nonzero;"/>
                </g>
            </g>
            <g id="i12" serif:id="i" transform="matrix(1,0,0,1,370.708,474.64)">
                <path d="M0,0L0,2.667" style="fill:none;fill-rule:nonzero;stroke:black;stroke-width:0.8px;stroke-linecap:butt;"/>
            </g>
            <g transform="matrix(0.1,0,0,-0.1,362.224,491.971)">
                <path id="d5" serif:id="d" d="M16.541,11.063L38.021,11.063L38.021,85.229L14.645,80.541L14.645,92.521L37.896,97.208L51.043,97.208L51.043,11.061L72.52,11.061L72.52,0L16.541,0L16.541,11.063Z" style="fill-rule:nonzero;"/>
                <g id="j1" serif:id="j" transform="matrix(1,0,0,1,84.8307,0)">
                    <path d="M54.104,52.417C60.396,51.07 65.305,48.264 68.833,44C72.375,39.75 74.145,34.5 74.145,28.249C74.145,18.667 70.847,11.244 64.249,5.979C57.653,0.729 48.278,-1.896 36.125,-1.896C32.056,-1.896 27.861,-1.493 23.541,-0.688C19.221,0.118 14.763,1.327 10.167,2.939L10.167,15.625C13.806,13.501 17.792,11.896 22.125,10.812C26.472,9.729 31.013,9.188 35.749,9.188C43.986,9.188 50.264,10.813 54.583,14.063C58.903,17.312 61.063,22.041 61.063,28.249C61.063,33.986 59.056,38.466 55.041,41.688C51.028,44.924 45.445,46.541 38.292,46.541L26.959,46.541L26.959,57.355L38.812,57.355C45.271,57.355 50.215,58.646 53.645,61.229C57.076,63.812 58.792,67.535 58.792,72.396C58.792,77.383 57.021,81.209 53.479,83.876C49.952,86.556 44.889,87.896 38.292,87.896C34.68,87.896 30.812,87.5 26.688,86.709C22.563,85.931 18.028,84.722 13.084,83.083L13.084,94.792C18.083,96.18 22.763,97.222 27.124,97.917C31.486,98.611 35.597,98.957 39.457,98.957C49.444,98.957 57.34,96.687 63.145,92.145C68.965,87.618 71.875,81.494 71.875,73.772C71.875,68.383 70.333,63.834 67.251,60.125C64.166,56.417 59.784,53.847 54.104,52.416L54.104,52.417Z" style="fill-rule:nonzero;"/>
                </g>
            </g>
            <g id="i13" serif:id="i" transform="matrix(1,0,0,1,393.6,474.64)">
                <path d="M0,0L0,2.667" style="fill:none;fill-rule:nonzero;stroke:black;stroke-width:0.8px;stroke-linecap:butt;"/>
            </g>
            <g transform="matrix(0.1,0,0,-0.1,385.116,491.971)">
                <path id="d6" serif:id="d" d="M16.541,11.063L38.021,11.063L38.021,85.229L14.645,80.541L14.645,92.521L37.896,97.208L51.043,97.208L51.043,11.061L72.52,11.061L72.52,0L16.541,0L16.541,11.063Z" style="fill-rule:nonzero;"/>
                <g id="k1" serif:id="k" transform="matrix(1,0,0,1,84.8307,0)">
                    <path d="M50.396,85.751L17.187,33.853L50.395,33.853L50.396,85.751ZM46.937,97.208L63.48,97.208L63.48,33.855L77.356,33.855L77.356,22.917L63.479,22.917L63.479,0L50.396,0L50.396,22.917L6.52,22.917L6.52,35.604L46.937,97.208Z" style="fill-rule:nonzero;"/>
                </g>
            </g>
            <g id="i14" serif:id="i" transform="matrix(1,0,0,1,416.492,474.64)">
                <path d="M0,0L0,2.667" style="fill:none;fill-rule:nonzero;stroke:black;stroke-width:0.8px;stroke-linecap:butt;"/>
            </g>
            <g transform="matrix(0.1,0,0,-0.1,408.009,491.971)">
                <path id="d7" serif:id="d" d="M16.541,11.063L38.021,11.063L38.021,85.229L14.645,80.541L14.645,92.521L37.896,97.208L51.043,97.208L51.043,11.061L72.52,11.061L72.52,0L16.541,0L16.541,11.063Z" style="fill-rule:nonzero;"/>
                <g id="l1" serif:id="l" transform="matrix(1,0,0,1,84.8307,0)">
                    <path d="M14.396,97.208L66.021,97.208L66.021,86.125L26.437,86.125L26.437,62.312C28.34,62.965 30.242,63.452 32.145,63.771C34.063,64.091 35.98,64.251 37.896,64.251C48.743,64.251 57.333,61.278 63.667,55.333C70.013,49.388 73.187,41.34 73.187,31.187C73.187,20.729 69.93,12.597 63.416,6.792C56.902,1 47.722,-1.896 35.875,-1.896C31.792,-1.896 27.632,-1.549 23.395,-0.855C19.172,-0.16 14.805,0.882 10.292,2.271L10.292,15.5C14.194,13.376 18.229,11.792 22.396,10.749C26.562,9.708 30.965,9.188 35.604,9.188C43.118,9.188 49.062,11.16 53.437,15.104C57.827,19.049 60.021,24.41 60.021,31.188C60.021,37.952 57.827,43.306 53.437,47.251C49.062,51.209 43.118,53.188 35.604,53.188C32.09,53.188 28.584,52.799 25.084,52.021C21.598,51.244 18.035,50.028 14.396,48.375L14.396,97.208Z" style="fill-rule:nonzero;"/>
                </g>
            </g>
            <g id="i15" serif:id="i" transform="matrix(1,0,0,1,439.384,474.64)">
                <path d="M0,0L0,2.667" style="fill:none;fill-rule:nonzero;stroke:black;stroke-width:0.8px;stroke-linecap:butt;"/>
            </g>
            <g transform="matrix(0.1,0,0,-0.1,430.901,491.971)">
                <path id="d8" serif:id="d" d="M16.541,11.063L38.021,11.063L38.021,85.229L14.645,80.541L14.645,92.521L37.896,97.208L51.043,97.208L51.043,11.061L72.52,11.061L72.52,0L16.541,0L16.541,11.063Z" style="fill-rule:nonzero;"/>
                <g id="m1" serif:id="m" transform="matrix(1,0,0,1,84.8307,0)">
                    <path d="M44.021,53.833C38.118,53.833 33.437,51.812 29.979,47.771C26.534,43.743 24.812,38.216 24.812,31.188C24.812,24.201 26.534,18.673 29.979,14.604C33.437,10.549 38.118,8.521 44.021,8.521C49.924,8.521 54.597,10.549 58.041,14.604C61.486,18.673 63.208,24.201 63.208,31.188C63.208,38.216 61.486,43.743 58.041,47.771C54.597,51.812 49.924,53.833 44.021,53.833ZM70.125,95.063L70.125,83.084C66.82,84.64 63.486,85.827 60.125,86.645C56.764,87.479 53.43,87.896 50.125,87.896C41.444,87.896 34.812,84.965 30.229,79.104C25.66,73.243 23.049,64.388 22.396,52.541C24.952,56.319 28.16,59.215 32.021,61.229C35.896,63.244 40.153,64.251 44.792,64.251C54.556,64.251 62.271,61.285 67.939,55.355C73.604,49.437 76.437,41.382 76.437,31.188C76.437,21.201 73.486,13.187 67.584,7.145C61.681,1.119 53.827,-1.895 44.021,-1.895C32.771,-1.895 24.173,2.411 18.229,11.021C12.284,19.646 9.312,32.139 9.312,48.5C9.312,63.861 12.958,76.111 20.251,85.251C27.542,94.388 37.327,98.957 49.604,98.957C52.91,98.957 56.243,98.631 59.604,97.979C62.965,97.326 66.472,96.354 70.124,95.063L70.125,95.063Z" style="fill-rule:nonzero;"/>
                </g>
            </g>
            <g id="i16" serif:id="i" transform="matrix(1,0,0,1,462.277,474.64)">
                <path d="M0,0L0,2.667" style="fill:none;fill-rule:nonzero;stroke:black;stroke-width:0.8px;stroke-linecap:butt;"/>
            </g>
            <g transform="matrix(0.1,0,0,-0.1,453.793,491.971)">
                <path id="d9" serif:id="d" d="M16.541,11.063L38.021,11.063L38.021,85.229L14.645,80.541L14.645,92.521L37.896,97.208L51.043,97.208L51.043,11.061L72.52,11.061L72.52,0L16.541,0L16.541,11.063Z" style="fill-rule:nonzero;"/>
                <g id="h2" serif:id="h" transform="matrix(1,0,0,1,84.8307,0)">
                    <path d="M10.937,97.208L73.437,97.208L73.437,91.604L38.147,0L24.416,0L57.627,86.125L10.937,86.125L10.937,97.208Z" style="fill-rule:nonzero;"/>
                </g>
            </g>
            <g id="i17" serif:id="i" transform="matrix(1,0,0,1,485.169,474.64)">
                <path d="M0,0L0,2.667" style="fill:none;fill-rule:nonzero;stroke:black;stroke-width:0.8px;stroke-linecap:butt;"/>
            </g>
            <g transform="matrix(0.1,0,0,-0.1,476.685,491.971)">
                <path id="d10" serif:id="d" d="M16.541,11.063L38.021,11.063L38.021,85.229L14.645,80.541L14.645,92.521L37.896,97.208L51.043,97.208L51.043,11.061L72.52,11.061L72.52,0L16.541,0L16.541,11.063Z" style="fill-rule:nonzero;"/>
                <g id="n1" serif:id="n" transform="matrix(1,0,0,1,84.8307,0)">
                    <path d="M42.375,46.167C36.125,46.167 31.208,44.493 27.625,41.145C24.056,37.799 22.271,33.202 22.271,27.355C22.271,21.493 24.056,16.889 27.625,13.541C31.208,10.195 36.124,8.521 42.373,8.521C48.624,8.521 53.548,10.201 57.144,13.561C60.756,16.937 62.561,21.535 62.561,27.355C62.561,33.202 60.77,37.799 57.187,41.145C53.617,44.493 48.679,46.167 42.373,46.167L42.375,46.167ZM29.228,51.751C23.59,53.139 19.194,55.764 16.041,59.625C12.903,63.501 11.333,68.216 11.333,73.772C11.333,81.535 14.097,87.673 19.625,92.188C25.167,96.702 32.75,98.959 42.375,98.959C52.055,98.959 59.652,96.702 65.167,92.188C70.68,87.673 73.437,81.534 73.437,73.771C73.437,68.215 71.861,63.5 68.708,59.624C65.569,55.764 61.201,53.139 55.604,51.749C61.937,50.277 66.868,47.388 70.396,43.083C73.937,38.791 75.708,33.548 75.708,27.355C75.708,17.924 72.833,10.687 67.084,5.645C61.333,0.618 53.096,-1.896 42.375,-1.896C31.666,-1.896 23.43,0.618 17.667,5.645C11.916,10.687 9.041,17.924 9.041,27.355C9.041,33.548 10.819,38.792 14.375,43.084C17.944,47.389 22.896,50.278 29.228,51.751ZM24.419,72.52C24.419,67.492 25.988,63.568 29.125,60.749C32.279,57.93 36.696,56.52 42.376,56.52C48.029,56.52 52.446,57.93 55.627,60.749C58.82,63.568 60.417,67.492 60.417,72.52C60.417,77.562 58.82,81.492 55.627,84.311C52.446,87.13 48.029,88.54 42.376,88.54C36.696,88.54 32.28,87.13 29.127,84.311C25.987,81.491 24.417,77.561 24.417,72.52L24.419,72.52Z" style="fill-rule:nonzero;"/>
                </g>
            </g>
            <g id="i18" serif:id="i" transform="matrix(1,0,0,1,508.061,474.64)">
                <path d="M0,0L0,2.667" style="fill:none;fill-rule:nonzero;stroke:black;stroke-width:0.8px;stroke-linecap:butt;"/>
            </g>
            <g transform="matrix(0.1,0,0,-0.1,499.579,491.971)">
                <path id="d11" serif:id="d" d="M16.541,11.063L38.021,11.063L38.021,85.229L14.645,80.541L14.645,92.521L37.896,97.208L51.043,97.208L51.043,11.061L72.52,11.061L72.52,0L16.541,0L16.541,11.063Z" style="fill-rule:nonzero;"/>
                <g id="o1" serif:id="o" transform="matrix(1,0,0,1,84.8307,0)">
                    <path d="M14.645,2.021L14.645,14C17.952,12.43 21.292,11.236 24.667,10.416C28.056,9.597 31.382,9.188 34.645,9.188C43.326,9.188 49.952,12.104 54.521,17.937C59.104,23.771 61.722,32.639 62.375,44.541C59.861,40.805 56.667,37.937 52.792,35.937C48.931,33.937 44.66,32.937 39.979,32.937C30.257,32.937 22.563,35.875 16.896,41.751C11.229,47.64 8.396,55.688 8.396,65.896C8.396,75.868 11.347,83.868 17.249,89.896C23.152,95.938 31.007,98.959 40.812,98.959C52.063,98.959 60.646,94.646 66.563,86.021C72.493,77.41 75.459,64.903 75.459,48.5C75.459,33.181 71.82,20.952 64.541,11.812C57.277,2.675 47.507,-1.893 35.229,-1.893C31.924,-1.893 28.576,-1.567 25.188,-0.915C21.813,-0.262 18.299,0.717 14.645,2.023L14.645,2.021ZM40.813,43.229C46.716,43.229 51.39,45.243 54.835,49.271C58.292,53.312 60.021,58.854 60.021,65.896C60.021,72.883 58.292,78.404 54.835,82.459C51.39,86.514 46.716,88.541 40.813,88.541C34.911,88.541 30.238,86.514 26.793,82.459C23.349,78.403 21.627,72.882 21.627,65.896C21.627,58.854 23.349,53.312 26.793,49.271C30.238,45.243 34.911,43.229 40.813,43.229Z" style="fill-rule:nonzero;"/>
                </g>
            </g>
            <g id="i19" serif:id="i" transform="matrix(1,0,0,1,530.953,474.64)">
                <path d="M0,0L0,2.667" style="fill:none;fill-rule:nonzero;stroke:black;stroke-width:0.8px;stroke-linecap:butt;"/>
            </g>
            <g transform="matrix(0.1,0,0,-0.1,522.471,491.971)">
                <path id="g5" serif:id="g" d="M25.584,11.063L71.479,11.063L71.479,0L9.773,0L9.773,11.063C14.759,16.229 21.557,23.16 30.168,31.855C38.793,40.563 44.21,46.181 46.419,48.708C50.627,53.431 53.564,57.431 55.231,60.708C56.911,63.986 57.751,67.208 57.751,70.375C57.751,75.542 55.938,79.75 52.313,83C48.688,86.264 43.966,87.896 38.147,87.896C34.022,87.896 29.668,87.18 25.084,85.749C20.515,84.319 15.626,82.146 10.417,79.229L10.417,92.521C15.71,94.645 20.654,96.249 25.251,97.333C29.862,98.417 34.078,98.959 37.897,98.959C47.967,98.959 55.994,96.438 61.98,91.396C67.967,86.368 70.96,79.646 70.96,71.229C70.96,67.229 70.21,63.438 68.709,59.855C67.223,56.285 64.501,52.069 60.543,47.208C59.46,45.944 56.009,42.305 50.189,36.292C44.383,30.278 36.182,21.868 25.585,11.063L25.584,11.063Z" style="fill-rule:nonzero;"/>
                <g id="c12" serif:id="c" transform="matrix(1,0,0,1,84.8307,0)">
                    <path d="M42.375,88.541C35.61,88.541 30.52,85.208 27.104,78.541C23.701,71.889 22,61.875 22,48.5C22,35.181 23.701,25.188 27.104,18.521C30.521,11.855 35.611,8.521 42.375,8.521C49.194,8.521 54.305,11.855 57.708,18.521C61.125,25.188 62.833,35.181 62.833,48.5C62.833,61.875 61.125,71.889 57.708,78.541C54.305,85.208 49.194,88.541 42.375,88.541ZM42.375,98.959C53.278,98.959 61.604,94.646 67.355,86.021C73.104,77.41 75.979,64.903 75.979,48.5C75.979,32.139 73.104,19.646 67.355,11.02C61.604,2.409 53.277,-1.896 42.375,-1.896C31.486,-1.896 23.167,2.41 17.417,11.021C11.666,19.646 8.791,32.139 8.791,48.5C8.791,64.903 11.666,77.409 17.417,86.02C23.166,94.647 31.484,98.96 42.373,98.96L42.375,98.959Z" style="fill-rule:nonzero;"/>
                </g>
            </g>
            <g id="i20" serif:id="i" transform="matrix(1,0,0,1,553.847,474.64)">
                <path d="M0,0L0,2.667" style="fill:none;fill-rule:nonzero;stroke:black;stroke-width:0.8px;stroke-linecap:butt;"/>
            </g>
            <g transform="matrix(0.1,0,0,-0.1,545.363,491.971)">
                <path id="g6" serif:id="g" d="M25.584,11.063L71.479,11.063L71.479,0L9.773,0L9.773,11.063C14.759,16.229 21.557,23.16 30.168,31.855C38.793,40.563 44.21,46.181 46.419,48.708C50.627,53.431 53.564,57.431 55.231,60.708C56.911,63.986 57.751,67.208 57.751,70.375C57.751,75.542 55.938,79.75 52.313,83C48.688,86.264 43.966,87.896 38.147,87.896C34.022,87.896 29.668,87.18 25.084,85.749C20.515,84.319 15.626,82.146 10.417,79.229L10.417,92.521C15.71,94.645 20.654,96.249 25.251,97.333C29.862,98.417 34.078,98.959 37.897,98.959C47.967,98.959 55.994,96.438 61.98,91.396C67.967,86.368 70.96,79.646 70.96,71.229C70.96,67.229 70.21,63.438 68.709,59.855C67.223,56.285 64.501,52.069 60.543,47.208C59.46,45.944 56.009,42.305 50.189,36.292C44.383,30.278 36.182,21.868 25.585,11.063L25.584,11.063Z" style="fill-rule:nonzero;"/>
                <g id="d12" serif:id="d" transform="matrix(1,0,0,1,84.8307,0)">
                    <path d="M16.541,11.063L38.021,11.063L38.021,85.229L14.645,80.541L14.645,92.521L37.896,97.208L51.043,97.208L51.043,11.061L72.52,11.061L72.52,0L16.541,0L16.541,11.063Z" style="fill-rule:nonzero;"/>
                </g>
            </g>
            <g id="i21" serif:id="i" transform="matrix(1,0,0,1,576.739,474.64)">
                <path d="M0,0L0,2.667" style="fill:none;fill-rule:nonzero;stroke:black;stroke-width:0.8px;stroke-linecap:butt;"/>
            </g>
            <g transform="matrix(0.1,0,0,-0.1,568.255,491.971)">
                <path id="g7" serif:id="g" d="M25.584,11.063L71.479,11.063L71.479,0L9.773,0L9.773,11.063C14.759,16.229 21.557,23.16 30.168,31.855C38.793,40.563 44.21,46.181 46.419,48.708C50.627,53.431 53.564,57.431 55.231,60.708C56.911,63.986 57.751,67.208 57.751,70.375C57.751,75.542 55.938,79.75 52.313,83C48.688,86.264 43.966,87.896 38.147,87.896C34.022,87.896 29.668,87.18 25.084,85.749C20.515,84.319 15.626,82.146 10.417,79.229L10.417,92.521C15.71,94.645 20.654,96.249 25.251,97.333C29.862,98.417 34.078,98.959 37.897,98.959C47.967,98.959 55.994,96.438 61.98,91.396C67.967,86.368 70.96,79.646 70.96,71.229C70.96,67.229 70.21,63.438 68.709,59.855C67.223,56.285 64.501,52.069 60.543,47.208C59.46,45.944 56.009,42.305 50.189,36.292C44.383,30.278 36.182,21.868 25.585,11.063L25.584,11.063Z" style="fill-rule:nonzero;"/>
                <g id="g8" serif:id="g" transform="matrix(1,0,0,1,84.8307,0)">
                    <path d="M25.584,11.063L71.479,11.063L71.479,0L9.773,0L9.773,11.063C14.759,16.229 21.557,23.16 30.168,31.855C38.793,40.563 44.21,46.181 46.419,48.708C50.627,53.431 53.564,57.431 55.231,60.708C56.911,63.986 57.751,67.208 57.751,70.375C57.751,75.542 55.938,79.75 52.313,83C48.688,86.264 43.966,87.896 38.147,87.896C34.022,87.896 29.668,87.18 25.084,85.749C20.515,84.319 15.626,82.146 10.417,79.229L10.417,92.521C15.71,94.645 20.654,96.249 25.251,97.333C29.862,98.417 34.078,98.959 37.897,98.959C47.967,98.959 55.994,96.438 61.98,91.396C67.967,86.368 70.96,79.646 70.96,71.229C70.96,67.229 70.21,63.438 68.709,59.855C67.223,56.285 64.501,52.069 60.543,47.208C59.46,45.944 56.009,42.305 50.189,36.292C44.383,30.278 36.182,21.868 25.585,11.063L25.584,11.063Z" style="fill-rule:nonzero;"/>
                </g>
            </g>
            <g id="i22" serif:id="i" transform="matrix(1,0,0,1,599.631,474.64)">
                <path d="M0,0L0,2.667" style="fill:none;fill-rule:nonzero;stroke:black;stroke-width:0.8px;stroke-linecap:butt;"/>
            </g>
            <g transform="matrix(0.1,0,0,-0.1,591.147,491.971)">
                <path id="g9" serif:id="g" d="M25.584,11.063L71.479,11.063L71.479,0L9.773,0L9.773,11.063C14.759,16.229 21.557,23.16 30.168,31.855C38.793,40.563 44.21,46.181 46.419,48.708C50.627,53.431 53.564,57.431 55.231,60.708C56.911,63.986 57.751,67.208 57.751,70.375C57.751,75.542 55.938,79.75 52.313,83C48.688,86.264 43.966,87.896 38.147,87.896C34.022,87.896 29.668,87.18 25.084,85.749C20.515,84.319 15.626,82.146 10.417,79.229L10.417,92.521C15.71,94.645 20.654,96.249 25.251,97.333C29.862,98.417 34.078,98.959 37.897,98.959C47.967,98.959 55.994,96.438 61.98,91.396C67.967,86.368 70.96,79.646 70.96,71.229C70.96,67.229 70.21,63.438 68.709,59.855C67.223,56.285 64.501,52.069 60.543,47.208C59.46,45.944 56.009,42.305 50.189,36.292C44.383,30.278 36.182,21.868 25.585,11.063L25.584,11.063Z" style="fill-rule:nonzero;"/>
                <g id="j2" serif:id="j" transform="matrix(1,0,0,1,84.8307,0)">
                    <path d="M54.104,52.417C60.396,51.07 65.305,48.264 68.833,44C72.375,39.75 74.145,34.5 74.145,28.249C74.145,18.667 70.847,11.244 64.249,5.979C57.653,0.729 48.278,-1.896 36.125,-1.896C32.056,-1.896 27.861,-1.493 23.541,-0.688C19.221,0.118 14.763,1.327 10.167,2.939L10.167,15.625C13.806,13.501 17.792,11.896 22.125,10.812C26.472,9.729 31.013,9.188 35.749,9.188C43.986,9.188 50.264,10.813 54.583,14.063C58.903,17.312 61.063,22.041 61.063,28.249C61.063,33.986 59.056,38.466 55.041,41.688C51.028,44.924 45.445,46.541 38.292,46.541L26.959,46.541L26.959,57.355L38.812,57.355C45.271,57.355 50.215,58.646 53.645,61.229C57.076,63.812 58.792,67.535 58.792,72.396C58.792,77.383 57.021,81.209 53.479,83.876C49.952,86.556 44.889,87.896 38.292,87.896C34.68,87.896 30.812,87.5 26.688,86.709C22.563,85.931 18.028,84.722 13.084,83.083L13.084,94.792C18.083,96.18 22.763,97.222 27.124,97.917C31.486,98.611 35.597,98.957 39.457,98.957C49.444,98.957 57.34,96.687 63.145,92.145C68.965,87.618 71.875,81.494 71.875,73.772C71.875,68.383 70.333,63.834 67.251,60.125C64.166,56.417 59.784,53.847 54.104,52.416L54.104,52.417Z" style="fill-rule:nonzero;"/>
                </g>
            </g>
            <g id="i23" serif:id="i" transform="matrix(1,0,0,1,622.523,474.64)">
                <path d="M0,0L0,2.667" style="fill:none;fill-rule:nonzero;stroke:black;stroke-width:0.8px;stroke-linecap:butt;"/>
            </g>
            <g transform="matrix(0.1,0,0,-0.1,614.04,491.971)">
                <path id="g10" serif:id="g" d="M25.584,11.063L71.479,11.063L71.479,0L9.773,0L9.773,11.063C14.759,16.229 21.557,23.16 30.168,31.855C38.793,40.563 44.21,46.181 46.419,48.708C50.627,53.431 53.564,57.431 55.231,60.708C56.911,63.986 57.751,67.208 57.751,70.375C57.751,75.542 55.938,79.75 52.313,83C48.688,86.264 43.966,87.896 38.147,87.896C34.022,87.896 29.668,87.18 25.084,85.749C20.515,84.319 15.626,82.146 10.417,79.229L10.417,92.521C15.71,94.645 20.654,96.249 25.251,97.333C29.862,98.417 34.078,98.959 37.897,98.959C47.967,98.959 55.994,96.438 61.98,91.396C67.967,86.368 70.96,79.646 70.96,71.229C70.96,67.229 70.21,63.438 68.709,59.855C67.223,56.285 64.501,52.069 60.543,47.208C59.46,45.944 56.009,42.305 50.189,36.292C44.383,30.278 36.182,21.868 25.585,11.063L25.584,11.063Z" style="fill-rule:nonzero;"/>
                <g id="k2" serif:id="k" transform="matrix(1,0,0,1,84.8307,0)">
                    <path d="M50.396,85.751L17.187,33.853L50.395,33.853L50.396,85.751ZM46.937,97.208L63.48,97.208L63.48,33.855L77.356,33.855L77.356,22.917L63.479,22.917L63.479,0L50.396,0L50.396,22.917L6.52,22.917L6.52,35.604L46.937,97.208Z" style="fill-rule:nonzero;"/>
                </g>
            </g>
            <g id="i24" serif:id="i" transform="matrix(1,0,0,1,645.416,474.64)">
                <path d="M0,0L0,2.667" style="fill:none;fill-rule:nonzero;stroke:black;stroke-width:0.8px;stroke-linecap:butt;"/>
            </g>
            <g transform="matrix(0.1,0,0,-0.1,636.932,491.971)">
                <path id="g11" serif:id="g" d="M25.584,11.063L71.479,11.063L71.479,0L9.773,0L9.773,11.063C14.759,16.229 21.557,23.16 30.168,31.855C38.793,40.563 44.21,46.181 46.419,48.708C50.627,53.431 53.564,57.431 55.231,60.708C56.911,63.986 57.751,67.208 57.751,70.375C57.751,75.542 55.938,79.75 52.313,83C48.688,86.264 43.966,87.896 38.147,87.896C34.022,87.896 29.668,87.18 25.084,85.749C20.515,84.319 15.626,82.146 10.417,79.229L10.417,92.521C15.71,94.645 20.654,96.249 25.251,97.333C29.862,98.417 34.078,98.959 37.897,98.959C47.967,98.959 55.994,96.438 61.98,91.396C67.967,86.368 70.96,79.646 70.96,71.229C70.96,67.229 70.21,63.438 68.709,59.855C67.223,56.285 64.501,52.069 60.543,47.208C59.46,45.944 56.009,42.305 50.189,36.292C44.383,30.278 36.182,21.868 25.585,11.063L25.584,11.063Z" style="fill-rule:nonzero;"/>
                <g id="l2" serif:id="l" transform="matrix(1,0,0,1,84.8307,0)">
                    <path d="M14.396,97.208L66.021,97.208L66.021,86.125L26.437,86.125L26.437,62.312C28.34,62.965 30.242,63.452 32.145,63.771C34.063,64.091 35.98,64.251 37.896,64.251C48.743,64.251 57.333,61.278 63.667,55.333C70.013,49.388 73.187,41.34 73.187,31.187C73.187,20.729 69.93,12.597 63.416,6.792C56.902,1 47.722,-1.896 35.875,-1.896C31.792,-1.896 27.632,-1.549 23.395,-0.855C19.172,-0.16 14.805,0.882 10.292,2.271L10.292,15.5C14.194,13.376 18.229,11.792 22.396,10.749C26.562,9.708 30.965,9.188 35.604,9.188C43.118,9.188 49.062,11.16 53.437,15.104C57.827,19.049 60.021,24.41 60.021,31.188C60.021,37.952 57.827,43.306 53.437,47.251C49.062,51.209 43.118,53.188 35.604,53.188C32.09,53.188 28.584,52.799 25.084,52.021C21.598,51.244 18.035,50.028 14.396,48.375L14.396,97.208Z" style="fill-rule:nonzero;"/>
                </g>
            </g>
            <g id="i25" serif:id="i" transform="matrix(1,0,0,1,668.308,474.64)">
                <path d="M0,0L0,2.667" style="fill:none;fill-rule:nonzero;stroke:black;stroke-width:0.8px;stroke-linecap:butt;"/>
            </g>
            <g transform="matrix(0.1,0,0,-0.1,659.824,491.971)">
                <path id="g12" serif:id="g" d="M25.584,11.063L71.479,11.063L71.479,0L9.773,0L9.773,11.063C14.759,16.229 21.557,23.16 30.168,31.855C38.793,40.563 44.21,46.181 46.419,48.708C50.627,53.431 53.564,57.431 55.231,60.708C56.911,63.986 57.751,67.208 57.751,70.375C57.751,75.542 55.938,79.75 52.313,83C48.688,86.264 43.966,87.896 38.147,87.896C34.022,87.896 29.668,87.18 25.084,85.749C20.515,84.319 15.626,82.146 10.417,79.229L10.417,92.521C15.71,94.645 20.654,96.249 25.251,97.333C29.862,98.417 34.078,98.959 37.897,98.959C47.967,98.959 55.994,96.438 61.98,91.396C67.967,86.368 70.96,79.646 70.96,71.229C70.96,67.229 70.21,63.438 68.709,59.855C67.223,56.285 64.501,52.069 60.543,47.208C59.46,45.944 56.009,42.305 50.189,36.292C44.383,30.278 36.182,21.868 25.585,11.063L25.584,11.063Z" style="fill-rule:nonzero;"/>
                <g id="m2" serif:id="m" transform="matrix(1,0,0,1,84.8307,0)">
                    <path d="M44.021,53.833C38.118,53.833 33.437,51.812 29.979,47.771C26.534,43.743 24.812,38.216 24.812,31.188C24.812,24.201 26.534,18.673 29.979,14.604C33.437,10.549 38.118,8.521 44.021,8.521C49.924,8.521 54.597,10.549 58.041,14.604C61.486,18.673 63.208,24.201 63.208,31.188C63.208,38.216 61.486,43.743 58.041,47.771C54.597,51.812 49.924,53.833 44.021,53.833ZM70.125,95.063L70.125,83.084C66.82,84.64 63.486,85.827 60.125,86.645C56.764,87.479 53.43,87.896 50.125,87.896C41.444,87.896 34.812,84.965 30.229,79.104C25.66,73.243 23.049,64.388 22.396,52.541C24.952,56.319 28.16,59.215 32.021,61.229C35.896,63.244 40.153,64.251 44.792,64.251C54.556,64.251 62.271,61.285 67.939,55.355C73.604,49.437 76.437,41.382 76.437,31.188C76.437,21.201 73.486,13.187 67.584,7.145C61.681,1.119 53.827,-1.895 44.021,-1.895C32.771,-1.895 24.173,2.411 18.229,11.021C12.284,19.646 9.312,32.139 9.312,48.5C9.312,63.861 12.958,76.111 20.251,85.251C27.542,94.388 37.327,98.957 49.604,98.957C52.91,98.957 56.243,98.631 59.604,97.979C62.965,97.326 66.472,96.354 70.124,95.063L70.125,95.063Z" style="fill-rule:nonzero;"/>
                </g>
            </g>
            <g id="i26" serif:id="i" transform="matrix(1,0,0,1,691.2,474.64)">
                <path d="M0,0L0,2.667" style="fill:none;fill-rule:nonzero;stroke:black;stroke-width:0.8px;stroke-linecap:butt;"/>
            </g>
            <g transform="matrix(1,0,0,1,0,-38)">
                <clipPath id="_clip3">
                    <rect x="96" y="69.12" width="595.2" height="443.52"/>
                </clipPath>
                <g clip-path="url(#_clip3)">
                    <path d="M96,512.64L691.2,512.64" style="fill:none;fill-rule:nonzero;stroke:rgb(176,176,176);stroke-width:1.07px;"/>
                </g>
            </g>
            <g id="p" transform="matrix(1,0,0,1,96,474.64)">
                <path d="M0,0L-4.667,0" style="fill:none;fill-rule:nonzero;stroke:black;stroke-width:1.07px;stroke-linecap:butt;"/>
            </g>
            <g transform="matrix(1,0,0,1,0,-38)">
                <clipPath id="_clip4">
                    <rect x="96" y="69.12" width="595.2" height="443.52"/>
                </clipPath>
                <g clip-path="url(#_clip4)">
                    <path d="M96,409.141L691.2,409.141" style="fill:none;fill-rule:nonzero;stroke:rgb(176,176,176);stroke-width:1.07px;"/>
                </g>
            </g>
            <g id="p1" serif:id="p" transform="matrix(1,0,0,1,96,371.141)">
                <path d="M0,0L-4.667,0" style="fill:none;fill-rule:nonzero;stroke:black;stroke-width:1.07px;stroke-linecap:butt;"/>
            </g>
            <g transform="matrix(1,0,0,1,0,-38)">
                <clipPath id="_clip5">
                    <rect x="96" y="69.12" width="595.2" height="443.52"/>
                </clipPath>
                <g clip-path="url(#_clip5)">
                    <path d="M96,305.643L691.2,305.643" style="fill:none;fill-rule:nonzero;stroke:rgb(176,176,176);stroke-width:1.07px;"/>
                </g>
            </g>
            <g id="p2" serif:id="p" transform="matrix(1,0,0,1,96,267.643)">
                <path d="M0,0L-4.667,0" style="fill:none;fill-rule:nonzero;stroke:black;stroke-width:1.07px;stroke-linecap:butt;"/>
            </g>
            <g transform="matrix(1,0,0,1,0,-38)">
                <clipPath id="_clip6">
                    <rect x="96" y="69.12" width="595.2" height="443.52"/>
                </clipPath>
                <g clip-path="url(#_clip6)">
                    <path d="M96,202.144L691.2,202.144" style="fill:none;fill-rule:nonzero;stroke:rgb(176,176,176);stroke-width:1.07px;"/>
                </g>
                <g id="p3" serif:id="p" transform="matrix(1,0,0,1,96,202.144)">
                    <path d="M0,0L-4.667,0" style="fill:none;fill-rule:nonzero;stroke:black;stroke-width:1.07px;stroke-linecap:butt;"/>
                </g>
            </g>
            <g transform="matrix(1,0,0,1,0,-38)">
                <clipPath id="_clip7">
                    <rect x="96" y="69.12" width="595.2" height="443.52"/>
                </clipPath>
                <g clip-path="url(#_clip7)">
                    <path d="M96,98.647L691.2,98.647" style="fill:none;fill-rule:nonzero;stroke:rgb(176,176,176);stroke-width:1.07px;"/>
                </g>
                <g id="p4" serif:id="p" transform="matrix(1,0,0,1,96,98.6467)">
                    <path d="M0,0L-4.667,0" style="fill:none;fill-rule:nonzero;stroke:black;stroke-width:1.07px;stroke-linecap:butt;"/>
                </g>
            </g>
            <g transform="matrix(1,0,0,1,0,-38)">
                <clipPath id="_clip8">
                    <rect x="96" y="69.12" width="595.2" height="443.52"/>
                </clipPath>
                <g clip-path="url(#_clip8)">
                    <path d="M-1.333,346.627L4.431,342.749L27.324,329.132L50.216,314.508L73.108,303.321L96,285.168L118.893,278.357L141.784,268.933L164.677,260.897L187.569,252.032L210.463,244.285L233.353,232.756L256.247,222.296L279.139,212.259L302.032,207.921L324.923,199.568L347.816,199.568L370.708,184.055L393.6,176.353L416.493,169.653L439.384,164.564L462.277,159.088L485.169,154.739L508.063,148.221L530.953,141.493L553.847,136.916L576.739,132.931L599.632,129.428L622.523,126.317" style="fill:none;fill-rule:nonzero;stroke:rgb(31,119,180);stroke-width:2px;"/>
                </g>
            </g>
            <g transform="matrix(1,0,0,1,0,-38)">
                <clipPath id="_clip9">
                    <rect x="96" y="69.12" width="595.2" height="443.52"/>
                </clipPath>
                <g clip-path="url(#_clip9)">
                    <g id="F" transform="matrix(1,0,0,1,-1.33333,346.625)">
                        <path d="M-4,0L4,0M0,4L0,-4" style="fill:rgb(31,119,180);fill-rule:nonzero;stroke:rgb(31,119,180);stroke-width:1px;stroke-linecap:butt;"/>
                    </g>
                    <g id="F1" serif:id="F" transform="matrix(1,0,0,1,4.43067,342.749)">
                        <path d="M-4,0L4,0M0,4L0,-4" style="fill:rgb(31,119,180);fill-rule:nonzero;stroke:rgb(31,119,180);stroke-width:1px;stroke-linecap:butt;"/>
                    </g>
                    <g id="F2" serif:id="F" transform="matrix(1,0,0,1,27.3227,329.132)">
                        <path d="M-4,0L4,0M0,4L0,-4" style="fill:rgb(31,119,180);fill-rule:nonzero;stroke:rgb(31,119,180);stroke-width:1px;stroke-linecap:butt;"/>
                    </g>
                    <g id="F3" serif:id="F" transform="matrix(1,0,0,1,50.216,314.508)">
                        <path d="M-4,0L4,0M0,4L0,-4" style="fill:rgb(31,119,180);fill-rule:nonzero;stroke:rgb(31,119,180);stroke-width:1px;stroke-linecap:butt;"/>
                    </g>
                    <g id="F4" serif:id="F" transform="matrix(1,0,0,1,73.108,303.321)">
                        <path d="M-4,0L4,0M0,4L0,-4" style="fill:rgb(31,119,180);fill-rule:nonzero;stroke:rgb(31,119,180);stroke-width:1px;stroke-linecap:butt;"/>
                    </g>
                    <g id="F5" serif:id="F" transform="matrix(1,0,0,1,96,285.168)">
                        <path d="M-4,0L4,0M0,4L0,-4" style="fill:rgb(31,119,180);fill-rule:nonzero;stroke:rgb(31,119,180);stroke-width:1px;stroke-linecap:butt;"/>
                    </g>
                    <g id="F6" serif:id="F" transform="matrix(1,0,0,1,118.892,278.357)">
                        <path d="M-4,0L4,0M0,4L0,-4" style="fill:rgb(31,119,180);fill-rule:nonzero;stroke:rgb(31,119,180);stroke-width:1px;stroke-linecap:butt;"/>
                    </g>
                    <g id="F7" serif:id="F" transform="matrix(1,0,0,1,141.784,268.933)">
                        <path d="M-4,0L4,0M0,4L0,-4" style="fill:rgb(31,119,180);fill-rule:nonzero;stroke:rgb(31,119,180);stroke-width:1px;stroke-linecap:butt;"/>
                    </g>
                    <g id="F8" serif:id="F" transform="matrix(1,0,0,1,164.677,260.897)">
                        <path d="M-4,0L4,0M0,4L0,-4" style="fill:rgb(31,119,180);fill-rule:nonzero;stroke:rgb(31,119,180);stroke-width:1px;stroke-linecap:butt;"/>
                    </g>
                    <g id="F9" serif:id="F" transform="matrix(1,0,0,1,187.569,252.032)">
                        <path d="M-4,0L4,0M0,4L0,-4" style="fill:rgb(31,119,180);fill-rule:nonzero;stroke:rgb(31,119,180);stroke-width:1px;stroke-linecap:butt;"/>
                    </g>
                    <g id="F10" serif:id="F" transform="matrix(1,0,0,1,210.461,244.285)">
                        <path d="M-4,0L4,0M0,4L0,-4" style="fill:rgb(31,119,180);fill-rule:nonzero;stroke:rgb(31,119,180);stroke-width:1px;stroke-linecap:butt;"/>
                    </g>
                    <g id="F11" serif:id="F" transform="matrix(1,0,0,1,233.353,232.756)">
                        <path d="M-4,0L4,0M0,4L0,-4" style="fill:rgb(31,119,180);fill-rule:nonzero;stroke:rgb(31,119,180);stroke-width:1px;stroke-linecap:butt;"/>
                    </g>
                    <g id="F12" serif:id="F" transform="matrix(1,0,0,1,256.247,222.296)">
                        <path d="M-4,0L4,0M0,4L0,-4" style="fill:rgb(31,119,180);fill-rule:nonzero;stroke:rgb(31,119,180);stroke-width:1px;stroke-linecap:butt;"/>
                    </g>
                    <g id="F13" serif:id="F" transform="matrix(1,0,0,1,279.139,212.259)">
                        <path d="M-4,0L4,0M0,4L0,-4" style="fill:rgb(31,119,180);fill-rule:nonzero;stroke:rgb(31,119,180);stroke-width:1px;stroke-linecap:butt;"/>
                    </g>
                    <g id="F14" serif:id="F" transform="matrix(1,0,0,1,302.031,207.921)">
                        <path d="M-4,0L4,0M0,4L0,-4" style="fill:rgb(31,119,180);fill-rule:nonzero;stroke:rgb(31,119,180);stroke-width:1px;stroke-linecap:butt;"/>
                    </g>
                    <g id="F15" serif:id="F" transform="matrix(1,0,0,1,324.923,199.568)">
                        <path d="M-4,0L4,0M0,4L0,-4" style="fill:rgb(31,119,180);fill-rule:nonzero;stroke:rgb(31,119,180);stroke-width:1px;stroke-linecap:butt;"/>
                    </g>
                    <g id="F16" serif:id="F" transform="matrix(1,0,0,1,347.816,199.568)">
                        <path d="M-4,0L4,0M0,4L0,-4" style="fill:rgb(31,119,180);fill-rule:nonzero;stroke:rgb(31,119,180);stroke-width:1px;stroke-linecap:butt;"/>
                    </g>
                    <g id="F17" serif:id="F" transform="matrix(1,0,0,1,370.708,184.055)">
                        <path d="M-4,0L4,0M0,4L0,-4" style="fill:rgb(31,119,180);fill-rule:nonzero;stroke:rgb(31,119,180);stroke-width:1px;stroke-linecap:butt;"/>
                    </g>
                    <g id="F18" serif:id="F" transform="matrix(1,0,0,1,393.6,176.353)">
                        <path d="M-4,0L4,0M0,4L0,-4" style="fill:rgb(31,119,180);fill-rule:nonzero;stroke:rgb(31,119,180);stroke-width:1px;stroke-linecap:butt;"/>
                    </g>
                    <g id="F19" serif:id="F" transform="matrix(1,0,0,1,416.492,169.653)">
                        <path d="M-4,0L4,0M0,4L0,-4" style="fill:rgb(31,119,180);fill-rule:nonzero;stroke:rgb(31,119,180);stroke-width:1px;stroke-linecap:butt;"/>
                    </g>
                    <g id="F20" serif:id="F" transform="matrix(1,0,0,1,439.384,164.564)">
                        <path d="M-4,0L4,0M0,4L0,-4" style="fill:rgb(31,119,180);fill-rule:nonzero;stroke:rgb(31,119,180);stroke-width:1px;stroke-linecap:butt;"/>
                    </g>
                    <g id="F21" serif:id="F" transform="matrix(1,0,0,1,462.277,159.088)">
                        <path d="M-4,0L4,0M0,4L0,-4" style="fill:rgb(31,119,180);fill-rule:nonzero;stroke:rgb(31,119,180);stroke-width:1px;stroke-linecap:butt;"/>
                    </g>
                    <g id="F22" serif:id="F" transform="matrix(1,0,0,1,485.169,154.739)">
                        <path d="M-4,0L4,0M0,4L0,-4" style="fill:rgb(31,119,180);fill-rule:nonzero;stroke:rgb(31,119,180);stroke-width:1px;stroke-linecap:butt;"/>
                    </g>
                    <g id="F23" serif:id="F" transform="matrix(1,0,0,1,508.061,148.221)">
                        <path d="M-4,0L4,0M0,4L0,-4" style="fill:rgb(31,119,180);fill-rule:nonzero;stroke:rgb(31,119,180);stroke-width:1px;stroke-linecap:butt;"/>
                    </g>
                    <g id="F24" serif:id="F" transform="matrix(1,0,0,1,530.953,141.493)">
                        <path d="M-4,0L4,0M0,4L0,-4" style="fill:rgb(31,119,180);fill-rule:nonzero;stroke:rgb(31,119,180);stroke-width:1px;stroke-linecap:butt;"/>
                    </g>
                    <g id="F25" serif:id="F" transform="matrix(1,0,0,1,553.847,136.916)">
                        <path d="M-4,0L4,0M0,4L0,-4" style="fill:rgb(31,119,180);fill-rule:nonzero;stroke:rgb(31,119,180);stroke-width:1px;stroke-linecap:butt;"/>
                    </g>
                    <g id="F26" serif:id="F" transform="matrix(1,0,0,1,576.739,132.931)">
                        <path d="M-4,0L4,0M0,4L0,-4" style="fill:rgb(31,119,180);fill-rule:nonzero;stroke:rgb(31,119,180);stroke-width:1px;stroke-linecap:butt;"/>
                    </g>
                    <g id="F27" serif:id="F" transform="matrix(1,0,0,1,599.631,129.428)">
                        <path d="M-4,0L4,0M0,4L0,-4" style="fill:rgb(31,119,180);fill-rule:nonzero;stroke:rgb(31,119,180);stroke-width:1px;stroke-linecap:butt;"/>
                    </g>
                    <g id="F28" serif:id="F" transform="matrix(1,0,0,1,622.523,126.317)">
                        <path d="M-4,0L4,0M0,4L0,-4" style="fill:rgb(31,119,180);fill-rule:nonzero;stroke:rgb(31,119,180);stroke-width:1px;stroke-linecap:butt;"/>
                    </g>
                </g>
            </g>
            <g transform="matrix(1,0,0,1,0,-38)">
                <clipPath id="_clip10">
                    <rect x="96" y="69.12" width="595.2" height="443.52"/>
                </clipPath>
                <g clip-path="url(#_clip10)">
                    <path d="M-1.333,439.039L4.431,437.679L27.324,436.839L50.216,436.013L73.108,430.629L96,426.475L118.893,414.887L141.784,406.1L164.677,395.985L187.569,377.759L210.463,366.888L233.353,347.736L256.247,336.084L279.139,330.516L302.032,309.243L324.923,296.083L347.816,284.208L370.708,271.867L393.6,261.667L416.493,250.319L439.384,237.736L462.277,222.94L485.169,214.704L508.063,189.083L530.953,173.984L553.847,160.931L576.739,148.045L599.632,136.46L622.523,127.449" style="fill:none;fill-rule:nonzero;stroke:rgb(255,127,14);stroke-width:2px;"/>
                </g>
            </g>
            <g transform="matrix(1,0,0,1,0,-38)">
                <clipPath id="_clip11">
                    <rect x="96" y="69.12" width="595.2" height="443.52"/>
                </clipPath>
                <g clip-path="url(#_clip11)">
                    <g id="G" transform="matrix(1,0,0,1,-1.33333,439.039)">
                        <path d="M0,2C1.097,2 2,1.097 2,0C2,-1.097 1.097,-2 0,-2C-1.097,-2 -2,-1.097 -2,0C-2,1.097 -1.097,2 0,2Z" style="fill:rgb(255,127,14);fill-rule:nonzero;stroke:rgb(255,127,14);stroke-width:1px;stroke-linecap:butt;"/>
                    </g>
                    <g id="G1" serif:id="G" transform="matrix(1,0,0,1,4.43067,437.679)">
                        <path d="M0,2C1.097,2 2,1.097 2,0C2,-1.097 1.097,-2 0,-2C-1.097,-2 -2,-1.097 -2,0C-2,1.097 -1.097,2 0,2Z" style="fill:rgb(255,127,14);fill-rule:nonzero;stroke:rgb(255,127,14);stroke-width:1px;stroke-linecap:butt;"/>
                    </g>
                    <g id="G2" serif:id="G" transform="matrix(1,0,0,1,27.3227,436.839)">
                        <path d="M0,2C1.097,2 2,1.097 2,0C2,-1.097 1.097,-2 0,-2C-1.097,-2 -2,-1.097 -2,0C-2,1.097 -1.097,2 0,2Z" style="fill:rgb(255,127,14);fill-rule:nonzero;stroke:rgb(255,127,14);stroke-width:1px;stroke-linecap:butt;"/>
                    </g>
                    <g id="G3" serif:id="G" transform="matrix(1,0,0,1,50.216,436.013)">
                        <path d="M0,2C1.097,2 2,1.097 2,0C2,-1.097 1.097,-2 0,-2C-1.097,-2 -2,-1.097 -2,0C-2,1.097 -1.097,2 0,2Z" style="fill:rgb(255,127,14);fill-rule:nonzero;stroke:rgb(255,127,14);stroke-width:1px;stroke-linecap:butt;"/>
                    </g>
                    <g id="G4" serif:id="G" transform="matrix(1,0,0,1,73.108,430.628)">
                        <path d="M0,2C1.097,2 2,1.097 2,0C2,-1.097 1.097,-2 0,-2C-1.097,-2 -2,-1.097 -2,0C-2,1.097 -1.097,2 0,2Z" style="fill:rgb(255,127,14);fill-rule:nonzero;stroke:rgb(255,127,14);stroke-width:1px;stroke-linecap:butt;"/>
                    </g>
                    <g id="G5" serif:id="G" transform="matrix(1,0,0,1,96,426.476)">
                        <path d="M0,2C1.097,2 2,1.097 2,0C2,-1.097 1.097,-2 0,-2C-1.097,-2 -2,-1.097 -2,0C-2,1.097 -1.097,2 0,2Z" style="fill:rgb(255,127,14);fill-rule:nonzero;stroke:rgb(255,127,14);stroke-width:1px;stroke-linecap:butt;"/>
                    </g>
                    <g id="G6" serif:id="G" transform="matrix(1,0,0,1,118.892,414.888)">
                        <path d="M0,2C1.097,2 2,1.097 2,0C2,-1.097 1.097,-2 0,-2C-1.097,-2 -2,-1.097 -2,0C-2,1.097 -1.097,2 0,2Z" style="fill:rgb(255,127,14);fill-rule:nonzero;stroke:rgb(255,127,14);stroke-width:1px;stroke-linecap:butt;"/>
                    </g>
                    <g id="G7" serif:id="G" transform="matrix(1,0,0,1,141.784,406.1)">
                        <path d="M0,2C1.097,2 2,1.097 2,0C2,-1.097 1.097,-2 0,-2C-1.097,-2 -2,-1.097 -2,0C-2,1.097 -1.097,2 0,2Z" style="fill:rgb(255,127,14);fill-rule:nonzero;stroke:rgb(255,127,14);stroke-width:1px;stroke-linecap:butt;"/>
                    </g>
                    <g id="G8" serif:id="G" transform="matrix(1,0,0,1,164.677,395.987)">
                        <path d="M0,2C1.097,2 2,1.097 2,0C2,-1.097 1.097,-2 0,-2C-1.097,-2 -2,-1.097 -2,0C-2,1.097 -1.097,2 0,2Z" style="fill:rgb(255,127,14);fill-rule:nonzero;stroke:rgb(255,127,14);stroke-width:1px;stroke-linecap:butt;"/>
                    </g>
                    <g id="G9" serif:id="G" transform="matrix(1,0,0,1,187.569,377.761)">
                        <path d="M0,2C1.097,2 2,1.097 2,0C2,-1.097 1.097,-2 0,-2C-1.097,-2 -2,-1.097 -2,0C-2,1.097 -1.097,2 0,2Z" style="fill:rgb(255,127,14);fill-rule:nonzero;stroke:rgb(255,127,14);stroke-width:1px;stroke-linecap:butt;"/>
                    </g>
                    <g id="G10" serif:id="G" transform="matrix(1,0,0,1,210.461,366.889)">
                        <path d="M0,2C1.097,2 2,1.097 2,0C2,-1.097 1.097,-2 0,-2C-1.097,-2 -2,-1.097 -2,0C-2,1.097 -1.097,2 0,2Z" style="fill:rgb(255,127,14);fill-rule:nonzero;stroke:rgb(255,127,14);stroke-width:1px;stroke-linecap:butt;"/>
                    </g>
                    <g id="G11" serif:id="G" transform="matrix(1,0,0,1,233.353,347.737)">
                        <path d="M0,2C1.097,2 2,1.097 2,0C2,-1.097 1.097,-2 0,-2C-1.097,-2 -2,-1.097 -2,0C-2,1.097 -1.097,2 0,2Z" style="fill:rgb(255,127,14);fill-rule:nonzero;stroke:rgb(255,127,14);stroke-width:1px;stroke-linecap:butt;"/>
                    </g>
                    <g id="G12" serif:id="G" transform="matrix(1,0,0,1,256.247,336.085)">
                        <path d="M0,2C1.097,2 2,1.097 2,0C2,-1.097 1.097,-2 0,-2C-1.097,-2 -2,-1.097 -2,0C-2,1.097 -1.097,2 0,2Z" style="fill:rgb(255,127,14);fill-rule:nonzero;stroke:rgb(255,127,14);stroke-width:1px;stroke-linecap:butt;"/>
                    </g>
                    <g id="G13" serif:id="G" transform="matrix(1,0,0,1,279.139,330.517)">
                        <path d="M0,2C1.097,2 2,1.097 2,0C2,-1.097 1.097,-2 0,-2C-1.097,-2 -2,-1.097 -2,0C-2,1.097 -1.097,2 0,2Z" style="fill:rgb(255,127,14);fill-rule:nonzero;stroke:rgb(255,127,14);stroke-width:1px;stroke-linecap:butt;"/>
                    </g>
                    <g id="G14" serif:id="G" transform="matrix(1,0,0,1,302.031,309.244)">
                        <path d="M0,2C1.097,2 2,1.097 2,0C2,-1.097 1.097,-2 0,-2C-1.097,-2 -2,-1.097 -2,0C-2,1.097 -1.097,2 0,2Z" style="fill:rgb(255,127,14);fill-rule:nonzero;stroke:rgb(255,127,14);stroke-width:1px;stroke-linecap:butt;"/>
                    </g>
                    <g id="G15" serif:id="G" transform="matrix(1,0,0,1,324.923,296.083)">
                        <path d="M0,2C1.097,2 2,1.097 2,0C2,-1.097 1.097,-2 0,-2C-1.097,-2 -2,-1.097 -2,0C-2,1.097 -1.097,2 0,2Z" style="fill:rgb(255,127,14);fill-rule:nonzero;stroke:rgb(255,127,14);stroke-width:1px;stroke-linecap:butt;"/>
                    </g>
                    <g id="G16" serif:id="G" transform="matrix(1,0,0,1,347.816,284.209)">
                        <path d="M0,2C1.097,2 2,1.097 2,0C2,-1.097 1.097,-2 0,-2C-1.097,-2 -2,-1.097 -2,0C-2,1.097 -1.097,2 0,2Z" style="fill:rgb(255,127,14);fill-rule:nonzero;stroke:rgb(255,127,14);stroke-width:1px;stroke-linecap:butt;"/>
                    </g>
                    <g id="G17" serif:id="G" transform="matrix(1,0,0,1,370.708,271.868)">
                        <path d="M0,2C1.097,2 2,1.097 2,0C2,-1.097 1.097,-2 0,-2C-1.097,-2 -2,-1.097 -2,0C-2,1.097 -1.097,2 0,2Z" style="fill:rgb(255,127,14);fill-rule:nonzero;stroke:rgb(255,127,14);stroke-width:1px;stroke-linecap:butt;"/>
                    </g>
                    <g id="G18" serif:id="G" transform="matrix(1,0,0,1,393.6,261.668)">
                        <path d="M0,2C1.097,2 2,1.097 2,0C2,-1.097 1.097,-2 0,-2C-1.097,-2 -2,-1.097 -2,0C-2,1.097 -1.097,2 0,2Z" style="fill:rgb(255,127,14);fill-rule:nonzero;stroke:rgb(255,127,14);stroke-width:1px;stroke-linecap:butt;"/>
                    </g>
                    <g id="G19" serif:id="G" transform="matrix(1,0,0,1,416.492,250.32)">
                        <path d="M0,2C1.097,2 2,1.097 2,0C2,-1.097 1.097,-2 0,-2C-1.097,-2 -2,-1.097 -2,0C-2,1.097 -1.097,2 0,2Z" style="fill:rgb(255,127,14);fill-rule:nonzero;stroke:rgb(255,127,14);stroke-width:1px;stroke-linecap:butt;"/>
                    </g>
                    <g id="G20" serif:id="G" transform="matrix(1,0,0,1,439.384,237.737)">
                        <path d="M0,2C1.097,2 2,1.097 2,0C2,-1.097 1.097,-2 0,-2C-1.097,-2 -2,-1.097 -2,0C-2,1.097 -1.097,2 0,2Z" style="fill:rgb(255,127,14);fill-rule:nonzero;stroke:rgb(255,127,14);stroke-width:1px;stroke-linecap:butt;"/>
                    </g>
                    <g id="G21" serif:id="G" transform="matrix(1,0,0,1,462.277,222.941)">
                        <path d="M0,2C1.097,2 2,1.097 2,0C2,-1.097 1.097,-2 0,-2C-1.097,-2 -2,-1.097 -2,0C-2,1.097 -1.097,2 0,2Z" style="fill:rgb(255,127,14);fill-rule:nonzero;stroke:rgb(255,127,14);stroke-width:1px;stroke-linecap:butt;"/>
                    </g>
                    <g id="G22" serif:id="G" transform="matrix(1,0,0,1,485.169,214.705)">
                        <path d="M0,2C1.097,2 2,1.097 2,0C2,-1.097 1.097,-2 0,-2C-1.097,-2 -2,-1.097 -2,0C-2,1.097 -1.097,2 0,2Z" style="fill:rgb(255,127,14);fill-rule:nonzero;stroke:rgb(255,127,14);stroke-width:1px;stroke-linecap:butt;"/>
                    </g>
                    <g id="G23" serif:id="G" transform="matrix(1,0,0,1,508.061,189.084)">
                        <path d="M0,2C1.097,2 2,1.097 2,0C2,-1.097 1.097,-2 0,-2C-1.097,-2 -2,-1.097 -2,0C-2,1.097 -1.097,2 0,2Z" style="fill:rgb(255,127,14);fill-rule:nonzero;stroke:rgb(255,127,14);stroke-width:1px;stroke-linecap:butt;"/>
                    </g>
                    <g id="G24" serif:id="G" transform="matrix(1,0,0,1,530.953,173.985)">
                        <path d="M0,2C1.097,2 2,1.097 2,0C2,-1.097 1.097,-2 0,-2C-1.097,-2 -2,-1.097 -2,0C-2,1.097 -1.097,2 0,2Z" style="fill:rgb(255,127,14);fill-rule:nonzero;stroke:rgb(255,127,14);stroke-width:1px;stroke-linecap:butt;"/>
                    </g>
                    <g id="G25" serif:id="G" transform="matrix(1,0,0,1,553.847,160.932)">
                        <path d="M0,2C1.097,2 2,1.097 2,0C2,-1.097 1.097,-2 0,-2C-1.097,-2 -2,-1.097 -2,0C-2,1.097 -1.097,2 0,2Z" style="fill:rgb(255,127,14);fill-rule:nonzero;stroke:rgb(255,127,14);stroke-width:1px;stroke-linecap:butt;"/>
                    </g>
                    <g id="G26" serif:id="G" transform="matrix(1,0,0,1,576.739,148.047)">
                        <path d="M0,2C1.097,2 2,1.097 2,0C2,-1.097 1.097,-2 0,-2C-1.097,-2 -2,-1.097 -2,0C-2,1.097 -1.097,2 0,2Z" style="fill:rgb(255,127,14);fill-rule:nonzero;stroke:rgb(255,127,14);stroke-width:1px;stroke-linecap:butt;"/>
                    </g>
                    <g id="G27" serif:id="G" transform="matrix(1,0,0,1,599.631,136.461)">
                        <path d="M0,2C1.097,2 2,1.097 2,0C2,-1.097 1.097,-2 0,-2C-1.097,-2 -2,-1.097 -2,0C-2,1.097 -1.097,2 0,2Z" style="fill:rgb(255,127,14);fill-rule:nonzero;stroke:rgb(255,127,14);stroke-width:1px;stroke-linecap:butt;"/>
                    </g>
                    <g id="G28" serif:id="G" transform="matrix(1,0,0,1,622.523,127.451)">
                        <path d="M0,2C1.097,2 2,1.097 2,0C2,-1.097 1.097,-2 0,-2C-1.097,-2 -2,-1.097 -2,0C-2,1.097 -1.097,2 0,2Z" style="fill:rgb(255,127,14);fill-rule:nonzero;stroke:rgb(255,127,14);stroke-width:1px;stroke-linecap:butt;"/>
                    </g>
                </g>
            </g>
            <g transform="matrix(1,0,0,1,0,-38)">
                <clipPath id="_clip12">
                    <rect x="96" y="69.12" width="595.2" height="443.52"/>
                </clipPath>
                <g clip-path="url(#_clip12)">
                    <path d="M-1.333,520.135L4.431,504.445L27.324,463.259L50.216,460.357L73.108,429.909L96,403.253L118.893,393.067L141.784,382.723L164.677,368.683L187.569,339.965L210.463,324.8L233.353,316.755L256.247,304.667L279.139,299.128L302.032,289.348L324.923,277.269L347.816,273.379L370.708,247.795L393.6,237.739L416.493,227.113L439.384,216.987L462.277,206.06L485.169,193.229L508.063,183.435L530.953,171.896L553.847,166.919L576.739,161.844L599.632,155.101L622.523,153.389" style="fill:none;fill-rule:nonzero;stroke:rgb(214,39,40);stroke-width:2px;"/>
                </g>
            </g>
            <g transform="matrix(1,0,0,1,0,-38)">
                <clipPath id="_clip13">
                    <rect x="96" y="69.12" width="595.2" height="443.52"/>
                </clipPath>
                <g clip-path="url(#_clip13)">
                    <g id="H" transform="matrix(1,0,0,1,-1.33333,520.135)">
                        <path d="M-4,0L4,0M0,4L0,-4" style="fill:rgb(214,39,40);fill-rule:nonzero;stroke:rgb(214,39,40);stroke-width:1px;stroke-linecap:butt;"/>
                    </g>
                    <g id="H1" serif:id="H" transform="matrix(1,0,0,1,4.43067,504.445)">
                        <path d="M-4,0L4,0M0,4L0,-4" style="fill:rgb(214,39,40);fill-rule:nonzero;stroke:rgb(214,39,40);stroke-width:1px;stroke-linecap:butt;"/>
                    </g>
                    <g id="H2" serif:id="H" transform="matrix(1,0,0,1,27.3227,463.259)">
                        <path d="M-4,0L4,0M0,4L0,-4" style="fill:rgb(214,39,40);fill-rule:nonzero;stroke:rgb(214,39,40);stroke-width:1px;stroke-linecap:butt;"/>
                    </g>
                    <g id="H3" serif:id="H" transform="matrix(1,0,0,1,50.216,460.357)">
                        <path d="M-4,0L4,0M0,4L0,-4" style="fill:rgb(214,39,40);fill-rule:nonzero;stroke:rgb(214,39,40);stroke-width:1px;stroke-linecap:butt;"/>
                    </g>
                    <g id="H4" serif:id="H" transform="matrix(1,0,0,1,73.108,429.909)">
                        <path d="M-4,0L4,0M0,4L0,-4" style="fill:rgb(214,39,40);fill-rule:nonzero;stroke:rgb(214,39,40);stroke-width:1px;stroke-linecap:butt;"/>
                    </g>
                    <g id="H5" serif:id="H" transform="matrix(1,0,0,1,96,403.252)">
                        <path d="M-4,0L4,0M0,4L0,-4" style="fill:rgb(214,39,40);fill-rule:nonzero;stroke:rgb(214,39,40);stroke-width:1px;stroke-linecap:butt;"/>
                    </g>
                    <g id="H6" serif:id="H" transform="matrix(1,0,0,1,118.892,393.064)">
                        <path d="M-4,0L4,0M0,4L0,-4" style="fill:rgb(214,39,40);fill-rule:nonzero;stroke:rgb(214,39,40);stroke-width:1px;stroke-linecap:butt;"/>
                    </g>
                    <g id="H7" serif:id="H" transform="matrix(1,0,0,1,141.784,382.721)">
                        <path d="M-4,0L4,0M0,4L0,-4" style="fill:rgb(214,39,40);fill-rule:nonzero;stroke:rgb(214,39,40);stroke-width:1px;stroke-linecap:butt;"/>
                    </g>
                    <g id="H8" serif:id="H" transform="matrix(1,0,0,1,164.677,368.68)">
                        <path d="M-4,0L4,0M0,4L0,-4" style="fill:rgb(214,39,40);fill-rule:nonzero;stroke:rgb(214,39,40);stroke-width:1px;stroke-linecap:butt;"/>
                    </g>
                    <g id="H9" serif:id="H" transform="matrix(1,0,0,1,187.569,339.964)">
                        <path d="M-4,0L4,0M0,4L0,-4" style="fill:rgb(214,39,40);fill-rule:nonzero;stroke:rgb(214,39,40);stroke-width:1px;stroke-linecap:butt;"/>
                    </g>
                    <g id="H10" serif:id="H" transform="matrix(1,0,0,1,210.461,324.799)">
                        <path d="M-4,0L4,0M0,4L0,-4" style="fill:rgb(214,39,40);fill-rule:nonzero;stroke:rgb(214,39,40);stroke-width:1px;stroke-linecap:butt;"/>
                    </g>
                    <g id="H11" serif:id="H" transform="matrix(1,0,0,1,233.353,316.753)">
                        <path d="M-4,0L4,0M0,4L0,-4" style="fill:rgb(214,39,40);fill-rule:nonzero;stroke:rgb(214,39,40);stroke-width:1px;stroke-linecap:butt;"/>
                    </g>
                    <g id="H12" serif:id="H" transform="matrix(1,0,0,1,256.247,304.665)">
                        <path d="M-4,0L4,0M0,4L0,-4" style="fill:rgb(214,39,40);fill-rule:nonzero;stroke:rgb(214,39,40);stroke-width:1px;stroke-linecap:butt;"/>
                    </g>
                    <g id="H13" serif:id="H" transform="matrix(1,0,0,1,279.139,299.127)">
                        <path d="M-4,0L4,0M0,4L0,-4" style="fill:rgb(214,39,40);fill-rule:nonzero;stroke:rgb(214,39,40);stroke-width:1px;stroke-linecap:butt;"/>
                    </g>
                    <g id="H14" serif:id="H" transform="matrix(1,0,0,1,302.031,289.347)">
                        <path d="M-4,0L4,0M0,4L0,-4" style="fill:rgb(214,39,40);fill-rule:nonzero;stroke:rgb(214,39,40);stroke-width:1px;stroke-linecap:butt;"/>
                    </g>
                    <g id="H15" serif:id="H" transform="matrix(1,0,0,1,324.923,277.268)">
                        <path d="M-4,0L4,0M0,4L0,-4" style="fill:rgb(214,39,40);fill-rule:nonzero;stroke:rgb(214,39,40);stroke-width:1px;stroke-linecap:butt;"/>
                    </g>
                    <g id="H16" serif:id="H" transform="matrix(1,0,0,1,347.816,273.377)">
                        <path d="M-4,0L4,0M0,4L0,-4" style="fill:rgb(214,39,40);fill-rule:nonzero;stroke:rgb(214,39,40);stroke-width:1px;stroke-linecap:butt;"/>
                    </g>
                    <g id="H17" serif:id="H" transform="matrix(1,0,0,1,370.708,247.793)">
                        <path d="M-4,0L4,0M0,4L0,-4" style="fill:rgb(214,39,40);fill-rule:nonzero;stroke:rgb(214,39,40);stroke-width:1px;stroke-linecap:butt;"/>
                    </g>
                    <g id="H18" serif:id="H" transform="matrix(1,0,0,1,393.6,237.737)">
                        <path d="M-4,0L4,0M0,4L0,-4" style="fill:rgb(214,39,40);fill-rule:nonzero;stroke:rgb(214,39,40);stroke-width:1px;stroke-linecap:butt;"/>
                    </g>
                    <g id="H19" serif:id="H" transform="matrix(1,0,0,1,416.492,227.112)">
                        <path d="M-4,0L4,0M0,4L0,-4" style="fill:rgb(214,39,40);fill-rule:nonzero;stroke:rgb(214,39,40);stroke-width:1px;stroke-linecap:butt;"/>
                    </g>
                    <g id="H20" serif:id="H" transform="matrix(1,0,0,1,439.384,216.985)">
                        <path d="M-4,0L4,0M0,4L0,-4" style="fill:rgb(214,39,40);fill-rule:nonzero;stroke:rgb(214,39,40);stroke-width:1px;stroke-linecap:butt;"/>
                    </g>
                    <g id="H21" serif:id="H" transform="matrix(1,0,0,1,462.277,206.059)">
                        <path d="M-4,0L4,0M0,4L0,-4" style="fill:rgb(214,39,40);fill-rule:nonzero;stroke:rgb(214,39,40);stroke-width:1px;stroke-linecap:butt;"/>
                    </g>
                    <g id="H22" serif:id="H" transform="matrix(1,0,0,1,485.169,193.228)">
                        <path d="M-4,0L4,0M0,4L0,-4" style="fill:rgb(214,39,40);fill-rule:nonzero;stroke:rgb(214,39,40);stroke-width:1px;stroke-linecap:butt;"/>
                    </g>
                    <g id="H23" serif:id="H" transform="matrix(1,0,0,1,508.061,183.433)">
                        <path d="M-4,0L4,0M0,4L0,-4" style="fill:rgb(214,39,40);fill-rule:nonzero;stroke:rgb(214,39,40);stroke-width:1px;stroke-linecap:butt;"/>
                    </g>
                    <g id="H24" serif:id="H" transform="matrix(1,0,0,1,530.953,171.895)">
                        <path d="M-4,0L4,0M0,4L0,-4" style="fill:rgb(214,39,40);fill-rule:nonzero;stroke:rgb(214,39,40);stroke-width:1px;stroke-linecap:butt;"/>
                    </g>
                    <g id="H25" serif:id="H" transform="matrix(1,0,0,1,553.847,166.917)">
                        <path d="M-4,0L4,0M0,4L0,-4" style="fill:rgb(214,39,40);fill-rule:nonzero;stroke:rgb(214,39,40);stroke-width:1px;stroke-linecap:butt;"/>
                    </g>
                    <g id="H26" serif:id="H" transform="matrix(1,0,0,1,576.739,161.843)">
                        <path d="M-4,0L4,0M0,4L0,-4" style="fill:rgb(214,39,40);fill-rule:nonzero;stroke:rgb(214,39,40);stroke-width:1px;stroke-linecap:butt;"/>
                    </g>
                    <g id="H27" serif:id="H" transform="matrix(1,0,0,1,599.631,155.1)">
                        <path d="M-4,0L4,0M0,4L0,-4" style="fill:rgb(214,39,40);fill-rule:nonzero;stroke:rgb(214,39,40);stroke-width:1px;stroke-linecap:butt;"/>
                    </g>
                    <g id="H28" serif:id="H" transform="matrix(1,0,0,1,622.523,153.388)">
                        <path d="M-4,0L4,0M0,4L0,-4" style="fill:rgb(214,39,40);fill-rule:nonzero;stroke:rgb(214,39,40);stroke-width:1px;stroke-linecap:butt;"/>
                    </g>
                </g>
            </g>
            <g transform="matrix(1,0,0,1,0,-38)">
                <clipPath id="_clip14">
                    <rect x="96" y="69.12" width="595.2" height="443.52"/>
                </clipPath>
                <g clip-path="url(#_clip14)">
                    <path d="M13.935,577.333L27.323,522.671L50.216,522.671L73.108,486.22L96,467.993L118.893,448.135L141.784,436.839L164.677,415.401L187.569,404.857L210.463,375.792L233.353,365.507L256.247,355.204L279.139,350.455L302.032,338.168L324.923,325.423L347.816,325.423L370.708,300.389L393.6,292.421L416.493,270.572L439.384,270.572L462.277,261.516L485.169,256.487L508.063,243.117L530.953,231.323L553.847,221.612L576.739,216.631L599.632,209.217L622.523,203.867" style="fill:none;fill-rule:nonzero;stroke:rgb(227,119,194);stroke-width:2px;"/>
                </g>
            </g>
            <g transform="matrix(1,0,0,1,0,-38)">
                <clipPath id="_clip15">
                    <rect x="96" y="69.12" width="595.2" height="443.52"/>
                </clipPath>
                <g clip-path="url(#_clip15)">
                    <g id="J" transform="matrix(1,0,0,1,27.3227,522.671)">
                        <path d="M-4,0L4,0M0,4L0,-4" style="fill:rgb(227,119,194);fill-rule:nonzero;stroke:rgb(227,119,194);stroke-width:1px;stroke-linecap:butt;"/>
                    </g>
                    <g id="J1" serif:id="J" transform="matrix(1,0,0,1,50.216,522.671)">
                        <path d="M-4,0L4,0M0,4L0,-4" style="fill:rgb(227,119,194);fill-rule:nonzero;stroke:rgb(227,119,194);stroke-width:1px;stroke-linecap:butt;"/>
                    </g>
                    <g id="J2" serif:id="J" transform="matrix(1,0,0,1,73.108,486.22)">
                        <path d="M-4,0L4,0M0,4L0,-4" style="fill:rgb(227,119,194);fill-rule:nonzero;stroke:rgb(227,119,194);stroke-width:1px;stroke-linecap:butt;"/>
                    </g>
                    <g id="J3" serif:id="J" transform="matrix(1,0,0,1,96,467.995)">
                        <path d="M-4,0L4,0M0,4L0,-4" style="fill:rgb(227,119,194);fill-rule:nonzero;stroke:rgb(227,119,194);stroke-width:1px;stroke-linecap:butt;"/>
                    </g>
                    <g id="J4" serif:id="J" transform="matrix(1,0,0,1,118.892,448.135)">
                        <path d="M-4,0L4,0M0,4L0,-4" style="fill:rgb(227,119,194);fill-rule:nonzero;stroke:rgb(227,119,194);stroke-width:1px;stroke-linecap:butt;"/>
                    </g>
                    <g id="J5" serif:id="J" transform="matrix(1,0,0,1,141.784,436.839)">
                        <path d="M-4,0L4,0M0,4L0,-4" style="fill:rgb(227,119,194);fill-rule:nonzero;stroke:rgb(227,119,194);stroke-width:1px;stroke-linecap:butt;"/>
                    </g>
                    <g id="J6" serif:id="J" transform="matrix(1,0,0,1,164.677,415.401)">
                        <path d="M-4,0L4,0M0,4L0,-4" style="fill:rgb(227,119,194);fill-rule:nonzero;stroke:rgb(227,119,194);stroke-width:1px;stroke-linecap:butt;"/>
                    </g>
                    <g id="J7" serif:id="J" transform="matrix(1,0,0,1,187.569,404.857)">
                        <path d="M-4,0L4,0M0,4L0,-4" style="fill:rgb(227,119,194);fill-rule:nonzero;stroke:rgb(227,119,194);stroke-width:1px;stroke-linecap:butt;"/>
                    </g>
                    <g id="J8" serif:id="J" transform="matrix(1,0,0,1,210.461,375.792)">
                        <path d="M-4,0L4,0M0,4L0,-4" style="fill:rgb(227,119,194);fill-rule:nonzero;stroke:rgb(227,119,194);stroke-width:1px;stroke-linecap:butt;"/>
                    </g>
                    <g id="J9" serif:id="J" transform="matrix(1,0,0,1,233.353,365.507)">
                        <path d="M-4,0L4,0M0,4L0,-4" style="fill:rgb(227,119,194);fill-rule:nonzero;stroke:rgb(227,119,194);stroke-width:1px;stroke-linecap:butt;"/>
                    </g>
                    <g id="J10" serif:id="J" transform="matrix(1,0,0,1,256.247,355.204)">
                        <path d="M-4,0L4,0M0,4L0,-4" style="fill:rgb(227,119,194);fill-rule:nonzero;stroke:rgb(227,119,194);stroke-width:1px;stroke-linecap:butt;"/>
                    </g>
                    <g id="J11" serif:id="J" transform="matrix(1,0,0,1,279.139,350.455)">
                        <path d="M-4,0L4,0M0,4L0,-4" style="fill:rgb(227,119,194);fill-rule:nonzero;stroke:rgb(227,119,194);stroke-width:1px;stroke-linecap:butt;"/>
                    </g>
                    <g id="J12" serif:id="J" transform="matrix(1,0,0,1,302.031,338.168)">
                        <path d="M-4,0L4,0M0,4L0,-4" style="fill:rgb(227,119,194);fill-rule:nonzero;stroke:rgb(227,119,194);stroke-width:1px;stroke-linecap:butt;"/>
                    </g>
                    <g id="J13" serif:id="J" transform="matrix(1,0,0,1,324.923,325.423)">
                        <path d="M-4,0L4,0M0,4L0,-4" style="fill:rgb(227,119,194);fill-rule:nonzero;stroke:rgb(227,119,194);stroke-width:1px;stroke-linecap:butt;"/>
                    </g>
                    <g id="J14" serif:id="J" transform="matrix(1,0,0,1,347.816,325.423)">
                        <path d="M-4,0L4,0M0,4L0,-4" style="fill:rgb(227,119,194);fill-rule:nonzero;stroke:rgb(227,119,194);stroke-width:1px;stroke-linecap:butt;"/>
                    </g>
                    <g id="J15" serif:id="J" transform="matrix(1,0,0,1,370.708,300.389)">
                        <path d="M-4,0L4,0M0,4L0,-4" style="fill:rgb(227,119,194);fill-rule:nonzero;stroke:rgb(227,119,194);stroke-width:1px;stroke-linecap:butt;"/>
                    </g>
                    <g id="J16" serif:id="J" transform="matrix(1,0,0,1,393.6,292.421)">
                        <path d="M-4,0L4,0M0,4L0,-4" style="fill:rgb(227,119,194);fill-rule:nonzero;stroke:rgb(227,119,194);stroke-width:1px;stroke-linecap:butt;"/>
                    </g>
                    <g id="J17" serif:id="J" transform="matrix(1,0,0,1,416.492,270.572)">
                        <path d="M-4,0L4,0M0,4L0,-4" style="fill:rgb(227,119,194);fill-rule:nonzero;stroke:rgb(227,119,194);stroke-width:1px;stroke-linecap:butt;"/>
                    </g>
                    <g id="J18" serif:id="J" transform="matrix(1,0,0,1,439.384,270.572)">
                        <path d="M-4,0L4,0M0,4L0,-4" style="fill:rgb(227,119,194);fill-rule:nonzero;stroke:rgb(227,119,194);stroke-width:1px;stroke-linecap:butt;"/>
                    </g>
                    <g id="J19" serif:id="J" transform="matrix(1,0,0,1,462.277,261.516)">
                        <path d="M-4,0L4,0M0,4L0,-4" style="fill:rgb(227,119,194);fill-rule:nonzero;stroke:rgb(227,119,194);stroke-width:1px;stroke-linecap:butt;"/>
                    </g>
                    <g id="J20" serif:id="J" transform="matrix(1,0,0,1,485.169,256.487)">
                        <path d="M-4,0L4,0M0,4L0,-4" style="fill:rgb(227,119,194);fill-rule:nonzero;stroke:rgb(227,119,194);stroke-width:1px;stroke-linecap:butt;"/>
                    </g>
                    <g id="J21" serif:id="J" transform="matrix(1,0,0,1,508.061,243.117)">
                        <path d="M-4,0L4,0M0,4L0,-4" style="fill:rgb(227,119,194);fill-rule:nonzero;stroke:rgb(227,119,194);stroke-width:1px;stroke-linecap:butt;"/>
                    </g>
                    <g id="J22" serif:id="J" transform="matrix(1,0,0,1,530.953,231.323)">
                        <path d="M-4,0L4,0M0,4L0,-4" style="fill:rgb(227,119,194);fill-rule:nonzero;stroke:rgb(227,119,194);stroke-width:1px;stroke-linecap:butt;"/>
                    </g>
                    <g id="J23" serif:id="J" transform="matrix(1,0,0,1,553.847,221.612)">
                        <path d="M-4,0L4,0M0,4L0,-4" style="fill:rgb(227,119,194);fill-rule:nonzero;stroke:rgb(227,119,194);stroke-width:1px;stroke-linecap:butt;"/>
                    </g>
                    <g id="J24" serif:id="J" transform="matrix(1,0,0,1,576.739,216.631)">
                        <path d="M-4,0L4,0M0,4L0,-4" style="fill:rgb(227,119,194);fill-rule:nonzero;stroke:rgb(227,119,194);stroke-width:1px;stroke-linecap:butt;"/>
                    </g>
                    <g id="J25" serif:id="J" transform="matrix(1,0,0,1,599.631,209.217)">
                        <path d="M-4,0L4,0M0,4L0,-4" style="fill:rgb(227,119,194);fill-rule:nonzero;stroke:rgb(227,119,194);stroke-width:1px;stroke-linecap:butt;"/>
                    </g>
                    <g id="J26" serif:id="J" transform="matrix(1,0,0,1,622.523,203.867)">
                        <path d="M-4,0L4,0M0,4L0,-4" style="fill:rgb(227,119,194);fill-rule:nonzero;stroke:rgb(227,119,194);stroke-width:1px;stroke-linecap:butt;"/>
                    </g>
                </g>
            </g>
            <g transform="matrix(1,0,0,1,0,-38)">
                <clipPath id="_clip16">
                    <rect x="96" y="69.12" width="595.2" height="443.52"/>
                </clipPath>
                <g clip-path="url(#_clip16)">
                    <path d="M622.523,126.317L645.416,122.88L668.308,119.443L691.2,116.004" style="fill:none;fill-rule:nonzero;stroke:rgb(31,119,180);stroke-width:2px;stroke-linecap:butt;stroke-dasharray:1.5,2.48;"/>
                </g>
            </g>
            <g transform="matrix(1,0,0,1,0,-38)">
                <clipPath id="_clip17">
                    <rect x="96" y="69.12" width="595.2" height="443.52"/>
                </clipPath>
                <g clip-path="url(#_clip17)">
                    <path d="M622.523,127.451L645.416,116.691L668.308,105.929L691.2,95.169" style="fill:none;fill-rule:nonzero;stroke:rgb(255,127,14);stroke-width:2px;stroke-linecap:butt;stroke-dasharray:1.5,2.48;"/>
                </g>
            </g>
            <g transform="matrix(1,0,0,1,0,-38)">
                <clipPath id="_clip18">
                    <rect x="96" y="69.12" width="595.2" height="443.52"/>
                </clipPath>
                <g clip-path="url(#_clip18)">
                    <path d="M622.523,153.387L645.416,149.159L691.2,140.7" style="fill:none;fill-rule:nonzero;stroke:rgb(214,39,40);stroke-width:2px;stroke-linecap:butt;stroke-dasharray:1.5,2.48;"/>
                </g>
            </g>
            <g transform="matrix(1,0,0,1,0,-38)">
                <clipPath id="_clip19">
                    <rect x="96" y="69.12" width="595.2" height="443.52"/>
                </clipPath>
                <g clip-path="url(#_clip19)">
                    <path d="M622.523,203.867L645.416,197.86L691.2,185.844" style="fill:none;fill-rule:nonzero;stroke:rgb(227,119,194);stroke-width:2px;stroke-linecap:butt;stroke-dasharray:1.5,2.48;"/>
                </g>
            </g>
        </g>
    </g>
</svg>
