<svg height="576" stroke-linejoin="round" viewBox="0 0 576 432" width="768" xmlns="http://www.w3.org/2000/svg" xmlns:xlink="http://www.w3.org/1999/xlink"><defs><path id="x" d="M44.281 53.078v-8.5q-3.797 1.953-7.906 2.922-4.094.984-8.5.984-6.688 0-10.031-2.047-3.344-2.046-3.344-6.156 0-3.125 2.39-4.906 2.391-1.781 9.626-3.39l3.078-.688q9.562-2.047 13.593-5.781 4.032-3.735 4.032-10.422 0-7.625-6.032-12.078-6.03-4.438-16.578-4.438-4.39 0-9.156.86Q10.688.296 5.422 2v9.281q4.984-2.594 9.812-3.89 4.829-1.282 9.579-1.282 6.343 0 9.75 2.172 3.421 2.172 3.421 6.125 0 3.656-2.468 5.61-2.453 1.953-10.813 3.765l-3.125.735q-8.344 1.75-12.062 5.39-3.704 3.64-3.704 9.985 0 7.718 5.47 11.906Q16.75 56 26.811 56q4.97 0 9.36-.734 4.406-.72 8.11-2.188z" stroke-linejoin="round"/><path id="U" d="M53.516 70.516V60.89q-5.61 2.687-10.594 4-4.984 1.328-9.625 1.328-8.047 0-12.422-3.125t-4.375-8.89q0-4.845 2.906-7.313 2.907-2.453 11.016-3.97l5.953-1.218q11.031-2.11 16.281-7.406 5.25-5.297 5.25-14.172 0-10.61-7.11-16.078-7.093-5.469-20.812-5.469-5.172 0-11.015 1.172Q13.14.922 6.89 3.219v10.156q6-3.36 11.765-5.078 5.766-1.703 11.328-1.703 8.438 0 13.032 3.312 4.593 3.328 4.593 9.485 0 5.359-3.297 8.39-3.296 3.032-10.812 4.547L27.484 33.5q-11.03 2.188-15.968 6.875-4.922 4.688-4.922 13.047 0 9.672 6.812 15.234 6.813 5.563 18.766 5.563 5.14 0 10.453-.938 5.328-.922 10.89-2.765z" stroke-linejoin="round"/><path id="c" d="M31.781 66.406q-7.61 0-11.453-7.5Q16.5 51.422 16.5 36.375q0-14.984 3.828-22.484 3.844-7.5 11.453-7.5 7.672 0 11.5 7.5 3.844 7.5 3.844 22.484 0 15.047-3.844 22.531-3.828 7.5-11.5 7.5zm0 7.813q12.266 0 18.735-9.703 6.468-9.688 6.468-28.141 0-18.406-6.468-28.11-6.47-9.687-18.735-9.687-12.25 0-18.718 9.688-6.47 9.703-6.47 28.109 0 18.453 6.47 28.14Q19.53 74.22 31.78 74.22z" stroke-linejoin="round"/><path id="d" d="M12.406 8.297h16.11v55.625l-17.532-3.516v8.985l17.438 3.515h9.86V8.296H54.39V0H12.406z" stroke-linejoin="round"/><path id="e" d="M34.281 27.484q-10.89 0-15.093-2.484-4.204-2.484-4.204-8.5 0-4.781 3.157-7.594 3.156-2.797 8.562-2.797 7.485 0 12 5.297 4.516 5.297 4.516 14.078v2zm17.922 3.72V0H43.22v8.297Q40.14 3.328 35.547.953q-4.594-2.375-11.234-2.375-8.391 0-13.36 4.719Q6 8.016 6 15.922q0 9.219 6.172 13.906 6.187 4.688 18.437 4.688h12.61v.89q0 6.203-4.078 9.594-4.078 3.39-11.453 3.39-4.688 0-9.141-1.124-4.438-1.125-8.531-3.375v8.312q4.921 1.906 9.562 2.844 4.64.953 9.031.953 11.875 0 17.735-6.156 5.86-6.14 5.86-18.64z" stroke-linejoin="round"/><path id="f" d="M41.11 46.297q-1.516.875-3.297 1.281Q36.03 48 33.89 48q-7.625 0-11.703-4.953-4.079-4.953-4.079-14.234V0H9.08v54.688h9.03v-8.5q2.844 4.984 7.375 7.39Q30.031 56 36.531 56q.922 0 2.047-.125 1.125-.11 2.484-.36z" stroke-linejoin="round"/><path id="g" d="M19.188 8.297h34.421V0H7.33v8.297q5.609 5.812 15.296 15.594 9.703 9.797 12.188 12.64 4.734 5.313 6.609 9 1.89 3.688 1.89 7.25 0 5.813-4.078 9.469-4.078 3.672-10.625 3.672-4.64 0-9.797-1.61-5.14-1.609-11-4.89v9.969Q13.767 71.78 18.938 73q5.188 1.219 9.485 1.219 11.328 0 18.062-5.672 6.735-5.656 6.735-15.125 0-4.5-1.688-8.531-1.672-4.016-6.125-9.485-1.218-1.422-7.765-8.187-6.532-6.766-18.453-18.922z" stroke-linejoin="round"/><path id="h" d="M8.203 72.906h46.875v-4.203L28.61 0H18.312L43.22 64.594H8.203z" stroke-linejoin="round"/><path id="i" d="M0 0v2" stroke="#000" stroke-linejoin="round" stroke-width=".6"/><path id="j" d="M40.578 39.313Q47.656 37.797 51.625 33q3.984-4.781 3.984-11.813 0-10.78-7.422-16.703-7.421-5.906-21.093-5.906-4.578 0-9.438.906-4.86.907-10.031 2.72v9.515q4.094-2.39 8.969-3.61 4.89-1.218 10.218-1.218 9.266 0 14.125 3.656 4.86 3.656 4.86 10.64 0 6.454-4.516 10.079-4.515 3.64-12.562 3.64h-8.5v8.11h8.89q7.266 0 11.125 2.906 3.86 2.906 3.86 8.375 0 5.61-3.985 8.61-3.968 3.015-11.39 3.015-4.063 0-8.703-.89-4.641-.876-10.203-2.72v8.782q5.624 1.562 10.53 2.344 4.907.78 9.25.78 11.235 0 17.766-5.109 6.547-5.093 6.547-13.78 0-6.063-3.468-10.235-3.47-4.172-9.86-5.782z" stroke-linejoin="round"/><path id="k" d="M37.797 64.313L12.89 25.39h24.906zm-2.594 8.593H47.61V25.391h10.407v-8.203H47.609V0h-9.812v17.188H4.89v9.515z" stroke-linejoin="round"/><path id="l" d="M10.797 72.906h38.719v-8.312H19.828v-17.86q2.14.735 4.281 1.094 2.157.36 4.313.36 12.203 0 19.328-6.688 7.14-6.688 7.14-18.11 0-11.765-7.328-18.296-7.328-6.516-20.656-6.516-4.593 0-9.36.781-4.75.782-9.827 2.344v9.922q4.39-2.39 9.078-3.563 4.687-1.171 9.906-1.171 8.453 0 13.375 4.437 4.938 4.438 4.938 12.063 0 7.609-4.938 12.047-4.922 4.453-13.375 4.453-3.953 0-7.89-.875-3.922-.875-8.016-2.735z" stroke-linejoin="round"/><path id="m" d="M33.016 40.375q-6.641 0-10.532-4.547-3.875-4.531-3.875-12.437 0-7.86 3.875-12.438 3.891-4.562 10.532-4.562 6.64 0 10.515 4.562 3.875 4.578 3.875 12.438 0 7.906-3.875 12.437-3.875 4.547-10.515 4.547zm19.578 30.922v-8.984q-3.719 1.75-7.5 2.671-3.782.938-7.5.938-9.766 0-14.922-6.594-5.14-6.594-5.875-19.922 2.875 4.25 7.219 6.516 4.359 2.266 9.578 2.266 10.984 0 17.36-6.672 6.374-6.657 6.374-18.125 0-11.235-6.64-18.032-6.641-6.78-17.672-6.78-12.657 0-19.344 9.687-6.688 9.703-6.688 28.109 0 17.281 8.204 27.563 8.203 10.28 22.015 10.28 3.719 0 7.5-.734t7.89-2.187z" stroke-linejoin="round"/><path id="n" d="M31.781 34.625q-7.031 0-11.062-3.766-4.016-3.765-4.016-10.343 0-6.594 4.016-10.36Q24.75 6.391 31.78 6.391q7.032 0 11.078 3.78 4.063 3.798 4.063 10.345 0 6.578-4.031 10.343-4.016 3.766-11.11 3.766zm-9.86 4.188q-6.343 1.562-9.89 5.906Q8.5 49.079 8.5 55.329q0 8.733 6.219 13.812 6.234 5.078 17.062 5.078 10.89 0 17.094-5.078 6.203-5.079 6.203-13.813 0-6.25-3.547-10.61-3.531-4.343-9.828-5.906 7.125-1.656 11.094-6.5 3.984-4.828 3.984-11.796 0-10.61-6.468-16.282-6.47-5.656-18.532-5.656-12.047 0-18.531 5.656-6.469 5.672-6.469 16.282 0 6.968 4 11.797 4.016 4.843 11.14 6.5zM18.314 54.39q0-5.657 3.53-8.828 3.548-3.172 9.938-3.172 6.36 0 9.938 3.172 3.593 3.171 3.593 8.828 0 5.672-3.593 8.843-3.578 3.172-9.938 3.172-6.39 0-9.937-3.172-3.532-3.172-3.532-8.843z" stroke-linejoin="round"/><path id="o" d="M10.984 1.516V10.5q3.72-1.766 7.516-2.688 3.813-.921 7.484-.921 9.766 0 14.907 6.562 5.156 6.563 5.89 19.953-2.828-4.203-7.187-6.453-4.344-2.25-9.61-2.25-10.937 0-17.312 6.61-6.375 6.625-6.375 18.109 0 11.219 6.64 18 6.641 6.797 17.672 6.797 12.657 0 19.313-9.703 6.672-9.688 6.672-28.141 0-17.234-8.188-27.516Q40.234-1.42 26.422-1.42q-3.719 0-7.531.734-3.797.734-7.907 2.203zM30.61 32.422q6.641 0 10.516 4.531 3.89 4.547 3.89 12.469 0 7.86-3.89 12.422-3.875 4.562-10.516 4.562-6.64 0-10.515-4.562-3.875-4.563-3.875-12.422 0-7.922 3.875-12.469 3.875-4.531 10.515-4.531z" stroke-linejoin="round"/><path id="p" d="M0 0h-3.5" stroke="#000" stroke-linejoin="round" stroke-width=".8"/><path id="q" d="M0 0h-2" stroke="#000" stroke-linejoin="round" stroke-width=".6"/><path id="r" d="M34.188 63.188L20.797 26.906h26.812zm-5.579 9.718h11.188L67.578 0h-10.25l-6.64 18.703h-32.86L11.188 0H.78z" stroke-linejoin="round"/><path id="s" d="M48.781 52.594v-8.407q-3.812 2.11-7.64 3.157-3.828 1.047-7.735 1.047-8.75 0-13.593-5.547-4.829-5.532-4.829-15.547 0-10.016 4.829-15.563 4.843-5.53 13.593-5.53 3.907 0 7.735 1.046 3.828 1.047 7.64 3.156V2.094Q45.016.344 40.984-.531q-4.015-.89-8.562-.89-12.36 0-19.64 7.765-7.266 7.765-7.266 20.953 0 13.375 7.343 21.031Q20.22 56 33.016 56q4.14 0 8.093-.86 3.953-.843 7.672-2.546z" stroke-linejoin="round"/><path id="t" d="M18.313 70.219V54.688h18.5v-6.985h-18.5V18.016q0-6.688 1.828-8.594 1.828-1.906 7.453-1.906h9.218V0h-9.218q-10.407 0-14.36 3.875-3.953 3.89-3.953 14.14v29.688H2.687v6.984h6.594V70.22z" stroke-linejoin="round"/><path id="u" d="M9.422 54.688h8.984V0H9.422zm0 21.296h8.984v-11.39H9.422z" stroke-linejoin="round"/><path id="v" d="M2.984 54.688H12.5L29.594 8.797l17.093 45.89h9.516L35.687 0H23.485z" stroke-linejoin="round"/><path id="w" d="M56.203 29.594v-4.39H14.891q.593-9.282 5.593-14.142 5-4.859 13.938-4.859 5.172 0 10.031 1.266 4.86 1.265 9.656 3.812v-8.5Q49.266.734 44.187-.344 39.11-1.422 33.892-1.422q-13.094 0-20.735 7.61-7.64 7.625-7.64 20.625 0 13.421 7.25 21.296Q20.016 56 32.328 56q11.031 0 17.453-7.11 6.422-7.093 6.422-19.296zm-8.984 2.64q-.094 7.36-4.125 11.75-4.032 4.407-10.672 4.407-7.516 0-12.031-4.25-4.516-4.25-5.203-11.97z" stroke-linejoin="round"/><path id="b" d="M0 0v3.5" stroke="#000" stroke-linejoin="round" stroke-width=".8"/><path id="y" d="M31 75.875q-6.531-11.219-9.719-22.219-3.172-10.984-3.172-22.265 0-11.266 3.203-22.328Q24.517-2 31-13.188h-7.813Q15.875-1.704 12.235 9.375q-3.64 11.078-3.64 22.016 0 10.89 3.61 21.922 3.624 11.046 10.983 22.562z" stroke-linejoin="round"/><path id="z" d="M9.422 75.984h8.984V0H9.422z" stroke-linejoin="round"/><path id="A" d="M30.61 48.39q-7.22 0-11.422-5.64-4.204-5.64-4.204-15.453 0-9.813 4.172-15.453 4.188-5.64 11.453-5.64 7.188 0 11.375 5.655 4.203 5.672 4.203 15.438 0 9.719-4.203 15.406-4.187 5.688-11.375 5.688zm0 7.61q11.718 0 18.406-7.625 6.703-7.61 6.703-21.078 0-13.422-6.703-21.078-6.688-7.64-18.407-7.64-11.765 0-18.437 7.64-6.656 7.656-6.656 21.078 0 13.469 6.656 21.078Q18.844 56 30.609 56z" stroke-linejoin="round"/><path id="B" d="M45.406 27.984q0 9.766-4.031 15.125-4.016 5.375-11.297 5.375-7.219 0-11.25-5.375-4.031-5.359-4.031-15.125 0-9.718 4.031-15.093t11.25-5.375q7.281 0 11.297 5.375 4.031 5.375 4.031 15.093zm8.985-21.203q0-13.953-6.203-20.765Q42-20.797 29.203-20.797q-4.734 0-8.937.703-4.203.703-8.157 2.172v8.735q3.954-2.141 7.813-3.157 3.86-1.031 7.86-1.031 8.843 0 13.234 4.61 4.39 4.609 4.39 13.937v4.453q-2.781-4.844-7.125-7.234Q33.938 0 27.875 0 17.828 0 11.672 7.656q-6.156 7.672-6.156 20.328 0 12.688 6.156 20.344Q17.828 56 27.875 56q6.063 0 10.406-2.39 4.344-2.391 7.125-7.22v8.297h8.985z" stroke-linejoin="round"/><path id="C" d="M54.89 33.016V0h-8.984v32.719q0 7.765-3.031 11.61-3.031 3.858-9.078 3.858-7.281 0-11.484-4.64-4.204-4.625-4.204-12.64V0H9.08v75.984h9.03V46.188q3.235 4.937 7.594 7.374Q30.078 56 35.797 56q9.422 0 14.25-5.828 4.844-5.828 4.844-17.156z" stroke-linejoin="round"/><path id="D" d="M52 44.188q3.375 6.062 8.063 8.937Q64.75 56 71.093 56q8.548 0 13.188-5.984 4.64-5.97 4.64-17V0h-9.03v32.719q0 7.86-2.797 11.656-2.781 3.813-8.485 3.813-6.984 0-11.046-4.641-4.047-4.625-4.047-12.64V0h-9.032v32.719q0 7.906-2.78 11.687-2.782 3.782-8.595 3.782-6.89 0-10.953-4.657-4.047-4.656-4.047-12.625V0H9.08v54.688h9.03v-8.5q3.078 5.03 7.375 7.421Q29.781 56 35.687 56q5.97 0 10.141-3.031Q50 49.953 52 44.187z" stroke-linejoin="round"/><path id="E" d="M8.016 75.875h7.812q7.313-11.516 10.953-22.563 3.64-11.03 3.64-21.921 0-10.938-3.64-22.016-3.64-11.078-10.953-22.563H8.016Q14.5-2 17.703 9.063q3.203 11.063 3.203 22.329 0 11.28-3.203 22.265-3.203 11-9.687 22.219z" stroke-linejoin="round"/><path id="F" d="M-3 0h6M0 3v-6" stroke="#1f77b4" stroke-linejoin="round"/><path id="G" d="M0 1.5a1.5 1.5 0 100-3 1.5 1.5 0 000 3z" stroke="#ff7f0e" stroke-linejoin="round"/><path id="H" d="M-3 0h6M0 3v-6" stroke="#d62728" stroke-linejoin="round"/><path id="I" d="M0 1.5a1.5 1.5 0 100-3 1.5 1.5 0 000 3z" stroke="#9467bd" stroke-linejoin="round"/><path id="J" d="M-3 0h6M0 3v-6" stroke="#e377c2" stroke-linejoin="round"/><path id="K" d="M9.813 72.906h9.859V0h-9.86z" stroke-linejoin="round"/><path id="L" d="M4.89 31.39h26.313v-8H4.891z" stroke-linejoin="round"/><path id="M" d="M54.89 33.016V0h-8.984v32.719q0 7.765-3.031 11.61-3.031 3.858-9.078 3.858-7.281 0-11.484-4.64-4.204-4.625-4.204-12.64V0H9.08v54.688h9.03v-8.5q3.235 4.937 7.594 7.374Q30.078 56 35.797 56q9.422 0 14.25-5.828 4.844-5.828 4.844-17.156z" stroke-linejoin="round"/><path id="N" d="M37.11 75.984V68.5h-8.594q-4.828 0-6.72-1.953-1.874-1.953-1.874-7.031v-4.828h14.797v-6.985H19.922V0H10.89v47.703H2.297v6.984h8.594V58.5q0 9.125 4.25 13.297 4.25 4.187 13.468 4.187z" stroke-linejoin="round"/><path id="O" d="M45.406 46.39v29.594h8.985V0h-8.985v8.203Q42.578 3.328 38.25.953q-4.313-2.375-10.375-2.375-9.906 0-16.14 7.906-6.22 7.922-6.22 20.813 0 12.89 6.22 20.797Q17.968 56 27.874 56q6.063 0 10.375-2.375 4.328-2.36 7.156-7.234zm-30.61-19.093q0-9.906 4.079-15.547 4.078-5.64 11.203-5.64 7.125 0 11.219 5.64 4.11 5.64 4.11 15.547 0 9.906-4.11 15.547-4.094 5.64-11.219 5.64-7.125 0-11.203-5.64-4.078-5.64-4.078-15.547z" stroke-linejoin="round"/><path id="P" d="M8.5 21.578v33.11h8.984V21.922q0-7.766 3.016-11.656 3.031-3.875 9.094-3.875 7.265 0 11.484 4.64 4.234 4.64 4.234 12.656v31h8.985V0h-8.984v8.406Q42.047 3.422 37.718 1q-4.313-2.422-10.032-2.422-9.421 0-14.312 5.86Q8.5 10.296 8.5 21.578z" stroke-linejoin="round"/><path id="Q" d="M18.11 8.203v-29H9.077v75.484h9.031v-8.296q2.844 4.875 7.157 7.234Q29.594 56 35.594 56q9.968 0 16.187-7.906 6.235-7.907 6.235-20.797T51.78 6.484q-6.218-7.906-16.187-7.906-6 0-10.328 2.375-4.313 2.375-7.157 7.25zm30.578 19.094q0 9.906-4.079 15.547-4.078 5.64-11.203 5.64-7.14 0-11.218-5.64-4.079-5.64-4.079-15.547 0-9.906 4.078-15.547 4.079-5.64 11.22-5.64 7.124 0 11.202 5.64t4.078 15.547z" stroke-linejoin="round"/><path id="R" d="M32.172-5.078q-3.797-9.766-7.422-12.735-3.61-2.984-9.656-2.984H7.906v7.516h5.282q3.703 0 5.75 1.765Q21-9.766 23.483-3.219l1.61 4.094-22.11 53.813H12.5l17.094-42.766 17.093 42.766h9.516z" stroke-linejoin="round"/><path id="S" d="M48.688 27.297q0 9.906-4.079 15.547-4.078 5.64-11.203 5.64-7.14 0-11.218-5.64-4.079-5.64-4.079-15.547 0-9.906 4.078-15.547 4.079-5.64 11.22-5.64 7.124 0 11.202 5.64t4.078 15.547zM18.108 46.39q2.844 4.875 7.157 7.234Q29.594 56 35.594 56q9.968 0 16.187-7.906 6.235-7.907 6.235-20.797T51.78 6.484q-6.218-7.906-16.187-7.906-6 0-10.328 2.375-4.313 2.375-7.157 7.25V0H9.08v75.984h9.03z" stroke-linejoin="round"/><path id="T" d="M10.688 12.406H21V0H10.687z" stroke-linejoin="round"/><clipPath id="a" stroke-linejoin="round"><path d="M72 51.84h446.4v332.64H72z"/></clipPath></defs><path d="M0 432h576V0H0z" fill="#fff"/><path d="M72 384.48h446.4V51.84H72z" fill="#fff"/><path clip-path="url(#a)" d="M72 384.48V51.84" fill="none" stroke="#b0b0b0" stroke-linecap="square" stroke-width=".8"/><use stroke="#000" stroke-width=".8" x="72" xlink:href="#b" y="384.48"/><g transform="matrix(.1 0 0 -.1 65.638 399.078)"><use xlink:href="#c"/><use x="63.623" xlink:href="#d"/></g><g transform="matrix(.1 0 0 -.1 62.566 410.276)"><path d="M9.813 72.906h14.703l18.593-49.61 18.703 49.61h14.704V0H66.89v64.016l-18.797-50h-9.907l-18.796 50V0H9.813z"/><use x="86.279" xlink:href="#e"/><use x="147.559" xlink:href="#f"/></g><g transform="matrix(.1 0 0 -.1 59.275 421.474)"><use xlink:href="#g"/><use x="63.623" xlink:href="#c"/><use x="127.246" xlink:href="#g"/><use x="190.869" xlink:href="#c"/></g><path clip-path="url(#a)" d="M518.4 384.48V51.84" fill="none" stroke="#b0b0b0" stroke-linecap="square" stroke-width=".8"/><use stroke="#000" stroke-width=".8" x="518.4" xlink:href="#b" y="384.48"/><g transform="matrix(.1 0 0 -.1 512.038 399.078)"><use xlink:href="#g"/><use x="63.623" xlink:href="#h"/></g><use stroke="#000" stroke-width=".6" x="72" xlink:href="#i" y="384.48"/><use stroke="#000" stroke-width=".6" x="89.169" xlink:href="#i" y="384.48"/><g transform="matrix(.1 0 0 -.1 82.807 397.478)"><use xlink:href="#c"/><use x="63.623" xlink:href="#g"/></g><use stroke="#000" stroke-width=".6" x="106.338" xlink:href="#i" y="384.48"/><g transform="matrix(.1 0 0 -.1 99.976 397.478)"><use xlink:href="#c"/><use x="63.623" xlink:href="#j"/></g><use stroke="#000" stroke-width=".6" x="123.508" xlink:href="#i" y="384.48"/><g transform="matrix(.1 0 0 -.1 117.145 397.478)"><use xlink:href="#c"/><use x="63.623" xlink:href="#k"/></g><use stroke="#000" stroke-width=".6" x="140.677" xlink:href="#i" y="384.48"/><g transform="matrix(.1 0 0 -.1 134.314 397.478)"><use xlink:href="#c"/><use x="63.623" xlink:href="#l"/></g><use stroke="#000" stroke-width=".6" x="157.846" xlink:href="#i" y="384.48"/><g transform="matrix(.1 0 0 -.1 151.484 397.478)"><use xlink:href="#c"/><use x="63.623" xlink:href="#m"/></g><use stroke="#000" stroke-width=".6" x="175.015" xlink:href="#i" y="384.48"/><g transform="matrix(.1 0 0 -.1 168.653 397.478)"><use xlink:href="#c"/><use x="63.623" xlink:href="#h"/></g><use stroke="#000" stroke-width=".6" x="192.185" xlink:href="#i" y="384.48"/><g transform="matrix(.1 0 0 -.1 185.822 397.478)"><use xlink:href="#c"/><use x="63.623" xlink:href="#n"/></g><use stroke="#000" stroke-width=".6" x="209.354" xlink:href="#i" y="384.48"/><g transform="matrix(.1 0 0 -.1 202.991 397.478)"><use xlink:href="#c"/><use x="63.623" xlink:href="#o"/></g><use stroke="#000" stroke-width=".6" x="226.523" xlink:href="#i" y="384.48"/><g transform="matrix(.1 0 0 -.1 220.16 397.478)"><use xlink:href="#d"/><use x="63.623" xlink:href="#c"/></g><use stroke="#000" stroke-width=".6" x="243.692" xlink:href="#i" y="384.48"/><g transform="matrix(.1 0 0 -.1 237.33 397.478)"><use xlink:href="#d"/><use x="63.623" xlink:href="#d"/></g><g><use stroke="#000" stroke-width=".6" x="260.862" xlink:href="#i" y="384.48"/><g transform="matrix(.1 0 0 -.1 254.499 397.478)"><use xlink:href="#d"/><use x="63.623" xlink:href="#g"/></g></g><g><use stroke="#000" stroke-width=".6" x="278.031" xlink:href="#i" y="384.48"/><g transform="matrix(.1 0 0 -.1 271.668 397.478)"><use xlink:href="#d"/><use x="63.623" xlink:href="#j"/></g></g><g><use stroke="#000" stroke-width=".6" x="295.2" xlink:href="#i" y="384.48"/><g transform="matrix(.1 0 0 -.1 288.837 397.478)"><use xlink:href="#d"/><use x="63.623" xlink:href="#k"/></g></g><g><use stroke="#000" stroke-width=".6" x="312.369" xlink:href="#i" y="384.48"/><g transform="matrix(.1 0 0 -.1 306.007 397.478)"><use xlink:href="#d"/><use x="63.623" xlink:href="#l"/></g></g><g><use stroke="#000" stroke-width=".6" x="329.538" xlink:href="#i" y="384.48"/><g transform="matrix(.1 0 0 -.1 323.176 397.478)"><use xlink:href="#d"/><use x="63.623" xlink:href="#m"/></g></g><g><use stroke="#000" stroke-width=".6" x="346.708" xlink:href="#i" y="384.48"/><g transform="matrix(.1 0 0 -.1 340.345 397.478)"><use xlink:href="#d"/><use x="63.623" xlink:href="#h"/></g></g><g><use stroke="#000" stroke-width=".6" x="363.877" xlink:href="#i" y="384.48"/><g transform="matrix(.1 0 0 -.1 357.514 397.478)"><use xlink:href="#d"/><use x="63.623" xlink:href="#n"/></g></g><g><use stroke="#000" stroke-width=".6" x="381.046" xlink:href="#i" y="384.48"/><g transform="matrix(.1 0 0 -.1 374.684 397.478)"><use xlink:href="#d"/><use x="63.623" xlink:href="#o"/></g></g><g><use stroke="#000" stroke-width=".6" x="398.215" xlink:href="#i" y="384.48"/><g transform="matrix(.1 0 0 -.1 391.853 397.478)"><use xlink:href="#g"/><use x="63.623" xlink:href="#c"/></g></g><g><use stroke="#000" stroke-width=".6" x="415.385" xlink:href="#i" y="384.48"/><g transform="matrix(.1 0 0 -.1 409.022 397.478)"><use xlink:href="#g"/><use x="63.623" xlink:href="#d"/></g></g><g><use stroke="#000" stroke-width=".6" x="432.554" xlink:href="#i" y="384.48"/><g transform="matrix(.1 0 0 -.1 426.191 397.478)"><use xlink:href="#g"/><use x="63.623" xlink:href="#g"/></g></g><g><use stroke="#000" stroke-width=".6" x="449.723" xlink:href="#i" y="384.48"/><g transform="matrix(.1 0 0 -.1 443.36 397.478)"><use xlink:href="#g"/><use x="63.623" xlink:href="#j"/></g></g><g><use stroke="#000" stroke-width=".6" x="466.892" xlink:href="#i" y="384.48"/><g transform="matrix(.1 0 0 -.1 460.53 397.478)"><use xlink:href="#g"/><use x="63.623" xlink:href="#k"/></g></g><g><use stroke="#000" stroke-width=".6" x="484.062" xlink:href="#i" y="384.48"/><g transform="matrix(.1 0 0 -.1 477.699 397.478)"><use xlink:href="#g"/><use x="63.623" xlink:href="#l"/></g></g><g><use stroke="#000" stroke-width=".6" x="501.231" xlink:href="#i" y="384.48"/><g transform="matrix(.1 0 0 -.1 494.868 397.478)"><use xlink:href="#g"/><use x="63.623" xlink:href="#m"/></g></g><use stroke="#000" stroke-width=".6" x="518.4" xlink:href="#i" y="384.48"/><g><path clip-path="url(#a)" d="M72 384.48h446.4" fill="none" stroke="#b0b0b0" stroke-linecap="square" stroke-width=".8"/><use stroke="#000" stroke-width=".8" x="72" xlink:href="#p" y="384.48"/><g transform="matrix(.1 0 0 -.1 47.4 388.28)"><use transform="translate(0 .684)" xlink:href="#d"/><use transform="translate(63.623 .684)" xlink:href="#c"/><use transform="matrix(.7 0 0 .7 128.203 38.966)" xlink:href="#d"/></g><path clip-path="url(#a)" d="M72 306.856h446.4" fill="none" stroke="#b0b0b0" stroke-linecap="square" stroke-width=".8"/><use stroke="#000" stroke-width=".8" x="72" xlink:href="#p" y="306.856"/><g transform="matrix(.1 0 0 -.1 47.4 310.655)"><use transform="translate(0 .766)" xlink:href="#d"/><use transform="translate(63.623 .766)" xlink:href="#c"/><use transform="matrix(.7 0 0 .7 128.203 39.047)" xlink:href="#g"/></g><path clip-path="url(#a)" d="M72 229.232h446.4" fill="none" stroke="#b0b0b0" stroke-linecap="square" stroke-width=".8"/><use stroke="#000" stroke-width=".8" x="72" xlink:href="#p" y="229.232"/><g transform="matrix(.1 0 0 -.1 47.4 233.032)"><use transform="translate(0 .766)" xlink:href="#d"/><use transform="translate(63.623 .766)" xlink:href="#c"/><use transform="matrix(.7 0 0 .7 128.203 39.047)" xlink:href="#j"/></g><g><path clip-path="url(#a)" d="M72 151.608h446.4" fill="none" stroke="#b0b0b0" stroke-linecap="square" stroke-width=".8"/><use stroke="#000" stroke-width=".8" x="72" xlink:href="#p" y="151.608"/><g transform="matrix(.1 0 0 -.1 47.4 155.408)"><use transform="translate(0 .684)" xlink:href="#d"/><use transform="translate(63.623 .684)" xlink:href="#c"/><use transform="matrix(.7 0 0 .7 128.203 38.966)" xlink:href="#k"/></g></g><g><path clip-path="url(#a)" d="M72 73.985h446.4" fill="none" stroke="#b0b0b0" stroke-linecap="square" stroke-width=".8"/><use stroke="#000" stroke-width=".8" x="72" xlink:href="#p" y="73.985"/><g transform="matrix(.1 0 0 -.1 47.4 77.784)"><use transform="translate(0 .684)" xlink:href="#d"/><use transform="translate(63.623 .684)" xlink:href="#c"/><use transform="matrix(.7 0 0 .7 128.203 38.966)" xlink:href="#l"/></g></g><g stroke="#000" stroke-width=".6"><use x="72" xlink:href="#q" y="361.113"/><use x="72" xlink:href="#q" y="347.444"/><use x="72" xlink:href="#q" y="337.746"/><use x="72" xlink:href="#q" y="330.223"/><use x="72" xlink:href="#q" y="324.077"/><use x="72" xlink:href="#q" y="318.88"/><use x="72" xlink:href="#q" y="314.379"/><use x="72" xlink:href="#q" y="310.408"/><use x="72" xlink:href="#q" y="283.489"/><use x="72" xlink:href="#q" y="269.82"/><use x="72" xlink:href="#q" y="260.122"/><use x="72" xlink:href="#q" y="252.599"/><use x="72" xlink:href="#q" y="246.453"/><use x="72" xlink:href="#q" y="241.256"/><use x="72" xlink:href="#q" y="236.755"/><use x="72" xlink:href="#q" y="232.784"/><use x="72" xlink:href="#q" y="205.865"/><use x="72" xlink:href="#q" y="192.196"/><use x="72" xlink:href="#q" y="182.498"/><use x="72" xlink:href="#q" y="174.976"/><use x="72" xlink:href="#q" y="168.829"/><use x="72" xlink:href="#q" y="163.633"/><use x="72" xlink:href="#q" y="159.131"/><use x="72" xlink:href="#q" y="155.16"/><use x="72" xlink:href="#q" y="128.241"/><use x="72" xlink:href="#q" y="114.572"/><use x="72" xlink:href="#q" y="104.874"/><use x="72" xlink:href="#q" y="97.352"/><use x="72" xlink:href="#q" y="91.205"/><use x="72" xlink:href="#q" y="86.009"/><use x="72" xlink:href="#q" y="81.507"/><use x="72" xlink:href="#q" y="77.536"/></g><g transform="matrix(0 -.1 -.1 0 41.32 297.634)"><use xlink:href="#r"/><use x="68.393" xlink:href="#s"/><use x="123.373" xlink:href="#t"/><use x="162.582" xlink:href="#u"/><use x="190.365" xlink:href="#v"/><use x="249.545" xlink:href="#w"/><use x="342.855" xlink:href="#s"/><use x="397.836" xlink:href="#e"/><use x="459.115" xlink:href="#x"/><use x="511.215" xlink:href="#w"/><use x="572.738" xlink:href="#x"/><use x="656.625" xlink:href="#y"/><use x="695.639" xlink:href="#z"/><use x="723.422" xlink:href="#A"/><use x="784.604" xlink:href="#B"/><use x="848.08" xlink:href="#e"/><use x="909.359" xlink:href="#f"/><use x="950.473" xlink:href="#u"/><use x="978.256" xlink:href="#t"/><use x="1017.465" xlink:href="#C"/><use x="1080.844" xlink:href="#D"/><use x="1178.256" xlink:href="#u"/><use x="1206.039" xlink:href="#s"/><use x="1292.807" xlink:href="#x"/><use x="1344.906" xlink:href="#s"/><use x="1399.887" xlink:href="#e"/><use x="1461.166" xlink:href="#z"/><use x="1488.949" xlink:href="#w"/><use x="1550.473" xlink:href="#E"/></g></g><g stroke="#1f77b4"><path clip-path="url(#a)" d="M-1 259.97l4.323-2.908 17.17-10.213 17.169-10.968 17.169-8.39L72 213.876l17.17-5.108 17.168-7.068 17.17-6.027 17.169-6.649 17.17-5.81 17.168-8.647 17.17-7.845 17.169-7.528 17.17-3.253 17.168-6.265h17.17l17.169-11.635 17.169-5.776 17.17-5.025 17.168-3.817 17.17-4.107 17.169-3.262 17.17-4.888 17.168-5.046 17.17-3.433 17.169-2.989 17.17-2.627 17.168-2.333" fill="none" stroke-linecap="square" stroke-width="1.5"/><g clip-path="url(#a)" fill="#1f77b4"><use x="-1" xlink:href="#F" y="259.969"/><use x="3.323" xlink:href="#F" y="257.062"/><use x="20.492" xlink:href="#F" y="246.849"/><use x="37.662" xlink:href="#F" y="235.881"/><use x="54.831" xlink:href="#F" y="227.491"/><use x="72" xlink:href="#F" y="213.876"/><use x="89.169" xlink:href="#F" y="208.768"/><use x="106.338" xlink:href="#F" y="201.7"/><use x="123.508" xlink:href="#F" y="195.673"/><use x="140.677" xlink:href="#F" y="189.024"/><use x="157.846" xlink:href="#F" y="183.214"/><use x="175.015" xlink:href="#F" y="174.567"/><use x="192.185" xlink:href="#F" y="166.722"/><use x="209.354" xlink:href="#F" y="159.194"/><use x="226.523" xlink:href="#F" y="155.941"/><use x="243.692" xlink:href="#F" y="149.676"/><use x="260.862" xlink:href="#F" y="149.676"/><use x="278.031" xlink:href="#F" y="138.041"/><use x="295.2" xlink:href="#F" y="132.265"/><use x="312.369" xlink:href="#F" y="127.24"/><use x="329.538" xlink:href="#F" y="123.423"/><use x="346.708" xlink:href="#F" y="119.316"/><use x="363.877" xlink:href="#F" y="116.054"/><use x="381.046" xlink:href="#F" y="111.166"/><use x="398.215" xlink:href="#F" y="106.12"/><use x="415.385" xlink:href="#F" y="102.687"/><use x="432.554" xlink:href="#F" y="99.698"/><use x="449.723" xlink:href="#F" y="97.071"/><use x="466.892" xlink:href="#F" y="94.738"/></g></g><g stroke="#ff7f0e"><path clip-path="url(#a)" d="M-1 329.279l4.323-1.02 17.17-.63 17.169-.619 17.169-4.038L72 319.856l17.17-8.691 17.168-6.59 17.17-7.586 17.169-13.67 17.17-8.153 17.168-14.364 17.17-8.739 17.169-4.176 17.17-15.955 17.168-9.87 17.17-8.906 17.169-9.256 17.169-7.65 17.17-8.511 17.168-9.437 17.17-11.097 17.169-6.177 17.17-19.216 17.168-11.324 17.17-9.79 17.169-9.664 17.17-8.689 17.168-6.758" fill="none" stroke-linecap="square" stroke-width="1.5"/><g clip-path="url(#a)" fill="#ff7f0e"><use x="-1" xlink:href="#G" y="329.279"/><use x="3.323" xlink:href="#G" y="328.259"/><use x="20.492" xlink:href="#G" y="327.629"/><use x="37.662" xlink:href="#G" y="327.01"/><use x="54.831" xlink:href="#G" y="322.971"/><use x="72" xlink:href="#G" y="319.857"/><use x="89.169" xlink:href="#G" y="311.166"/><use x="106.338" xlink:href="#G" y="304.575"/><use x="123.508" xlink:href="#G" y="296.99"/><use x="140.677" xlink:href="#G" y="283.321"/><use x="157.846" xlink:href="#G" y="275.167"/><use x="175.015" xlink:href="#G" y="260.803"/><use x="192.185" xlink:href="#G" y="252.064"/><use x="209.354" xlink:href="#G" y="247.888"/><use x="226.523" xlink:href="#G" y="231.933"/><use x="243.692" xlink:href="#G" y="222.062"/><use x="260.862" xlink:href="#G" y="213.157"/><use x="278.031" xlink:href="#G" y="203.901"/><use x="295.2" xlink:href="#G" y="196.251"/><use x="312.369" xlink:href="#G" y="187.74"/><use x="329.538" xlink:href="#G" y="178.303"/><use x="346.708" xlink:href="#G" y="167.206"/><use x="363.877" xlink:href="#G" y="161.029"/><use x="381.046" xlink:href="#G" y="141.813"/><use x="398.215" xlink:href="#G" y="130.489"/><use x="415.385" xlink:href="#G" y="120.699"/><use x="432.554" xlink:href="#G" y="111.035"/><use x="449.723" xlink:href="#G" y="102.346"/><use x="466.892" xlink:href="#G" y="95.588"/></g></g><path clip-path="url(#a)" d="M-1 389.854l4.323-8.587 17.17-5.632 17.169-28.191 17.169-12.136L72 313.546l17.17-12.27 17.168-10.683 17.17-10.01 17.169-5.152 17.17-14.714 17.168-5.307 17.17-10.387 17.169-16.226 17.17-15.994 17.168-7.605 17.17.016 17.169-29.599 17.169-4.932 17.17-7.012 17.168-8.772 17.17-3.915 17.169-6.096 17.17-9.179 17.168-3.5 17.17-6.987 17.169-4.126 17.17-5.923 17.168-4.101" fill="none" stroke="#2ca02c" stroke-linecap="square" stroke-width="1.5"/><g stroke="#d62728"><path clip-path="url(#a)" d="M-1 390.101l4.323-11.767 17.17-30.89 17.169-2.176 17.169-22.836L72 302.44l17.17-7.64 17.168-7.758 17.17-10.53 17.169-21.538 17.17-11.374 17.168-6.034 17.17-9.066 17.169-4.154 17.17-7.335 17.168-9.059 17.17-2.918 17.169-19.188 17.169-7.542 17.17-7.969 17.168-7.595 17.17-8.195 17.169-9.623 17.17-7.346 17.168-8.654 17.17-3.733 17.169-3.806 17.17-5.057 17.168-1.284" fill="none" stroke-linecap="square" stroke-width="1.5"/><g clip-path="url(#a)" fill="#d62728"><use x="-1" xlink:href="#H" y="390.101"/><use x="3.323" xlink:href="#H" y="378.334"/><use x="20.492" xlink:href="#H" y="347.444"/><use x="37.662" xlink:href="#H" y="345.268"/><use x="54.831" xlink:href="#H" y="322.432"/><use x="72" xlink:href="#H" y="302.439"/><use x="89.169" xlink:href="#H" y="294.798"/><use x="106.338" xlink:href="#H" y="287.041"/><use x="123.508" xlink:href="#H" y="276.51"/><use x="140.677" xlink:href="#H" y="254.973"/><use x="157.846" xlink:href="#H" y="243.599"/><use x="175.015" xlink:href="#H" y="237.565"/><use x="192.185" xlink:href="#H" y="228.499"/><use x="209.354" xlink:href="#H" y="224.345"/><use x="226.523" xlink:href="#H" y="217.01"/><use x="243.692" xlink:href="#H" y="207.951"/><use x="260.862" xlink:href="#H" y="205.033"/><use x="278.031" xlink:href="#H" y="185.845"/><use x="295.2" xlink:href="#H" y="178.303"/><use x="312.369" xlink:href="#H" y="170.334"/><use x="329.538" xlink:href="#H" y="162.739"/><use x="346.708" xlink:href="#H" y="154.544"/><use x="363.877" xlink:href="#H" y="144.921"/><use x="381.046" xlink:href="#H" y="137.575"/><use x="398.215" xlink:href="#H" y="128.921"/><use x="415.385" xlink:href="#H" y="125.188"/><use x="432.554" xlink:href="#H" y="121.382"/><use x="449.723" xlink:href="#H" y="116.325"/><use x="466.892" xlink:href="#H" y="115.041"/></g></g><g stroke="#9467bd"><path clip-path="url(#a)" d="M-1 415.625l4.323-7.778 17.17-54.257 17.169-19.057L54.83 311.94 72 301.853l17.17-14.054 17.168-2.224 17.17-12.078 17.169-9.73 17.17-19.066 17.168-12.877 17.17-5.651 17.169-2.463 17.17-13.13 17.168-8.294h17.17l17.169-16.01 17.169-6.814 17.17-.254 17.168-13.025 17.17-4.98 17.169-5.636 17.17-6.021 17.168-4.558 17.17-4.076 17.169.989 17.17-8.288 17.168-2.252" fill="none" stroke-linecap="square" stroke-width="1.5"/><g clip-path="url(#a)" fill="#9467bd"><use x="-1" xlink:href="#I" y="415.625"/><use x="3.323" xlink:href="#I" y="407.847"/><use x="20.492" xlink:href="#I" y="353.59"/><use x="37.662" xlink:href="#I" y="334.533"/><use x="54.831" xlink:href="#I" y="311.941"/><use x="72" xlink:href="#I" y="301.853"/><use x="89.169" xlink:href="#I" y="287.799"/><use x="106.338" xlink:href="#I" y="285.575"/><use x="123.508" xlink:href="#I" y="273.497"/><use x="140.677" xlink:href="#I" y="263.768"/><use x="157.846" xlink:href="#I" y="244.701"/><use x="175.015" xlink:href="#I" y="231.824"/><use x="192.185" xlink:href="#I" y="226.173"/><use x="209.354" xlink:href="#I" y="223.71"/><use x="226.523" xlink:href="#I" y="210.579"/><use x="243.692" xlink:href="#I" y="202.286"/><use x="260.862" xlink:href="#I" y="202.286"/><use x="278.031" xlink:href="#I" y="186.275"/><use x="295.2" xlink:href="#I" y="179.462"/><use x="312.369" xlink:href="#I" y="179.208"/><use x="329.538" xlink:href="#I" y="166.183"/><use x="346.708" xlink:href="#I" y="161.203"/><use x="363.877" xlink:href="#I" y="155.567"/><use x="381.046" xlink:href="#I" y="149.546"/><use x="398.215" xlink:href="#I" y="144.988"/><use x="415.385" xlink:href="#I" y="140.912"/><use x="432.554" xlink:href="#I" y="141.901"/><use x="449.723" xlink:href="#I" y="133.613"/><use x="466.892" xlink:href="#I" y="131.361"/></g></g><path clip-path="url(#a)" d="M-1 317.496l4.323.906 17.17-29.434 17.169-16.942L54.83 257.92 72 238.975l17.17-14.278 17.168-18.288 17.17-4.931 17.169-5.315 17.17-11.128 17.168-2.613 17.17-1.872 17.169-2.247 17.17-3.462 17.168-4.206 17.17-5.46 17.169-5.582 17.169-5.023 17.17 2.029 17.168-3.431 17.17-.851 17.169-3.418 17.17-1.746 17.168-.156 17.17.138 17.169-2.555 17.17-1.454 17.168-2.774" fill="none" stroke="#8c564b" stroke-linecap="square" stroke-width="1.5"/><g stroke="#e377c2"><path clip-path="url(#a)" d="M10.451 433l10.041-40.997h17.17l17.169-27.338L72 350.995l17.17-14.894 17.168-8.472 17.17-16.078 17.169-7.908 17.17-21.799 17.168-7.714 17.17-7.727 17.169-3.562 17.17-9.215 17.168-9.559h17.17l17.169-18.775 17.169-5.976 17.17-16.387h17.168l17.17-6.792 17.169-3.772 17.17-10.027 17.168-8.846 17.17-7.283 17.169-3.736 17.17-5.56 17.168-4.013" fill="none" stroke-linecap="square" stroke-width="1.5"/><g clip-path="url(#a)" fill="#e377c2"><use x="-1" xlink:href="#J" y="462.104"/><use x="3.323" xlink:href="#J" y="462.104"/><use x="20.492" xlink:href="#J" y="392.003"/><use x="37.662" xlink:href="#J" y="392.003"/><use x="54.831" xlink:href="#J" y="364.665"/><use x="72" xlink:href="#J" y="350.996"/><use x="89.169" xlink:href="#J" y="336.101"/><use x="106.338" xlink:href="#J" y="327.629"/><use x="123.508" xlink:href="#J" y="311.551"/><use x="140.677" xlink:href="#J" y="303.643"/><use x="157.846" xlink:href="#J" y="281.844"/><use x="175.015" xlink:href="#J" y="274.13"/><use x="192.185" xlink:href="#J" y="266.403"/><use x="209.354" xlink:href="#J" y="262.841"/><use x="226.523" xlink:href="#J" y="253.626"/><use x="243.692" xlink:href="#J" y="244.067"/><use x="260.862" xlink:href="#J" y="244.067"/><use x="278.031" xlink:href="#J" y="225.292"/><use x="295.2" xlink:href="#J" y="219.316"/><use x="312.369" xlink:href="#J" y="202.929"/><use x="329.538" xlink:href="#J" y="202.929"/><use x="346.708" xlink:href="#J" y="196.137"/><use x="363.877" xlink:href="#J" y="192.365"/><use x="381.046" xlink:href="#J" y="182.338"/><use x="398.215" xlink:href="#J" y="173.492"/><use x="415.385" xlink:href="#J" y="166.209"/><use x="432.554" xlink:href="#J" y="162.473"/><use x="449.723" xlink:href="#J" y="156.913"/><use x="466.892" xlink:href="#J" y="152.9"/></g></g><path clip-path="url(#a)" d="M466.892 94.738l17.17-2.578 17.169-2.578 17.169-2.579" fill="none" stroke="#1f77b4" stroke-dasharray="1.5 2.475" stroke-width="1.5"/><path clip-path="url(#a)" d="M466.892 95.588l17.17-8.07 17.169-8.071 17.169-8.07" fill="none" stroke="#ff7f0e" stroke-dasharray="1.5 2.475" stroke-width="1.5"/><path clip-path="url(#a)" d="M466.892 111.072l17.17-4.758 17.169-4.757L518.4 96.8" fill="none" stroke="#2ca02c" stroke-dasharray="1.5 2.475" stroke-width="1.5"/><path clip-path="url(#a)" d="M466.892 115.04l17.17-3.171 17.169-3.172 17.169-3.172" fill="none" stroke="#d62728" stroke-dasharray="1.5 2.475" stroke-width="1.5"/><path clip-path="url(#a)" d="M466.892 131.361l17.17-3.713 17.169-3.713 17.169-3.713" fill="none" stroke="#9467bd" stroke-dasharray="1.5 2.475" stroke-width="1.5"/><path clip-path="url(#a)" d="M466.892 140.352l17.17-2.255 17.169-2.256 17.169-2.256" fill="none" stroke="#8c564b" stroke-dasharray="1.5 2.475" stroke-width="1.5"/><path clip-path="url(#a)" d="M466.892 152.9l17.17-4.505 17.169-4.506 17.169-4.506" fill="none" stroke="#e377c2" stroke-dasharray="1.5 2.475" stroke-width="1.5"/><path d="M72 384.48V51.84M518.4 384.48V51.84M72 384.48h446.4M72 51.84h446.4" fill="none" stroke="#000" stroke-linecap="square" stroke-linejoin="miter" stroke-width=".8"/><g><g transform="matrix(.12 0 0 -.12 134.13 32.403)"><use xlink:href="#r"/><use x="68.393" xlink:href="#s"/><use x="123.373" xlink:href="#t"/><use x="162.582" xlink:href="#u"/><use x="190.365" xlink:href="#v"/><use x="249.545" xlink:href="#w"/><path d="M407.262 67.281v-10.39q-4.985 4.64-10.625 6.922-5.64 2.296-11.985 2.296-12.5 0-19.14-7.64-6.64-7.64-6.64-22.094 0-14.406 6.64-22.047 6.64-7.64 19.14-7.64 6.344 0 11.985 2.296 5.64 2.297 10.625 6.938V5.609Q402.09 2.094 396.293.33q-5.781-1.75-12.219-1.75-16.562 0-26.094 10.124-9.515 10.14-9.515 27.672 0 17.578 9.515 27.703 9.532 10.14 26.094 10.14 6.531 0 12.313-1.734 5.797-1.734 10.875-5.203zM452.086 66.219q-10.75 0-17.078-8.016-6.313-8-6.313-21.828 0-13.766 6.313-21.781 6.328-8 17.078-8 10.734 0 17.016 8 6.28 8.015 6.28 21.781 0 13.828-6.28 21.828-6.282 8.016-17.016 8.016zm0 8q15.328 0 24.5-10.281 9.187-10.282 9.187-27.563 0-17.234-9.187-27.516-9.172-10.28-24.5-10.28-15.375 0-24.594 10.25-9.203 10.265-9.203 27.546t9.203 27.563q9.219 10.28 24.594 10.28zM519.984 0l-27.828 72.906h10.297l23.11-61.375 23.14 61.375h10.25L531.172 0z"/><use x="559.783" xlink:href="#K"/><path d="M608.947 64.797V8.109h11.922q15.094 0 22.094 6.829 7 6.843 7 21.593 0 14.64-7 21.453-7 6.813-22.094 6.813zm-9.86 8.11h20.267q21.187 0 31.093-8.813 9.922-8.813 9.922-27.563 0-18.86-9.969-27.703Q640.447 0 619.354 0h-20.266z"/><use x="666.277" xlink:href="#L"/><use x="702.361" xlink:href="#d"/><use x="765.984" xlink:href="#o"/><use x="861.395" xlink:href="#s"/><use x="916.375" xlink:href="#e"/><use x="977.654" xlink:href="#x"/><use x="1029.754" xlink:href="#w"/><use x="1091.277" xlink:href="#x"/><use x="1175.164" xlink:href="#u"/><use x="1202.947" xlink:href="#M"/><use x="1298.113" xlink:href="#t"/><use x="1337.322" xlink:href="#C"/><use x="1400.701" xlink:href="#w"/><use x="1494.012" xlink:href="#D"/><use x="1591.424" xlink:href="#A"/><use x="1652.605" xlink:href="#x"/><use x="1704.705" xlink:href="#t"/><use x="1775.701" xlink:href="#e"/><use x="1836.98" xlink:href="#N"/><use x="1872.186" xlink:href="#N"/><use x="1907.391" xlink:href="#w"/><use x="1968.914" xlink:href="#s"/><use x="2023.895" xlink:href="#t"/><use x="2063.104" xlink:href="#w"/><use x="2124.627" xlink:href="#O"/><use x="2219.891" xlink:href="#s"/><use x="2274.871" xlink:href="#A"/><use x="2336.053" xlink:href="#P"/><use x="2399.432" xlink:href="#M"/><use x="2462.811" xlink:href="#t"/><use x="2502.02" xlink:href="#f"/><use x="2543.133" xlink:href="#u"/><use x="2570.916" xlink:href="#w"/><use x="2632.439" xlink:href="#x"/></g><g transform="matrix(.12 0 0 -.12 128.808 45.84)"><use xlink:href="#e"/><use x="61.279" xlink:href="#x"/><use x="145.166" xlink:href="#A"/><use x="206.348" xlink:href="#N"/><use x="273.34" xlink:href="#g"/><use x="336.963" xlink:href="#c"/><use x="400.586" xlink:href="#g"/><use x="464.209" xlink:href="#c"/><use x="527.832" xlink:href="#L"/><use x="563.916" xlink:href="#c"/><use x="627.539" xlink:href="#j"/><use x="691.162" xlink:href="#L"/><use x="727.246" xlink:href="#g"/><use x="790.869" xlink:href="#k"/><path d="M866.21 12.406h10.298V4l-8-15.625h-6.297l4 15.625z"/><use x="918.066" xlink:href="#u"/><use x="945.85" xlink:href="#M"/><use x="1009.229" xlink:href="#s"/><use x="1064.209" xlink:href="#z"/><use x="1091.992" xlink:href="#P"/><use x="1155.371" xlink:href="#O"/><use x="1218.848" xlink:href="#u"/><use x="1246.631" xlink:href="#M"/><use x="1310.01" xlink:href="#B"/><use x="1405.273" xlink:href="#Q"/><use x="1468.75" xlink:href="#f"/><use x="1509.832" xlink:href="#w"/><use x="1571.355" xlink:href="#x"/><use x="1623.455" xlink:href="#P"/><use x="1686.834" xlink:href="#D"/><use x="1784.246" xlink:href="#Q"/><use x="1847.723" xlink:href="#t"/><use x="1886.932" xlink:href="#u"/><use x="1914.715" xlink:href="#v"/><use x="1973.895" xlink:href="#w"/><use x="2067.205" xlink:href="#Q"/><use x="2130.682" xlink:href="#A"/><use x="2191.863" xlink:href="#x"/><use x="2243.963" xlink:href="#u"/><use x="2271.746" xlink:href="#t"/><use x="2310.955" xlink:href="#u"/><use x="2338.738" xlink:href="#v"/><use x="2397.918" xlink:href="#w"/><use x="2491.229" xlink:href="#s"/><use x="2546.209" xlink:href="#e"/><use x="2607.488" xlink:href="#x"/><use x="2659.588" xlink:href="#w"/><use x="2721.111" xlink:href="#x"/></g></g><g><path d="M312.637 379.48H511.4q2 0 2-2V275.733q0-2-2-2H312.638q-2 0-2 2V377.48q0 2 2 2z" fill="#fff" opacity=".8" stroke="#ccc" stroke-linejoin="miter"/><path d="M314.637 281.832h20" fill="none" stroke="#1f77b4" stroke-linecap="square" stroke-width="1.5"/><use fill="#1f77b4" stroke="#1f77b4" x="324.637" xlink:href="#F" y="281.832"/><g transform="matrix(.1 0 0 -.1 342.637 285.332)"><use xlink:href="#K"/><use x="29.492" xlink:href="#t"/><use x="68.701" xlink:href="#e"/><use x="129.98" xlink:href="#z"/><use x="157.764" xlink:href="#R"/><use x="248.73" xlink:href="#y"/><use x="287.744" xlink:href="#O"/><use x="351.221" xlink:href="#A"/><use x="412.402" xlink:href="#P"/><use x="475.781" xlink:href="#S"/><use x="539.258" xlink:href="#z"/><use x="567.041" xlink:href="#w"/><use x="628.564" xlink:href="#x"/><use x="712.451" xlink:href="#u"/><use x="740.234" xlink:href="#M"/><use x="835.4" xlink:href="#o"/><use x="899.023" xlink:href="#T"/><use x="930.811" xlink:href="#d"/><use x="1026.221" xlink:href="#O"/><use x="1089.697" xlink:href="#e"/><use x="1150.977" xlink:href="#R"/><use x="1210.156" xlink:href="#x"/><use x="1262.256" xlink:href="#E"/></g><path d="M314.637 296.51h20" fill="none" stroke="#ff7f0e" stroke-linecap="square" stroke-width="1.5"/><use fill="#ff7f0e" stroke="#ff7f0e" x="324.637" xlink:href="#G" y="296.51"/><g transform="matrix(.1 0 0 -.1 342.637 300.01)"><path d="M8.688 72.906h9.921V28.61q0-11.718 4.235-16.875 4.25-5.14 13.781-5.14 9.469 0 13.719 5.14 4.25 5.157 4.25 16.875v44.297H64.5V27.391q0-14.25-7.063-21.532-7.046-7.28-20.812-7.28-13.828 0-20.89 7.28-7.047 7.282-7.047 21.532z"/><use x="73.193" xlink:href="#U"/><use x="168.457" xlink:href="#y"/><use x="207.471" xlink:href="#O"/><use x="270.947" xlink:href="#A"/><use x="332.129" xlink:href="#P"/><use x="395.508" xlink:href="#S"/><use x="458.984" xlink:href="#z"/><use x="486.768" xlink:href="#w"/><use x="548.291" xlink:href="#x"/><use x="632.178" xlink:href="#u"/><use x="659.961" xlink:href="#M"/><use x="755.127" xlink:href="#g"/><use x="818.75" xlink:href="#T"/><use x="850.537" xlink:href="#o"/><use x="945.947" xlink:href="#O"/><use x="1009.424" xlink:href="#e"/><use x="1070.703" xlink:href="#R"/><use x="1129.883" xlink:href="#x"/><use x="1181.982" xlink:href="#E"/></g><path d="M314.637 311.188h20" fill="none" stroke="#2ca02c" stroke-linecap="square" stroke-width="1.5"/><g transform="matrix(.1 0 0 -.1 342.637 314.688)"><use xlink:href="#U"/><use x="63.477" xlink:href="#Q"/><use x="126.953" xlink:href="#e"/><use x="188.232" xlink:href="#u"/><use x="216.016" xlink:href="#M"/><use x="311.182" xlink:href="#y"/><use x="350.195" xlink:href="#O"/><use x="413.672" xlink:href="#A"/><use x="474.854" xlink:href="#P"/><use x="538.232" xlink:href="#S"/><use x="601.709" xlink:href="#z"/><use x="629.492" xlink:href="#w"/><use x="691.016" xlink:href="#x"/><use x="774.902" xlink:href="#u"/><use x="802.686" xlink:href="#M"/><use x="897.852" xlink:href="#k"/><use x="961.475" xlink:href="#T"/><use x="993.262" xlink:href="#o"/><use x="1088.672" xlink:href="#O"/><use x="1152.148" xlink:href="#e"/><use x="1213.428" xlink:href="#R"/><use x="1272.607" xlink:href="#x"/><use x="1324.707" xlink:href="#E"/></g><path d="M314.637 325.866h20" fill="none" stroke="#d62728" stroke-linecap="square" stroke-width="1.5"/><use fill="#d62728" stroke="#d62728" x="324.637" xlink:href="#H" y="325.866"/><g transform="matrix(.1 0 0 -.1 342.637 329.366)"><path d="M59.516 10.406v19.578h-16.11v8.11h25.875V6.78Q63.578 2.734 56.687.656 49.813-1.422 42-1.422q-17.094 0-26.75 9.985-9.64 10-9.64 27.812 0 17.875 9.64 27.86 9.656 9.984 26.75 9.984 7.125 0 13.547-1.766 6.422-1.75 11.844-5.172v-10.5q-5.47 4.64-11.625 6.985-6.157 2.343-12.938 2.343-13.39 0-20.11-7.468-6.702-7.47-6.702-22.266 0-14.75 6.703-22.219 6.718-7.469 20.11-7.469 5.218 0 9.312.907 4.109.906 7.375 2.812z"/><use x="77.49" xlink:href="#w"/><use x="139.014" xlink:href="#f"/><use x="180.111" xlink:href="#D"/><use x="277.523" xlink:href="#e"/><use x="338.803" xlink:href="#M"/><use x="402.182" xlink:href="#R"/><use x="493.148" xlink:href="#y"/><use x="532.162" xlink:href="#O"/><use x="595.639" xlink:href="#A"/><use x="656.82" xlink:href="#P"/><use x="720.199" xlink:href="#S"/><use x="783.676" xlink:href="#z"/><use x="811.459" xlink:href="#w"/><use x="872.982" xlink:href="#x"/><use x="956.869" xlink:href="#u"/><use x="984.652" xlink:href="#M"/><use x="1079.818" xlink:href="#h"/><use x="1143.441" xlink:href="#T"/><use x="1175.229" xlink:href="#k"/><use x="1270.639" xlink:href="#O"/><use x="1334.115" xlink:href="#e"/><use x="1395.395" xlink:href="#R"/><use x="1454.574" xlink:href="#x"/><use x="1506.674" xlink:href="#E"/></g><path d="M314.637 340.544h20" fill="none" stroke="#9467bd" stroke-linecap="square" stroke-width="1.5"/><use fill="#9467bd" stroke="#9467bd" x="324.637" xlink:href="#I" y="340.544"/><g transform="matrix(.1 0 0 -.1 342.637 344.044)"><path d="M9.813 72.906h41.89v-8.312H19.672V43.109h28.906v-8.297H19.672V0h-9.86z"/><use x="57.41" xlink:href="#f"/><use x="98.523" xlink:href="#e"/><use x="159.803" xlink:href="#M"/><use x="223.182" xlink:href="#s"/><use x="278.162" xlink:href="#w"/><use x="371.473" xlink:href="#y"/><use x="410.486" xlink:href="#O"/><use x="473.963" xlink:href="#A"/><use x="535.145" xlink:href="#P"/><use x="598.523" xlink:href="#S"/><use x="662" xlink:href="#z"/><use x="689.783" xlink:href="#w"/><use x="751.307" xlink:href="#x"/><use x="835.193" xlink:href="#u"/><use x="862.977" xlink:href="#M"/><use x="958.143" xlink:href="#m"/><use x="1021.766" xlink:href="#T"/><use x="1053.553" xlink:href="#j"/><use x="1148.963" xlink:href="#O"/><use x="1212.439" xlink:href="#e"/><use x="1273.719" xlink:href="#R"/><use x="1332.898" xlink:href="#x"/><use x="1384.998" xlink:href="#E"/></g><path d="M314.637 355.222h20" fill="none" stroke="#8c564b" stroke-linecap="square" stroke-width="1.5"/><g transform="matrix(.1 0 0 -.1 342.637 358.722)"><use xlink:href="#K"/><use x="29.492" xlink:href="#f"/><use x="70.605" xlink:href="#e"/><use x="131.885" xlink:href="#M"/><use x="227.051" xlink:href="#y"/><use x="266.064" xlink:href="#O"/><use x="329.541" xlink:href="#A"/><use x="390.723" xlink:href="#P"/><use x="454.102" xlink:href="#S"/><use x="517.578" xlink:href="#z"/><use x="545.361" xlink:href="#w"/><use x="606.885" xlink:href="#x"/><use x="690.771" xlink:href="#u"/><use x="718.555" xlink:href="#M"/><use x="813.721" xlink:href="#d"/><use x="877.344" xlink:href="#c"/><use x="940.967" xlink:href="#T"/><use x="972.754" xlink:href="#k"/><use x="1068.164" xlink:href="#O"/><use x="1131.641" xlink:href="#e"/><use x="1192.92" xlink:href="#R"/><use x="1252.1" xlink:href="#x"/><use x="1304.199" xlink:href="#E"/></g><path d="M314.637 369.9h20" fill="none" stroke="#e377c2" stroke-linecap="square" stroke-width="1.5"/><use fill="#e377c2" stroke="#e377c2" x="324.637" xlink:href="#J" y="369.9"/><g transform="matrix(.1 0 0 -.1 342.637 373.4)"><use xlink:href="#U"/><path d="M67.68 54.688h8.984l11.234-42.672L99.07 54.688h10.594l11.234-42.672 11.188 42.672h8.984L126.758 0h-10.594l-11.766 44.828L92.586 0h-10.61z"/><use x="145.264" xlink:href="#u"/><use x="173.047" xlink:href="#t"/><path d="M217.771 54.688h42.672v-8.204l-33.78-39.312h33.78V0h-43.89v8.203l33.797 39.313H217.77z"/><use x="264.746" xlink:href="#w"/><use x="326.27" xlink:href="#f"/><use x="367.383" xlink:href="#z"/><use x="395.166" xlink:href="#e"/><use x="456.445" xlink:href="#M"/><use x="519.824" xlink:href="#O"/><use x="615.088" xlink:href="#y"/><use x="654.102" xlink:href="#O"/><use x="717.578" xlink:href="#A"/><use x="778.76" xlink:href="#P"/><use x="842.139" xlink:href="#S"/><use x="905.615" xlink:href="#z"/><use x="933.398" xlink:href="#w"/><use x="994.922" xlink:href="#x"/><use x="1078.809" xlink:href="#u"/><use x="1106.592" xlink:href="#M"/><use x="1201.758" xlink:href="#l"/><use x="1265.381" xlink:href="#T"/><use x="1297.168" xlink:href="#g"/><use x="1392.578" xlink:href="#O"/><use x="1456.055" xlink:href="#e"/><use x="1517.334" xlink:href="#R"/><use x="1576.514" xlink:href="#x"/><use x="1628.613" xlink:href="#E"/></g></g></svg>