<svg xmlns="http://www.w3.org/2000/svg" version="1.1" style="font-family:Lato, &#x27;Helvetica Neue&#x27;, Helvetica, Arial, sans-serif;font-size:18px;background-color:white;text-rendering:geometricPrecision;-webkit-font-smoothing:antialiased" width="850" height="600" viewBox="0 0 850 600"><g class="HeaderView"><g transform="translate(774, 15) scale(0.29)"><svg className="owidLog" width="210" height="120" viewBox="0 0 210 120" fill="none" xmlns="http://www.w3.org/2000/svg">
<g clip-path="url(#clip0)">
  <path d="M0 0h210v107.89H0V0z" fill="#002147" />
  <path
    d="M40.98 32.25c0 2.36-.38 4.53-1.12 6.51a14.26 14.26 0 0 1-8.1 8.4c-1.9.78-4.02 1.17-6.34 1.17-2.31 0-4.42-.39-6.33-1.17a14.31 14.31 0 0 1-8.08-8.4 18.29 18.29 0 0 1-1.12-6.51c0-2.36.38-4.53 1.12-6.5.75-1.97 1.8-3.67 3.17-5.1a14.32 14.32 0 0 1 4.9-3.34c1.92-.8 4.03-1.19 6.34-1.19 2.32 0 4.43.4 6.34 1.19 1.92.8 3.56 1.9 4.93 3.34a14.87 14.87 0 0 1 3.17 5.1 18.1 18.1 0 0 1 1.12 6.5zm-4.38 0c0-1.94-.26-3.68-.8-5.22a10.91 10.91 0 0 0-2.24-3.89 9.68 9.68 0 0 0-3.52-2.46 11.95 11.95 0 0 0-4.62-.86c-1.68 0-3.21.28-4.6.86a9.88 9.88 0 0 0-3.54 2.46 10.91 10.91 0 0 0-2.24 3.9c-.53 1.53-.8 3.27-.8 5.2 0 1.94.27 3.68.8 5.22a11.17 11.17 0 0 0 2.24 3.9 10.01 10.01 0 0 0 3.55 2.44c1.38.56 2.9.83 4.6.83s3.24-.27 4.61-.83a9.8 9.8 0 0 0 3.52-2.44 11.17 11.17 0 0 0 2.25-3.9c.53-1.54.8-3.28.8-5.21zm26.22-6.54V48H60.5c-.56 0-.9-.27-1.05-.81l-.31-2.4a12.45 12.45 0 0 1-3.26 2.6c-1.2.64-2.58.96-4.13.96-1.22 0-2.3-.2-3.24-.6a6.52 6.52 0 0 1-2.33-1.7 7.37 7.37 0 0 1-1.43-2.67c-.3-1.04-.46-2.2-.46-3.45V25.7h3.91v14.22c0 1.68.38 2.99 1.15 3.91.77.93 1.96 1.39 3.54 1.39 1.16 0 2.24-.27 3.23-.82a10.42 10.42 0 0 0 2.8-2.28V25.7h3.91zm8.61 4.47a9.94 9.94 0 0 1 2.6-3.56 5.64 5.64 0 0 1 3.76-1.3c.47 0 .92.05 1.34.15.44.1.83.27 1.17.49l-.3 2.92c-.09.37-.3.55-.66.55-.2 0-.5-.04-.9-.13a6.21 6.21 0 0 0-3.24.18 4.23 4.23 0 0 0-1.47.92c-.42.4-.81.9-1.17 1.5-.33.58-.64 1.26-.92 2.02V48H67.7V25.71h2.25c.42 0 .72.08.88.25.16.16.27.44.33.83l.26 3.39zm61.16-13.7L122.75 48h-3.82l-7.99-24.05a21.95 21.95 0 0 1-.42-1.58 38.36 38.36 0 0 1-.44 1.58L102.05 48h-3.83L88.4 16.47h3.54c.38 0 .7.1.95.29.26.2.43.43.5.73l6.52 21.9.28 1.28.29 1.46.3-1.46.38-1.27 7.41-21.91c.1-.25.26-.48.51-.69.27-.22.58-.33.95-.33h1.23c.38 0 .69.1.92.29a1.77 1.77 0 0 1 .53.73l7.4 21.9a28.4 28.4 0 0 1 .68 2.62 29.52 29.52 0 0 1 .52-2.61l6.54-21.91a1.31 1.31 0 0 1 .48-.7c.27-.21.58-.32.95-.32h3.32zm9.35 8.88c1.63 0 3.1.27 4.4.82a9.43 9.43 0 0 1 5.46 5.94c.5 1.4.74 2.98.74 4.73 0 1.76-.25 3.34-.74 4.75a9.43 9.43 0 0 1-5.46 5.92c-1.3.52-2.77.79-4.4.79-1.64 0-3.12-.27-4.44-.8a9.42 9.42 0 0 1-3.35-2.3c-.92-1-1.63-2.2-2.13-3.61-.49-1.41-.73-3-.73-4.75s.24-3.33.73-4.73c.5-1.43 1.2-2.64 2.13-3.63.93-1 2.04-1.77 3.35-2.31 1.32-.55 2.8-.82 4.44-.82zm0 19.89c2.2 0 3.84-.73 4.93-2.2 1.08-1.48 1.63-3.54 1.63-6.18 0-2.66-.55-4.72-1.63-6.2-1.09-1.49-2.73-2.23-4.93-2.23-1.12 0-2.09.2-2.93.57a5.71 5.71 0 0 0-2.06 1.65c-.55.72-.96 1.61-1.24 2.67-.26 1.04-.4 2.22-.4 3.54 0 2.64.55 4.7 1.64 6.18 1.1 1.47 2.76 2.2 4.99 2.2zm17.97-15.07a9.94 9.94 0 0 1 2.6-3.56 5.64 5.64 0 0 1 3.76-1.3c.47 0 .91.05 1.34.15.44.1.83.27 1.16.49l-.28 2.92c-.09.37-.31.55-.66.55-.2 0-.5-.04-.9-.13a6.2 6.2 0 0 0-3.24.18 4.23 4.23 0 0 0-1.47.92c-.43.4-.82.9-1.17 1.5a13.1 13.1 0 0 0-.92 2.02V48h-3.94V25.71h2.24c.43 0 .72.08.88.25.17.16.28.44.33.83l.27 3.39zm15.04-14.59V48h-3.92V15.6h3.92zm19.55 15.43a6.22 6.22 0 0 0-2.38-2.05 6.7 6.7 0 0 0-2.86-.6c-2.07 0-3.66.75-4.77 2.23-1.12 1.48-1.68 3.6-1.68 6.33 0 1.46.13 2.7.38 3.74a7.29 7.29 0 0 0 1.1 2.56 4.35 4.35 0 0 0 1.78 1.45c.7.3 1.5.46 2.4.46 1.29 0 2.41-.3 3.36-.88a9.6 9.6 0 0 0 2.67-2.49V31.02zm3.91-15.43V48h-2.33c-.56 0-.9-.27-1.06-.81l-.35-2.71a12.13 12.13 0 0 1-3.25 2.77 8.28 8.28 0 0 1-4.23 1.06 7.31 7.31 0 0 1-6.14-2.9c-.73-.96-1.3-2.15-1.69-3.57a18.35 18.35 0 0 1 .07-9.48 11.29 11.29 0 0 1 1.89-3.7 8.7 8.7 0 0 1 7.06-3.34 7.96 7.96 0 0 1 6.12 2.62V15.59h3.91zM46.61 70.71V93H42.7V70.71h3.91zm.84-7c0 .39-.08.75-.24 1.09-.15.32-.35.61-.62.88-.25.25-.55.44-.9.59a2.67 2.67 0 0 1-2.16 0 2.9 2.9 0 0 1-1.45-1.47 2.67 2.67 0 0 1 0-2.16c.15-.35.35-.65.6-.9.25-.27.53-.47.85-.62a2.67 2.67 0 0 1 2.16 0c.35.15.65.35.9.62.27.25.47.55.62.9.16.34.24.7.24 1.08zm7.97 10.24c.49-.54 1-1.04 1.54-1.48a9.85 9.85 0 0 1 3.66-1.84 8.96 8.96 0 0 1 5.43.35c.94.4 1.72.97 2.33 1.71.63.74 1.11 1.62 1.43 2.67.32 1.04.49 2.19.49 3.45V93h-3.94V78.81c0-1.69-.4-3-1.17-3.92-.76-.93-1.93-1.4-3.5-1.4-1.15 0-2.24.27-3.25.83-1 .56-1.92 1.31-2.77 2.27V93h-3.94V70.71h2.35c.56 0 .9.28 1.04.82l.3 2.42zm57.7 3.3c0 2.36-.37 4.5-1.11 6.44a14.3 14.3 0 0 1-3.17 4.98c-1.37 1.37-3 2.45-4.93 3.2-1.9.76-4.02 1.13-6.33 1.13H85.8V61.47h11.77c2.31 0 4.42.39 6.33 1.15a13.8 13.8 0 0 1 8.1 8.18 17.75 17.75 0 0 1 1.12 6.45zm-4.37 0c0-1.94-.26-3.67-.8-5.2a10.94 10.94 0 0 0-2.23-3.87 9.57 9.57 0 0 0-3.53-2.42 12.23 12.23 0 0 0-4.61-.83h-7.5v24.62h7.5c1.7 0 3.24-.28 4.61-.84a9.7 9.7 0 0 0 3.53-2.4 10.94 10.94 0 0 0 2.24-3.87c.53-1.53.8-3.26.8-5.2zm19.8 5.72c-1.8.06-3.34.2-4.62.44-1.26.22-2.3.51-3.1.88-.8.36-1.37.8-1.74 1.3-.35.5-.53 1.05-.53 1.67 0 .58.1 1.1.3 1.52a3 3 0 0 0 .76 1.05c.34.27.73.46 1.17.6a6.13 6.13 0 0 0 1.45.17 7.28 7.28 0 0 0 3.5-.81 11.95 11.95 0 0 0 2.82-2.2v-4.62zm-12.65-9.11a12.73 12.73 0 0 1 3.98-2.66c1.43-.59 3-.88 4.73-.88 1.25 0 2.36.2 3.33.61a6.81 6.81 0 0 1 3.94 4.38c.33 1.04.5 2.19.5 3.43V93h-1.74a1.8 1.8 0 0 1-.88-.18c-.2-.13-.36-.38-.48-.74l-.44-2.12-1.72 1.46a9.48 9.48 0 0 1-3.74 1.7c-.69.15-1.46.23-2.3.23-.87 0-1.69-.12-2.45-.35a5.34 5.34 0 0 1-3.34-2.93 6.64 6.64 0 0 1-.49-2.64c0-.88.25-1.72.73-2.53a6.33 6.33 0 0 1 2.35-2.17c1.09-.63 2.5-1.15 4.25-1.54 1.75-.41 3.89-.65 6.42-.7v-1.75c0-1.73-.37-3.03-1.12-3.91-.75-.9-1.84-1.34-3.28-1.34-.97 0-1.78.12-2.44.37-.64.23-1.2.5-1.7.81l-1.23.82c-.33.23-.67.35-1 .35-.27 0-.5-.07-.69-.2a2.1 2.1 0 0 1-.48-.53l-.7-1.25zm27.67 19.5c-1.76 0-3.12-.5-4.07-1.48-.94-.98-1.41-2.4-1.41-4.25V74h-2.68a.9.9 0 0 1-.6-.2c-.16-.14-.24-.36-.24-.66v-1.56l3.65-.46.9-6.89c.05-.22.14-.4.29-.52a.88.88 0 0 1 .62-.22H142v7.67h6.44V74H142v13.38c0 .94.22 1.63.68 2.09.45.45 1.04.68 1.76.68a3.21 3.21 0 0 0 1.85-.53l.55-.35c.16-.12.3-.18.41-.18.2 0 .4.13.55.38l1.15 1.87a7.45 7.45 0 0 1-2.44 1.5 8.53 8.53 0 0 1-2.95.52zm19.68-10.4c-1.8.07-3.34.21-4.62.45-1.26.22-2.3.51-3.1.88-.8.36-1.37.8-1.74 1.3-.35.5-.53 1.05-.53 1.67 0 .58.1 1.1.3 1.52a2.9 2.9 0 0 0 .76 1.05c.34.27.73.46 1.17.6a6.13 6.13 0 0 0 1.45.17 7.3 7.3 0 0 0 3.5-.81 12.04 12.04 0 0 0 2.82-2.2v-4.62zm-12.65-9.1a12.72 12.72 0 0 1 3.99-2.66c1.42-.59 3-.88 4.72-.88 1.25 0 2.36.2 3.33.61a6.81 6.81 0 0 1 3.94 4.38c.33 1.04.5 2.19.5 3.43V93h-1.74a1.8 1.8 0 0 1-.88-.18c-.2-.13-.36-.38-.48-.74l-.44-2.12-1.72 1.46a9.48 9.48 0 0 1-3.74 1.7c-.69.15-1.46.23-2.3.23-.87 0-1.69-.12-2.45-.35a5.33 5.33 0 0 1-3.34-2.93 6.62 6.62 0 0 1-.49-2.64c0-.88.25-1.72.73-2.53a6.33 6.33 0 0 1 2.35-2.17c1.09-.63 2.5-1.15 4.25-1.54 1.74-.41 3.89-.65 6.42-.7v-1.75c0-1.73-.37-3.03-1.12-3.91-.75-.9-1.84-1.34-3.28-1.34-.97 0-1.78.12-2.44.37-.64.23-1.2.5-1.7.81l-1.22.82c-.34.23-.68.35-1.02.35-.26 0-.49-.07-.68-.2a1.88 1.88 0 0 1-.48-.53l-.7-1.25zM40.98 32.25c0 2.36-.38 4.53-1.12 6.51a14.26 14.26 0 0 1-8.1 8.4c-1.9.78-4.02 1.17-6.34 1.17-2.31 0-4.42-.39-6.33-1.17a14.31 14.31 0 0 1-8.08-8.4 18.29 18.29 0 0 1-1.12-6.51c0-2.36.38-4.53 1.12-6.5.75-1.97 1.8-3.67 3.17-5.1a14.32 14.32 0 0 1 4.9-3.34c1.92-.8 4.03-1.19 6.34-1.19 2.32 0 4.43.4 6.34 1.19 1.92.8 3.56 1.9 4.93 3.34a14.87 14.87 0 0 1 3.17 5.1 18.1 18.1 0 0 1 1.12 6.5zm-4.38 0c0-1.94-.26-3.68-.8-5.22a10.91 10.91 0 0 0-2.24-3.89 9.68 9.68 0 0 0-3.52-2.46 11.95 11.95 0 0 0-4.62-.86c-1.68 0-3.21.28-4.6.86a9.88 9.88 0 0 0-3.54 2.46 10.91 10.91 0 0 0-2.24 3.9c-.53 1.53-.8 3.27-.8 5.2 0 1.94.27 3.68.8 5.22a11.17 11.17 0 0 0 2.24 3.9 10.01 10.01 0 0 0 3.55 2.44c1.38.56 2.9.83 4.6.83s3.24-.27 4.61-.83a9.8 9.8 0 0 0 3.52-2.44 11.17 11.17 0 0 0 2.25-3.9c.53-1.54.8-3.28.8-5.21zm26.22-6.54V48H60.5c-.56 0-.9-.27-1.05-.81l-.31-2.4a12.45 12.45 0 0 1-3.26 2.6c-1.2.64-2.58.96-4.13.96-1.22 0-2.3-.2-3.24-.6a6.52 6.52 0 0 1-2.33-1.7 7.37 7.37 0 0 1-1.43-2.67c-.3-1.04-.46-2.2-.46-3.45V25.7h3.91v14.22c0 1.68.38 2.99 1.15 3.91.77.93 1.96 1.39 3.54 1.39 1.16 0 2.24-.27 3.23-.82a10.42 10.42 0 0 0 2.8-2.28V25.7h3.91zm8.61 4.47a9.94 9.94 0 0 1 2.6-3.56 5.64 5.64 0 0 1 3.76-1.3c.47 0 .92.05 1.34.15.44.1.83.27 1.17.49l-.3 2.92c-.09.37-.3.55-.66.55-.2 0-.5-.04-.9-.13a6.21 6.21 0 0 0-3.24.18 4.23 4.23 0 0 0-1.47.92c-.42.4-.81.9-1.17 1.5-.33.58-.64 1.26-.92 2.02V48H67.7V25.71h2.25c.42 0 .72.08.88.25.16.16.27.44.33.83l.26 3.39zm61.16-13.7L122.75 48h-3.82l-7.99-24.05a21.95 21.95 0 0 1-.42-1.58 38.36 38.36 0 0 1-.44 1.58L102.05 48h-3.83L88.4 16.47h3.54c.38 0 .7.1.95.29.26.2.43.43.5.73l6.52 21.9.28 1.28.29 1.46.3-1.46.38-1.27 7.41-21.91c.1-.25.26-.48.51-.69.27-.22.58-.33.95-.33h1.23c.38 0 .69.1.92.29a1.77 1.77 0 0 1 .53.73l7.4 21.9a28.4 28.4 0 0 1 .68 2.62 29.52 29.52 0 0 1 .52-2.61l6.54-21.91a1.31 1.31 0 0 1 .48-.7c.27-.21.58-.32.95-.32h3.32zm9.35 8.88c1.63 0 3.1.27 4.4.82a9.43 9.43 0 0 1 5.46 5.94c.5 1.4.74 2.98.74 4.73 0 1.76-.25 3.34-.74 4.75a9.43 9.43 0 0 1-5.46 5.92c-1.3.52-2.77.79-4.4.79-1.64 0-3.12-.27-4.44-.8a9.42 9.42 0 0 1-3.35-2.3c-.92-1-1.63-2.2-2.13-3.61-.49-1.41-.73-3-.73-4.75s.24-3.33.73-4.73c.5-1.43 1.2-2.64 2.13-3.63.93-1 2.04-1.77 3.35-2.31 1.32-.55 2.8-.82 4.44-.82zm0 19.89c2.2 0 3.84-.73 4.93-2.2 1.08-1.48 1.63-3.54 1.63-6.18 0-2.66-.55-4.72-1.63-6.2-1.09-1.49-2.73-2.23-4.93-2.23-1.12 0-2.09.2-2.93.57a5.71 5.71 0 0 0-2.06 1.65c-.55.72-.96 1.61-1.24 2.67-.26 1.04-.4 2.22-.4 3.54 0 2.64.55 4.7 1.64 6.18 1.1 1.47 2.76 2.2 4.99 2.2zm17.97-15.07a9.94 9.94 0 0 1 2.6-3.56 5.64 5.64 0 0 1 3.76-1.3c.47 0 .91.05 1.34.15.44.1.83.27 1.16.49l-.28 2.92c-.09.37-.31.55-.66.55-.2 0-.5-.04-.9-.13a6.2 6.2 0 0 0-3.24.18 4.23 4.23 0 0 0-1.47.92c-.43.4-.82.9-1.17 1.5a13.1 13.1 0 0 0-.92 2.02V48h-3.94V25.71h2.24c.43 0 .72.08.88.25.17.16.28.44.33.83l.27 3.39zm15.04-14.59V48h-3.92V15.6h3.92zm19.55 15.43a6.22 6.22 0 0 0-2.38-2.05 6.7 6.7 0 0 0-2.86-.6c-2.07 0-3.66.75-4.77 2.23-1.12 1.48-1.68 3.6-1.68 6.33 0 1.46.13 2.7.38 3.74a7.29 7.29 0 0 0 1.1 2.56 4.35 4.35 0 0 0 1.78 1.45c.7.3 1.5.46 2.4.46 1.29 0 2.41-.3 3.36-.88a9.6 9.6 0 0 0 2.67-2.49V31.02zm3.91-15.43V48h-2.33c-.56 0-.9-.27-1.06-.81l-.35-2.71a12.13 12.13 0 0 1-3.25 2.77 8.28 8.28 0 0 1-4.23 1.06 7.31 7.31 0 0 1-6.14-2.9c-.73-.96-1.3-2.15-1.69-3.57a18.35 18.35 0 0 1 .07-9.48 11.29 11.29 0 0 1 1.89-3.7 8.7 8.7 0 0 1 7.06-3.34 7.96 7.96 0 0 1 6.12 2.62V15.59h3.91zM46.61 70.71V93H42.7V70.71h3.91zm.84-7c0 .39-.08.75-.24 1.09-.15.32-.35.61-.62.88-.25.25-.55.44-.9.59a2.67 2.67 0 0 1-2.16 0 2.9 2.9 0 0 1-1.45-1.47 2.67 2.67 0 0 1 0-2.16c.15-.35.35-.65.6-.9.25-.27.53-.47.85-.62a2.67 2.67 0 0 1 2.16 0c.35.15.65.35.9.62.27.25.47.55.62.9.16.34.24.7.24 1.08zm7.97 10.24c.49-.54 1-1.04 1.54-1.48a9.85 9.85 0 0 1 3.66-1.84 8.96 8.96 0 0 1 5.43.35c.94.4 1.72.97 2.33 1.71.63.74 1.11 1.62 1.43 2.67.32 1.04.49 2.19.49 3.45V93h-3.94V78.81c0-1.69-.4-3-1.17-3.92-.76-.93-1.93-1.4-3.5-1.4-1.15 0-2.24.27-3.25.83-1 .56-1.92 1.31-2.77 2.27V93h-3.94V70.71h2.35c.56 0 .9.28 1.04.82l.3 2.42zm57.7 3.3c0 2.36-.37 4.5-1.11 6.44a14.3 14.3 0 0 1-3.17 4.98c-1.37 1.37-3 2.45-4.93 3.2-1.9.76-4.02 1.13-6.33 1.13H85.8V61.47h11.77c2.31 0 4.42.39 6.33 1.15a13.8 13.8 0 0 1 8.1 8.18 17.75 17.75 0 0 1 1.12 6.45zm-4.37 0c0-1.94-.26-3.67-.8-5.2a10.94 10.94 0 0 0-2.23-3.87 9.57 9.57 0 0 0-3.53-2.42 12.23 12.23 0 0 0-4.61-.83h-7.5v24.62h7.5c1.7 0 3.24-.28 4.61-.84a9.7 9.7 0 0 0 3.53-2.4 10.94 10.94 0 0 0 2.24-3.87c.53-1.53.8-3.26.8-5.2zm19.8 5.72c-1.8.06-3.34.2-4.62.44-1.26.22-2.3.51-3.1.88-.8.36-1.37.8-1.74 1.3-.35.5-.53 1.05-.53 1.67 0 .58.1 1.1.3 1.52a3 3 0 0 0 .76 1.05c.34.27.73.46 1.17.6a6.13 6.13 0 0 0 1.45.17 7.28 7.28 0 0 0 3.5-.81 11.95 11.95 0 0 0 2.82-2.2v-4.62zm-12.65-9.11a12.73 12.73 0 0 1 3.98-2.66c1.43-.59 3-.88 4.73-.88 1.25 0 2.36.2 3.33.61a6.81 6.81 0 0 1 3.94 4.38c.33 1.04.5 2.19.5 3.43V93h-1.74a1.8 1.8 0 0 1-.88-.18c-.2-.13-.36-.38-.48-.74l-.44-2.12-1.72 1.46a9.48 9.48 0 0 1-3.74 1.7c-.69.15-1.46.23-2.3.23-.87 0-1.69-.12-2.45-.35a5.34 5.34 0 0 1-3.34-2.93 6.64 6.64 0 0 1-.49-2.64c0-.88.25-1.72.73-2.53a6.33 6.33 0 0 1 2.35-2.17c1.09-.63 2.5-1.15 4.25-1.54 1.75-.41 3.89-.65 6.42-.7v-1.75c0-1.73-.37-3.03-1.12-3.91-.75-.9-1.84-1.34-3.28-1.34-.97 0-1.78.12-2.44.37-.64.23-1.2.5-1.7.81l-1.23.82c-.33.23-.67.35-1 .35-.27 0-.5-.07-.69-.2a2.1 2.1 0 0 1-.48-.53l-.7-1.25zm27.67 19.5c-1.76 0-3.12-.5-4.07-1.48-.94-.98-1.41-2.4-1.41-4.25V74h-2.68a.9.9 0 0 1-.6-.2c-.16-.14-.24-.36-.24-.66v-1.56l3.65-.46.9-6.89c.05-.22.14-.4.29-.52a.88.88 0 0 1 .62-.22H142v7.67h6.44V74H142v13.38c0 .94.22 1.63.68 2.09.45.45 1.04.68 1.76.68a3.21 3.21 0 0 0 1.85-.53l.55-.35c.16-.12.3-.18.41-.18.2 0 .4.13.55.38l1.15 1.87a7.45 7.45 0 0 1-2.44 1.5 8.53 8.53 0 0 1-2.95.52zm19.68-10.4c-1.8.07-3.34.21-4.62.45-1.26.22-2.3.51-3.1.88-.8.36-1.37.8-1.74 1.3-.35.5-.53 1.05-.53 1.67 0 .58.1 1.1.3 1.52a2.9 2.9 0 0 0 .76 1.05c.34.27.73.46 1.17.6a6.13 6.13 0 0 0 1.45.17 7.3 7.3 0 0 0 3.5-.81 12.04 12.04 0 0 0 2.82-2.2v-4.62zm-12.65-9.1a12.72 12.72 0 0 1 3.99-2.66c1.42-.59 3-.88 4.72-.88 1.25 0 2.36.2 3.33.61a6.81 6.81 0 0 1 3.94 4.38c.33 1.04.5 2.19.5 3.43V93h-1.74a1.8 1.8 0 0 1-.88-.18c-.2-.13-.36-.38-.48-.74l-.44-2.12-1.72 1.46a9.48 9.48 0 0 1-3.74 1.7c-.69.15-1.46.23-2.3.23-.87 0-1.69-.12-2.45-.35a5.33 5.33 0 0 1-3.34-2.93 6.62 6.62 0 0 1-.49-2.64c0-.88.25-1.72.73-2.53a6.33 6.33 0 0 1 2.35-2.17c1.09-.63 2.5-1.15 4.25-1.54 1.74-.41 3.89-.65 6.42-.7v-1.75c0-1.73-.37-3.03-1.12-3.91-.75-.9-1.84-1.34-3.28-1.34-.97 0-1.78.12-2.44.37-.64.23-1.2.5-1.7.81l-1.22.82c-.34.23-.68.35-1.02.35-.26 0-.49-.07-.68-.2a1.88 1.88 0 0 1-.48-.53l-.7-1.25zM40.98 32.25c0 2.36-.38 4.53-1.12 6.51a14.26 14.26 0 0 1-8.1 8.4c-1.9.78-4.02 1.17-6.34 1.17-2.31 0-4.42-.39-6.33-1.17a14.31 14.31 0 0 1-8.08-8.4 18.29 18.29 0 0 1-1.12-6.51c0-2.36.38-4.53 1.12-6.5.75-1.97 1.8-3.67 3.17-5.1a14.32 14.32 0 0 1 4.9-3.34c1.92-.8 4.03-1.19 6.34-1.19 2.32 0 4.43.4 6.34 1.19 1.92.8 3.56 1.9 4.93 3.34a14.87 14.87 0 0 1 3.17 5.1 18.1 18.1 0 0 1 1.12 6.5zm-4.38 0c0-1.94-.26-3.68-.8-5.22a10.91 10.91 0 0 0-2.24-3.89 9.68 9.68 0 0 0-3.52-2.46 11.95 11.95 0 0 0-4.62-.86c-1.68 0-3.21.28-4.6.86a9.88 9.88 0 0 0-3.54 2.46 10.91 10.91 0 0 0-2.24 3.9c-.53 1.53-.8 3.27-.8 5.2 0 1.94.27 3.68.8 5.22a11.17 11.17 0 0 0 2.24 3.9 10.01 10.01 0 0 0 3.55 2.44c1.38.56 2.9.83 4.6.83s3.24-.27 4.61-.83a9.8 9.8 0 0 0 3.52-2.44 11.17 11.17 0 0 0 2.25-3.9c.53-1.54.8-3.28.8-5.21zm26.22-6.54V48H60.5c-.56 0-.9-.27-1.05-.81l-.31-2.4a12.45 12.45 0 0 1-3.26 2.6c-1.2.64-2.58.96-4.13.96-1.22 0-2.3-.2-3.24-.6a6.52 6.52 0 0 1-2.33-1.7 7.37 7.37 0 0 1-1.43-2.67c-.3-1.04-.46-2.2-.46-3.45V25.7h3.91v14.22c0 1.68.38 2.99 1.15 3.91.77.93 1.96 1.39 3.54 1.39 1.16 0 2.24-.27 3.23-.82a10.42 10.42 0 0 0 2.8-2.28V25.7h3.91zm8.61 4.47a9.94 9.94 0 0 1 2.6-3.56 5.64 5.64 0 0 1 3.76-1.3c.47 0 .92.05 1.34.15.44.1.83.27 1.17.49l-.3 2.92c-.09.37-.3.55-.66.55-.2 0-.5-.04-.9-.13a6.21 6.21 0 0 0-3.24.18 4.23 4.23 0 0 0-1.47.92c-.42.4-.81.9-1.17 1.5-.33.58-.64 1.26-.92 2.02V48H67.7V25.71h2.25c.42 0 .72.08.88.25.16.16.27.44.33.83l.26 3.39zm61.16-13.7L122.75 48h-3.82l-7.99-24.05a21.95 21.95 0 0 1-.42-1.58 38.36 38.36 0 0 1-.44 1.58L102.05 48h-3.83L88.4 16.47h3.54c.38 0 .7.1.95.29.26.2.43.43.5.73l6.52 21.9.28 1.28.29 1.46.3-1.46.38-1.27 7.41-21.91c.1-.25.26-.48.51-.69.27-.22.58-.33.95-.33h1.23c.38 0 .69.1.92.29a1.77 1.77 0 0 1 .53.73l7.4 21.9a28.4 28.4 0 0 1 .68 2.62 29.52 29.52 0 0 1 .52-2.61l6.54-21.91a1.31 1.31 0 0 1 .48-.7c.27-.21.58-.32.95-.32h3.32zm9.35 8.88c1.63 0 3.1.27 4.4.82a9.43 9.43 0 0 1 5.46 5.94c.5 1.4.74 2.98.74 4.73 0 1.76-.25 3.34-.74 4.75a9.43 9.43 0 0 1-5.46 5.92c-1.3.52-2.77.79-4.4.79-1.64 0-3.12-.27-4.44-.8a9.42 9.42 0 0 1-3.35-2.3c-.92-1-1.63-2.2-2.13-3.61-.49-1.41-.73-3-.73-4.75s.24-3.33.73-4.73c.5-1.43 1.2-2.64 2.13-3.63.93-1 2.04-1.77 3.35-2.31 1.32-.55 2.8-.82 4.44-.82zm0 19.89c2.2 0 3.84-.73 4.93-2.2 1.08-1.48 1.63-3.54 1.63-6.18 0-2.66-.55-4.72-1.63-6.2-1.09-1.49-2.73-2.23-4.93-2.23-1.12 0-2.09.2-2.93.57a5.71 5.71 0 0 0-2.06 1.65c-.55.72-.96 1.61-1.24 2.67-.26 1.04-.4 2.22-.4 3.54 0 2.64.55 4.7 1.64 6.18 1.1 1.47 2.76 2.2 4.99 2.2zm17.97-15.07a9.94 9.94 0 0 1 2.6-3.56 5.64 5.64 0 0 1 3.76-1.3c.47 0 .91.05 1.34.15.44.1.83.27 1.16.49l-.28 2.92c-.09.37-.31.55-.66.55-.2 0-.5-.04-.9-.13a6.2 6.2 0 0 0-3.24.18 4.23 4.23 0 0 0-1.47.92c-.43.4-.82.9-1.17 1.5a13.1 13.1 0 0 0-.92 2.02V48h-3.94V25.71h2.24c.43 0 .72.08.88.25.17.16.28.44.33.83l.27 3.39zm15.04-14.59V48h-3.92V15.6h3.92zm19.55 15.43a6.22 6.22 0 0 0-2.38-2.05 6.7 6.7 0 0 0-2.86-.6c-2.07 0-3.66.75-4.77 2.23-1.12 1.48-1.68 3.6-1.68 6.33 0 1.46.13 2.7.38 3.74a7.29 7.29 0 0 0 1.1 2.56 4.35 4.35 0 0 0 1.78 1.45c.7.3 1.5.46 2.4.46 1.29 0 2.41-.3 3.36-.88a9.6 9.6 0 0 0 2.67-2.49V31.02zm3.91-15.43V48h-2.33c-.56 0-.9-.27-1.06-.81l-.35-2.71a12.13 12.13 0 0 1-3.25 2.77 8.28 8.28 0 0 1-4.23 1.06 7.31 7.31 0 0 1-6.14-2.9c-.73-.96-1.3-2.15-1.69-3.57a18.35 18.35 0 0 1 .07-9.48 11.29 11.29 0 0 1 1.89-3.7 8.7 8.7 0 0 1 7.06-3.34 7.96 7.96 0 0 1 6.12 2.62V15.59h3.91zM46.61 70.71V93H42.7V70.71h3.91zm.84-7c0 .39-.08.75-.24 1.09-.15.32-.35.61-.62.88-.25.25-.55.44-.9.59a2.67 2.67 0 0 1-2.16 0 2.9 2.9 0 0 1-1.45-1.47 2.67 2.67 0 0 1 0-2.16c.15-.35.35-.65.6-.9.25-.27.53-.47.85-.62a2.67 2.67 0 0 1 2.16 0c.35.15.65.35.9.62.27.25.47.55.62.9.16.34.24.7.24 1.08zm7.97 10.24c.49-.54 1-1.04 1.54-1.48a9.85 9.85 0 0 1 3.66-1.84 8.96 8.96 0 0 1 5.43.35c.94.4 1.72.97 2.33 1.71.63.74 1.11 1.62 1.43 2.67.32 1.04.49 2.19.49 3.45V93h-3.94V78.81c0-1.69-.4-3-1.17-3.92-.76-.93-1.93-1.4-3.5-1.4-1.15 0-2.24.27-3.25.83-1 .56-1.92 1.31-2.77 2.27V93h-3.94V70.71h2.35c.56 0 .9.28 1.04.82l.3 2.42zm57.7 3.3c0 2.36-.37 4.5-1.11 6.44a14.3 14.3 0 0 1-3.17 4.98c-1.37 1.37-3 2.45-4.93 3.2-1.9.76-4.02 1.13-6.33 1.13H85.8V61.47h11.77c2.31 0 4.42.39 6.33 1.15a13.8 13.8 0 0 1 8.1 8.18 17.75 17.75 0 0 1 1.12 6.45zm-4.37 0c0-1.94-.26-3.67-.8-5.2a10.94 10.94 0 0 0-2.23-3.87 9.57 9.57 0 0 0-3.53-2.42 12.23 12.23 0 0 0-4.61-.83h-7.5v24.62h7.5c1.7 0 3.24-.28 4.61-.84a9.7 9.7 0 0 0 3.53-2.4 10.94 10.94 0 0 0 2.24-3.87c.53-1.53.8-3.26.8-5.2zm19.8 5.72c-1.8.06-3.34.2-4.62.44-1.26.22-2.3.51-3.1.88-.8.36-1.37.8-1.74 1.3-.35.5-.53 1.05-.53 1.67 0 .58.1 1.1.3 1.52a3 3 0 0 0 .76 1.05c.34.27.73.46 1.17.6a6.13 6.13 0 0 0 1.45.17 7.28 7.28 0 0 0 3.5-.81 11.95 11.95 0 0 0 2.82-2.2v-4.62zm-12.65-9.11a12.73 12.73 0 0 1 3.98-2.66c1.43-.59 3-.88 4.73-.88 1.25 0 2.36.2 3.33.61a6.81 6.81 0 0 1 3.94 4.38c.33 1.04.5 2.19.5 3.43V93h-1.74a1.8 1.8 0 0 1-.88-.18c-.2-.13-.36-.38-.48-.74l-.44-2.12-1.72 1.46a9.48 9.48 0 0 1-3.74 1.7c-.69.15-1.46.23-2.3.23-.87 0-1.69-.12-2.45-.35a5.34 5.34 0 0 1-3.34-2.93 6.64 6.64 0 0 1-.49-2.64c0-.88.25-1.72.73-2.53a6.33 6.33 0 0 1 2.35-2.17c1.09-.63 2.5-1.15 4.25-1.54 1.75-.41 3.89-.65 6.42-.7v-1.75c0-1.73-.37-3.03-1.12-3.91-.75-.9-1.84-1.34-3.28-1.34-.97 0-1.78.12-2.44.37-.64.23-1.2.5-1.7.81l-1.23.82c-.33.23-.67.35-1 .35-.27 0-.5-.07-.69-.2a2.1 2.1 0 0 1-.48-.53l-.7-1.25zm27.67 19.5c-1.76 0-3.12-.5-4.07-1.48-.94-.98-1.41-2.4-1.41-4.25V74h-2.68a.9.9 0 0 1-.6-.2c-.16-.14-.24-.36-.24-.66v-1.56l3.65-.46.9-6.89c.05-.22.14-.4.29-.52a.88.88 0 0 1 .62-.22H142v7.67h6.44V74H142v13.38c0 .94.22 1.63.68 2.09.45.45 1.04.68 1.76.68a3.21 3.21 0 0 0 1.85-.53l.55-.35c.16-.12.3-.18.41-.18.2 0 .4.13.55.38l1.15 1.87a7.45 7.45 0 0 1-2.44 1.5 8.53 8.53 0 0 1-2.95.52zm19.68-10.4c-1.8.07-3.34.21-4.62.45-1.26.22-2.3.51-3.1.88-.8.36-1.37.8-1.74 1.3-.35.5-.53 1.05-.53 1.67 0 .58.1 1.1.3 1.52a2.9 2.9 0 0 0 .76 1.05c.34.27.73.46 1.17.6a6.13 6.13 0 0 0 1.45.17 7.3 7.3 0 0 0 3.5-.81 12.04 12.04 0 0 0 2.82-2.2v-4.62zm-12.65-9.1a12.72 12.72 0 0 1 3.99-2.66c1.42-.59 3-.88 4.72-.88 1.25 0 2.36.2 3.33.61a6.81 6.81 0 0 1 3.94 4.38c.33 1.04.5 2.19.5 3.43V93h-1.74a1.8 1.8 0 0 1-.88-.18c-.2-.13-.36-.38-.48-.74l-.44-2.12-1.72 1.46a9.48 9.48 0 0 1-3.74 1.7c-.69.15-1.46.23-2.3.23-.87 0-1.69-.12-2.45-.35a5.33 5.33 0 0 1-3.34-2.93 6.62 6.62 0 0 1-.49-2.64c0-.88.25-1.72.73-2.53a6.33 6.33 0 0 1 2.35-2.17c1.09-.63 2.5-1.15 4.25-1.54 1.74-.41 3.89-.65 6.42-.7v-1.75c0-1.73-.37-3.03-1.12-3.91-.75-.9-1.84-1.34-3.28-1.34-.97 0-1.78.12-2.44.37-.64.23-1.2.5-1.7.81l-1.22.82c-.34.23-.68.35-1.02.35-.26 0-.49-.07-.68-.2a1.88 1.88 0 0 1-.48-.53l-.7-1.25z"
    fill="#fff"
  />
  <path fill="#D42B21" d="M0 106.79h210V120H0z" />
</g>
<defs>
  <clipPath id="clip0"><path fill="#fff" d="M0 0h210v120H0z" /></clipPath>
</defs>
</svg></g><a href="https://ourworldindata.org/grapher/prevalence-of-anxiety-disorders-males-vs-females?zoomToSelection=true&amp;minPopulationFilter=1000000&amp;time=latest&amp;country=USA~ARE~BEL" style="font-family:&quot;Playfair Display&quot;, Georgia, &quot;Times New Roman&quot;, serif" target="_blank" rel="noopener"><text font-size="25.20" x="15.0" y="35.2" fill="#555"><tspan x="15" y="35.160000000000004">Prevalence of anxiety disorders, males vs. females, 2019</tspan></text></a><text font-size="14.40" x="15.0" y="55.7" fill="#666"><tspan x="15" y="55.72">Share of population suffering from anxiety disorders, in males versus females. Figures attempt to provide a true</tspan><tspan x="15" y="73">estimate (going beyond reported diagnosis) of anxiety disorder prevalence based on medical, epidemiological data,</tspan><tspan x="15" y="90.28">surveys and meta-regression modelling.</tspan></text></g><g class="ScatterPlot"><g class="DualAxisView"><g class="HorizontalAxis"><text font-size="12.60" x="318.7" y="544.9"><tspan x="318.729" y="544.88">Share of females</tspan></text><text x="75.162" y="524.8" fill="#666" text-anchor="start" font-size="16.2">0%</text><text x="203.7" y="524.8" fill="#666" text-anchor="middle" font-size="16.2">2%</text><text x="332.3" y="524.8" fill="#666" text-anchor="middle" font-size="16.2">4%</text><text x="460.9" y="524.8" fill="#666" text-anchor="middle" font-size="16.2">6%</text><text x="589.5" y="524.8" fill="#666" text-anchor="middle" font-size="16.2">8%</text><text x="718.092" y="524.8" fill="#666" text-anchor="end" font-size="16.2">10%</text></g><g class="VerticalAxis"><text font-size="12.60" x="-370.1" y="25.1" transform="rotate(-90)"><tspan x="-370.12499999999994" y="25.080000000000002">Share of males</tspan></text><text x="70.16" y="503.6" dy=".32em" text-anchor="end" fill="#666" font-size="16.2">0%</text><text x="70.16" y="424.4" dy=".32em" text-anchor="end" fill="#666" font-size="16.2">2%</text><text x="70.16" y="345.3" dy=".32em" text-anchor="end" fill="#666" font-size="16.2">4%</text><text x="70.16" y="266.1" dy=".32em" text-anchor="end" fill="#666" font-size="16.2">6%</text><text x="70.16" y="187" dy=".32em" text-anchor="end" fill="#666" font-size="16.2">8%</text><text x="70.16" y="107.8" dy=".32em" text-anchor="end" fill="#666" font-size="16.2">10%</text></g><g class="AxisGridLines horizontalLines"><line x1="75.16" y1="503.6" x2="718.09" y2="503.6" stroke="#999"></line><line x1="75.16" y1="424.4" x2="718.09" y2="424.4" stroke="#ddd" stroke-dasharray="3,2"></line><line x1="75.16" y1="345.3" x2="718.09" y2="345.3" stroke="#ddd" stroke-dasharray="3,2"></line><line x1="75.16" y1="266.1" x2="718.09" y2="266.1" stroke="#ddd" stroke-dasharray="3,2"></line><line x1="75.16" y1="187" x2="718.09" y2="187" stroke="#ddd" stroke-dasharray="3,2"></line><line x1="75.16" y1="107.8" x2="718.09" y2="107.8" stroke="#ddd" stroke-dasharray="3,2"></line></g><g class="AxisGridLines verticalLines"><line x1="75.2" y1="503.60" x2="75.2" y2="107.80" stroke="#999"></line><line x1="203.7" y1="503.60" x2="203.7" y2="107.80" stroke="#ddd" stroke-dasharray="3,2"></line><line x1="332.3" y1="503.60" x2="332.3" y2="107.80" stroke="#ddd" stroke-dasharray="3,2"></line><line x1="460.9" y1="503.60" x2="460.9" y2="107.80" stroke="#ddd" stroke-dasharray="3,2"></line><line x1="589.5" y1="503.60" x2="589.5" y2="107.80" stroke="#ddd" stroke-dasharray="3,2"></line><line x1="718.1" y1="503.60" x2="718.1" y2="107.80" stroke="#ddd" stroke-dasharray="3,2"></line></g></g><g class="comparisonLine"><defs><clipPath id="axisBounds-5"><rect x="75.162" y="107.8" width="642.93" height="395.79999999999995"></rect></clipPath></defs><path style="opacity:0.9;fill:none;stroke:#ccc;stroke-dasharray:2 2" id="path-5" d="M75.2,503.6L76.4,502.8L77.7,502L79,501.2L80.3,500.4L81.6,499.6L82.9,498.9L84.2,498.1L85.4,497.3L86.7,496.5L88,495.7L89.3,494.9L90.6,494.1L91.9,493.3L93.2,492.5L94.4,491.7L95.7,490.9L97,490.1L98.3,489.4L99.6,488.6L100.9,487.8L102.2,487L103.5,486.2L104.7,485.4L106,484.6L107.3,483.8L108.6,483L109.9,482.2L111.2,481.4L112.5,480.6L113.7,479.9L115,479.1L116.3,478.3L117.6,477.5L118.9,476.7L120.2,475.9L121.5,475.1L122.7,474.3L124,473.5L125.3,472.7L126.6,471.9L127.9,471.1L129.2,470.4L130.5,469.6L131.7,468.8L133,468L134.3,467.2L135.6,466.4L136.9,465.6L138.2,464.8L139.5,464L140.7,463.2L142,462.4L143.3,461.6L144.6,460.9L145.9,460.1L147.2,459.3L148.5,458.5L149.7,457.7L151,456.9L152.3,456.1L153.6,455.3L154.9,454.5L156.2,453.7L157.5,452.9L158.7,452.1L160,451.4L161.3,450.6L162.6,449.8L163.9,449L165.2,448.2L166.5,447.4L167.7,446.6L169,445.8L170.3,445L171.6,444.2L172.9,443.4L174.2,442.6L175.5,441.9L176.7,441.1L178,440.3L179.3,439.5L180.6,438.7L181.9,437.9L183.2,437.1L184.5,436.3L185.7,435.5L187,434.7L188.3,433.9L189.6,433.1L190.9,432.4L192.2,431.6L193.5,430.8L194.7,430L196,429.2L197.3,428.4L198.6,427.6L199.9,426.8L201.2,426L202.5,425.2L203.7,424.4L205,423.6L206.3,422.9L207.6,422.1L208.9,421.3L210.2,420.5L211.5,419.7L212.7,418.9L214,418.1L215.3,417.3L216.6,416.5L217.9,415.7L219.2,414.9L220.5,414.1L221.8,413.4L223,412.6L224.3,411.8L225.6,411L226.9,410.2L228.2,409.4L229.5,408.6L230.8,407.8L232,407L233.3,406.2L234.6,405.4L235.9,404.6L237.2,403.9L238.5,403.1L239.8,402.3L241,401.5L242.3,400.7L243.6,399.9L244.9,399.1L246.2,398.3L247.5,397.5L248.8,396.7L250,395.9L251.3,395.2L252.6,394.4L253.9,393.6L255.2,392.8L256.5,392L257.8,391.2L259,390.4L260.3,389.6L261.6,388.8L262.9,388L264.2,387.2L265.5,386.4L266.8,385.7L268,384.9L269.3,384.1L270.6,383.3L271.9,382.5L273.2,381.7L274.5,380.9L275.8,380.1L277,379.3L278.3,378.5L279.6,377.7L280.9,376.9L282.2,376.2L283.5,375.4L284.8,374.6L286,373.8L287.3,373L288.6,372.2L289.9,371.4L291.2,370.6L292.5,369.8L293.8,369L295,368.2L296.3,367.4L297.6,366.7L298.9,365.9L300.2,365.1L301.5,364.3L302.8,363.5L304,362.7L305.3,361.9L306.6,361.1L307.9,360.3L309.2,359.5L310.5,358.7L311.8,357.9L313,357.2L314.3,356.4L315.6,355.6L316.9,354.8L318.2,354L319.5,353.2L320.8,352.4L322,351.6L323.3,350.8L324.6,350L325.9,349.2L327.2,348.4L328.5,347.7L329.8,346.9L331,346.1L332.3,345.3L333.6,344.5L334.9,343.7L336.2,342.9L337.5,342.1L338.8,341.3L340,340.5L341.3,339.7L342.6,338.9L343.9,338.2L345.2,337.4L346.5,336.6L347.8,335.8L349.1,335L350.3,334.2L351.6,333.4L352.9,332.6L354.2,331.8L355.5,331L356.8,330.2L358.1,329.4L359.3,328.7L360.6,327.9L361.9,327.1L363.2,326.3L364.5,325.5L365.8,324.7L367.1,323.9L368.3,323.1L369.6,322.3L370.9,321.5L372.2,320.7L373.5,319.9L374.8,319.2L376.1,318.4L377.3,317.6L378.6,316.8L379.9,316L381.2,315.2L382.5,314.4L383.8,313.6L385.1,312.8L386.3,312L387.6,311.2L388.9,310.4L390.2,309.7L391.5,308.9L392.8,308.1L394.1,307.3L395.3,306.5L396.6,305.7L397.9,304.9L399.2,304.1L400.5,303.3L401.8,302.5L403.1,301.7L404.3,301L405.6,300.2L406.9,299.4L408.2,298.6L409.5,297.8L410.8,297L412.1,296.2L413.3,295.4L414.6,294.6L415.9,293.8L417.2,293L418.5,292.2L419.8,291.5L421.1,290.7L422.3,289.9L423.6,289.1L424.9,288.3L426.2,287.5L427.5,286.7L428.8,285.9L430.1,285.1L431.3,284.3L432.6,283.5L433.9,282.7L435.2,282L436.5,281.2L437.8,280.4L439.1,279.6L440.3,278.8L441.6,278L442.9,277.2L444.2,276.4L445.5,275.6L446.8,274.8L448.1,274L449.3,273.2L450.6,272.5L451.9,271.7L453.2,270.9L454.5,270.1L455.8,269.3L457.1,268.5L458.3,267.7L459.6,266.9L460.9,266.1L462.2,265.3L463.5,264.5L464.8,263.7L466.1,263L467.3,262.2L468.6,261.4L469.9,260.6L471.2,259.8L472.5,259L473.8,258.2L475.1,257.4L476.4,256.6L477.6,255.8L478.9,255L480.2,254.2L481.5,253.5L482.8,252.7L484.1,251.9L485.4,251.1L486.6,250.3L487.9,249.5L489.2,248.7L490.5,247.9L491.8,247.1L493.1,246.3L494.4,245.5L495.6,244.7L496.9,244L498.2,243.2L499.5,242.4L500.8,241.6L502.1,240.8L503.4,240L504.6,239.2L505.9,238.4L507.2,237.6L508.5,236.8L509.8,236L511.1,235.2L512.4,234.5L513.6,233.7L514.9,232.9L516.2,232.1L517.5,231.3L518.8,230.5L520.1,229.7L521.4,228.9L522.6,228.1L523.9,227.3L525.2,226.5L526.5,225.7L527.8,225L529.1,224.2L530.4,223.4L531.6,222.6L532.9,221.8L534.2,221L535.5,220.2L536.8,219.4L538.1,218.6L539.4,217.8L540.6,217L541.9,216.2L543.2,215.5L544.5,214.7L545.8,213.9L547.1,213.1L548.4,212.3L549.6,211.5L550.9,210.7L552.2,209.9L553.5,209.1L554.8,208.3L556.1,207.5L557.4,206.8L558.6,206L559.9,205.2L561.2,204.4L562.5,203.6L563.8,202.8L565.1,202L566.4,201.2L567.6,200.4L568.9,199.6L570.2,198.8L571.5,198L572.8,197.3L574.1,196.5L575.4,195.7L576.6,194.9L577.9,194.1L579.2,193.3L580.5,192.5L581.8,191.7L583.1,190.9L584.4,190.1L585.6,189.3L586.9,188.5L588.2,187.8L589.5,187L590.8,186.2L592.1,185.4L593.4,184.6L594.6,183.8L595.9,183L597.2,182.2L598.5,181.4L599.8,180.6L601.1,179.8L602.4,179L603.7,178.3L604.9,177.5L606.2,176.7L607.5,175.9L608.8,175.1L610.1,174.3L611.4,173.5L612.7,172.7L613.9,171.9L615.2,171.1L616.5,170.3L617.8,169.5L619.1,168.8L620.4,168L621.7,167.2L622.9,166.4L624.2,165.6L625.5,164.8L626.8,164L628.1,163.2L629.4,162.4L630.7,161.6L631.9,160.8L633.2,160L634.5,159.3L635.8,158.5L637.1,157.7L638.4,156.9L639.7,156.1L640.9,155.3L642.2,154.5L643.5,153.7L644.8,152.9L646.1,152.1L647.4,151.3L648.7,150.5L649.9,149.8L651.2,149L652.5,148.2L653.8,147.4L655.1,146.6L656.4,145.8L657.7,145L658.9,144.2L660.2,143.4L661.5,142.6L662.8,141.8L664.1,141L665.4,140.3L666.7,139.5L667.9,138.7L669.2,137.9L670.5,137.1L671.8,136.3L673.1,135.5L674.4,134.7L675.7,133.9L676.9,133.1L678.2,132.3L679.5,131.5L680.8,130.8L682.1,130L683.4,129.2L684.7,128.4L685.9,127.6L687.2,126.8L688.5,126L689.8,125.2L691.1,124.4L692.4,123.6L693.7,122.8L694.9,122L696.2,121.3L697.5,120.5L698.8,119.7L700.1,118.9L701.4,118.1L702.7,117.3L703.9,116.5L705.2,115.7L706.5,114.9L707.8,114.1L709.1,113.3L710.4,112.5L711.7,111.8L712.9,111L714.2,110.2L715.5,109.4L716.8,108.6" clip-path="url(#axisBounds-5)"></path></g><g class="PointsWithLabels clickable" clip-path="url(#scatterBounds-6)"><rect x="75.162" y="107.8" width="642.93" height="395.79999999999995" fill="rgba(255,255,255,0)"></rect><defs><clipPath id="scatterBounds-6"><rect x="65.162" y="97.8" width="662.93" height="415.79999999999995"></rect></clipPath></defs><g class="key-World"><circle cx="386.00" cy="384.00" r="18.00" fill="#e2e2e2" opacity="0.8" stroke="#bbb" stroke-width="0.5"></circle></g><g class="key-Asia"><circle cx="341.00" cy="398.00" r="13.90" fill="#e2e2e2" opacity="0.8" stroke="#bbb" stroke-width="0.5"></circle></g><g class="key-China"><circle cx="340.00" cy="398.00" r="7.76" fill="#e2e2e2" opacity="0.8" stroke="#bbb" stroke-width="0.5"></circle></g><g class="key-India"><circle cx="308.00" cy="406.00" r="7.58" fill="#e2e2e2" opacity="0.8" stroke="#bbb" stroke-width="0.5"></circle></g><g class="key-Africa"><circle cx="361.00" cy="381.00" r="7.41" fill="#e2e2e2" opacity="0.8" stroke="#bbb" stroke-width="0.5"></circle></g><g class="key-Europe"><circle cx="474.00" cy="361.00" r="5.61" fill="#e2e2e2" opacity="0.8" stroke="#bbb" stroke-width="0.5"></circle></g><g class="key-North-America"><circle cx="556.00" cy="326.00" r="4.97" fill="#e2e2e2" opacity="0.8" stroke="#bbb" stroke-width="0.5"></circle></g><g class="key-Indonesia"><circle cx="375.00" cy="396.00" r="3.37" fill="#e2e2e2" opacity="0.8" stroke="#bbb" stroke-width="0.5"></circle></g><g class="key-Pakistan"><circle cx="342.00" cy="382.00" r="3.02" fill="#e2e2e2" opacity="0.8" stroke="#bbb" stroke-width="0.5"></circle></g><g class="key-Brazil"><circle cx="716.00" cy="290.00" r="2.98" fill="#e2e2e2" opacity="0.8" stroke="#bbb" stroke-width="0.5"></circle></g><g class="key-Nigeria"><circle cx="294.00" cy="399.00" r="2.91" fill="#e2e2e2" opacity="0.8" stroke="#bbb" stroke-width="0.5"></circle></g><g class="key-Bangladesh"><circle cx="312.00" cy="391.00" r="2.62" fill="#e2e2e2" opacity="0.8" stroke="#bbb" stroke-width="0.5"></circle></g><g class="key-Russia"><circle cx="337.00" cy="401.00" r="2.48" fill="#e2e2e2" opacity="0.8" stroke="#bbb" stroke-width="0.5"></circle></g><g class="key-Mexico"><circle cx="376.00" cy="396.00" r="2.31" fill="#e2e2e2" opacity="0.8" stroke="#bbb" stroke-width="0.5"></circle></g><g class="key-Japan"><circle cx="262.00" cy="418.00" r="2.31" fill="#e2e2e2" opacity="0.8" stroke="#bbb" stroke-width="0.5"></circle></g><g class="key-Ethiopia"><circle cx="351.00" cy="394.00" r="2.17" fill="#e2e2e2" opacity="0.8" stroke="#bbb" stroke-width="0.5"></circle></g><g class="key-Philippines"><circle cx="463.00" cy="368.00" r="2.13" fill="#e2e2e2" opacity="0.8" stroke="#bbb" stroke-width="0.5"></circle></g><g class="key-Egypt"><circle cx="459.00" cy="357.00" r="2.05" fill="#e2e2e2" opacity="0.8" stroke="#bbb" stroke-width="0.5"></circle></g><g class="key-Vietnam"><circle cx="272.00" cy="437.00" r="2.01" fill="#e2e2e2" opacity="0.8" stroke="#bbb" stroke-width="0.5"></circle></g><g class="key-Afghanistan"><circle cx="481.00" cy="354.00" r="2.00" fill="#e2e2e2" opacity="0.8" stroke="#bbb" stroke-width="0.5"></circle></g><g class="key-African-Region"><circle cx="342.00" cy="385.00" r="2.00" fill="#e2e2e2" opacity="0.8" stroke="#bbb" stroke-width="0.5"></circle></g><g class="key-African-Union"><circle cx="361.00" cy="381.00" r="2.00" fill="#e2e2e2" opacity="0.8" stroke="#bbb" stroke-width="0.5"></circle></g><g class="key-Albania"><circle cx="408.00" cy="385.00" r="2.00" fill="#e2e2e2" opacity="0.8" stroke="#bbb" stroke-width="0.5"></circle></g><g class="key-Algeria"><circle cx="481.00" cy="353.00" r="2.00" fill="#e2e2e2" opacity="0.8" stroke="#bbb" stroke-width="0.5"></circle></g><g class="key-America"><circle cx="546.00" cy="336.00" r="2.00" fill="#e2e2e2" opacity="0.8" stroke="#bbb" stroke-width="0.5"></circle></g><g class="key-Andean-Latin-America"><circle cx="535.00" cy="332.00" r="2.00" fill="#e2e2e2" opacity="0.8" stroke="#bbb" stroke-width="0.5"></circle></g><g class="key-Angola"><circle cx="368.00" cy="369.00" r="2.00" fill="#e2e2e2" opacity="0.8" stroke="#bbb" stroke-width="0.5"></circle></g><g class="key-Argentina"><circle cx="505.00" cy="349.00" r="2.00" fill="#e2e2e2" opacity="0.8" stroke="#bbb" stroke-width="0.5"></circle></g><g class="key-Armenia"><circle cx="337.00" cy="402.00" r="2.00" fill="#e2e2e2" opacity="0.8" stroke="#bbb" stroke-width="0.5"></circle></g><g class="key-Australasia"><circle cx="592.00" cy="298.00" r="2.00" fill="#e2e2e2" opacity="0.8" stroke="#bbb" stroke-width="0.5"></circle></g><g class="key-Australia"><circle cx="568.00" cy="302.00" r="2.00" fill="#e2e2e2" opacity="0.8" stroke="#bbb" stroke-width="0.5"></circle></g><g class="key-Austria"><circle cx="610.00" cy="314.00" r="2.00" fill="#e2e2e2" opacity="0.8" stroke="#bbb" stroke-width="0.5"></circle></g><g class="key-Azerbaijan"><circle cx="281.00" cy="423.00" r="2.00" fill="#e2e2e2" opacity="0.8" stroke="#bbb" stroke-width="0.5"></circle></g><g class="key-Bahrain"><circle cx="508.00" cy="343.00" r="2.00" fill="#e2e2e2" opacity="0.8" stroke="#bbb" stroke-width="0.5"></circle></g><g class="key-Belarus"><circle cx="367.00" cy="390.00" r="2.00" fill="#e2e2e2" opacity="0.8" stroke="#bbb" stroke-width="0.5"></circle></g><g class="key-Benin"><circle cx="312.00" cy="390.00" r="2.00" fill="#e2e2e2" opacity="0.8" stroke="#bbb" stroke-width="0.5"></circle></g><g class="key-Bolivia"><circle cx="555.00" cy="327.00" r="2.00" fill="#e2e2e2" opacity="0.8" stroke="#bbb" stroke-width="0.5"></circle></g><g class="key-Bosnia-and-Herzegovina"><circle cx="381.00" cy="395.00" r="2.00" fill="#e2e2e2" opacity="0.8" stroke="#bbb" stroke-width="0.5"></circle></g><g class="key-Botswana"><circle cx="344.00" cy="377.00" r="2.00" fill="#e2e2e2" opacity="0.8" stroke="#bbb" stroke-width="0.5"></circle></g><g class="key-Bulgaria"><circle cx="370.00" cy="399.00" r="2.00" fill="#e2e2e2" opacity="0.8" stroke="#bbb" stroke-width="0.5"></circle></g><g class="key-Burkina-Faso"><circle cx="303.00" cy="395.00" r="2.00" fill="#e2e2e2" opacity="0.8" stroke="#bbb" stroke-width="0.5"></circle></g><g class="key-Burundi"><circle cx="355.00" cy="382.00" r="2.00" fill="#e2e2e2" opacity="0.8" stroke="#bbb" stroke-width="0.5"></circle></g><g class="key-Cambodia"><circle cx="457.00" cy="371.00" r="2.00" fill="#e2e2e2" opacity="0.8" stroke="#bbb" stroke-width="0.5"></circle></g><g class="key-Cameroon"><circle cx="313.00" cy="391.00" r="2.00" fill="#e2e2e2" opacity="0.8" stroke="#bbb" stroke-width="0.5"></circle></g><g class="key-Canada"><circle cx="448.00" cy="358.00" r="2.00" fill="#e2e2e2" opacity="0.8" stroke="#bbb" stroke-width="0.5"></circle></g><g class="key-Caribbean"><circle cx="441.00" cy="369.00" r="2.00" fill="#e2e2e2" opacity="0.8" stroke="#bbb" stroke-width="0.5"></circle></g><g class="key-Central-African-Republic"><circle cx="403.00" cy="356.00" r="2.00" fill="#e2e2e2" opacity="0.8" stroke="#bbb" stroke-width="0.5"></circle></g><g class="key-Central-Asia"><circle cx="258.00" cy="432.00" r="2.00" fill="#e2e2e2" opacity="0.8" stroke="#bbb" stroke-width="0.5"></circle></g><g class="key-Central-Europe"><circle cx="360.00" cy="401.00" r="2.00" fill="#e2e2e2" opacity="0.8" stroke="#bbb" stroke-width="0.5"></circle></g><g class="key-Central-Europe__002c-Eastern-Europe__002c-and-Central-Asia"><circle cx="327.00" cy="408.00" r="2.00" fill="#e2e2e2" opacity="0.8" stroke="#bbb" stroke-width="0.5"></circle></g><g class="key-Central-Latin-America"><circle cx="402.00" cy="379.00" r="2.00" fill="#e2e2e2" opacity="0.8" stroke="#bbb" stroke-width="0.5"></circle></g><g class="key-Central-sub__002dSaharan-Africa"><circle cx="362.00" cy="372.00" r="2.00" fill="#e2e2e2" opacity="0.8" stroke="#bbb" stroke-width="0.5"></circle></g><g class="key-Chad"><circle cx="325.00" cy="386.00" r="2.00" fill="#e2e2e2" opacity="0.8" stroke="#bbb" stroke-width="0.5"></circle></g><g class="key-Chile"><circle cx="622.00" cy="379.00" r="2.00" fill="#e2e2e2" opacity="0.8" stroke="#bbb" stroke-width="0.5"></circle></g><g class="key-Colombia"><circle cx="451.00" cy="344.00" r="2.00" fill="#e2e2e2" opacity="0.8" stroke="#bbb" stroke-width="0.5"></circle></g><g class="key-Commonwealth"><circle cx="330.00" cy="395.00" r="2.00" fill="#e2e2e2" opacity="0.8" stroke="#bbb" stroke-width="0.5"></circle></g><g class="key-Commonwealth-High-Income"><circle cx="476.00" cy="345.00" r="2.00" fill="#e2e2e2" opacity="0.8" stroke="#bbb" stroke-width="0.5"></circle></g><g class="key-Commonwealth-Low-Income"><circle cx="340.00" cy="381.00" r="2.00" fill="#e2e2e2" opacity="0.8" stroke="#bbb" stroke-width="0.5"></circle></g><g class="key-Commonwealth-Middle-Income"><circle cx="319.00" cy="400.00" r="2.00" fill="#e2e2e2" opacity="0.8" stroke="#bbb" stroke-width="0.5"></circle></g><g class="key-Congo"><circle cx="355.00" cy="375.00" r="2.00" fill="#e2e2e2" opacity="0.8" stroke="#bbb" stroke-width="0.5"></circle></g><g class="key-Costa-Rica"><circle cx="424.00" cy="369.00" r="2.00" fill="#e2e2e2" opacity="0.8" stroke="#bbb" stroke-width="0.5"></circle></g><g class="key-Cote-d__0027Ivoire"><circle cx="315.00" cy="389.00" r="2.00" fill="#e2e2e2" opacity="0.8" stroke="#bbb" stroke-width="0.5"></circle></g><g class="key-Croatia"><circle cx="389.00" cy="392.00" r="2.00" fill="#e2e2e2" opacity="0.8" stroke="#bbb" stroke-width="0.5"></circle></g><g class="key-Cuba"><circle cx="434.00" cy="369.00" r="2.00" fill="#e2e2e2" opacity="0.8" stroke="#bbb" stroke-width="0.5"></circle></g><g class="key-Cyprus"><circle cx="637.00" cy="299.00" r="2.00" fill="#e2e2e2" opacity="0.8" stroke="#bbb" stroke-width="0.5"></circle></g><g class="key-Czechia"><circle cx="350.00" cy="405.00" r="2.00" fill="#e2e2e2" opacity="0.8" stroke="#bbb" stroke-width="0.5"></circle></g><g class="key-Democratic-Republic-of-Congo"><circle cx="358.00" cy="374.00" r="2.00" fill="#e2e2e2" opacity="0.8" stroke="#bbb" stroke-width="0.5"></circle></g><g class="key-Denmark"><circle cx="504.00" cy="344.00" r="2.00" fill="#e2e2e2" opacity="0.8" stroke="#bbb" stroke-width="0.5"></circle></g><g class="key-Dominican-Republic"><circle cx="454.00" cy="364.00" r="2.00" fill="#e2e2e2" opacity="0.8" stroke="#bbb" stroke-width="0.5"></circle></g><g class="key-East-Asia"><circle cx="341.00" cy="397.00" r="2.00" fill="#e2e2e2" opacity="0.8" stroke="#bbb" stroke-width="0.5"></circle></g><g class="key-East-Asia-__0026-Pacific-__002d-World-Bank-region"><circle cx="348.00" cy="399.00" r="2.00" fill="#e2e2e2" opacity="0.8" stroke="#bbb" stroke-width="0.5"></circle></g><g class="key-Eastern-Europe"><circle cx="341.00" cy="400.00" r="2.00" fill="#e2e2e2" opacity="0.8" stroke="#bbb" stroke-width="0.5"></circle></g><g class="key-Eastern-Mediterranean-Region"><circle cx="461.00" cy="355.00" r="2.00" fill="#e2e2e2" opacity="0.8" stroke="#bbb" stroke-width="0.5"></circle></g><g class="key-Eastern-sub__002dSaharan-Africa"><circle cx="361.00" cy="381.00" r="2.00" fill="#e2e2e2" opacity="0.8" stroke="#bbb" stroke-width="0.5"></circle></g><g class="key-Ecuador"><circle cx="512.00" cy="339.00" r="2.00" fill="#e2e2e2" opacity="0.8" stroke="#bbb" stroke-width="0.5"></circle></g><g class="key-El-Salvador"><circle cx="435.00" cy="366.00" r="2.00" fill="#e2e2e2" opacity="0.8" stroke="#bbb" stroke-width="0.5"></circle></g><g class="key-England"><circle cx="451.00" cy="352.00" r="2.00" fill="#e2e2e2" opacity="0.8" stroke="#bbb" stroke-width="0.5"></circle></g><g class="key-Equatorial-Guinea"><circle cx="361.00" cy="372.00" r="2.00" fill="#e2e2e2" opacity="0.8" stroke="#bbb" stroke-width="0.5"></circle></g><g class="key-Eritrea"><circle cx="362.00" cy="378.00" r="2.00" fill="#e2e2e2" opacity="0.8" stroke="#bbb" stroke-width="0.5"></circle></g><g class="key-Estonia"><circle cx="360.00" cy="393.00" r="2.00" fill="#e2e2e2" opacity="0.8" stroke="#bbb" stroke-width="0.5"></circle></g><g class="key-Eswatini"><circle cx="337.00" cy="381.00" r="2.00" fill="#e2e2e2" opacity="0.8" stroke="#bbb" stroke-width="0.5"></circle></g><g class="key-Europe-__0026-Central-Asia-__002d-World-Bank-region"><circle cx="454.00" cy="368.00" r="2.00" fill="#e2e2e2" opacity="0.8" stroke="#bbb" stroke-width="0.5"></circle></g><g class="key-European-Region"><circle cx="453.00" cy="368.00" r="2.00" fill="#e2e2e2" opacity="0.8" stroke="#bbb" stroke-width="0.5"></circle></g><g class="key-European-Union"><circle cx="539.00" cy="346.00" r="2.00" fill="#e2e2e2" opacity="0.8" stroke="#bbb" stroke-width="0.5"></circle></g><g class="key-Finland"><circle cx="407.00" cy="362.00" r="2.00" fill="#e2e2e2" opacity="0.8" stroke="#bbb" stroke-width="0.5"></circle></g><g class="key-France"><circle cx="664.00" cy="327.00" r="2.00" fill="#e2e2e2" opacity="0.8" stroke="#bbb" stroke-width="0.5"></circle></g><g class="key-G20"><circle cx="384.00" cy="387.00" r="2.00" fill="#e2e2e2" opacity="0.8" stroke="#bbb" stroke-width="0.5"></circle></g><g class="key-Gabon"><circle cx="373.00" cy="368.00" r="2.00" fill="#e2e2e2" opacity="0.8" stroke="#bbb" stroke-width="0.5"></circle></g><g class="key-Gambia"><circle cx="321.00" cy="386.00" r="2.00" fill="#e2e2e2" opacity="0.8" stroke="#bbb" stroke-width="0.5"></circle></g><g class="key-Georgia"><circle cx="283.00" cy="423.00" r="2.00" fill="#e2e2e2" opacity="0.8" stroke="#bbb" stroke-width="0.5"></circle></g><g class="key-Germany"><circle cx="651.00" cy="321.00" r="2.00" fill="#e2e2e2" opacity="0.8" stroke="#bbb" stroke-width="0.5"></circle></g><g class="key-Ghana"><circle cx="296.00" cy="398.00" r="2.00" fill="#e2e2e2" opacity="0.8" stroke="#bbb" stroke-width="0.5"></circle></g><g class="key-Greece"><circle cx="581.00" cy="320.00" r="2.00" fill="#e2e2e2" opacity="0.8" stroke="#bbb" stroke-width="0.5"></circle></g><g class="key-Guatemala"><circle cx="423.00" cy="371.00" r="2.00" fill="#e2e2e2" opacity="0.8" stroke="#bbb" stroke-width="0.5"></circle></g><g class="key-Guinea"><circle cx="321.00" cy="387.00" r="2.00" fill="#e2e2e2" opacity="0.8" stroke="#bbb" stroke-width="0.5"></circle></g><g class="key-Guinea__002dBissau"><circle cx="302.00" cy="395.00" r="2.00" fill="#e2e2e2" opacity="0.8" stroke="#bbb" stroke-width="0.5"></circle></g><g class="key-Haiti"><circle cx="454.00" cy="366.00" r="2.00" fill="#e2e2e2" opacity="0.8" stroke="#bbb" stroke-width="0.5"></circle></g><g class="key-High-SDI"><circle cx="497.00" cy="350.00" r="2.00" fill="#e2e2e2" opacity="0.8" stroke="#bbb" stroke-width="0.5"></circle></g><g class="key-High__002dincome"><circle cx="522.00" cy="345.00" r="2.00" fill="#e2e2e2" opacity="0.8" stroke="#bbb" stroke-width="0.5"></circle></g><g class="key-High__002dincome-Asia-Pacific"><circle cx="297.00" cy="415.00" r="2.00" fill="#e2e2e2" opacity="0.8" stroke="#bbb" stroke-width="0.5"></circle></g><g class="key-High__002dincome-North-America"><circle cx="556.00" cy="326.00" r="2.00" fill="#e2e2e2" opacity="0.8" stroke="#bbb" stroke-width="0.5"></circle></g><g class="key-High__002dmiddle-SDI"><circle cx="399.00" cy="387.00" r="2.00" fill="#e2e2e2" opacity="0.8" stroke="#bbb" stroke-width="0.5"></circle></g><g class="key-Honduras"><circle cx="409.00" cy="376.00" r="2.00" fill="#e2e2e2" opacity="0.8" stroke="#bbb" stroke-width="0.5"></circle></g><g class="key-Hungary"><circle cx="370.00" cy="398.00" r="2.00" fill="#e2e2e2" opacity="0.8" stroke="#bbb" stroke-width="0.5"></circle></g><g class="key-Iran"><circle cx="672.00" cy="268.00" r="2.00" fill="#e2e2e2" opacity="0.8" stroke="#bbb" stroke-width="0.5"></circle></g><g class="key-Iraq"><circle cx="549.00" cy="351.00" r="2.00" fill="#e2e2e2" opacity="0.8" stroke="#bbb" stroke-width="0.5"></circle></g><g class="key-Ireland"><circle cx="687.00" cy="283.00" r="2.00" fill="#e2e2e2" opacity="0.8" stroke="#bbb" stroke-width="0.5"></circle></g><g class="key-Israel"><circle cx="389.00" cy="378.00" r="2.00" fill="#e2e2e2" opacity="0.8" stroke="#bbb" stroke-width="0.5"></circle></g><g class="key-Italy"><circle cx="574.00" cy="341.00" r="2.00" fill="#e2e2e2" opacity="0.8" stroke="#bbb" stroke-width="0.5"></circle></g><g class="key-Jamaica"><circle cx="412.00" cy="377.00" r="2.00" fill="#e2e2e2" opacity="0.8" stroke="#bbb" stroke-width="0.5"></circle></g><g class="key-Jordan"><circle cx="500.00" cy="344.00" r="2.00" fill="#e2e2e2" opacity="0.8" stroke="#bbb" stroke-width="0.5"></circle></g><g class="key-Kazakhstan"><circle cx="249.00" cy="435.00" r="2.00" fill="#e2e2e2" opacity="0.8" stroke="#bbb" stroke-width="0.5"></circle></g><g class="key-Kenya"><circle cx="338.00" cy="388.00" r="2.00" fill="#e2e2e2" opacity="0.8" stroke="#bbb" stroke-width="0.5"></circle></g><g class="key-Kuwait"><circle cx="475.00" cy="354.00" r="2.00" fill="#e2e2e2" opacity="0.8" stroke="#bbb" stroke-width="0.5"></circle></g><g class="key-Kyrgyzstan"><circle cx="245.00" cy="437.00" r="2.00" fill="#e2e2e2" opacity="0.8" stroke="#bbb" stroke-width="0.5"></circle></g><g class="key-Laos"><circle cx="451.00" cy="360.00" r="2.00" fill="#e2e2e2" opacity="0.8" stroke="#bbb" stroke-width="0.5"></circle></g><g class="key-Latin-America-__0026-Caribbean-__002d-World-Bank-region"><circle cx="542.00" cy="340.00" r="2.00" fill="#e2e2e2" opacity="0.8" stroke="#bbb" stroke-width="0.5"></circle></g><g class="key-Latvia"><circle cx="392.00" cy="383.00" r="2.00" fill="#e2e2e2" opacity="0.8" stroke="#bbb" stroke-width="0.5"></circle></g><g class="key-Lebanon"><circle cx="590.00" cy="318.00" r="2.00" fill="#e2e2e2" opacity="0.8" stroke="#bbb" stroke-width="0.5"></circle></g><g class="key-Lesotho"><circle cx="342.00" cy="378.00" r="2.00" fill="#e2e2e2" opacity="0.8" stroke="#bbb" stroke-width="0.5"></circle></g><g class="key-Liberia"><circle cx="334.00" cy="382.00" r="2.00" fill="#e2e2e2" opacity="0.8" stroke="#bbb" stroke-width="0.5"></circle></g><g class="key-Libya"><circle cx="523.00" cy="337.00" r="2.00" fill="#e2e2e2" opacity="0.8" stroke="#bbb" stroke-width="0.5"></circle></g><g class="key-Lithuania"><circle cx="432.00" cy="367.00" r="2.00" fill="#e2e2e2" opacity="0.8" stroke="#bbb" stroke-width="0.5"></circle></g><g class="key-Low-SDI"><circle cx="342.00" cy="386.00" r="2.00" fill="#e2e2e2" opacity="0.8" stroke="#bbb" stroke-width="0.5"></circle></g><g class="key-Low__002dmiddle-SDI"><circle cx="352.00" cy="392.00" r="2.00" fill="#e2e2e2" opacity="0.8" stroke="#bbb" stroke-width="0.5"></circle></g><g class="key-Madagascar"><circle cx="381.00" cy="371.00" r="2.00" fill="#e2e2e2" opacity="0.8" stroke="#bbb" stroke-width="0.5"></circle></g><g class="key-Malawi"><circle cx="370.00" cy="375.00" r="2.00" fill="#e2e2e2" opacity="0.8" stroke="#bbb" stroke-width="0.5"></circle></g><g class="key-Malaysia"><circle cx="474.00" cy="361.00" r="2.00" fill="#e2e2e2" opacity="0.8" stroke="#bbb" stroke-width="0.5"></circle></g><g class="key-Mali"><circle cx="276.00" cy="408.00" r="2.00" fill="#e2e2e2" opacity="0.8" stroke="#bbb" stroke-width="0.5"></circle></g><g class="key-Mauritania"><circle cx="278.00" cy="406.00" r="2.00" fill="#e2e2e2" opacity="0.8" stroke="#bbb" stroke-width="0.5"></circle></g><g class="key-Mauritius"><circle cx="398.00" cy="390.00" r="2.00" fill="#e2e2e2" opacity="0.8" stroke="#bbb" stroke-width="0.5"></circle></g><g class="key-Middle-East-__0026-North-Africa"><circle cx="523.00" cy="337.00" r="2.00" fill="#e2e2e2" opacity="0.8" stroke="#bbb" stroke-width="0.5"></circle></g><g class="key-Middle-SDI"><circle cx="387.00" cy="381.00" r="2.00" fill="#e2e2e2" opacity="0.8" stroke="#bbb" stroke-width="0.5"></circle></g><g class="key-Moldova"><circle cx="417.00" cy="373.00" r="2.00" fill="#e2e2e2" opacity="0.8" stroke="#bbb" stroke-width="0.5"></circle></g><g class="key-Mongolia"><circle cx="252.00" cy="435.00" r="2.00" fill="#e2e2e2" opacity="0.8" stroke="#bbb" stroke-width="0.5"></circle></g><g class="key-Morocco"><circle cx="477.00" cy="354.00" r="2.00" fill="#e2e2e2" opacity="0.8" stroke="#bbb" stroke-width="0.5"></circle></g><g class="key-Mozambique"><circle cx="382.00" cy="371.00" r="2.00" fill="#e2e2e2" opacity="0.8" stroke="#bbb" stroke-width="0.5"></circle></g><g class="key-Myanmar"><circle cx="404.00" cy="388.00" r="2.00" fill="#e2e2e2" opacity="0.8" stroke="#bbb" stroke-width="0.5"></circle></g><g class="key-Namibia"><circle cx="336.00" cy="381.00" r="2.00" fill="#e2e2e2" opacity="0.8" stroke="#bbb" stroke-width="0.5"></circle></g><g class="key-Nepal"><circle cx="322.00" cy="391.00" r="2.00" fill="#e2e2e2" opacity="0.8" stroke="#bbb" stroke-width="0.5"></circle></g><g class="key-Netherlands"><circle cx="657.00" cy="276.00" r="2.00" fill="#e2e2e2" opacity="0.8" stroke="#bbb" stroke-width="0.5"></circle></g><g class="key-New-Zealand"><circle cx="724.00" cy="274.00" r="2.00" fill="#e2e2e2" opacity="0.8" stroke="#bbb" stroke-width="0.5"></circle></g><g class="key-Nicaragua"><circle cx="438.00" cy="365.00" r="2.00" fill="#e2e2e2" opacity="0.8" stroke="#bbb" stroke-width="0.5"></circle></g><g class="key-Niger"><circle cx="293.00" cy="400.00" r="2.00" fill="#e2e2e2" opacity="0.8" stroke="#bbb" stroke-width="0.5"></circle></g><g class="key-Nordic-Region"><circle cx="508.00" cy="335.00" r="2.00" fill="#e2e2e2" opacity="0.8" stroke="#bbb" stroke-width="0.5"></circle></g><g class="key-North-Africa-and-Middle-East"><circle cx="508.00" cy="341.00" r="2.00" fill="#e2e2e2" opacity="0.8" stroke="#bbb" stroke-width="0.5"></circle></g><g class="key-North-Korea"><circle cx="376.00" cy="389.00" r="2.00" fill="#e2e2e2" opacity="0.8" stroke="#bbb" stroke-width="0.5"></circle></g><g class="key-North-Macedonia"><circle cx="389.00" cy="392.00" r="2.00" fill="#e2e2e2" opacity="0.8" stroke="#bbb" stroke-width="0.5"></circle></g><g class="key-Northern-Ireland"><circle cx="640.00" cy="297.00" r="2.00" fill="#e2e2e2" opacity="0.8" stroke="#bbb" stroke-width="0.5"></circle></g><g class="key-Norway"><circle cx="645.00" cy="277.00" r="2.00" fill="#e2e2e2" opacity="0.8" stroke="#bbb" stroke-width="0.5"></circle></g><g class="key-OECD-Countries"><circle cx="493.00" cy="354.00" r="2.00" fill="#e2e2e2" opacity="0.8" stroke="#bbb" stroke-width="0.5"></circle></g><g class="key-Oceania"><circle cx="403.00" cy="379.00" r="2.00" fill="#e2e2e2" opacity="0.8" stroke="#bbb" stroke-width="0.5"></circle></g><g class="key-Oman"><circle cx="489.00" cy="350.00" r="2.00" fill="#e2e2e2" opacity="0.8" stroke="#bbb" stroke-width="0.5"></circle></g><g class="key-Palestine"><circle cx="545.00" cy="330.00" r="2.00" fill="#e2e2e2" opacity="0.8" stroke="#bbb" stroke-width="0.5"></circle></g><g class="key-Panama"><circle cx="381.00" cy="385.00" r="2.00" fill="#e2e2e2" opacity="0.8" stroke="#bbb" stroke-width="0.5"></circle></g><g class="key-Papua-New-Guinea"><circle cx="402.00" cy="380.00" r="2.00" fill="#e2e2e2" opacity="0.8" stroke="#bbb" stroke-width="0.5"></circle></g><g class="key-Paraguay"><circle cx="623.00" cy="315.00" r="2.00" fill="#e2e2e2" opacity="0.8" stroke="#bbb" stroke-width="0.5"></circle></g><g class="key-Peru"><circle cx="540.00" cy="330.00" r="2.00" fill="#e2e2e2" opacity="0.8" stroke="#bbb" stroke-width="0.5"></circle></g><g class="key-Poland"><circle cx="344.00" cy="406.00" r="2.00" fill="#e2e2e2" opacity="0.8" stroke="#bbb" stroke-width="0.5"></circle></g><g class="key-Portugal"><circle cx="773.00" cy="246.00" r="2.00" fill="#e2e2e2" opacity="0.8" stroke="#bbb" stroke-width="0.5"></circle></g><g class="key-Puerto-Rico"><circle cx="447.00" cy="365.00" r="2.00" fill="#e2e2e2" opacity="0.8" stroke="#bbb" stroke-width="0.5"></circle></g><g class="key-Qatar"><circle cx="489.00" cy="348.00" r="2.00" fill="#e2e2e2" opacity="0.8" stroke="#bbb" stroke-width="0.5"></circle></g><g class="key-Region-of-the-Americas"><circle cx="546.00" cy="336.00" r="2.00" fill="#e2e2e2" opacity="0.8" stroke="#bbb" stroke-width="0.5"></circle></g><g class="key-Romania"><circle cx="358.00" cy="401.00" r="2.00" fill="#e2e2e2" opacity="0.8" stroke="#bbb" stroke-width="0.5"></circle></g><g class="key-Rwanda"><circle cx="355.00" cy="381.00" r="2.00" fill="#e2e2e2" opacity="0.8" stroke="#bbb" stroke-width="0.5"></circle></g><g class="key-Saudi-Arabia"><circle cx="474.00" cy="355.00" r="2.00" fill="#e2e2e2" opacity="0.8" stroke="#bbb" stroke-width="0.5"></circle></g><g class="key-Scotland"><circle cx="425.00" cy="360.00" r="2.00" fill="#e2e2e2" opacity="0.8" stroke="#bbb" stroke-width="0.5"></circle></g><g class="key-Senegal"><circle cx="289.00" cy="402.00" r="2.00" fill="#e2e2e2" opacity="0.8" stroke="#bbb" stroke-width="0.5"></circle></g><g class="key-Serbia"><circle cx="365.00" cy="400.00" r="2.00" fill="#e2e2e2" opacity="0.8" stroke="#bbb" stroke-width="0.5"></circle></g><g class="key-Sierra-Leone"><circle cx="345.00" cy="376.00" r="2.00" fill="#e2e2e2" opacity="0.8" stroke="#bbb" stroke-width="0.5"></circle></g><g class="key-Singapore"><circle cx="312.00" cy="414.00" r="2.00" fill="#e2e2e2" opacity="0.8" stroke="#bbb" stroke-width="0.5"></circle></g><g class="key-Slovakia"><circle cx="372.00" cy="397.00" r="2.00" fill="#e2e2e2" opacity="0.8" stroke="#bbb" stroke-width="0.5"></circle></g><g class="key-Slovenia"><circle cx="372.00" cy="397.00" r="2.00" fill="#e2e2e2" opacity="0.8" stroke="#bbb" stroke-width="0.5"></circle></g><g class="key-Somalia"><circle cx="324.00" cy="395.00" r="2.00" fill="#e2e2e2" opacity="0.8" stroke="#bbb" stroke-width="0.5"></circle></g><g class="key-South-Africa"><circle cx="373.00" cy="380.00" r="2.00" fill="#e2e2e2" opacity="0.8" stroke="#bbb" stroke-width="0.5"></circle></g><g class="key-South-Asia-__002d-World-Bank-region"><circle cx="317.00" cy="400.00" r="2.00" fill="#e2e2e2" opacity="0.8" stroke="#bbb" stroke-width="0.5"></circle></g><g class="key-South-Korea"><circle cx="371.00" cy="409.00" r="2.00" fill="#e2e2e2" opacity="0.8" stroke="#bbb" stroke-width="0.5"></circle></g><g class="key-South-Sudan"><circle cx="459.00" cy="339.00" r="2.00" fill="#e2e2e2" opacity="0.8" stroke="#bbb" stroke-width="0.5"></circle></g><g class="key-South__002dEast-Asia-Region"><circle cx="324.00" cy="403.00" r="2.00" fill="#e2e2e2" opacity="0.8" stroke="#bbb" stroke-width="0.5"></circle></g><g class="key-Southeast-Asia"><circle cx="383.00" cy="395.00" r="2.00" fill="#e2e2e2" opacity="0.8" stroke="#bbb" stroke-width="0.5"></circle></g><g class="key-Southeast-Asia__002c-East-Asia__002c-and-Oceania"><circle cx="351.00" cy="398.00" r="2.00" fill="#e2e2e2" opacity="0.8" stroke="#bbb" stroke-width="0.5"></circle></g><g class="key-Southern-Latin-America"><circle cx="540.00" cy="359.00" r="2.00" fill="#e2e2e2" opacity="0.8" stroke="#bbb" stroke-width="0.5"></circle></g><g class="key-Southern-sub__002dSaharan-Africa"><circle cx="357.00" cy="380.00" r="2.00" fill="#e2e2e2" opacity="0.8" stroke="#bbb" stroke-width="0.5"></circle></g><g class="key-Spain"><circle cx="547.00" cy="373.00" r="2.00" fill="#e2e2e2" opacity="0.8" stroke="#bbb" stroke-width="0.5"></circle></g><g class="key-Sri-Lanka"><circle cx="418.00" cy="383.00" r="2.00" fill="#e2e2e2" opacity="0.8" stroke="#bbb" stroke-width="0.5"></circle></g><g class="key-Sub__002dSaharan-Africa-__002d-World-Bank-region"><circle cx="341.00" cy="385.00" r="2.00" fill="#e2e2e2" opacity="0.8" stroke="#bbb" stroke-width="0.5"></circle></g><g class="key-Sudan"><circle cx="472.00" cy="357.00" r="2.00" fill="#e2e2e2" opacity="0.8" stroke="#bbb" stroke-width="0.5"></circle></g><g class="key-Sweden"><circle cx="490.00" cy="347.00" r="2.00" fill="#e2e2e2" opacity="0.8" stroke="#bbb" stroke-width="0.5"></circle></g><g class="key-Switzerland"><circle cx="675.00" cy="283.00" r="2.00" fill="#e2e2e2" opacity="0.8" stroke="#bbb" stroke-width="0.5"></circle></g><g class="key-Syria"><circle cx="539.00" cy="331.00" r="2.00" fill="#e2e2e2" opacity="0.8" stroke="#bbb" stroke-width="0.5"></circle></g><g class="key-Taiwan"><circle cx="385.00" cy="382.00" r="2.00" fill="#e2e2e2" opacity="0.8" stroke="#bbb" stroke-width="0.5"></circle></g><g class="key-Tajikistan"><circle cx="274.00" cy="426.00" r="2.00" fill="#e2e2e2" opacity="0.8" stroke="#bbb" stroke-width="0.5"></circle></g><g class="key-Tanzania"><circle cx="367.00" cy="377.00" r="2.00" fill="#e2e2e2" opacity="0.8" stroke="#bbb" stroke-width="0.5"></circle></g><g class="key-Thailand"><circle cx="364.00" cy="401.00" r="2.00" fill="#e2e2e2" opacity="0.8" stroke="#bbb" stroke-width="0.5"></circle></g><g class="key-Timor"><circle cx="395.00" cy="391.00" r="2.00" fill="#e2e2e2" opacity="0.8" stroke="#bbb" stroke-width="0.5"></circle></g><g class="key-Togo"><circle cx="340.00" cy="379.00" r="2.00" fill="#e2e2e2" opacity="0.8" stroke="#bbb" stroke-width="0.5"></circle></g><g class="key-Trinidad-and-Tobago"><circle cx="402.00" cy="382.00" r="2.00" fill="#e2e2e2" opacity="0.8" stroke="#bbb" stroke-width="0.5"></circle></g><g class="key-Tropical-Latin-America"><circle cx="713.00" cy="291.00" r="2.00" fill="#e2e2e2" opacity="0.8" stroke="#bbb" stroke-width="0.5"></circle></g><g class="key-Tunisia"><circle cx="510.00" cy="342.00" r="2.00" fill="#e2e2e2" opacity="0.8" stroke="#bbb" stroke-width="0.5"></circle></g><g class="key-Turkey"><circle cx="445.00" cy="355.00" r="2.00" fill="#e2e2e2" opacity="0.8" stroke="#bbb" stroke-width="0.5"></circle></g><g class="key-Turkmenistan"><circle cx="271.00" cy="427.00" r="2.00" fill="#e2e2e2" opacity="0.8" stroke="#bbb" stroke-width="0.5"></circle></g><g class="key-Uganda"><circle cx="372.00" cy="361.00" r="2.00" fill="#e2e2e2" opacity="0.8" stroke="#bbb" stroke-width="0.5"></circle></g><g class="key-Ukraine"><circle cx="337.00" cy="402.00" r="2.00" fill="#e2e2e2" opacity="0.8" stroke="#bbb" stroke-width="0.5"></circle></g><g class="key-United-Kingdom"><circle cx="453.00" cy="351.00" r="2.00" fill="#e2e2e2" opacity="0.8" stroke="#bbb" stroke-width="0.5"></circle></g><g class="key-Uruguay"><circle cx="558.00" cy="368.00" r="2.00" fill="#e2e2e2" opacity="0.8" stroke="#bbb" stroke-width="0.5"></circle></g><g class="key-Uzbekistan"><circle cx="241.00" cy="438.00" r="2.00" fill="#e2e2e2" opacity="0.8" stroke="#bbb" stroke-width="0.5"></circle></g><g class="key-Venezuela"><circle cx="404.00" cy="378.00" r="2.00" fill="#e2e2e2" opacity="0.8" stroke="#bbb" stroke-width="0.5"></circle></g><g class="key-Wales"><circle cx="439.00" cy="359.00" r="2.00" fill="#e2e2e2" opacity="0.8" stroke="#bbb" stroke-width="0.5"></circle></g><g class="key-Western-Europe"><circle cx="583.00" cy="332.00" r="2.00" fill="#e2e2e2" opacity="0.8" stroke="#bbb" stroke-width="0.5"></circle></g><g class="key-Western-Pacific-Region"><circle cx="344.00" cy="398.00" r="2.00" fill="#e2e2e2" opacity="0.8" stroke="#bbb" stroke-width="0.5"></circle></g><g class="key-Western-sub__002dSaharan-Africa"><circle cx="300.00" cy="396.00" r="2.00" fill="#e2e2e2" opacity="0.8" stroke="#bbb" stroke-width="0.5"></circle></g><g class="key-World-Bank-High-Income"><circle cx="507.00" cy="350.00" r="2.00" fill="#e2e2e2" opacity="0.8" stroke="#bbb" stroke-width="0.5"></circle></g><g class="key-World-Bank-Low-Income"><circle cx="357.00" cy="381.00" r="2.00" fill="#e2e2e2" opacity="0.8" stroke="#bbb" stroke-width="0.5"></circle></g><g class="key-World-Bank-Lower-Middle-Income"><circle cx="341.00" cy="395.00" r="2.00" fill="#e2e2e2" opacity="0.8" stroke="#bbb" stroke-width="0.5"></circle></g><g class="key-World-Bank-Upper-Middle-Income"><circle cx="407.00" cy="378.00" r="2.00" fill="#e2e2e2" opacity="0.8" stroke="#bbb" stroke-width="0.5"></circle></g><g class="key-Yemen"><circle cx="470.00" cy="358.00" r="2.00" fill="#e2e2e2" opacity="0.8" stroke="#bbb" stroke-width="0.5"></circle></g><g class="key-Zambia"><circle cx="380.00" cy="373.00" r="2.00" fill="#e2e2e2" opacity="0.8" stroke="#bbb" stroke-width="0.5"></circle></g><g class="key-Zimbabwe"><circle cx="299.00" cy="383.00" r="2.00" fill="#e2e2e2" opacity="0.8" stroke="#bbb" stroke-width="0.5"></circle></g><g class="backgroundLabels" fill="#aaa"></g><g class="key-United-States"><circle cx="568.00" cy="322.00" fill="none" stroke="#E04E4B" r="6.72"></circle><circle cx="568.00" cy="322.00" r="3.72" fill="#E04E4B" opacity="0.8" stroke="#333" stroke-width="0.5"></circle></g><g class="key-Belgium"><circle cx="488.00" cy="320.00" fill="none" stroke="#4C5C78" r="5.00"></circle><circle cx="488.00" cy="320.00" r="2.00" fill="#4C5C78" opacity="0.8" stroke="#333" stroke-width="0.5"></circle></g><g class="key-United-Arab-Emirates"><circle cx="463.00" cy="357.00" fill="none" stroke="#2D8587" r="5.00"></circle><circle cx="463.00" cy="357.00" r="2.00" fill="#2D8587" opacity="0.8" stroke="#333" stroke-width="0.5"></circle></g><text x="568.00" y="317.28" font-size="13.805527834219916" font-weight="700" fill="#E04E4B" style="fill:#fff;stroke:#fff;stroke-linecap:round;stroke-linejoin:round;stroke-width:.25em">United States</text><text x="568.00" y="317.28" font-size="13.805527834219916" font-weight="700" fill="#E04E4B">United States</text><text x="488.00" y="317.00" font-size="13.150844674309374" font-weight="700" fill="#4C5C78" style="fill:#fff;stroke:#fff;stroke-linecap:round;stroke-linejoin:round;stroke-width:.25em">Belgium</text><text x="488.00" y="317.00" font-size="13.150844674309374" font-weight="700" fill="#4C5C78">Belgium</text><text x="463.00" y="354.00" font-size="13.13880296159232" font-weight="700" fill="#2D8587" style="fill:#fff;stroke:#fff;stroke-linecap:round;stroke-linejoin:round;stroke-width:.25em">United Arab Emirates</text><text x="463.00" y="354.00" font-size="13.13880296159232" font-weight="700" fill="#2D8587">United Arab Emirates</text></g><g class="ScatterColorLegend clickable" style="cursor:pointer"><g class="legendMark" fill="#ccc"><rect x="738.092" y="105.3" width="46.256" height="17.6" fill="#fff" opacity="0"></rect><rect x="738.092" y="109.6" width="9" height="9"></rect><text font-size="12.60" x="752.1" y="117.9"><tspan x="752.092" y="117.88">Africa</tspan></text></g><g class="legendMark"><rect x="738.092" y="122.9" width="38.57" height="17.6" fill="#fff" opacity="0"></rect><rect x="738.092" y="127.2" width="9" height="9" fill="#2D8587"></rect><text font-size="12.60" x="752.1" y="135.5"><tspan x="752.092" y="135.48">Asia</tspan></text></g><g class="legendMark"><rect x="738.092" y="140.5" width="54.824" height="17.6" fill="#fff" opacity="0"></rect><rect x="738.092" y="144.8" width="9" height="9" fill="#4C5C78"></rect><text font-size="12.60" x="752.1" y="153.1"><tspan x="752.092" y="153.07999999999998">Europe</tspan></text></g><g class="legendMark"><rect x="738.092" y="158.1" width="94.64" height="17.6" fill="#fff" opacity="0"></rect><rect x="738.092" y="162.4" width="9" height="9" fill="#E04E4B"></rect><text font-size="12.60" x="752.1" y="170.7"><tspan x="752.092" y="170.67999999999998">North America</tspan></text></g><g class="legendMark" fill="#ccc"><rect x="738.092" y="175.7" width="61.124" height="17.6" fill="#fff" opacity="0"></rect><rect x="738.092" y="180" width="9" height="9"></rect><text font-size="12.60" x="752.1" y="188.3"><tspan x="752.092" y="188.27999999999997">Oceania</tspan></text></g><g class="legendMark" fill="#ccc"><rect x="738.092" y="193.3" width="96.908" height="17.6" fill="#fff" opacity="0"></rect><rect x="738.092" y="197.60000000000002" width="9" height="9"></rect><text font-size="12.60" x="752.1" y="205.9"><tspan x="752.092" y="205.88">South America</tspan></text></g><g class="legendMark" fill="#ccc"><rect x="738.092" y="210.89999999999998" width="58.352000000000004" height="17.6" fill="#fff" opacity="0"></rect><rect x="738.092" y="215.2" width="9" height="9"></rect><text font-size="12.60" x="752.1" y="223.5"><tspan x="752.092" y="223.47999999999996">No data</tspan></text></g></g><g><g><circle cx="786.5459999999999" cy="259.85266319320874" r="17.147336806791266" fill="none" stroke="#bbb" stroke-width="1.25" opacity="1"></circle><text x="786.5459999999999" y="242.70532638641748" dy=".47em" fill="#444" style="fill:#fff;stroke:#fff;stroke-linecap:round;stroke-linejoin:round;stroke-width:3.5;font-size:10.786834201697815px;font-weight:400;text-anchor:middle">7B</text><text x="786.5459999999999" y="242.70532638641748" dy=".47em" fill="#444" style="font-size:10.786834201697815px;font-weight:400;text-anchor:middle">7B</text></g><g><circle cx="786.5459999999999" cy="267.83436293905265" r="9.165637060947319" fill="none" stroke="#bbb" stroke-width="1.25" opacity="1"></circle><text x="786.5459999999999" y="258.6687258781053" dy=".47em" fill="#444" style="fill:#fff;stroke:#fff;stroke-linecap:round;stroke-linejoin:round;stroke-width:3.5;font-size:8.79140926523683px;font-weight:400;text-anchor:middle">2B</text><text x="786.5459999999999" y="258.6687258781053" dy=".47em" fill="#444" style="font-size:8.79140926523683px;font-weight:400;text-anchor:middle">2B</text></g><text font-size="11.25" x="786.5" y="289.0" fill="#777" text-anchor="middle"><tspan x="786.5459999999999" y="289">Dots sized by</tspan></text><text font-size="12.38" font-weight="700" x="786.5" y="303.1" fill="#222" text-anchor="middle"><tspan x="786.5459999999999" y="303.15">Population</tspan></text></g></g><g class="SourcesFooter" style="fill:#777"><g style="fill:#777"><text font-size="12.60" x="15.0" y="582.5"><tspan x="15" y="582.48">Source: IHME, Global Burden of Disease</tspan></text></g><text font-size="12.60" x="796.4" y="582.5"><tspan x="796.444" y="582.48"><a style="fill: #777;" class="cclogo" href="http://creativecommons.org/licenses/by/4.0/deed.en_US" target="_blank">CC BY</a></tspan></text></g></svg>