<svg xmlns="http://www.w3.org/2000/svg" viewBox="0 0 2173 2173"><path fill="#FFF" d="M0 0h2173v2173H0z"/><defs transform="translate(82 82)"><linearGradient id="a" gradientTransform="rotate(90)"><stop offset="5%" stop-color="#0277BD"/><stop offset="95%" stop-color="#004873"/></linearGradient><mask id="b"><path fill="#fff" d="M0 0h100v100H0z" transform="translate(328) scale(.41)"/><path fill="#fff" d="M0 0h100v100H0z" transform="translate(410) scale(.41)"/><path fill="#fff" d="M0 0h100v100H0z" transform="translate(492) scale(.41)"/><path fill="#fff" d="M0 0h100v100H0z" transform="translate(574) scale(.41)"/><path fill="#fff" d="M0 0h100v100H0z" transform="translate(615) scale(.41)"/><path fill="#fff" d="M0 0h100v100H0z" transform="translate(656) scale(.41)"/><path fill="#fff" d="M0 0h100v100H0z" transform="translate(697) scale(.41)"/><path fill="#fff" d="M0 0h100v100H0z" transform="translate(820) scale(.41)"/><path fill="#fff" d="M0 0h100v100H0z" transform="translate(861) scale(.41)"/><path fill="#fff" d="M0 0h100v100H0z" transform="translate(984) scale(.41)"/><path fill="#fff" d="M0 0h100v100H0z" transform="translate(1230) scale(.41)"/><path fill="#fff" d="M0 0h100v100H0z" transform="translate(1271) scale(.41)"/><path fill="#fff" d="M0 0h100v100H0z" transform="translate(1353) scale(.41)"/><path fill="#fff" d="M0 0h100v100H0z" transform="translate(1435) scale(.41)"/><path fill="#fff" d="M0 0h100v100H0z" transform="translate(1476) scale(.41)"/><path fill="#fff" d="M0 0h100v100H0z" transform="translate(1517) scale(.41)"/><path fill="#fff" d="M0 0h100v100H0z" transform="translate(1640) scale(.41)"/><path fill="#fff" d="M0 0h100v100H0z" transform="matrix(.41 0 0 .41 328 41)"/><path fill="#fff" d="M0 0h100v100H0z" transform="matrix(.41 0 0 .41 451 41)"/><path fill="#fff" d="M0 0h100v100H0z" transform="matrix(.41 0 0 .41 533 41)"/><path fill="#fff" d="M0 0h100v100H0z" transform="matrix(.41 0 0 .41 656 41)"/><path fill="#fff" d="M0 0h100v100H0z" transform="matrix(.41 0 0 .41 697 41)"/><path fill="#fff" d="M0 0h100v100H0z" transform="matrix(.41 0 0 .41 738 41)"/><path fill="#fff" d="M0 0h100v100H0z" transform="matrix(.41 0 0 .41 861 41)"/><path fill="#fff" d="M0 0h100v100H0z" transform="matrix(.41 0 0 .41 902 41)"/><path fill="#fff" d="M0 0h100v100H0z" transform="matrix(.41 0 0 .41 1025 41)"/><path fill="#fff" d="M0 0h100v100H0z" transform="matrix(.41 0 0 .41 1066 41)"/><path fill="#fff" d="M0 0h100v100H0z" transform="matrix(.41 0 0 .41 1312 41)"/><path fill="#fff" d="M0 0h100v100H0z" transform="matrix(.41 0 0 .41 1353 41)"/><path fill="#fff" d="M0 0h100v100H0z" transform="matrix(.41 0 0 .41 1435 41)"/><path fill="#fff" d="M0 0h100v100H0z" transform="matrix(.41 0 0 .41 1558 41)"/><path fill="#fff" d="M0 0h100v100H0z" transform="matrix(.41 0 0 .41 1599 41)"/><path fill="#fff" d="M0 0h100v100H0z" transform="matrix(.41 0 0 .41 1640 41)"/><path fill="#fff" d="M0 0h100v100H0z" transform="matrix(.41 0 0 .41 410 82)"/><path fill="#fff" d="M0 0h100v100H0z" transform="matrix(.41 0 0 .41 451 82)"/><path fill="#fff" d="M0 0h100v100H0z" transform="matrix(.41 0 0 .41 533 82)"/><path fill="#fff" d="M0 0h100v100H0z" transform="matrix(.41 0 0 .41 779 82)"/><path fill="#fff" d="M0 0h100v100H0z" transform="matrix(.41 0 0 .41 820 82)"/><path fill="#fff" d="M0 0h100v100H0z" transform="matrix(.41 0 0 .41 861 82)"/><path fill="#fff" d="M0 0h100v100H0z" transform="matrix(.41 0 0 .41 902 82)"/><path fill="#fff" d="M0 0h100v100H0z" transform="matrix(.41 0 0 .41 943 82)"/><path fill="#fff" d="M0 0h100v100H0z" transform="matrix(.41 0 0 .41 1312 82)"/><path fill="#fff" d="M0 0h100v100H0z" transform="matrix(.41 0 0 .41 1353 82)"/><path fill="#fff" d="M0 0h100v100H0z" transform="matrix(.41 0 0 .41 1476 82)"/><path fill="#fff" d="M0 0h100v100H0z" transform="matrix(.41 0 0 .41 1517 82)"/><path fill="#fff" d="M0 0h100v100H0z" transform="matrix(.41 0 0 .41 1599 82)"/><path fill="#fff" d="M0 0h100v100H0z" transform="matrix(.41 0 0 .41 1640 82)"/><path fill="#fff" d="M0 0h100v100H0z" transform="matrix(.41 0 0 .41 328 123)"/><path fill="#fff" d="M0 0h100v100H0z" transform="matrix(.41 0 0 .41 369 123)"/><path fill="#fff" d="M0 0h100v100H0z" transform="matrix(.41 0 0 .41 410 123)"/><path fill="#fff" d="M0 0h100v100H0z" transform="matrix(.41 0 0 .41 451 123)"/><path fill="#fff" d="M0 0h100v100H0z" transform="matrix(.41 0 0 .41 492 123)"/><path fill="#fff" d="M0 0h100v100H0z" transform="matrix(.41 0 0 .41 656 123)"/><path fill="#fff" d="M0 0h100v100H0z" transform="matrix(.41 0 0 .41 738 123)"/><path fill="#fff" d="M0 0h100v100H0z" transform="matrix(.41 0 0 .41 779 123)"/><path fill="#fff" d="M0 0h100v100H0z" transform="matrix(.41 0 0 .41 861 123)"/><path fill="#fff" d="M0 0h100v100H0z" transform="matrix(.41 0 0 .41 984 123)"/><path fill="#fff" d="M0 0h100v100H0z" transform="matrix(.41 0 0 .41 1025 123)"/><path fill="#fff" d="M0 0h100v100H0z" transform="matrix(.41 0 0 .41 1189 123)"/><path fill="#fff" d="M0 0h100v100H0z" transform="matrix(.41 0 0 .41 1271 123)"/><path fill="#fff" d="M0 0h100v100H0z" transform="matrix(.41 0 0 .41 1394 123)"/><path fill="#fff" d="M0 0h100v100H0z" transform="matrix(.41 0 0 .41 1435 123)"/><path fill="#fff" d="M0 0h100v100H0z" transform="matrix(.41 0 0 .41 1476 123)"/><path fill="#fff" d="M0 0h100v100H0z" transform="matrix(.41 0 0 .41 1517 123)"/><path fill="#fff" d="M0 0h100v100H0z" transform="matrix(.41 0 0 .41 1599 123)"/><path fill="#fff" d="M0 0h100v100H0z" transform="matrix(.41 0 0 .41 492 164)"/><path fill="#fff" d="M0 0h100v100H0z" transform="matrix(.41 0 0 .41 697 164)"/><path fill="#fff" d="M0 0h100v100H0z" transform="matrix(.41 0 0 .41 820 164)"/><path fill="#fff" d="M0 0h100v100H0z" transform="matrix(.41 0 0 .41 902 164)"/><path fill="#fff" d="M0 0h100v100H0z" transform="matrix(.41 0 0 .41 943 164)"/><path fill="#fff" d="M0 0h100v100H0z" transform="matrix(.41 0 0 .41 984 164)"/><path fill="#fff" d="M0 0h100v100H0z" transform="matrix(.41 0 0 .41 1025 164)"/><path fill="#fff" d="M0 0h100v100H0z" transform="matrix(.41 0 0 .41 1066 164)"/><path fill="#fff" d="M0 0h100v100H0z" transform="matrix(.41 0 0 .41 1107 164)"/><path fill="#fff" d="M0 0h100v100H0z" transform="matrix(.41 0 0 .41 1312 164)"/><path fill="#fff" d="M0 0h100v100H0z" transform="matrix(.41 0 0 .41 1353 164)"/><path fill="#fff" d="M0 0h100v100H0z" transform="matrix(.41 0 0 .41 1435 164)"/><path fill="#fff" d="M0 0h100v100H0z" transform="matrix(.41 0 0 .41 1476 164)"/><path fill="#fff" d="M0 0h100v100H0z" transform="matrix(.41 0 0 .41 1517 164)"/><path fill="#fff" d="M0 0h100v100H0z" transform="matrix(.41 0 0 .41 369 205)"/><path fill="#fff" d="M0 0h100v100H0z" transform="matrix(.41 0 0 .41 410 205)"/><path fill="#fff" d="M0 0h100v100H0z" transform="matrix(.41 0 0 .41 697 205)"/><path fill="#fff" d="M0 0h100v100H0z" transform="matrix(.41 0 0 .41 738 205)"/><path fill="#fff" d="M0 0h100v100H0z" transform="matrix(.41 0 0 .41 861 205)"/><path fill="#fff" d="M0 0h100v100H0z" transform="matrix(.41 0 0 .41 902 205)"/><path fill="#fff" d="M0 0h100v100H0z" transform="matrix(.41 0 0 .41 1066 205)"/><path fill="#fff" d="M0 0h100v100H0z" transform="matrix(.41 0 0 .41 1148 205)"/><path fill="#fff" d="M0 0h100v100H0z" transform="matrix(.41 0 0 .41 1230 205)"/><path fill="#fff" d="M0 0h100v100H0z" transform="matrix(.41 0 0 .41 1517 205)"/><path fill="#fff" d="M0 0h100v100H0z" transform="matrix(.41 0 0 .41 1558 205)"/><path fill="#fff" d="M0 0h100v100H0z" transform="matrix(.41 0 0 .41 328 246)"/><path fill="#fff" d="M0 0h100v100H0z" transform="matrix(.41 0 0 .41 410 246)"/><path fill="#fff" d="M0 0h100v100H0z" transform="matrix(.41 0 0 .41 492 246)"/><path fill="#fff" d="M0 0h100v100H0z" transform="matrix(.41 0 0 .41 574 246)"/><path fill="#fff" d="M0 0h100v100H0z" transform="matrix(.41 0 0 .41 656 246)"/><path fill="#fff" d="M0 0h100v100H0z" transform="matrix(.41 0 0 .41 738 246)"/><path fill="#fff" d="M0 0h100v100H0z" transform="matrix(.41 0 0 .41 820 246)"/><path fill="#fff" d="M0 0h100v100H0z" transform="matrix(.41 0 0 .41 902 246)"/><path fill="#fff" d="M0 0h100v100H0z" transform="matrix(.41 0 0 .41 984 246)"/><path fill="#fff" d="M0 0h100v100H0z" transform="matrix(.41 0 0 .41 1066 246)"/><path fill="#fff" d="M0 0h100v100H0z" transform="matrix(.41 0 0 .41 1148 246)"/><path fill="#fff" d="M0 0h100v100H0z" transform="matrix(.41 0 0 .41 1230 246)"/><path fill="#fff" d="M0 0h100v100H0z" transform="matrix(.41 0 0 .41 1312 246)"/><path fill="#fff" d="M0 0h100v100H0z" transform="matrix(.41 0 0 .41 1394 246)"/><path fill="#fff" d="M0 0h100v100H0z" transform="matrix(.41 0 0 .41 1476 246)"/><path fill="#fff" d="M0 0h100v100H0z" transform="matrix(.41 0 0 .41 1558 246)"/><path fill="#fff" d="M0 0h100v100H0z" transform="matrix(.41 0 0 .41 1640 246)"/><path fill="#fff" d="M0 0h100v100H0z" transform="matrix(.41 0 0 .41 328 287)"/><path fill="#fff" d="M0 0h100v100H0z" transform="matrix(.41 0 0 .41 451 287)"/><path fill="#fff" d="M0 0h100v100H0z" transform="matrix(.41 0 0 .41 533 287)"/><path fill="#fff" d="M0 0h100v100H0z" transform="matrix(.41 0 0 .41 615 287)"/><path fill="#fff" d="M0 0h100v100H0z" transform="matrix(.41 0 0 .41 656 287)"/><path fill="#fff" d="M0 0h100v100H0z" transform="matrix(.41 0 0 .41 697 287)"/><path fill="#fff" d="M0 0h100v100H0z" transform="matrix(.41 0 0 .41 738 287)"/><path fill="#fff" d="M0 0h100v100H0z" transform="matrix(.41 0 0 .41 820 287)"/><path fill="#fff" d="M0 0h100v100H0z" transform="matrix(.41 0 0 .41 861 287)"/><path fill="#fff" d="M0 0h100v100H0z" transform="matrix(.41 0 0 .41 902 287)"/><path fill="#fff" d="M0 0h100v100H0z" transform="matrix(.41 0 0 .41 1066 287)"/><path fill="#fff" d="M0 0h100v100H0z" transform="matrix(.41 0 0 .41 1230 287)"/><path fill="#fff" d="M0 0h100v100H0z" transform="matrix(.41 0 0 .41 1476 287)"/><path fill="#fff" d="M0 0h100v100H0z" transform="matrix(.41 0 0 .41 0 328)"/><path fill="#fff" d="M0 0h100v100H0z" transform="matrix(.41 0 0 .41 82 328)"/><path fill="#fff" d="M0 0h100v100H0z" transform="matrix(.41 0 0 .41 123 328)"/><path fill="#fff" d="M0 0h100v100H0z" transform="matrix(.41 0 0 .41 205 328)"/><path fill="#fff" d="M0 0h100v100H0z" transform="matrix(.41 0 0 .41 246 328)"/><path fill="#fff" d="M0 0h100v100H0z" transform="matrix(.41 0 0 .41 287 328)"/><path fill="#fff" d="M0 0h100v100H0z" transform="matrix(.41 0 0 .41 369 328)"/><path fill="#fff" d="M0 0h100v100H0z" transform="matrix(.41 0 0 .41 410 328)"/><path fill="#fff" d="M0 0h100v100H0z" transform="matrix(.41 0 0 .41 574 328)"/><path fill="#fff" d="M0 0h100v100H0z" transform="matrix(.41 0 0 .41 615 328)"/><path fill="#fff" d="M0 0h100v100H0z" transform="matrix(.41 0 0 .41 697 328)"/><path fill="#fff" d="M0 0h100v100H0z" transform="matrix(.41 0 0 .41 820 328)"/><path fill="#fff" d="M0 0h100v100H0z" transform="matrix(.41 0 0 .41 902 328)"/><path fill="#fff" d="M0 0h100v100H0z" transform="matrix(.41 0 0 .41 943 328)"/><path fill="#fff" d="M0 0h100v100H0z" transform="matrix(.41 0 0 .41 984 328)"/><path fill="#fff" d="M0 0h100v100H0z" transform="matrix(.41 0 0 .41 1025 328)"/><path fill="#fff" d="M0 0h100v100H0z" transform="matrix(.41 0 0 .41 1066 328)"/><path fill="#fff" d="M0 0h100v100H0z" transform="matrix(.41 0 0 .41 1107 328)"/><path fill="#fff" d="M0 0h100v100H0z" transform="matrix(.41 0 0 .41 1148 328)"/><path fill="#fff" d="M0 0h100v100H0z" transform="matrix(.41 0 0 .41 1189 328)"/><path fill="#fff" d="M0 0h100v100H0z" transform="matrix(.41 0 0 .41 1271 328)"/><path fill="#fff" d="M0 0h100v100H0z" transform="matrix(.41 0 0 .41 1353 328)"/><path fill="#fff" d="M0 0h100v100H0z" transform="matrix(.41 0 0 .41 1517 328)"/><path fill="#fff" d="M0 0h100v100H0z" transform="matrix(.41 0 0 .41 1558 328)"/><path fill="#fff" d="M0 0h100v100H0z" transform="matrix(.41 0 0 .41 1640 328)"/><path fill="#fff" d="M0 0h100v100H0z" transform="matrix(.41 0 0 .41 1722 328)"/><path fill="#fff" d="M0 0h100v100H0z" transform="matrix(.41 0 0 .41 1845 328)"/><path fill="#fff" d="M0 0h100v100H0z" transform="matrix(.41 0 0 .41 1927 328)"/><path fill="#fff" d="M0 0h100v100H0z" transform="matrix(.41 0 0 .41 1968 328)"/><path fill="#fff" d="M0 0h100v100H0z" transform="matrix(.41 0 0 .41 82 369)"/><path fill="#fff" d="M0 0h100v100H0z" transform="matrix(.41 0 0 .41 123 369)"/><path fill="#fff" d="M0 0h100v100H0z" transform="matrix(.41 0 0 .41 205 369)"/><path fill="#fff" d="M0 0h100v100H0z" transform="matrix(.41 0 0 .41 287 369)"/><path fill="#fff" d="M0 0h100v100H0z" transform="matrix(.41 0 0 .41 328 369)"/><path fill="#fff" d="M0 0h100v100H0z" transform="matrix(.41 0 0 .41 369 369)"/><path fill="#fff" d="M0 0h100v100H0z" transform="matrix(.41 0 0 .41 533 369)"/><path fill="#fff" d="M0 0h100v100H0z" transform="matrix(.41 0 0 .41 574 369)"/><path fill="#fff" d="M0 0h100v100H0z" transform="matrix(.41 0 0 .41 615 369)"/><path fill="#fff" d="M0 0h100v100H0z" transform="matrix(.41 0 0 .41 697 369)"/><path fill="#fff" d="M0 0h100v100H0z" transform="matrix(.41 0 0 .41 779 369)"/><path fill="#fff" d="M0 0h100v100H0z" transform="matrix(.41 0 0 .41 861 369)"/><path fill="#fff" d="M0 0h100v100H0z" transform="matrix(.41 0 0 .41 943 369)"/><path fill="#fff" d="M0 0h100v100H0z" transform="matrix(.41 0 0 .41 984 369)"/><path fill="#fff" d="M0 0h100v100H0z" transform="matrix(.41 0 0 .41 1025 369)"/><path fill="#fff" d="M0 0h100v100H0z" transform="matrix(.41 0 0 .41 1189 369)"/><path fill="#fff" d="M0 0h100v100H0z" transform="matrix(.41 0 0 .41 1230 369)"/><path fill="#fff" d="M0 0h100v100H0z" transform="matrix(.41 0 0 .41 1312 369)"/><path fill="#fff" d="M0 0h100v100H0z" transform="matrix(.41 0 0 .41 1435 369)"/><path fill="#fff" d="M0 0h100v100H0z" transform="matrix(.41 0 0 .41 1517 369)"/><path fill="#fff" d="M0 0h100v100H0z" transform="matrix(.41 0 0 .41 1599 369)"/><path fill="#fff" d="M0 0h100v100H0z" transform="matrix(.41 0 0 .41 1681 369)"/><path fill="#fff" d="M0 0h100v100H0z" transform="matrix(.41 0 0 .41 1722 369)"/><path fill="#fff" d="M0 0h100v100H0z" transform="matrix(.41 0 0 .41 1804 369)"/><path fill="#fff" d="M0 0h100v100H0z" transform="matrix(.41 0 0 .41 0 410)"/><path fill="#fff" d="M0 0h100v100H0z" transform="matrix(.41 0 0 .41 246 410)"/><path fill="#fff" d="M0 0h100v100H0z" transform="matrix(.41 0 0 .41 328 410)"/><path fill="#fff" d="M0 0h100v100H0z" transform="matrix(.41 0 0 .41 410 410)"/><path fill="#fff" d="M0 0h100v100H0z" transform="matrix(.41 0 0 .41 451 410)"/><path fill="#fff" d="M0 0h100v100H0z" transform="matrix(.41 0 0 .41 574 410)"/><path fill="#fff" d="M0 0h100v100H0z" transform="matrix(.41 0 0 .41 656 410)"/><path fill="#fff" d="M0 0h100v100H0z" transform="matrix(.41 0 0 .41 738 410)"/><path fill="#fff" d="M0 0h100v100H0z" transform="matrix(.41 0 0 .41 779 410)"/><path fill="#fff" d="M0 0h100v100H0z" transform="matrix(.41 0 0 .41 820 410)"/><path fill="#fff" d="M0 0h100v100H0z" transform="matrix(.41 0 0 .41 861 410)"/><path fill="#fff" d="M0 0h100v100H0z" transform="matrix(.41 0 0 .41 902 410)"/><path fill="#fff" d="M0 0h100v100H0z" transform="matrix(.41 0 0 .41 943 410)"/><path fill="#fff" d="M0 0h100v100H0z" transform="matrix(.41 0 0 .41 1107 410)"/><path fill="#fff" d="M0 0h100v100H0z" transform="matrix(.41 0 0 .41 1271 410)"/><path fill="#fff" d="M0 0h100v100H0z" transform="matrix(.41 0 0 .41 1312 410)"/><path fill="#fff" d="M0 0h100v100H0z" transform="matrix(.41 0 0 .41 1353 410)"/><path fill="#fff" d="M0 0h100v100H0z" transform="matrix(.41 0 0 .41 1394 410)"/><path fill="#fff" d="M0 0h100v100H0z" transform="matrix(.41 0 0 .41 1599 410)"/><path fill="#fff" d="M0 0h100v100H0z" transform="matrix(.41 0 0 .41 1640 410)"/><path fill="#fff" d="M0 0h100v100H0z" transform="matrix(.41 0 0 .41 1681 410)"/><path fill="#fff" d="M0 0h100v100H0z" transform="matrix(.41 0 0 .41 1722 410)"/><path fill="#fff" d="M0 0h100v100H0z" transform="matrix(.41 0 0 .41 1763 410)"/><path fill="#fff" d="M0 0h100v100H0z" transform="matrix(.41 0 0 .41 1804 410)"/><path fill="#fff" d="M0 0h100v100H0z" transform="matrix(.41 0 0 .41 1886 410)"/><path fill="#fff" d="M0 0h100v100H0z" transform="matrix(.41 0 0 .41 123 451)"/><path fill="#fff" d="M0 0h100v100H0z" transform="matrix(.41 0 0 .41 164 451)"/><path fill="#fff" d="M0 0h100v100H0z" transform="matrix(.41 0 0 .41 369 451)"/><path fill="#fff" d="M0 0h100v100H0z" transform="matrix(.41 0 0 .41 410 451)"/><path fill="#fff" d="M0 0h100v100H0z" transform="matrix(.41 0 0 .41 451 451)"/><path fill="#fff" d="M0 0h100v100H0z" transform="matrix(.41 0 0 .41 574 451)"/><path fill="#fff" d="M0 0h100v100H0z" transform="matrix(.41 0 0 .41 656 451)"/><path fill="#fff" d="M0 0h100v100H0z" transform="matrix(.41 0 0 .41 738 451)"/><path fill="#fff" d="M0 0h100v100H0z" transform="matrix(.41 0 0 .41 902 451)"/><path fill="#fff" d="M0 0h100v100H0z" transform="matrix(.41 0 0 .41 984 451)"/><path fill="#fff" d="M0 0h100v100H0z" transform="matrix(.41 0 0 .41 1025 451)"/><path fill="#fff" d="M0 0h100v100H0z" transform="matrix(.41 0 0 .41 1066 451)"/><path fill="#fff" d="M0 0h100v100H0z" transform="matrix(.41 0 0 .41 1271 451)"/><path fill="#fff" d="M0 0h100v100H0z" transform="matrix(.41 0 0 .41 1312 451)"/><path fill="#fff" d="M0 0h100v100H0z" transform="matrix(.41 0 0 .41 1394 451)"/><path fill="#fff" d="M0 0h100v100H0z" transform="matrix(.41 0 0 .41 1476 451)"/><path fill="#fff" d="M0 0h100v100H0z" transform="matrix(.41 0 0 .41 1640 451)"/><path fill="#fff" d="M0 0h100v100H0z" transform="matrix(.41 0 0 .41 1722 451)"/><path fill="#fff" d="M0 0h100v100H0z" transform="matrix(.41 0 0 .41 1804 451)"/><path fill="#fff" d="M0 0h100v100H0z" transform="matrix(.41 0 0 .41 1886 451)"/><path fill="#fff" d="M0 0h100v100H0z" transform="matrix(.41 0 0 .41 1968 451)"/><path fill="#fff" d="M0 0h100v100H0z" transform="matrix(.41 0 0 .41 0 492)"/><path fill="#fff" d="M0 0h100v100H0z" transform="matrix(.41 0 0 .41 41 492)"/><path fill="#fff" d="M0 0h100v100H0z" transform="matrix(.41 0 0 .41 82 492)"/><path fill="#fff" d="M0 0h100v100H0z" transform="matrix(.41 0 0 .41 123 492)"/><path fill="#fff" d="M0 0h100v100H0z" transform="matrix(.41 0 0 .41 164 492)"/><path fill="#fff" d="M0 0h100v100H0z" transform="matrix(.41 0 0 .41 205 492)"/><path fill="#fff" d="M0 0h100v100H0z" transform="matrix(.41 0 0 .41 246 492)"/><path fill="#fff" d="M0 0h100v100H0z" transform="matrix(.41 0 0 .41 287 492)"/><path fill="#fff" d="M0 0h100v100H0z" transform="matrix(.41 0 0 .41 410 492)"/><path fill="#fff" d="M0 0h100v100H0z" transform="matrix(.41 0 0 .41 451 492)"/><path fill="#fff" d="M0 0h100v100H0z" transform="matrix(.41 0 0 .41 492 492)"/><path fill="#fff" d="M0 0h100v100H0z" transform="matrix(.41 0 0 .41 697 492)"/><path fill="#fff" d="M0 0h100v100H0z" transform="matrix(.41 0 0 .41 738 492)"/><path fill="#fff" d="M0 0h100v100H0z" transform="matrix(.41 0 0 .41 861 492)"/><path fill="#fff" d="M0 0h100v100H0z" transform="matrix(.41 0 0 .41 902 492)"/><path fill="#fff" d="M0 0h100v100H0z" transform="matrix(.41 0 0 .41 943 492)"/><path fill="#fff" d="M0 0h100v100H0z" transform="matrix(.41 0 0 .41 984 492)"/><path fill="#fff" d="M0 0h100v100H0z" transform="matrix(.41 0 0 .41 1066 492)"/><path fill="#fff" d="M0 0h100v100H0z" transform="matrix(.41 0 0 .41 1189 492)"/><path fill="#fff" d="M0 0h100v100H0z" transform="matrix(.41 0 0 .41 1271 492)"/><path fill="#fff" d="M0 0h100v100H0z" transform="matrix(.41 0 0 .41 1435 492)"/><path fill="#fff" d="M0 0h100v100H0z" transform="matrix(.41 0 0 .41 1476 492)"/><path fill="#fff" d="M0 0h100v100H0z" transform="matrix(.41 0 0 .41 1517 492)"/><path fill="#fff" d="M0 0h100v100H0z" transform="matrix(.41 0 0 .41 1599 492)"/><path fill="#fff" d="M0 0h100v100H0z" transform="matrix(.41 0 0 .41 1640 492)"/><path fill="#fff" d="M0 0h100v100H0z" transform="matrix(.41 0 0 .41 1886 492)"/><path fill="#fff" d="M0 0h100v100H0z" transform="matrix(.41 0 0 .41 1927 492)"/><path fill="#fff" d="M0 0h100v100H0z" transform="matrix(.41 0 0 .41 82 533)"/><path fill="#fff" d="M0 0h100v100H0z" transform="matrix(.41 0 0 .41 123 533)"/><path fill="#fff" d="M0 0h100v100H0z" transform="matrix(.41 0 0 .41 287 533)"/><path fill="#fff" d="M0 0h100v100H0z" transform="matrix(.41 0 0 .41 410 533)"/><path fill="#fff" d="M0 0h100v100H0z" transform="matrix(.41 0 0 .41 451 533)"/><path fill="#fff" d="M0 0h100v100H0z" transform="matrix(.41 0 0 .41 492 533)"/><path fill="#fff" d="M0 0h100v100H0z" transform="matrix(.41 0 0 .41 697 533)"/><path fill="#fff" d="M0 0h100v100H0z" transform="matrix(.41 0 0 .41 779 533)"/><path fill="#fff" d="M0 0h100v100H0z" transform="matrix(.41 0 0 .41 861 533)"/><path fill="#fff" d="M0 0h100v100H0z" transform="matrix(.41 0 0 .41 902 533)"/><path fill="#fff" d="M0 0h100v100H0z" transform="matrix(.41 0 0 .41 1066 533)"/><path fill="#fff" d="M0 0h100v100H0z" transform="matrix(.41 0 0 .41 1189 533)"/><path fill="#fff" d="M0 0h100v100H0z" transform="matrix(.41 0 0 .41 1353 533)"/><path fill="#fff" d="M0 0h100v100H0z" transform="matrix(.41 0 0 .41 1476 533)"/><path fill="#fff" d="M0 0h100v100H0z" transform="matrix(.41 0 0 .41 1558 533)"/><path fill="#fff" d="M0 0h100v100H0z" transform="matrix(.41 0 0 .41 1681 533)"/><path fill="#fff" d="M0 0h100v100H0z" transform="matrix(.41 0 0 .41 1804 533)"/><path fill="#fff" d="M0 0h100v100H0z" transform="matrix(.41 0 0 .41 1845 533)"/><path fill="#fff" d="M0 0h100v100H0z" transform="matrix(.41 0 0 .41 1886 533)"/><path fill="#fff" d="M0 0h100v100H0z" transform="matrix(.41 0 0 .41 1968 533)"/><path fill="#fff" d="M0 0h100v100H0z" transform="matrix(.41 0 0 .41 123 574)"/><path fill="#fff" d="M0 0h100v100H0z" transform="matrix(.41 0 0 .41 246 574)"/><path fill="#fff" d="M0 0h100v100H0z" transform="matrix(.41 0 0 .41 369 574)"/><path fill="#fff" d="M0 0h100v100H0z" transform="matrix(.41 0 0 .41 410 574)"/><path fill="#fff" d="M0 0h100v100H0z" transform="matrix(.41 0 0 .41 574 574)"/><path fill="#fff" d="M0 0h100v100H0z" transform="matrix(.41 0 0 .41 615 574)"/><path fill="#fff" d="M0 0h100v100H0z" transform="matrix(.41 0 0 .41 656 574)"/><path fill="#fff" d="M0 0h100v100H0z" transform="matrix(.41 0 0 .41 697 574)"/><path fill="#fff" d="M0 0h100v100H0z" transform="matrix(.41 0 0 .41 779 574)"/><path fill="#fff" d="M0 0h100v100H0z" transform="matrix(.41 0 0 .41 820 574)"/><path fill="#fff" d="M0 0h100v100H0z" transform="matrix(.41 0 0 .41 1025 574)"/><path fill="#fff" d="M0 0h100v100H0z" transform="matrix(.41 0 0 .41 1066 574)"/><path fill="#fff" d="M0 0h100v100H0z" transform="matrix(.41 0 0 .41 1148 574)"/><path fill="#fff" d="M0 0h100v100H0z" transform="matrix(.41 0 0 .41 1230 574)"/><path fill="#fff" d="M0 0h100v100H0z" transform="matrix(.41 0 0 .41 1312 574)"/><path fill="#fff" d="M0 0h100v100H0z" transform="matrix(.41 0 0 .41 1435 574)"/><path fill="#fff" d="M0 0h100v100H0z" transform="matrix(.41 0 0 .41 1558 574)"/><path fill="#fff" d="M0 0h100v100H0z" transform="matrix(.41 0 0 .41 1640 574)"/><path fill="#fff" d="M0 0h100v100H0z" transform="matrix(.41 0 0 .41 1722 574)"/><path fill="#fff" d="M0 0h100v100H0z" transform="matrix(.41 0 0 .41 1763 574)"/><path fill="#fff" d="M0 0h100v100H0z" transform="matrix(.41 0 0 .41 1845 574)"/><path fill="#fff" d="M0 0h100v100H0z" transform="matrix(.41 0 0 .41 1886 574)"/><path fill="#fff" d="M0 0h100v100H0z" transform="matrix(.41 0 0 .41 1927 574)"/><path fill="#fff" d="M0 0h100v100H0z" transform="matrix(.41 0 0 .41 0 615)"/><path fill="#fff" d="M0 0h100v100H0z" transform="matrix(.41 0 0 .41 82 615)"/><path fill="#fff" d="M0 0h100v100H0z" transform="matrix(.41 0 0 .41 164 615)"/><path fill="#fff" d="M0 0h100v100H0z" transform="matrix(.41 0 0 .41 205 615)"/><path fill="#fff" d="M0 0h100v100H0z" transform="matrix(.41 0 0 .41 328 615)"/><path fill="#fff" d="M0 0h100v100H0z" transform="matrix(.41 0 0 .41 492 615)"/><path fill="#fff" d="M0 0h100v100H0z" transform="matrix(.41 0 0 .41 533 615)"/><path fill="#fff" d="M0 0h100v100H0z" transform="matrix(.41 0 0 .41 615 615)"/><path fill="#fff" d="M0 0h100v100H0z" transform="matrix(.41 0 0 .41 656 615)"/><path fill="#fff" d="M0 0h100v100H0z" transform="matrix(.41 0 0 .41 738 615)"/><path fill="#fff" d="M0 0h100v100H0z" transform="matrix(.41 0 0 .41 779 615)"/><path fill="#fff" d="M0 0h100v100H0z" transform="matrix(.41 0 0 .41 820 615)"/><path fill="#fff" d="M0 0h100v100H0z" transform="matrix(.41 0 0 .41 902 615)"/><path fill="#fff" d="M0 0h100v100H0z" transform="matrix(.41 0 0 .41 943 615)"/><path fill="#fff" d="M0 0h100v100H0z" transform="matrix(.41 0 0 .41 1025 615)"/><path fill="#fff" d="M0 0h100v100H0z" transform="matrix(.41 0 0 .41 1066 615)"/><path fill="#fff" d="M0 0h100v100H0z" transform="matrix(.41 0 0 .41 1107 615)"/><path fill="#fff" d="M0 0h100v100H0z" transform="matrix(.41 0 0 .41 1189 615)"/><path fill="#fff" d="M0 0h100v100H0z" transform="matrix(.41 0 0 .41 1394 615)"/><path fill="#fff" d="M0 0h100v100H0z" transform="matrix(.41 0 0 .41 1476 615)"/><path fill="#fff" d="M0 0h100v100H0z" transform="matrix(.41 0 0 .41 1517 615)"/><path fill="#fff" d="M0 0h100v100H0z" transform="matrix(.41 0 0 .41 1558 615)"/><path fill="#fff" d="M0 0h100v100H0z" transform="matrix(.41 0 0 .41 1599 615)"/><path fill="#fff" d="M0 0h100v100H0z" transform="matrix(.41 0 0 .41 1640 615)"/><path fill="#fff" d="M0 0h100v100H0z" transform="matrix(.41 0 0 .41 1681 615)"/><path fill="#fff" d="M0 0h100v100H0z" transform="matrix(.41 0 0 .41 1804 615)"/><path fill="#fff" d="M0 0h100v100H0z" transform="matrix(.41 0 0 .41 1968 615)"/><path fill="#fff" d="M0 0h100v100H0z" transform="matrix(.41 0 0 .41 123 656)"/><path fill="#fff" d="M0 0h100v100H0z" transform="matrix(.41 0 0 .41 164 656)"/><path fill="#fff" d="M0 0h100v100H0z" transform="matrix(.41 0 0 .41 246 656)"/><path fill="#fff" d="M0 0h100v100H0z" transform="matrix(.41 0 0 .41 287 656)"/><path fill="#fff" d="M0 0h100v100H0z" transform="matrix(.41 0 0 .41 328 656)"/><path fill="#fff" d="M0 0h100v100H0z" transform="matrix(.41 0 0 .41 533 656)"/><path fill="#fff" d="M0 0h100v100H0z" transform="matrix(.41 0 0 .41 574 656)"/><path fill="#fff" d="M0 0h100v100H0z" transform="matrix(.41 0 0 .41 656 656)"/><path fill="#fff" d="M0 0h100v100H0z" transform="matrix(.41 0 0 .41 697 656)"/><path fill="#fff" d="M0 0h100v100H0z" transform="matrix(.41 0 0 .41 779 656)"/><path fill="#fff" d="M0 0h100v100H0z" transform="matrix(.41 0 0 .41 1107 656)"/><path fill="#fff" d="M0 0h100v100H0z" transform="matrix(.41 0 0 .41 1148 656)"/><path fill="#fff" d="M0 0h100v100H0z" transform="matrix(.41 0 0 .41 1189 656)"/><path fill="#fff" d="M0 0h100v100H0z" transform="matrix(.41 0 0 .41 1230 656)"/><path fill="#fff" d="M0 0h100v100H0z" transform="matrix(.41 0 0 .41 1271 656)"/><path fill="#fff" d="M0 0h100v100H0z" transform="matrix(.41 0 0 .41 1394 656)"/><path fill="#fff" d="M0 0h100v100H0z" transform="matrix(.41 0 0 .41 1476 656)"/><path fill="#fff" d="M0 0h100v100H0z" transform="matrix(.41 0 0 .41 1599 656)"/><path fill="#fff" d="M0 0h100v100H0z" transform="matrix(.41 0 0 .41 1722 656)"/><path fill="#fff" d="M0 0h100v100H0z" transform="matrix(.41 0 0 .41 1763 656)"/><path fill="#fff" d="M0 0h100v100H0z" transform="matrix(.41 0 0 .41 1804 656)"/><path fill="#fff" d="M0 0h100v100H0z" transform="matrix(.41 0 0 .41 1886 656)"/><path fill="#fff" d="M0 0h100v100H0z" transform="matrix(.41 0 0 .41 1927 656)"/><path fill="#fff" d="M0 0h100v100H0z" transform="matrix(.41 0 0 .41 1968 656)"/><path fill="#fff" d="M0 0h100v100H0z" transform="matrix(.41 0 0 .41 0 697)"/><path fill="#fff" d="M0 0h100v100H0z" transform="matrix(.41 0 0 .41 41 697)"/><path fill="#fff" d="M0 0h100v100H0z" transform="matrix(.41 0 0 .41 82 697)"/><path fill="#fff" d="M0 0h100v100H0z" transform="matrix(.41 0 0 .41 123 697)"/><path fill="#fff" d="M0 0h100v100H0z" transform="matrix(.41 0 0 .41 164 697)"/><path fill="#fff" d="M0 0h100v100H0z" transform="matrix(.41 0 0 .41 205 697)"/><path fill="#fff" d="M0 0h100v100H0z" transform="matrix(.41 0 0 .41 369 697)"/><path fill="#fff" d="M0 0h100v100H0z" transform="matrix(.41 0 0 .41 410 697)"/><path fill="#fff" d="M0 0h100v100H0z" transform="matrix(.41 0 0 .41 533 697)"/><path fill="#fff" d="M0 0h100v100H0z" transform="matrix(.41 0 0 .41 574 697)"/><path fill="#fff" d="M0 0h100v100H0z" transform="matrix(.41 0 0 .41 656 697)"/><path fill="#fff" d="M0 0h100v100H0z" transform="matrix(.41 0 0 .41 861 697)"/><path fill="#fff" d="M0 0h100v100H0z" transform="matrix(.41 0 0 .41 943 697)"/><path fill="#fff" d="M0 0h100v100H0z" transform="matrix(.41 0 0 .41 1189 697)"/><path fill="#fff" d="M0 0h100v100H0z" transform="matrix(.41 0 0 .41 1230 697)"/><path fill="#fff" d="M0 0h100v100H0z" transform="matrix(.41 0 0 .41 1271 697)"/><path fill="#fff" d="M0 0h100v100H0z" transform="matrix(.41 0 0 .41 1312 697)"/><path fill="#fff" d="M0 0h100v100H0z" transform="matrix(.41 0 0 .41 1353 697)"/><path fill="#fff" d="M0 0h100v100H0z" transform="matrix(.41 0 0 .41 1476 697)"/><path fill="#fff" d="M0 0h100v100H0z" transform="matrix(.41 0 0 .41 1558 697)"/><path fill="#fff" d="M0 0h100v100H0z" transform="matrix(.41 0 0 .41 1599 697)"/><path fill="#fff" d="M0 0h100v100H0z" transform="matrix(.41 0 0 .41 1640 697)"/><path fill="#fff" d="M0 0h100v100H0z" transform="matrix(.41 0 0 .41 1845 697)"/><path fill="#fff" d="M0 0h100v100H0z" transform="matrix(.41 0 0 .41 1886 697)"/><path fill="#fff" d="M0 0h100v100H0z" transform="matrix(.41 0 0 .41 1927 697)"/><path fill="#fff" d="M0 0h100v100H0z" transform="matrix(.41 0 0 .41 1968 697)"/><path fill="#fff" d="M0 0h100v100H0z" transform="matrix(.41 0 0 .41 82 738)"/><path fill="#fff" d="M0 0h100v100H0z" transform="matrix(.41 0 0 .41 123 738)"/><path fill="#fff" d="M0 0h100v100H0z" transform="matrix(.41 0 0 .41 205 738)"/><path fill="#fff" d="M0 0h100v100H0z" transform="matrix(.41 0 0 .41 246 738)"/><path fill="#fff" d="M0 0h100v100H0z" transform="matrix(.41 0 0 .41 328 738)"/><path fill="#fff" d="M0 0h100v100H0z" transform="matrix(.41 0 0 .41 369 738)"/><path fill="#fff" d="M0 0h100v100H0z" transform="matrix(.41 0 0 .41 574 738)"/><path fill="#fff" d="M0 0h100v100H0z" transform="matrix(.41 0 0 .41 820 738)"/><path fill="#fff" d="M0 0h100v100H0z" transform="matrix(.41 0 0 .41 943 738)"/><path fill="#fff" d="M0 0h100v100H0z" transform="matrix(.41 0 0 .41 984 738)"/><path fill="#fff" d="M0 0h100v100H0z" transform="matrix(.41 0 0 .41 1066 738)"/><path fill="#fff" d="M0 0h100v100H0z" transform="matrix(.41 0 0 .41 1148 738)"/><path fill="#fff" d="M0 0h100v100H0z" transform="matrix(.41 0 0 .41 1230 738)"/><path fill="#fff" d="M0 0h100v100H0z" transform="matrix(.41 0 0 .41 1271 738)"/><path fill="#fff" d="M0 0h100v100H0z" transform="matrix(.41 0 0 .41 1312 738)"/><path fill="#fff" d="M0 0h100v100H0z" transform="matrix(.41 0 0 .41 1353 738)"/><path fill="#fff" d="M0 0h100v100H0z" transform="matrix(.41 0 0 .41 1435 738)"/><path fill="#fff" d="M0 0h100v100H0z" transform="matrix(.41 0 0 .41 1681 738)"/><path fill="#fff" d="M0 0h100v100H0z" transform="matrix(.41 0 0 .41 1804 738)"/><path fill="#fff" d="M0 0h100v100H0z" transform="matrix(.41 0 0 .41 1845 738)"/><path fill="#fff" d="M0 0h100v100H0z" transform="matrix(.41 0 0 .41 1968 738)"/><path fill="#fff" d="M0 0h100v100H0z" transform="matrix(.41 0 0 .41 0 779)"/><path fill="#fff" d="M0 0h100v100H0z" transform="matrix(.41 0 0 .41 123 779)"/><path fill="#fff" d="M0 0h100v100H0z" transform="matrix(.41 0 0 .41 287 779)"/><path fill="#fff" d="M0 0h100v100H0z" transform="matrix(.41 0 0 .41 328 779)"/><path fill="#fff" d="M0 0h100v100H0z" transform="matrix(.41 0 0 .41 492 779)"/><path fill="#fff" d="M0 0h100v100H0z" transform="matrix(.41 0 0 .41 656 779)"/><path fill="#fff" d="M0 0h100v100H0z" transform="matrix(.41 0 0 .41 738 779)"/><path fill="#fff" d="M0 0h100v100H0z" transform="matrix(.41 0 0 .41 779 779)"/><path fill="#fff" d="M0 0h100v100H0z" transform="matrix(.41 0 0 .41 820 779)"/><path fill="#fff" d="M0 0h100v100H0z" transform="matrix(.41 0 0 .41 943 779)"/><path fill="#fff" d="M0 0h100v100H0z" transform="matrix(.41 0 0 .41 984 779)"/><path fill="#fff" d="M0 0h100v100H0z" transform="matrix(.41 0 0 .41 1025 779)"/><path fill="#fff" d="M0 0h100v100H0z" transform="matrix(.41 0 0 .41 1148 779)"/><path fill="#fff" d="M0 0h100v100H0z" transform="matrix(.41 0 0 .41 1230 779)"/><path fill="#fff" d="M0 0h100v100H0z" transform="matrix(.41 0 0 .41 1271 779)"/><path fill="#fff" d="M0 0h100v100H0z" transform="matrix(.41 0 0 .41 1353 779)"/><path fill="#fff" d="M0 0h100v100H0z" transform="matrix(.41 0 0 .41 1394 779)"/><path fill="#fff" d="M0 0h100v100H0z" transform="matrix(.41 0 0 .41 1435 779)"/><path fill="#fff" d="M0 0h100v100H0z" transform="matrix(.41 0 0 .41 1476 779)"/><path fill="#fff" d="M0 0h100v100H0z" transform="matrix(.41 0 0 .41 1599 779)"/><path fill="#fff" d="M0 0h100v100H0z" transform="matrix(.41 0 0 .41 1681 779)"/><path fill="#fff" d="M0 0h100v100H0z" transform="matrix(.41 0 0 .41 1763 779)"/><path fill="#fff" d="M0 0h100v100H0z" transform="matrix(.41 0 0 .41 1845 779)"/><path fill="#fff" d="M0 0h100v100H0z" transform="matrix(.41 0 0 .41 1927 779)"/><path fill="#fff" d="M0 0h100v100H0z" transform="matrix(.41 0 0 .41 205 820)"/><path fill="#fff" d="M0 0h100v100H0z" transform="matrix(.41 0 0 .41 246 820)"/><path fill="#fff" d="M0 0h100v100H0z" transform="matrix(.41 0 0 .41 328 820)"/><path fill="#fff" d="M0 0h100v100H0z" transform="matrix(.41 0 0 .41 410 820)"/><path fill="#fff" d="M0 0h100v100H0z" transform="matrix(.41 0 0 .41 451 820)"/><path fill="#fff" d="M0 0h100v100H0z" transform="matrix(.41 0 0 .41 492 820)"/><path fill="#fff" d="M0 0h100v100H0z" transform="matrix(.41 0 0 .41 533 820)"/><path fill="#fff" d="M0 0h100v100H0z" transform="matrix(.41 0 0 .41 615 820)"/><path fill="#fff" d="M0 0h100v100H0z" transform="matrix(.41 0 0 .41 820 820)"/><path fill="#fff" d="M0 0h100v100H0z" transform="matrix(.41 0 0 .41 861 820)"/><path fill="#fff" d="M0 0h100v100H0z" transform="matrix(.41 0 0 .41 943 820)"/><path fill="#fff" d="M0 0h100v100H0z" transform="matrix(.41 0 0 .41 1025 820)"/><path fill="#fff" d="M0 0h100v100H0z" transform="matrix(.41 0 0 .41 1066 820)"/><path fill="#fff" d="M0 0h100v100H0z" transform="matrix(.41 0 0 .41 1107 820)"/><path fill="#fff" d="M0 0h100v100H0z" transform="matrix(.41 0 0 .41 1148 820)"/><path fill="#fff" d="M0 0h100v100H0z" transform="matrix(.41 0 0 .41 1189 820)"/><path fill="#fff" d="M0 0h100v100H0z" transform="matrix(.41 0 0 .41 1230 820)"/><path fill="#fff" d="M0 0h100v100H0z" transform="matrix(.41 0 0 .41 1353 820)"/><path fill="#fff" d="M0 0h100v100H0z" transform="matrix(.41 0 0 .41 1435 820)"/><path fill="#fff" d="M0 0h100v100H0z" transform="matrix(.41 0 0 .41 1599 820)"/><path fill="#fff" d="M0 0h100v100H0z" transform="matrix(.41 0 0 .41 1763 820)"/><path fill="#fff" d="M0 0h100v100H0z" transform="matrix(.41 0 0 .41 1845 820)"/><path fill="#fff" d="M0 0h100v100H0z" transform="matrix(.41 0 0 .41 287 861)"/><path fill="#fff" d="M0 0h100v100H0z" transform="matrix(.41 0 0 .41 369 861)"/><path fill="#fff" d="M0 0h100v100H0z" transform="matrix(.41 0 0 .41 451 861)"/><path fill="#fff" d="M0 0h100v100H0z" transform="matrix(.41 0 0 .41 492 861)"/><path fill="#fff" d="M0 0h100v100H0z" transform="matrix(.41 0 0 .41 574 861)"/><path fill="#fff" d="M0 0h100v100H0z" transform="matrix(.41 0 0 .41 779 861)"/><path fill="#fff" d="M0 0h100v100H0z" transform="matrix(.41 0 0 .41 861 861)"/><path fill="#fff" d="M0 0h100v100H0z" transform="matrix(.41 0 0 .41 902 861)"/><path fill="#fff" d="M0 0h100v100H0z" transform="matrix(.41 0 0 .41 943 861)"/><path fill="#fff" d="M0 0h100v100H0z" transform="matrix(.41 0 0 .41 984 861)"/><path fill="#fff" d="M0 0h100v100H0z" transform="matrix(.41 0 0 .41 1025 861)"/><path fill="#fff" d="M0 0h100v100H0z" transform="matrix(.41 0 0 .41 1066 861)"/><path fill="#fff" d="M0 0h100v100H0z" transform="matrix(.41 0 0 .41 1107 861)"/><path fill="#fff" d="M0 0h100v100H0z" transform="matrix(.41 0 0 .41 1189 861)"/><path fill="#fff" d="M0 0h100v100H0z" transform="matrix(.41 0 0 .41 1230 861)"/><path fill="#fff" d="M0 0h100v100H0z" transform="matrix(.41 0 0 .41 1271 861)"/><path fill="#fff" d="M0 0h100v100H0z" transform="matrix(.41 0 0 .41 1435 861)"/><path fill="#fff" d="M0 0h100v100H0z" transform="matrix(.41 0 0 .41 1476 861)"/><path fill="#fff" d="M0 0h100v100H0z" transform="matrix(.41 0 0 .41 1517 861)"/><path fill="#fff" d="M0 0h100v100H0z" transform="matrix(.41 0 0 .41 1722 861)"/><path fill="#fff" d="M0 0h100v100H0z" transform="matrix(.41 0 0 .41 1763 861)"/><path fill="#fff" d="M0 0h100v100H0z" transform="matrix(.41 0 0 .41 1804 861)"/><path fill="#fff" d="M0 0h100v100H0z" transform="matrix(.41 0 0 .41 1845 861)"/><path fill="#fff" d="M0 0h100v100H0z" transform="matrix(.41 0 0 .41 164 902)"/><path fill="#fff" d="M0 0h100v100H0z" transform="matrix(.41 0 0 .41 205 902)"/><path fill="#fff" d="M0 0h100v100H0z" transform="matrix(.41 0 0 .41 246 902)"/><path fill="#fff" d="M0 0h100v100H0z" transform="matrix(.41 0 0 .41 287 902)"/><path fill="#fff" d="M0 0h100v100H0z" transform="matrix(.41 0 0 .41 328 902)"/><path fill="#fff" d="M0 0h100v100H0z" transform="matrix(.41 0 0 .41 410 902)"/><path fill="#fff" d="M0 0h100v100H0z" transform="matrix(.41 0 0 .41 492 902)"/><path fill="#fff" d="M0 0h100v100H0z" transform="matrix(.41 0 0 .41 574 902)"/><path fill="#fff" d="M0 0h100v100H0z" transform="matrix(.41 0 0 .41 615 902)"/><path fill="#fff" d="M0 0h100v100H0z" transform="matrix(.41 0 0 .41 656 902)"/><path fill="#fff" d="M0 0h100v100H0z" transform="matrix(.41 0 0 .41 738 902)"/><path fill="#fff" d="M0 0h100v100H0z" transform="matrix(.41 0 0 .41 779 902)"/><path fill="#fff" d="M0 0h100v100H0z" transform="matrix(.41 0 0 .41 820 902)"/><path fill="#fff" d="M0 0h100v100H0z" transform="matrix(.41 0 0 .41 902 902)"/><path fill="#fff" d="M0 0h100v100H0z" transform="matrix(.41 0 0 .41 943 902)"/><path fill="#fff" d="M0 0h100v100H0z" transform="matrix(.41 0 0 .41 984 902)"/><path fill="#fff" d="M0 0h100v100H0z" transform="matrix(.41 0 0 .41 1025 902)"/><path fill="#fff" d="M0 0h100v100H0z" transform="matrix(.41 0 0 .41 1066 902)"/><path fill="#fff" d="M0 0h100v100H0z" transform="matrix(.41 0 0 .41 1107 902)"/><path fill="#fff" d="M0 0h100v100H0z" transform="matrix(.41 0 0 .41 1148 902)"/><path fill="#fff" d="M0 0h100v100H0z" transform="matrix(.41 0 0 .41 1189 902)"/><path fill="#fff" d="M0 0h100v100H0z" transform="matrix(.41 0 0 .41 1230 902)"/><path fill="#fff" d="M0 0h100v100H0z" transform="matrix(.41 0 0 .41 1394 902)"/><path fill="#fff" d="M0 0h100v100H0z" transform="matrix(.41 0 0 .41 1517 902)"/><path fill="#fff" d="M0 0h100v100H0z" transform="matrix(.41 0 0 .41 1640 902)"/><path fill="#fff" d="M0 0h100v100H0z" transform="matrix(.41 0 0 .41 1681 902)"/><path fill="#fff" d="M0 0h100v100H0z" transform="matrix(.41 0 0 .41 1722 902)"/><path fill="#fff" d="M0 0h100v100H0z" transform="matrix(.41 0 0 .41 1763 902)"/><path fill="#fff" d="M0 0h100v100H0z" transform="matrix(.41 0 0 .41 1804 902)"/><path fill="#fff" d="M0 0h100v100H0z" transform="matrix(.41 0 0 .41 1845 902)"/><path fill="#fff" d="M0 0h100v100H0z" transform="matrix(.41 0 0 .41 1886 902)"/><path fill="#fff" d="M0 0h100v100H0z" transform="matrix(.41 0 0 .41 41 943)"/><path fill="#fff" d="M0 0h100v100H0z" transform="matrix(.41 0 0 .41 123 943)"/><path fill="#fff" d="M0 0h100v100H0z" transform="matrix(.41 0 0 .41 164 943)"/><path fill="#fff" d="M0 0h100v100H0z" transform="matrix(.41 0 0 .41 328 943)"/><path fill="#fff" d="M0 0h100v100H0z" transform="matrix(.41 0 0 .41 410 943)"/><path fill="#fff" d="M0 0h100v100H0z" transform="matrix(.41 0 0 .41 451 943)"/><path fill="#fff" d="M0 0h100v100H0z" transform="matrix(.41 0 0 .41 615 943)"/><path fill="#fff" d="M0 0h100v100H0z" transform="matrix(.41 0 0 .41 656 943)"/><path fill="#fff" d="M0 0h100v100H0z" transform="matrix(.41 0 0 .41 697 943)"/><path fill="#fff" d="M0 0h100v100H0z" transform="matrix(.41 0 0 .41 902 943)"/><path fill="#fff" d="M0 0h100v100H0z" transform="matrix(.41 0 0 .41 1066 943)"/><path fill="#fff" d="M0 0h100v100H0z" transform="matrix(.41 0 0 .41 1107 943)"/><path fill="#fff" d="M0 0h100v100H0z" transform="matrix(.41 0 0 .41 1148 943)"/><path fill="#fff" d="M0 0h100v100H0z" transform="matrix(.41 0 0 .41 1230 943)"/><path fill="#fff" d="M0 0h100v100H0z" transform="matrix(.41 0 0 .41 1353 943)"/><path fill="#fff" d="M0 0h100v100H0z" transform="matrix(.41 0 0 .41 1394 943)"/><path fill="#fff" d="M0 0h100v100H0z" transform="matrix(.41 0 0 .41 1435 943)"/><path fill="#fff" d="M0 0h100v100H0z" transform="matrix(.41 0 0 .41 1517 943)"/><path fill="#fff" d="M0 0h100v100H0z" transform="matrix(.41 0 0 .41 1640 943)"/><path fill="#fff" d="M0 0h100v100H0z" transform="matrix(.41 0 0 .41 1804 943)"/><path fill="#fff" d="M0 0h100v100H0z" transform="matrix(.41 0 0 .41 1845 943)"/><path fill="#fff" d="M0 0h100v100H0z" transform="matrix(.41 0 0 .41 1886 943)"/><path fill="#fff" d="M0 0h100v100H0z" transform="matrix(.41 0 0 .41 1927 943)"/><path fill="#fff" d="M0 0h100v100H0z" transform="matrix(.41 0 0 .41 164 984)"/><path fill="#fff" d="M0 0h100v100H0z" transform="matrix(.41 0 0 .41 246 984)"/><path fill="#fff" d="M0 0h100v100H0z" transform="matrix(.41 0 0 .41 328 984)"/><path fill="#fff" d="M0 0h100v100H0z" transform="matrix(.41 0 0 .41 451 984)"/><path fill="#fff" d="M0 0h100v100H0z" transform="matrix(.41 0 0 .41 492 984)"/><path fill="#fff" d="M0 0h100v100H0z" transform="matrix(.41 0 0 .41 533 984)"/><path fill="#fff" d="M0 0h100v100H0z" transform="matrix(.41 0 0 .41 656 984)"/><path fill="#fff" d="M0 0h100v100H0z" transform="matrix(.41 0 0 .41 861 984)"/><path fill="#fff" d="M0 0h100v100H0z" transform="matrix(.41 0 0 .41 902 984)"/><path fill="#fff" d="M0 0h100v100H0z" transform="matrix(.41 0 0 .41 984 984)"/><path fill="#fff" d="M0 0h100v100H0z" transform="matrix(.41 0 0 .41 1066 984)"/><path fill="#fff" d="M0 0h100v100H0z" transform="matrix(.41 0 0 .41 1189 984)"/><path fill="#fff" d="M0 0h100v100H0z" transform="matrix(.41 0 0 .41 1230 984)"/><path fill="#fff" d="M0 0h100v100H0z" transform="matrix(.41 0 0 .41 1271 984)"/><path fill="#fff" d="M0 0h100v100H0z" transform="matrix(.41 0 0 .41 1353 984)"/><path fill="#fff" d="M0 0h100v100H0z" transform="matrix(.41 0 0 .41 1394 984)"/><path fill="#fff" d="M0 0h100v100H0z" transform="matrix(.41 0 0 .41 1435 984)"/><path fill="#fff" d="M0 0h100v100H0z" transform="matrix(.41 0 0 .41 1476 984)"/><path fill="#fff" d="M0 0h100v100H0z" transform="matrix(.41 0 0 .41 1517 984)"/><path fill="#fff" d="M0 0h100v100H0z" transform="matrix(.41 0 0 .41 1558 984)"/><path fill="#fff" d="M0 0h100v100H0z" transform="matrix(.41 0 0 .41 1640 984)"/><path fill="#fff" d="M0 0h100v100H0z" transform="matrix(.41 0 0 .41 1722 984)"/><path fill="#fff" d="M0 0h100v100H0z" transform="matrix(.41 0 0 .41 1804 984)"/><path fill="#fff" d="M0 0h100v100H0z" transform="matrix(.41 0 0 .41 1845 984)"/><path fill="#fff" d="M0 0h100v100H0z" transform="matrix(.41 0 0 .41 1927 984)"/><path fill="#fff" d="M0 0h100v100H0z" transform="matrix(.41 0 0 .41 0 1025)"/><path fill="#fff" d="M0 0h100v100H0z" transform="matrix(.41 0 0 .41 82 1025)"/><path fill="#fff" d="M0 0h100v100H0z" transform="matrix(.41 0 0 .41 164 1025)"/><path fill="#fff" d="M0 0h100v100H0z" transform="matrix(.41 0 0 .41 328 1025)"/><path fill="#fff" d="M0 0h100v100H0z" transform="matrix(.41 0 0 .41 369 1025)"/><path fill="#fff" d="M0 0h100v100H0z" transform="matrix(.41 0 0 .41 656 1025)"/><path fill="#fff" d="M0 0h100v100H0z" transform="matrix(.41 0 0 .41 697 1025)"/><path fill="#fff" d="M0 0h100v100H0z" transform="matrix(.41 0 0 .41 738 1025)"/><path fill="#fff" d="M0 0h100v100H0z" transform="matrix(.41 0 0 .41 779 1025)"/><path fill="#fff" d="M0 0h100v100H0z" transform="matrix(.41 0 0 .41 820 1025)"/><path fill="#fff" d="M0 0h100v100H0z" transform="matrix(.41 0 0 .41 861 1025)"/><path fill="#fff" d="M0 0h100v100H0z" transform="matrix(.41 0 0 .41 902 1025)"/><path fill="#fff" d="M0 0h100v100H0z" transform="matrix(.41 0 0 .41 1066 1025)"/><path fill="#fff" d="M0 0h100v100H0z" transform="matrix(.41 0 0 .41 1148 1025)"/><path fill="#fff" d="M0 0h100v100H0z" transform="matrix(.41 0 0 .41 1312 1025)"/><path fill="#fff" d="M0 0h100v100H0z" transform="matrix(.41 0 0 .41 1476 1025)"/><path fill="#fff" d="M0 0h100v100H0z" transform="matrix(.41 0 0 .41 1517 1025)"/><path fill="#fff" d="M0 0h100v100H0z" transform="matrix(.41 0 0 .41 1558 1025)"/><path fill="#fff" d="M0 0h100v100H0z" transform="matrix(.41 0 0 .41 1640 1025)"/><path fill="#fff" d="M0 0h100v100H0z" transform="matrix(.41 0 0 .41 1804 1025)"/><path fill="#fff" d="M0 0h100v100H0z" transform="matrix(.41 0 0 .41 1927 1025)"/><path fill="#fff" d="M0 0h100v100H0z" transform="matrix(.41 0 0 .41 1968 1025)"/><path fill="#fff" d="M0 0h100v100H0z" transform="matrix(.41 0 0 .41 41 1066)"/><path fill="#fff" d="M0 0h100v100H0z" transform="matrix(.41 0 0 .41 82 1066)"/><path fill="#fff" d="M0 0h100v100H0z" transform="matrix(.41 0 0 .41 164 1066)"/><path fill="#fff" d="M0 0h100v100H0z" transform="matrix(.41 0 0 .41 205 1066)"/><path fill="#fff" d="M0 0h100v100H0z" transform="matrix(.41 0 0 .41 246 1066)"/><path fill="#fff" d="M0 0h100v100H0z" transform="matrix(.41 0 0 .41 287 1066)"/><path fill="#fff" d="M0 0h100v100H0z" transform="matrix(.41 0 0 .41 328 1066)"/><path fill="#fff" d="M0 0h100v100H0z" transform="matrix(.41 0 0 .41 369 1066)"/><path fill="#fff" d="M0 0h100v100H0z" transform="matrix(.41 0 0 .41 410 1066)"/><path fill="#fff" d="M0 0h100v100H0z" transform="matrix(.41 0 0 .41 451 1066)"/><path fill="#fff" d="M0 0h100v100H0z" transform="matrix(.41 0 0 .41 656 1066)"/><path fill="#fff" d="M0 0h100v100H0z" transform="matrix(.41 0 0 .41 697 1066)"/><path fill="#fff" d="M0 0h100v100H0z" transform="matrix(.41 0 0 .41 779 1066)"/><path fill="#fff" d="M0 0h100v100H0z" transform="matrix(.41 0 0 .41 820 1066)"/><path fill="#fff" d="M0 0h100v100H0z" transform="matrix(.41 0 0 .41 861 1066)"/><path fill="#fff" d="M0 0h100v100H0z" transform="matrix(.41 0 0 .41 902 1066)"/><path fill="#fff" d="M0 0h100v100H0z" transform="matrix(.41 0 0 .41 943 1066)"/><path fill="#fff" d="M0 0h100v100H0z" transform="matrix(.41 0 0 .41 984 1066)"/><path fill="#fff" d="M0 0h100v100H0z" transform="matrix(.41 0 0 .41 1025 1066)"/><path fill="#fff" d="M0 0h100v100H0z" transform="matrix(.41 0 0 .41 1066 1066)"/><path fill="#fff" d="M0 0h100v100H0z" transform="matrix(.41 0 0 .41 1107 1066)"/><path fill="#fff" d="M0 0h100v100H0z" transform="matrix(.41 0 0 .41 1148 1066)"/><path fill="#fff" d="M0 0h100v100H0z" transform="matrix(.41 0 0 .41 1230 1066)"/><path fill="#fff" d="M0 0h100v100H0z" transform="matrix(.41 0 0 .41 1271 1066)"/><path fill="#fff" d="M0 0h100v100H0z" transform="matrix(.41 0 0 .41 1312 1066)"/><path fill="#fff" d="M0 0h100v100H0z" transform="matrix(.41 0 0 .41 1353 1066)"/><path fill="#fff" d="M0 0h100v100H0z" transform="matrix(.41 0 0 .41 1476 1066)"/><path fill="#fff" d="M0 0h100v100H0z" transform="matrix(.41 0 0 .41 1517 1066)"/><path fill="#fff" d="M0 0h100v100H0z" transform="matrix(.41 0 0 .41 1558 1066)"/><path fill="#fff" d="M0 0h100v100H0z" transform="matrix(.41 0 0 .41 1599 1066)"/><path fill="#fff" d="M0 0h100v100H0z" transform="matrix(.41 0 0 .41 1640 1066)"/><path fill="#fff" d="M0 0h100v100H0z" transform="matrix(.41 0 0 .41 1681 1066)"/><path fill="#fff" d="M0 0h100v100H0z" transform="matrix(.41 0 0 .41 1722 1066)"/><path fill="#fff" d="M0 0h100v100H0z" transform="matrix(.41 0 0 .41 1763 1066)"/><path fill="#fff" d="M0 0h100v100H0z" transform="matrix(.41 0 0 .41 1804 1066)"/><path fill="#fff" d="M0 0h100v100H0z" transform="matrix(.41 0 0 .41 1927 1066)"/><path fill="#fff" d="M0 0h100v100H0z" transform="matrix(.41 0 0 .41 123 1107)"/><path fill="#fff" d="M0 0h100v100H0z" transform="matrix(.41 0 0 .41 205 1107)"/><path fill="#fff" d="M0 0h100v100H0z" transform="matrix(.41 0 0 .41 287 1107)"/><path fill="#fff" d="M0 0h100v100H0z" transform="matrix(.41 0 0 .41 369 1107)"/><path fill="#fff" d="M0 0h100v100H0z" transform="matrix(.41 0 0 .41 533 1107)"/><path fill="#fff" d="M0 0h100v100H0z" transform="matrix(.41 0 0 .41 615 1107)"/><path fill="#fff" d="M0 0h100v100H0z" transform="matrix(.41 0 0 .41 738 1107)"/><path fill="#fff" d="M0 0h100v100H0z" transform="matrix(.41 0 0 .41 902 1107)"/><path fill="#fff" d="M0 0h100v100H0z" transform="matrix(.41 0 0 .41 1148 1107)"/><path fill="#fff" d="M0 0h100v100H0z" transform="matrix(.41 0 0 .41 1189 1107)"/><path fill="#fff" d="M0 0h100v100H0z" transform="matrix(.41 0 0 .41 1312 1107)"/><path fill="#fff" d="M0 0h100v100H0z" transform="matrix(.41 0 0 .41 1353 1107)"/><path fill="#fff" d="M0 0h100v100H0z" transform="matrix(.41 0 0 .41 1394 1107)"/><path fill="#fff" d="M0 0h100v100H0z" transform="matrix(.41 0 0 .41 1517 1107)"/><path fill="#fff" d="M0 0h100v100H0z" transform="matrix(.41 0 0 .41 1640 1107)"/><path fill="#fff" d="M0 0h100v100H0z" transform="matrix(.41 0 0 .41 1681 1107)"/><path fill="#fff" d="M0 0h100v100H0z" transform="matrix(.41 0 0 .41 1845 1107)"/><path fill="#fff" d="M0 0h100v100H0z" transform="matrix(.41 0 0 .41 1968 1107)"/><path fill="#fff" d="M0 0h100v100H0z" transform="matrix(.41 0 0 .41 41 1148)"/><path fill="#fff" d="M0 0h100v100H0z" transform="matrix(.41 0 0 .41 82 1148)"/><path fill="#fff" d="M0 0h100v100H0z" transform="matrix(.41 0 0 .41 164 1148)"/><path fill="#fff" d="M0 0h100v100H0z" transform="matrix(.41 0 0 .41 205 1148)"/><path fill="#fff" d="M0 0h100v100H0z" transform="matrix(.41 0 0 .41 246 1148)"/><path fill="#fff" d="M0 0h100v100H0z" transform="matrix(.41 0 0 .41 369 1148)"/><path fill="#fff" d="M0 0h100v100H0z" transform="matrix(.41 0 0 .41 451 1148)"/><path fill="#fff" d="M0 0h100v100H0z" transform="matrix(.41 0 0 .41 533 1148)"/><path fill="#fff" d="M0 0h100v100H0z" transform="matrix(.41 0 0 .41 615 1148)"/><path fill="#fff" d="M0 0h100v100H0z" transform="matrix(.41 0 0 .41 656 1148)"/><path fill="#fff" d="M0 0h100v100H0z" transform="matrix(.41 0 0 .41 779 1148)"/><path fill="#fff" d="M0 0h100v100H0z" transform="matrix(.41 0 0 .41 820 1148)"/><path fill="#fff" d="M0 0h100v100H0z" transform="matrix(.41 0 0 .41 861 1148)"/><path fill="#fff" d="M0 0h100v100H0z" transform="matrix(.41 0 0 .41 902 1148)"/><path fill="#fff" d="M0 0h100v100H0z" transform="matrix(.41 0 0 .41 943 1148)"/><path fill="#fff" d="M0 0h100v100H0z" transform="matrix(.41 0 0 .41 1025 1148)"/><path fill="#fff" d="M0 0h100v100H0z" transform="matrix(.41 0 0 .41 1107 1148)"/><path fill="#fff" d="M0 0h100v100H0z" transform="matrix(.41 0 0 .41 1312 1148)"/><path fill="#fff" d="M0 0h100v100H0z" transform="matrix(.41 0 0 .41 1353 1148)"/><path fill="#fff" d="M0 0h100v100H0z" transform="matrix(.41 0 0 .41 1558 1148)"/><path fill="#fff" d="M0 0h100v100H0z" transform="matrix(.41 0 0 .41 1763 1148)"/><path fill="#fff" d="M0 0h100v100H0z" transform="matrix(.41 0 0 .41 1845 1148)"/><path fill="#fff" d="M0 0h100v100H0z" transform="matrix(.41 0 0 .41 1886 1148)"/><path fill="#fff" d="M0 0h100v100H0z" transform="matrix(.41 0 0 .41 1968 1148)"/><path fill="#fff" d="M0 0h100v100H0z" transform="matrix(.41 0 0 .41 41 1189)"/><path fill="#fff" d="M0 0h100v100H0z" transform="matrix(.41 0 0 .41 82 1189)"/><path fill="#fff" d="M0 0h100v100H0z" transform="matrix(.41 0 0 .41 123 1189)"/><path fill="#fff" d="M0 0h100v100H0z" transform="matrix(.41 0 0 .41 205 1189)"/><path fill="#fff" d="M0 0h100v100H0z" transform="matrix(.41 0 0 .41 328 1189)"/><path fill="#fff" d="M0 0h100v100H0z" transform="matrix(.41 0 0 .41 451 1189)"/><path fill="#fff" d="M0 0h100v100H0z" transform="matrix(.41 0 0 .41 492 1189)"/><path fill="#fff" d="M0 0h100v100H0z" transform="matrix(.41 0 0 .41 533 1189)"/><path fill="#fff" d="M0 0h100v100H0z" transform="matrix(.41 0 0 .41 615 1189)"/><path fill="#fff" d="M0 0h100v100H0z" transform="matrix(.41 0 0 .41 656 1189)"/><path fill="#fff" d="M0 0h100v100H0z" transform="matrix(.41 0 0 .41 697 1189)"/><path fill="#fff" d="M0 0h100v100H0z" transform="matrix(.41 0 0 .41 779 1189)"/><path fill="#fff" d="M0 0h100v100H0z" transform="matrix(.41 0 0 .41 902 1189)"/><path fill="#fff" d="M0 0h100v100H0z" transform="matrix(.41 0 0 .41 943 1189)"/><path fill="#fff" d="M0 0h100v100H0z" transform="matrix(.41 0 0 .41 984 1189)"/><path fill="#fff" d="M0 0h100v100H0z" transform="matrix(.41 0 0 .41 1025 1189)"/><path fill="#fff" d="M0 0h100v100H0z" transform="matrix(.41 0 0 .41 1066 1189)"/><path fill="#fff" d="M0 0h100v100H0z" transform="matrix(.41 0 0 .41 1107 1189)"/><path fill="#fff" d="M0 0h100v100H0z" transform="matrix(.41 0 0 .41 1189 1189)"/><path fill="#fff" d="M0 0h100v100H0z" transform="matrix(.41 0 0 .41 1394 1189)"/><path fill="#fff" d="M0 0h100v100H0z" transform="matrix(.41 0 0 .41 1476 1189)"/><path fill="#fff" d="M0 0h100v100H0z" transform="matrix(.41 0 0 .41 1517 1189)"/><path fill="#fff" d="M0 0h100v100H0z" transform="matrix(.41 0 0 .41 1599 1189)"/><path fill="#fff" d="M0 0h100v100H0z" transform="matrix(.41 0 0 .41 1681 1189)"/><path fill="#fff" d="M0 0h100v100H0z" transform="matrix(.41 0 0 .41 1845 1189)"/><path fill="#fff" d="M0 0h100v100H0z" transform="matrix(.41 0 0 .41 1886 1189)"/><path fill="#fff" d="M0 0h100v100H0z" transform="matrix(.41 0 0 .41 1968 1189)"/><path fill="#fff" d="M0 0h100v100H0z" transform="matrix(.41 0 0 .41 0 1230)"/><path fill="#fff" d="M0 0h100v100H0z" transform="matrix(.41 0 0 .41 123 1230)"/><path fill="#fff" d="M0 0h100v100H0z" transform="matrix(.41 0 0 .41 246 1230)"/><path fill="#fff" d="M0 0h100v100H0z" transform="matrix(.41 0 0 .41 287 1230)"/><path fill="#fff" d="M0 0h100v100H0z" transform="matrix(.41 0 0 .41 328 1230)"/><path fill="#fff" d="M0 0h100v100H0z" transform="matrix(.41 0 0 .41 451 1230)"/><path fill="#fff" d="M0 0h100v100H0z" transform="matrix(.41 0 0 .41 574 1230)"/><path fill="#fff" d="M0 0h100v100H0z" transform="matrix(.41 0 0 .41 615 1230)"/><path fill="#fff" d="M0 0h100v100H0z" transform="matrix(.41 0 0 .41 656 1230)"/><path fill="#fff" d="M0 0h100v100H0z" transform="matrix(.41 0 0 .41 738 1230)"/><path fill="#fff" d="M0 0h100v100H0z" transform="matrix(.41 0 0 .41 779 1230)"/><path fill="#fff" d="M0 0h100v100H0z" transform="matrix(.41 0 0 .41 902 1230)"/><path fill="#fff" d="M0 0h100v100H0z" transform="matrix(.41 0 0 .41 1148 1230)"/><path fill="#fff" d="M0 0h100v100H0z" transform="matrix(.41 0 0 .41 1189 1230)"/><path fill="#fff" d="M0 0h100v100H0z" transform="matrix(.41 0 0 .41 1271 1230)"/><path fill="#fff" d="M0 0h100v100H0z" transform="matrix(.41 0 0 .41 1353 1230)"/><path fill="#fff" d="M0 0h100v100H0z" transform="matrix(.41 0 0 .41 1394 1230)"/><path fill="#fff" d="M0 0h100v100H0z" transform="matrix(.41 0 0 .41 1435 1230)"/><path fill="#fff" d="M0 0h100v100H0z" transform="matrix(.41 0 0 .41 1517 1230)"/><path fill="#fff" d="M0 0h100v100H0z" transform="matrix(.41 0 0 .41 1558 1230)"/><path fill="#fff" d="M0 0h100v100H0z" transform="matrix(.41 0 0 .41 1599 1230)"/><path fill="#fff" d="M0 0h100v100H0z" transform="matrix(.41 0 0 .41 1640 1230)"/><path fill="#fff" d="M0 0h100v100H0z" transform="matrix(.41 0 0 .41 1681 1230)"/><path fill="#fff" d="M0 0h100v100H0z" transform="matrix(.41 0 0 .41 1722 1230)"/><path fill="#fff" d="M0 0h100v100H0z" transform="matrix(.41 0 0 .41 1763 1230)"/><path fill="#fff" d="M0 0h100v100H0z" transform="matrix(.41 0 0 .41 1845 1230)"/><path fill="#fff" d="M0 0h100v100H0z" transform="matrix(.41 0 0 .41 1927 1230)"/><path fill="#fff" d="M0 0h100v100H0z" transform="matrix(.41 0 0 .41 1968 1230)"/><path fill="#fff" d="M0 0h100v100H0z" transform="matrix(.41 0 0 .41 0 1271)"/><path fill="#fff" d="M0 0h100v100H0z" transform="matrix(.41 0 0 .41 164 1271)"/><path fill="#fff" d="M0 0h100v100H0z" transform="matrix(.41 0 0 .41 328 1271)"/><path fill="#fff" d="M0 0h100v100H0z" transform="matrix(.41 0 0 .41 410 1271)"/><path fill="#fff" d="M0 0h100v100H0z" transform="matrix(.41 0 0 .41 451 1271)"/><path fill="#fff" d="M0 0h100v100H0z" transform="matrix(.41 0 0 .41 574 1271)"/><path fill="#fff" d="M0 0h100v100H0z" transform="matrix(.41 0 0 .41 656 1271)"/><path fill="#fff" d="M0 0h100v100H0z" transform="matrix(.41 0 0 .41 738 1271)"/><path fill="#fff" d="M0 0h100v100H0z" transform="matrix(.41 0 0 .41 820 1271)"/><path fill="#fff" d="M0 0h100v100H0z" transform="matrix(.41 0 0 .41 984 1271)"/><path fill="#fff" d="M0 0h100v100H0z" transform="matrix(.41 0 0 .41 1025 1271)"/><path fill="#fff" d="M0 0h100v100H0z" transform="matrix(.41 0 0 .41 1107 1271)"/><path fill="#fff" d="M0 0h100v100H0z" transform="matrix(.41 0 0 .41 1189 1271)"/><path fill="#fff" d="M0 0h100v100H0z" transform="matrix(.41 0 0 .41 1271 1271)"/><path fill="#fff" d="M0 0h100v100H0z" transform="matrix(.41 0 0 .41 1312 1271)"/><path fill="#fff" d="M0 0h100v100H0z" transform="matrix(.41 0 0 .41 1558 1271)"/><path fill="#fff" d="M0 0h100v100H0z" transform="matrix(.41 0 0 .41 1599 1271)"/><path fill="#fff" d="M0 0h100v100H0z" transform="matrix(.41 0 0 .41 1845 1271)"/><path fill="#fff" d="M0 0h100v100H0z" transform="matrix(.41 0 0 .41 1927 1271)"/><path fill="#fff" d="M0 0h100v100H0z" transform="matrix(.41 0 0 .41 123 1312)"/><path fill="#fff" d="M0 0h100v100H0z" transform="matrix(.41 0 0 .41 164 1312)"/><path fill="#fff" d="M0 0h100v100H0z" transform="matrix(.41 0 0 .41 246 1312)"/><path fill="#fff" d="M0 0h100v100H0z" transform="matrix(.41 0 0 .41 287 1312)"/><path fill="#fff" d="M0 0h100v100H0z" transform="matrix(.41 0 0 .41 328 1312)"/><path fill="#fff" d="M0 0h100v100H0z" transform="matrix(.41 0 0 .41 410 1312)"/><path fill="#fff" d="M0 0h100v100H0z" transform="matrix(.41 0 0 .41 451 1312)"/><path fill="#fff" d="M0 0h100v100H0z" transform="matrix(.41 0 0 .41 533 1312)"/><path fill="#fff" d="M0 0h100v100H0z" transform="matrix(.41 0 0 .41 615 1312)"/><path fill="#fff" d="M0 0h100v100H0z" transform="matrix(.41 0 0 .41 697 1312)"/><path fill="#fff" d="M0 0h100v100H0z" transform="matrix(.41 0 0 .41 738 1312)"/><path fill="#fff" d="M0 0h100v100H0z" transform="matrix(.41 0 0 .41 779 1312)"/><path fill="#fff" d="M0 0h100v100H0z" transform="matrix(.41 0 0 .41 820 1312)"/><path fill="#fff" d="M0 0h100v100H0z" transform="matrix(.41 0 0 .41 902 1312)"/><path fill="#fff" d="M0 0h100v100H0z" transform="matrix(.41 0 0 .41 984 1312)"/><path fill="#fff" d="M0 0h100v100H0z" transform="matrix(.41 0 0 .41 1148 1312)"/><path fill="#fff" d="M0 0h100v100H0z" transform="matrix(.41 0 0 .41 1189 1312)"/><path fill="#fff" d="M0 0h100v100H0z" transform="matrix(.41 0 0 .41 1271 1312)"/><path fill="#fff" d="M0 0h100v100H0z" transform="matrix(.41 0 0 .41 1353 1312)"/><path fill="#fff" d="M0 0h100v100H0z" transform="matrix(.41 0 0 .41 1394 1312)"/><path fill="#fff" d="M0 0h100v100H0z" transform="matrix(.41 0 0 .41 1681 1312)"/><path fill="#fff" d="M0 0h100v100H0z" transform="matrix(.41 0 0 .41 1722 1312)"/><path fill="#fff" d="M0 0h100v100H0z" transform="matrix(.41 0 0 .41 1804 1312)"/><path fill="#fff" d="M0 0h100v100H0z" transform="matrix(.41 0 0 .41 1845 1312)"/><path fill="#fff" d="M0 0h100v100H0z" transform="matrix(.41 0 0 .41 1927 1312)"/><path fill="#fff" d="M0 0h100v100H0z" transform="matrix(.41 0 0 .41 1968 1312)"/><path fill="#fff" d="M0 0h100v100H0z" transform="matrix(.41 0 0 .41 82 1353)"/><path fill="#fff" d="M0 0h100v100H0z" transform="matrix(.41 0 0 .41 123 1353)"/><path fill="#fff" d="M0 0h100v100H0z" transform="matrix(.41 0 0 .41 205 1353)"/><path fill="#fff" d="M0 0h100v100H0z" transform="matrix(.41 0 0 .41 328 1353)"/><path fill="#fff" d="M0 0h100v100H0z" transform="matrix(.41 0 0 .41 410 1353)"/><path fill="#fff" d="M0 0h100v100H0z" transform="matrix(.41 0 0 .41 451 1353)"/><path fill="#fff" d="M0 0h100v100H0z" transform="matrix(.41 0 0 .41 492 1353)"/><path fill="#fff" d="M0 0h100v100H0z" transform="matrix(.41 0 0 .41 533 1353)"/><path fill="#fff" d="M0 0h100v100H0z" transform="matrix(.41 0 0 .41 574 1353)"/><path fill="#fff" d="M0 0h100v100H0z" transform="matrix(.41 0 0 .41 615 1353)"/><path fill="#fff" d="M0 0h100v100H0z" transform="matrix(.41 0 0 .41 656 1353)"/><path fill="#fff" d="M0 0h100v100H0z" transform="matrix(.41 0 0 .41 861 1353)"/><path fill="#fff" d="M0 0h100v100H0z" transform="matrix(.41 0 0 .41 902 1353)"/><path fill="#fff" d="M0 0h100v100H0z" transform="matrix(.41 0 0 .41 943 1353)"/><path fill="#fff" d="M0 0h100v100H0z" transform="matrix(.41 0 0 .41 984 1353)"/><path fill="#fff" d="M0 0h100v100H0z" transform="matrix(.41 0 0 .41 1066 1353)"/><path fill="#fff" d="M0 0h100v100H0z" transform="matrix(.41 0 0 .41 1230 1353)"/><path fill="#fff" d="M0 0h100v100H0z" transform="matrix(.41 0 0 .41 1271 1353)"/><path fill="#fff" d="M0 0h100v100H0z" transform="matrix(.41 0 0 .41 1353 1353)"/><path fill="#fff" d="M0 0h100v100H0z" transform="matrix(.41 0 0 .41 1435 1353)"/><path fill="#fff" d="M0 0h100v100H0z" transform="matrix(.41 0 0 .41 1476 1353)"/><path fill="#fff" d="M0 0h100v100H0z" transform="matrix(.41 0 0 .41 1599 1353)"/><path fill="#fff" d="M0 0h100v100H0z" transform="matrix(.41 0 0 .41 1681 1353)"/><path fill="#fff" d="M0 0h100v100H0z" transform="matrix(.41 0 0 .41 1927 1353)"/><path fill="#fff" d="M0 0h100v100H0z" transform="matrix(.41 0 0 .41 0 1394)"/><path fill="#fff" d="M0 0h100v100H0z" transform="matrix(.41 0 0 .41 82 1394)"/><path fill="#fff" d="M0 0h100v100H0z" transform="matrix(.41 0 0 .41 164 1394)"/><path fill="#fff" d="M0 0h100v100H0z" transform="matrix(.41 0 0 .41 205 1394)"/><path fill="#fff" d="M0 0h100v100H0z" transform="matrix(.41 0 0 .41 246 1394)"/><path fill="#fff" d="M0 0h100v100H0z" transform="matrix(.41 0 0 .41 328 1394)"/><path fill="#fff" d="M0 0h100v100H0z" transform="matrix(.41 0 0 .41 410 1394)"/><path fill="#fff" d="M0 0h100v100H0z" transform="matrix(.41 0 0 .41 615 1394)"/><path fill="#fff" d="M0 0h100v100H0z" transform="matrix(.41 0 0 .41 943 1394)"/><path fill="#fff" d="M0 0h100v100H0z" transform="matrix(.41 0 0 .41 984 1394)"/><path fill="#fff" d="M0 0h100v100H0z" transform="matrix(.41 0 0 .41 1025 1394)"/><path fill="#fff" d="M0 0h100v100H0z" transform="matrix(.41 0 0 .41 1066 1394)"/><path fill="#fff" d="M0 0h100v100H0z" transform="matrix(.41 0 0 .41 1312 1394)"/><path fill="#fff" d="M0 0h100v100H0z" transform="matrix(.41 0 0 .41 1353 1394)"/><path fill="#fff" d="M0 0h100v100H0z" transform="matrix(.41 0 0 .41 1435 1394)"/><path fill="#fff" d="M0 0h100v100H0z" transform="matrix(.41 0 0 .41 1517 1394)"/><path fill="#fff" d="M0 0h100v100H0z" transform="matrix(.41 0 0 .41 1558 1394)"/><path fill="#fff" d="M0 0h100v100H0z" transform="matrix(.41 0 0 .41 1599 1394)"/><path fill="#fff" d="M0 0h100v100H0z" transform="matrix(.41 0 0 .41 1640 1394)"/><path fill="#fff" d="M0 0h100v100H0z" transform="matrix(.41 0 0 .41 1681 1394)"/><path fill="#fff" d="M0 0h100v100H0z" transform="matrix(.41 0 0 .41 41 1435)"/><path fill="#fff" d="M0 0h100v100H0z" transform="matrix(.41 0 0 .41 82 1435)"/><path fill="#fff" d="M0 0h100v100H0z" transform="matrix(.41 0 0 .41 123 1435)"/><path fill="#fff" d="M0 0h100v100H0z" transform="matrix(.41 0 0 .41 328 1435)"/><path fill="#fff" d="M0 0h100v100H0z" transform="matrix(.41 0 0 .41 410 1435)"/><path fill="#fff" d="M0 0h100v100H0z" transform="matrix(.41 0 0 .41 451 1435)"/><path fill="#fff" d="M0 0h100v100H0z" transform="matrix(.41 0 0 .41 697 1435)"/><path fill="#fff" d="M0 0h100v100H0z" transform="matrix(.41 0 0 .41 738 1435)"/><path fill="#fff" d="M0 0h100v100H0z" transform="matrix(.41 0 0 .41 820 1435)"/><path fill="#fff" d="M0 0h100v100H0z" transform="matrix(.41 0 0 .41 943 1435)"/><path fill="#fff" d="M0 0h100v100H0z" transform="matrix(.41 0 0 .41 984 1435)"/><path fill="#fff" d="M0 0h100v100H0z" transform="matrix(.41 0 0 .41 1025 1435)"/><path fill="#fff" d="M0 0h100v100H0z" transform="matrix(.41 0 0 .41 1066 1435)"/><path fill="#fff" d="M0 0h100v100H0z" transform="matrix(.41 0 0 .41 1189 1435)"/><path fill="#fff" d="M0 0h100v100H0z" transform="matrix(.41 0 0 .41 1230 1435)"/><path fill="#fff" d="M0 0h100v100H0z" transform="matrix(.41 0 0 .41 1271 1435)"/><path fill="#fff" d="M0 0h100v100H0z" transform="matrix(.41 0 0 .41 1312 1435)"/><path fill="#fff" d="M0 0h100v100H0z" transform="matrix(.41 0 0 .41 1353 1435)"/><path fill="#fff" d="M0 0h100v100H0z" transform="matrix(.41 0 0 .41 1394 1435)"/><path fill="#fff" d="M0 0h100v100H0z" transform="matrix(.41 0 0 .41 1435 1435)"/><path fill="#fff" d="M0 0h100v100H0z" transform="matrix(.41 0 0 .41 1476 1435)"/><path fill="#fff" d="M0 0h100v100H0z" transform="matrix(.41 0 0 .41 1599 1435)"/><path fill="#fff" d="M0 0h100v100H0z" transform="matrix(.41 0 0 .41 1722 1435)"/><path fill="#fff" d="M0 0h100v100H0z" transform="matrix(.41 0 0 .41 1763 1435)"/><path fill="#fff" d="M0 0h100v100H0z" transform="matrix(.41 0 0 .41 1845 1435)"/><path fill="#fff" d="M0 0h100v100H0z" transform="matrix(.41 0 0 .41 1886 1435)"/><path fill="#fff" d="M0 0h100v100H0z" transform="matrix(.41 0 0 .41 1927 1435)"/><path fill="#fff" d="M0 0h100v100H0z" transform="matrix(.41 0 0 .41 1968 1435)"/><path fill="#fff" d="M0 0h100v100H0z" transform="matrix(.41 0 0 .41 0 1476)"/><path fill="#fff" d="M0 0h100v100H0z" transform="matrix(.41 0 0 .41 82 1476)"/><path fill="#fff" d="M0 0h100v100H0z" transform="matrix(.41 0 0 .41 123 1476)"/><path fill="#fff" d="M0 0h100v100H0z" transform="matrix(.41 0 0 .41 246 1476)"/><path fill="#fff" d="M0 0h100v100H0z" transform="matrix(.41 0 0 .41 451 1476)"/><path fill="#fff" d="M0 0h100v100H0z" transform="matrix(.41 0 0 .41 492 1476)"/><path fill="#fff" d="M0 0h100v100H0z" transform="matrix(.41 0 0 .41 574 1476)"/><path fill="#fff" d="M0 0h100v100H0z" transform="matrix(.41 0 0 .41 656 1476)"/><path fill="#fff" d="M0 0h100v100H0z" transform="matrix(.41 0 0 .41 697 1476)"/><path fill="#fff" d="M0 0h100v100H0z" transform="matrix(.41 0 0 .41 820 1476)"/><path fill="#fff" d="M0 0h100v100H0z" transform="matrix(.41 0 0 .41 861 1476)"/><path fill="#fff" d="M0 0h100v100H0z" transform="matrix(.41 0 0 .41 943 1476)"/><path fill="#fff" d="M0 0h100v100H0z" transform="matrix(.41 0 0 .41 1066 1476)"/><path fill="#fff" d="M0 0h100v100H0z" transform="matrix(.41 0 0 .41 1189 1476)"/><path fill="#fff" d="M0 0h100v100H0z" transform="matrix(.41 0 0 .41 1230 1476)"/><path fill="#fff" d="M0 0h100v100H0z" transform="matrix(.41 0 0 .41 1271 1476)"/><path fill="#fff" d="M0 0h100v100H0z" transform="matrix(.41 0 0 .41 1394 1476)"/><path fill="#fff" d="M0 0h100v100H0z" transform="matrix(.41 0 0 .41 1435 1476)"/><path fill="#fff" d="M0 0h100v100H0z" transform="matrix(.41 0 0 .41 1476 1476)"/><path fill="#fff" d="M0 0h100v100H0z" transform="matrix(.41 0 0 .41 1558 1476)"/><path fill="#fff" d="M0 0h100v100H0z" transform="matrix(.41 0 0 .41 1599 1476)"/><path fill="#fff" d="M0 0h100v100H0z" transform="matrix(.41 0 0 .41 1640 1476)"/><path fill="#fff" d="M0 0h100v100H0z" transform="matrix(.41 0 0 .41 1804 1476)"/><path fill="#fff" d="M0 0h100v100H0z" transform="matrix(.41 0 0 .41 1886 1476)"/><path fill="#fff" d="M0 0h100v100H0z" transform="matrix(.41 0 0 .41 1968 1476)"/><path fill="#fff" d="M0 0h100v100H0z" transform="matrix(.41 0 0 .41 41 1517)"/><path fill="#fff" d="M0 0h100v100H0z" transform="matrix(.41 0 0 .41 164 1517)"/><path fill="#fff" d="M0 0h100v100H0z" transform="matrix(.41 0 0 .41 205 1517)"/><path fill="#fff" d="M0 0h100v100H0z" transform="matrix(.41 0 0 .41 451 1517)"/><path fill="#fff" d="M0 0h100v100H0z" transform="matrix(.41 0 0 .41 492 1517)"/><path fill="#fff" d="M0 0h100v100H0z" transform="matrix(.41 0 0 .41 533 1517)"/><path fill="#fff" d="M0 0h100v100H0z" transform="matrix(.41 0 0 .41 574 1517)"/><path fill="#fff" d="M0 0h100v100H0z" transform="matrix(.41 0 0 .41 697 1517)"/><path fill="#fff" d="M0 0h100v100H0z" transform="matrix(.41 0 0 .41 779 1517)"/><path fill="#fff" d="M0 0h100v100H0z" transform="matrix(.41 0 0 .41 820 1517)"/><path fill="#fff" d="M0 0h100v100H0z" transform="matrix(.41 0 0 .41 902 1517)"/><path fill="#fff" d="M0 0h100v100H0z" transform="matrix(.41 0 0 .41 1025 1517)"/><path fill="#fff" d="M0 0h100v100H0z" transform="matrix(.41 0 0 .41 1066 1517)"/><path fill="#fff" d="M0 0h100v100H0z" transform="matrix(.41 0 0 .41 1107 1517)"/><path fill="#fff" d="M0 0h100v100H0z" transform="matrix(.41 0 0 .41 1189 1517)"/><path fill="#fff" d="M0 0h100v100H0z" transform="matrix(.41 0 0 .41 1353 1517)"/><path fill="#fff" d="M0 0h100v100H0z" transform="matrix(.41 0 0 .41 1435 1517)"/><path fill="#fff" d="M0 0h100v100H0z" transform="matrix(.41 0 0 .41 1517 1517)"/><path fill="#fff" d="M0 0h100v100H0z" transform="matrix(.41 0 0 .41 1558 1517)"/><path fill="#fff" d="M0 0h100v100H0z" transform="matrix(.41 0 0 .41 1599 1517)"/><path fill="#fff" d="M0 0h100v100H0z" transform="matrix(.41 0 0 .41 1763 1517)"/><path fill="#fff" d="M0 0h100v100H0z" transform="matrix(.41 0 0 .41 1804 1517)"/><path fill="#fff" d="M0 0h100v100H0z" transform="matrix(.41 0 0 .41 1845 1517)"/><path fill="#fff" d="M0 0h100v100H0z" transform="matrix(.41 0 0 .41 1968 1517)"/><path fill="#fff" d="M0 0h100v100H0z" transform="matrix(.41 0 0 .41 41 1558)"/><path fill="#fff" d="M0 0h100v100H0z" transform="matrix(.41 0 0 .41 205 1558)"/><path fill="#fff" d="M0 0h100v100H0z" transform="matrix(.41 0 0 .41 246 1558)"/><path fill="#fff" d="M0 0h100v100H0z" transform="matrix(.41 0 0 .41 287 1558)"/><path fill="#fff" d="M0 0h100v100H0z" transform="matrix(.41 0 0 .41 328 1558)"/><path fill="#fff" d="M0 0h100v100H0z" transform="matrix(.41 0 0 .41 451 1558)"/><path fill="#fff" d="M0 0h100v100H0z" transform="matrix(.41 0 0 .41 574 1558)"/><path fill="#fff" d="M0 0h100v100H0z" transform="matrix(.41 0 0 .41 697 1558)"/><path fill="#fff" d="M0 0h100v100H0z" transform="matrix(.41 0 0 .41 738 1558)"/><path fill="#fff" d="M0 0h100v100H0z" transform="matrix(.41 0 0 .41 820 1558)"/><path fill="#fff" d="M0 0h100v100H0z" transform="matrix(.41 0 0 .41 861 1558)"/><path fill="#fff" d="M0 0h100v100H0z" transform="matrix(.41 0 0 .41 943 1558)"/><path fill="#fff" d="M0 0h100v100H0z" transform="matrix(.41 0 0 .41 1025 1558)"/><path fill="#fff" d="M0 0h100v100H0z" transform="matrix(.41 0 0 .41 1230 1558)"/><path fill="#fff" d="M0 0h100v100H0z" transform="matrix(.41 0 0 .41 1271 1558)"/><path fill="#fff" d="M0 0h100v100H0z" transform="matrix(.41 0 0 .41 1435 1558)"/><path fill="#fff" d="M0 0h100v100H0z" transform="matrix(.41 0 0 .41 1517 1558)"/><path fill="#fff" d="M0 0h100v100H0z" transform="matrix(.41 0 0 .41 1558 1558)"/><path fill="#fff" d="M0 0h100v100H0z" transform="matrix(.41 0 0 .41 1599 1558)"/><path fill="#fff" d="M0 0h100v100H0z" transform="matrix(.41 0 0 .41 1640 1558)"/><path fill="#fff" d="M0 0h100v100H0z" transform="matrix(.41 0 0 .41 1681 1558)"/><path fill="#fff" d="M0 0h100v100H0z" transform="matrix(.41 0 0 .41 1763 1558)"/><path fill="#fff" d="M0 0h100v100H0z" transform="matrix(.41 0 0 .41 1804 1558)"/><path fill="#fff" d="M0 0h100v100H0z" transform="matrix(.41 0 0 .41 1845 1558)"/><path fill="#fff" d="M0 0h100v100H0z" transform="matrix(.41 0 0 .41 1886 1558)"/><path fill="#fff" d="M0 0h100v100H0z" transform="matrix(.41 0 0 .41 41 1599)"/><path fill="#fff" d="M0 0h100v100H0z" transform="matrix(.41 0 0 .41 82 1599)"/><path fill="#fff" d="M0 0h100v100H0z" transform="matrix(.41 0 0 .41 123 1599)"/><path fill="#fff" d="M0 0h100v100H0z" transform="matrix(.41 0 0 .41 328 1599)"/><path fill="#fff" d="M0 0h100v100H0z" transform="matrix(.41 0 0 .41 369 1599)"/><path fill="#fff" d="M0 0h100v100H0z" transform="matrix(.41 0 0 .41 451 1599)"/><path fill="#fff" d="M0 0h100v100H0z" transform="matrix(.41 0 0 .41 533 1599)"/><path fill="#fff" d="M0 0h100v100H0z" transform="matrix(.41 0 0 .41 615 1599)"/><path fill="#fff" d="M0 0h100v100H0z" transform="matrix(.41 0 0 .41 697 1599)"/><path fill="#fff" d="M0 0h100v100H0z" transform="matrix(.41 0 0 .41 738 1599)"/><path fill="#fff" d="M0 0h100v100H0z" transform="matrix(.41 0 0 .41 861 1599)"/><path fill="#fff" d="M0 0h100v100H0z" transform="matrix(.41 0 0 .41 984 1599)"/><path fill="#fff" d="M0 0h100v100H0z" transform="matrix(.41 0 0 .41 1066 1599)"/><path fill="#fff" d="M0 0h100v100H0z" transform="matrix(.41 0 0 .41 1189 1599)"/><path fill="#fff" d="M0 0h100v100H0z" transform="matrix(.41 0 0 .41 1230 1599)"/><path fill="#fff" d="M0 0h100v100H0z" transform="matrix(.41 0 0 .41 1271 1599)"/><path fill="#fff" d="M0 0h100v100H0z" transform="matrix(.41 0 0 .41 1517 1599)"/><path fill="#fff" d="M0 0h100v100H0z" transform="matrix(.41 0 0 .41 1640 1599)"/><path fill="#fff" d="M0 0h100v100H0z" transform="matrix(.41 0 0 .41 1722 1599)"/><path fill="#fff" d="M0 0h100v100H0z" transform="matrix(.41 0 0 .41 1763 1599)"/><path fill="#fff" d="M0 0h100v100H0z" transform="matrix(.41 0 0 .41 0 1640)"/><path fill="#fff" d="M0 0h100v100H0z" transform="matrix(.41 0 0 .41 41 1640)"/><path fill="#fff" d="M0 0h100v100H0z" transform="matrix(.41 0 0 .41 82 1640)"/><path fill="#fff" d="M0 0h100v100H0z" transform="matrix(.41 0 0 .41 246 1640)"/><path fill="#fff" d="M0 0h100v100H0z" transform="matrix(.41 0 0 .41 369 1640)"/><path fill="#fff" d="M0 0h100v100H0z" transform="matrix(.41 0 0 .41 492 1640)"/><path fill="#fff" d="M0 0h100v100H0z" transform="matrix(.41 0 0 .41 533 1640)"/><path fill="#fff" d="M0 0h100v100H0z" transform="matrix(.41 0 0 .41 574 1640)"/><path fill="#fff" d="M0 0h100v100H0z" transform="matrix(.41 0 0 .41 615 1640)"/><path fill="#fff" d="M0 0h100v100H0z" transform="matrix(.41 0 0 .41 656 1640)"/><path fill="#fff" d="M0 0h100v100H0z" transform="matrix(.41 0 0 .41 738 1640)"/><path fill="#fff" d="M0 0h100v100H0z" transform="matrix(.41 0 0 .41 779 1640)"/><path fill="#fff" d="M0 0h100v100H0z" transform="matrix(.41 0 0 .41 861 1640)"/><path fill="#fff" d="M0 0h100v100H0z" transform="matrix(.41 0 0 .41 902 1640)"/><path fill="#fff" d="M0 0h100v100H0z" transform="matrix(.41 0 0 .41 943 1640)"/><path fill="#fff" d="M0 0h100v100H0z" transform="matrix(.41 0 0 .41 984 1640)"/><path fill="#fff" d="M0 0h100v100H0z" transform="matrix(.41 0 0 .41 1025 1640)"/><path fill="#fff" d="M0 0h100v100H0z" transform="matrix(.41 0 0 .41 1066 1640)"/><path fill="#fff" d="M0 0h100v100H0z" transform="matrix(.41 0 0 .41 1107 1640)"/><path fill="#fff" d="M0 0h100v100H0z" transform="matrix(.41 0 0 .41 1189 1640)"/><path fill="#fff" d="M0 0h100v100H0z" transform="matrix(.41 0 0 .41 1271 1640)"/><path fill="#fff" d="M0 0h100v100H0z" transform="matrix(.41 0 0 .41 1312 1640)"/><path fill="#fff" d="M0 0h100v100H0z" transform="matrix(.41 0 0 .41 1353 1640)"/><path fill="#fff" d="M0 0h100v100H0z" transform="matrix(.41 0 0 .41 1394 1640)"/><path fill="#fff" d="M0 0h100v100H0z" transform="matrix(.41 0 0 .41 1517 1640)"/><path fill="#fff" d="M0 0h100v100H0z" transform="matrix(.41 0 0 .41 1558 1640)"/><path fill="#fff" d="M0 0h100v100H0z" transform="matrix(.41 0 0 .41 1640 1640)"/><path fill="#fff" d="M0 0h100v100H0z" transform="matrix(.41 0 0 .41 1681 1640)"/><path fill="#fff" d="M0 0h100v100H0z" transform="matrix(.41 0 0 .41 1722 1640)"/><path fill="#fff" d="M0 0h100v100H0z" transform="matrix(.41 0 0 .41 1763 1640)"/><path fill="#fff" d="M0 0h100v100H0z" transform="matrix(.41 0 0 .41 1804 1640)"/><path fill="#fff" d="M0 0h100v100H0z" transform="matrix(.41 0 0 .41 1845 1640)"/><path fill="#fff" d="M0 0h100v100H0z" transform="matrix(.41 0 0 .41 1886 1640)"/><path fill="#fff" d="M0 0h100v100H0z" transform="matrix(.41 0 0 .41 1927 1640)"/><path fill="#fff" d="M0 0h100v100H0z" transform="matrix(.41 0 0 .41 328 1681)"/><path fill="#fff" d="M0 0h100v100H0z" transform="matrix(.41 0 0 .41 410 1681)"/><path fill="#fff" d="M0 0h100v100H0z" transform="matrix(.41 0 0 .41 451 1681)"/><path fill="#fff" d="M0 0h100v100H0z" transform="matrix(.41 0 0 .41 533 1681)"/><path fill="#fff" d="M0 0h100v100H0z" transform="matrix(.41 0 0 .41 615 1681)"/><path fill="#fff" d="M0 0h100v100H0z" transform="matrix(.41 0 0 .41 656 1681)"/><path fill="#fff" d="M0 0h100v100H0z" transform="matrix(.41 0 0 .41 697 1681)"/><path fill="#fff" d="M0 0h100v100H0z" transform="matrix(.41 0 0 .41 738 1681)"/><path fill="#fff" d="M0 0h100v100H0z" transform="matrix(.41 0 0 .41 779 1681)"/><path fill="#fff" d="M0 0h100v100H0z" transform="matrix(.41 0 0 .41 902 1681)"/><path fill="#fff" d="M0 0h100v100H0z" transform="matrix(.41 0 0 .41 1066 1681)"/><path fill="#fff" d="M0 0h100v100H0z" transform="matrix(.41 0 0 .41 1107 1681)"/><path fill="#fff" d="M0 0h100v100H0z" transform="matrix(.41 0 0 .41 1271 1681)"/><path fill="#fff" d="M0 0h100v100H0z" transform="matrix(.41 0 0 .41 1394 1681)"/><path fill="#fff" d="M0 0h100v100H0z" transform="matrix(.41 0 0 .41 1435 1681)"/><path fill="#fff" d="M0 0h100v100H0z" transform="matrix(.41 0 0 .41 1517 1681)"/><path fill="#fff" d="M0 0h100v100H0z" transform="matrix(.41 0 0 .41 1599 1681)"/><path fill="#fff" d="M0 0h100v100H0z" transform="matrix(.41 0 0 .41 1640 1681)"/><path fill="#fff" d="M0 0h100v100H0z" transform="matrix(.41 0 0 .41 1804 1681)"/><path fill="#fff" d="M0 0h100v100H0z" transform="matrix(.41 0 0 .41 1886 1681)"/><path fill="#fff" d="M0 0h100v100H0z" transform="matrix(.41 0 0 .41 1968 1681)"/><path fill="#fff" d="M0 0h100v100H0z" transform="matrix(.41 0 0 .41 328 1722)"/><path fill="#fff" d="M0 0h100v100H0z" transform="matrix(.41 0 0 .41 369 1722)"/><path fill="#fff" d="M0 0h100v100H0z" transform="matrix(.41 0 0 .41 533 1722)"/><path fill="#fff" d="M0 0h100v100H0z" transform="matrix(.41 0 0 .41 574 1722)"/><path fill="#fff" d="M0 0h100v100H0z" transform="matrix(.41 0 0 .41 902 1722)"/><path fill="#fff" d="M0 0h100v100H0z" transform="matrix(.41 0 0 .41 984 1722)"/><path fill="#fff" d="M0 0h100v100H0z" transform="matrix(.41 0 0 .41 1066 1722)"/><path fill="#fff" d="M0 0h100v100H0z" transform="matrix(.41 0 0 .41 1107 1722)"/><path fill="#fff" d="M0 0h100v100H0z" transform="matrix(.41 0 0 .41 1189 1722)"/><path fill="#fff" d="M0 0h100v100H0z" transform="matrix(.41 0 0 .41 1312 1722)"/><path fill="#fff" d="M0 0h100v100H0z" transform="matrix(.41 0 0 .41 1394 1722)"/><path fill="#fff" d="M0 0h100v100H0z" transform="matrix(.41 0 0 .41 1435 1722)"/><path fill="#fff" d="M0 0h100v100H0z" transform="matrix(.41 0 0 .41 1476 1722)"/><path fill="#fff" d="M0 0h100v100H0z" transform="matrix(.41 0 0 .41 1517 1722)"/><path fill="#fff" d="M0 0h100v100H0z" transform="matrix(.41 0 0 .41 1558 1722)"/><path fill="#fff" d="M0 0h100v100H0z" transform="matrix(.41 0 0 .41 1640 1722)"/><path fill="#fff" d="M0 0h100v100H0z" transform="matrix(.41 0 0 .41 1722 1722)"/><path fill="#fff" d="M0 0h100v100H0z" transform="matrix(.41 0 0 .41 1804 1722)"/><path fill="#fff" d="M0 0h100v100H0z" transform="matrix(.41 0 0 .41 1845 1722)"/><path fill="#fff" d="M0 0h100v100H0z" transform="matrix(.41 0 0 .41 1927 1722)"/><path fill="#fff" d="M0 0h100v100H0z" transform="matrix(.41 0 0 .41 1968 1722)"/><path fill="#fff" d="M0 0h100v100H0z" transform="matrix(.41 0 0 .41 328 1763)"/><path fill="#fff" d="M0 0h100v100H0z" transform="matrix(.41 0 0 .41 451 1763)"/><path fill="#fff" d="M0 0h100v100H0z" transform="matrix(.41 0 0 .41 574 1763)"/><path fill="#fff" d="M0 0h100v100H0z" transform="matrix(.41 0 0 .41 615 1763)"/><path fill="#fff" d="M0 0h100v100H0z" transform="matrix(.41 0 0 .41 656 1763)"/><path fill="#fff" d="M0 0h100v100H0z" transform="matrix(.41 0 0 .41 697 1763)"/><path fill="#fff" d="M0 0h100v100H0z" transform="matrix(.41 0 0 .41 779 1763)"/><path fill="#fff" d="M0 0h100v100H0z" transform="matrix(.41 0 0 .41 820 1763)"/><path fill="#fff" d="M0 0h100v100H0z" transform="matrix(.41 0 0 .41 902 1763)"/><path fill="#fff" d="M0 0h100v100H0z" transform="matrix(.41 0 0 .41 1066 1763)"/><path fill="#fff" d="M0 0h100v100H0z" transform="matrix(.41 0 0 .41 1148 1763)"/><path fill="#fff" d="M0 0h100v100H0z" transform="matrix(.41 0 0 .41 1189 1763)"/><path fill="#fff" d="M0 0h100v100H0z" transform="matrix(.41 0 0 .41 1353 1763)"/><path fill="#fff" d="M0 0h100v100H0z" transform="matrix(.41 0 0 .41 1394 1763)"/><path fill="#fff" d="M0 0h100v100H0z" transform="matrix(.41 0 0 .41 1435 1763)"/><path fill="#fff" d="M0 0h100v100H0z" transform="matrix(.41 0 0 .41 1476 1763)"/><path fill="#fff" d="M0 0h100v100H0z" transform="matrix(.41 0 0 .41 1558 1763)"/><path fill="#fff" d="M0 0h100v100H0z" transform="matrix(.41 0 0 .41 1599 1763)"/><path fill="#fff" d="M0 0h100v100H0z" transform="matrix(.41 0 0 .41 1640 1763)"/><path fill="#fff" d="M0 0h100v100H0z" transform="matrix(.41 0 0 .41 1804 1763)"/><path fill="#fff" d="M0 0h100v100H0z" transform="matrix(.41 0 0 .41 1968 1763)"/><path fill="#fff" d="M0 0h100v100H0z" transform="matrix(.41 0 0 .41 369 1804)"/><path fill="#fff" d="M0 0h100v100H0z" transform="matrix(.41 0 0 .41 451 1804)"/><path fill="#fff" d="M0 0h100v100H0z" transform="matrix(.41 0 0 .41 574 1804)"/><path fill="#fff" d="M0 0h100v100H0z" transform="matrix(.41 0 0 .41 615 1804)"/><path fill="#fff" d="M0 0h100v100H0z" transform="matrix(.41 0 0 .41 656 1804)"/><path fill="#fff" d="M0 0h100v100H0z" transform="matrix(.41 0 0 .41 697 1804)"/><path fill="#fff" d="M0 0h100v100H0z" transform="matrix(.41 0 0 .41 738 1804)"/><path fill="#fff" d="M0 0h100v100H0z" transform="matrix(.41 0 0 .41 779 1804)"/><path fill="#fff" d="M0 0h100v100H0z" transform="matrix(.41 0 0 .41 861 1804)"/><path fill="#fff" d="M0 0h100v100H0z" transform="matrix(.41 0 0 .41 902 1804)"/><path fill="#fff" d="M0 0h100v100H0z" transform="matrix(.41 0 0 .41 943 1804)"/><path fill="#fff" d="M0 0h100v100H0z" transform="matrix(.41 0 0 .41 984 1804)"/><path fill="#fff" d="M0 0h100v100H0z" transform="matrix(.41 0 0 .41 1025 1804)"/><path fill="#fff" d="M0 0h100v100H0z" transform="matrix(.41 0 0 .41 1066 1804)"/><path fill="#fff" d="M0 0h100v100H0z" transform="matrix(.41 0 0 .41 1107 1804)"/><path fill="#fff" d="M0 0h100v100H0z" transform="matrix(.41 0 0 .41 1148 1804)"/><path fill="#fff" d="M0 0h100v100H0z" transform="matrix(.41 0 0 .41 1517 1804)"/><path fill="#fff" d="M0 0h100v100H0z" transform="matrix(.41 0 0 .41 1599 1804)"/><path fill="#fff" d="M0 0h100v100H0z" transform="matrix(.41 0 0 .41 1640 1804)"/><path fill="#fff" d="M0 0h100v100H0z" transform="matrix(.41 0 0 .41 1681 1804)"/><path fill="#fff" d="M0 0h100v100H0z" transform="matrix(.41 0 0 .41 1722 1804)"/><path fill="#fff" d="M0 0h100v100H0z" transform="matrix(.41 0 0 .41 1763 1804)"/><path fill="#fff" d="M0 0h100v100H0z" transform="matrix(.41 0 0 .41 1804 1804)"/><path fill="#fff" d="M0 0h100v100H0z" transform="matrix(.41 0 0 .41 1845 1804)"/><path fill="#fff" d="M0 0h100v100H0z" transform="matrix(.41 0 0 .41 1968 1804)"/><path fill="#fff" d="M0 0h100v100H0z" transform="matrix(.41 0 0 .41 328 1845)"/><path fill="#fff" d="M0 0h100v100H0z" transform="matrix(.41 0 0 .41 369 1845)"/><path fill="#fff" d="M0 0h100v100H0z" transform="matrix(.41 0 0 .41 451 1845)"/><path fill="#fff" d="M0 0h100v100H0z" transform="matrix(.41 0 0 .41 492 1845)"/><path fill="#fff" d="M0 0h100v100H0z" transform="matrix(.41 0 0 .41 738 1845)"/><path fill="#fff" d="M0 0h100v100H0z" transform="matrix(.41 0 0 .41 779 1845)"/><path fill="#fff" d="M0 0h100v100H0z" transform="matrix(.41 0 0 .41 820 1845)"/><path fill="#fff" d="M0 0h100v100H0z" transform="matrix(.41 0 0 .41 902 1845)"/><path fill="#fff" d="M0 0h100v100H0z" transform="matrix(.41 0 0 .41 1148 1845)"/><path fill="#fff" d="M0 0h100v100H0z" transform="matrix(.41 0 0 .41 1189 1845)"/><path fill="#fff" d="M0 0h100v100H0z" transform="matrix(.41 0 0 .41 1230 1845)"/><path fill="#fff" d="M0 0h100v100H0z" transform="matrix(.41 0 0 .41 1435 1845)"/><path fill="#fff" d="M0 0h100v100H0z" transform="matrix(.41 0 0 .41 1476 1845)"/><path fill="#fff" d="M0 0h100v100H0z" transform="matrix(.41 0 0 .41 1517 1845)"/><path fill="#fff" d="M0 0h100v100H0z" transform="matrix(.41 0 0 .41 1599 1845)"/><path fill="#fff" d="M0 0h100v100H0z" transform="matrix(.41 0 0 .41 1640 1845)"/><path fill="#fff" d="M0 0h100v100H0z" transform="matrix(.41 0 0 .41 1722 1845)"/><path fill="#fff" d="M0 0h100v100H0z" transform="matrix(.41 0 0 .41 1763 1845)"/><path fill="#fff" d="M0 0h100v100H0z" transform="matrix(.41 0 0 .41 1804 1845)"/><path fill="#fff" d="M0 0h100v100H0z" transform="matrix(.41 0 0 .41 1845 1845)"/><path fill="#fff" d="M0 0h100v100H0z" transform="matrix(.41 0 0 .41 1927 1845)"/><path fill="#fff" d="M0 0h100v100H0z" transform="matrix(.41 0 0 .41 328 1886)"/><path fill="#fff" d="M0 0h100v100H0z" transform="matrix(.41 0 0 .41 451 1886)"/><path fill="#fff" d="M0 0h100v100H0z" transform="matrix(.41 0 0 .41 492 1886)"/><path fill="#fff" d="M0 0h100v100H0z" transform="matrix(.41 0 0 .41 902 1886)"/><path fill="#fff" d="M0 0h100v100H0z" transform="matrix(.41 0 0 .41 1025 1886)"/><path fill="#fff" d="M0 0h100v100H0z" transform="matrix(.41 0 0 .41 1066 1886)"/><path fill="#fff" d="M0 0h100v100H0z" transform="matrix(.41 0 0 .41 1107 1886)"/><path fill="#fff" d="M0 0h100v100H0z" transform="matrix(.41 0 0 .41 1148 1886)"/><path fill="#fff" d="M0 0h100v100H0z" transform="matrix(.41 0 0 .41 1189 1886)"/><path fill="#fff" d="M0 0h100v100H0z" transform="matrix(.41 0 0 .41 1230 1886)"/><path fill="#fff" d="M0 0h100v100H0z" transform="matrix(.41 0 0 .41 1271 1886)"/><path fill="#fff" d="M0 0h100v100H0z" transform="matrix(.41 0 0 .41 1394 1886)"/><path fill="#fff" d="M0 0h100v100H0z" transform="matrix(.41 0 0 .41 1599 1886)"/><path fill="#fff" d="M0 0h100v100H0z" transform="matrix(.41 0 0 .41 1763 1886)"/><path fill="#fff" d="M0 0h100v100H0z" transform="matrix(.41 0 0 .41 1804 1886)"/><path fill="#fff" d="M0 0h100v100H0z" transform="matrix(.41 0 0 .41 1886 1886)"/><path fill="#fff" d="M0 0h100v100H0z" transform="matrix(.41 0 0 .41 492 1927)"/><path fill="#fff" d="M0 0h100v100H0z" transform="matrix(.41 0 0 .41 533 1927)"/><path fill="#fff" d="M0 0h100v100H0z" transform="matrix(.41 0 0 .41 615 1927)"/><path fill="#fff" d="M0 0h100v100H0z" transform="matrix(.41 0 0 .41 656 1927)"/><path fill="#fff" d="M0 0h100v100H0z" transform="matrix(.41 0 0 .41 738 1927)"/><path fill="#fff" d="M0 0h100v100H0z" transform="matrix(.41 0 0 .41 820 1927)"/><path fill="#fff" d="M0 0h100v100H0z" transform="matrix(.41 0 0 .41 861 1927)"/><path fill="#fff" d="M0 0h100v100H0z" transform="matrix(.41 0 0 .41 902 1927)"/><path fill="#fff" d="M0 0h100v100H0z" transform="matrix(.41 0 0 .41 943 1927)"/><path fill="#fff" d="M0 0h100v100H0z" transform="matrix(.41 0 0 .41 984 1927)"/><path fill="#fff" d="M0 0h100v100H0z" transform="matrix(.41 0 0 .41 1025 1927)"/><path fill="#fff" d="M0 0h100v100H0z" transform="matrix(.41 0 0 .41 1148 1927)"/><path fill="#fff" d="M0 0h100v100H0z" transform="matrix(.41 0 0 .41 1189 1927)"/><path fill="#fff" d="M0 0h100v100H0z" transform="matrix(.41 0 0 .41 1230 1927)"/><path fill="#fff" d="M0 0h100v100H0z" transform="matrix(.41 0 0 .41 1271 1927)"/><path fill="#fff" d="M0 0h100v100H0z" transform="matrix(.41 0 0 .41 1353 1927)"/><path fill="#fff" d="M0 0h100v100H0z" transform="matrix(.41 0 0 .41 1558 1927)"/><path fill="#fff" d="M0 0h100v100H0z" transform="matrix(.41 0 0 .41 1599 1927)"/><path fill="#fff" d="M0 0h100v100H0z" transform="matrix(.41 0 0 .41 1763 1927)"/><path fill="#fff" d="M0 0h100v100H0z" transform="matrix(.41 0 0 .41 1845 1927)"/><path fill="#fff" d="M0 0h100v100H0z" transform="matrix(.41 0 0 .41 1886 1927)"/><path fill="#fff" d="M0 0h100v100H0z" transform="matrix(.41 0 0 .41 328 1968)"/><path fill="#fff" d="M0 0h100v100H0z" transform="matrix(.41 0 0 .41 369 1968)"/><path fill="#fff" d="M0 0h100v100H0z" transform="matrix(.41 0 0 .41 451 1968)"/><path fill="#fff" d="M0 0h100v100H0z" transform="matrix(.41 0 0 .41 656 1968)"/><path fill="#fff" d="M0 0h100v100H0z" transform="matrix(.41 0 0 .41 697 1968)"/><path fill="#fff" d="M0 0h100v100H0z" transform="matrix(.41 0 0 .41 738 1968)"/><path fill="#fff" d="M0 0h100v100H0z" transform="matrix(.41 0 0 .41 820 1968)"/><path fill="#fff" d="M0 0h100v100H0z" transform="matrix(.41 0 0 .41 943 1968)"/><path fill="#fff" d="M0 0h100v100H0z" transform="matrix(.41 0 0 .41 1025 1968)"/><path fill="#fff" d="M0 0h100v100H0z" transform="matrix(.41 0 0 .41 1148 1968)"/><path fill="#fff" d="M0 0h100v100H0z" transform="matrix(.41 0 0 .41 1271 1968)"/><path fill="#fff" d="M0 0h100v100H0z" transform="matrix(.41 0 0 .41 1312 1968)"/><path fill="#fff" d="M0 0h100v100H0z" transform="matrix(.41 0 0 .41 1353 1968)"/><path fill="#fff" d="M0 0h100v100H0z" transform="matrix(.41 0 0 .41 1394 1968)"/><path fill="#fff" d="M0 0h100v100H0z" transform="matrix(.41 0 0 .41 1435 1968)"/><path fill="#fff" d="M0 0h100v100H0z" transform="matrix(.41 0 0 .41 1558 1968)"/><path fill="#fff" d="M0 0h100v100H0z" transform="matrix(.41 0 0 .41 1640 1968)"/><path fill="#fff" d="M0 0h100v100H0z" transform="matrix(.41 0 0 .41 1681 1968)"/><path fill="#fff" d="M0 0h100v100H0z" transform="matrix(.41 0 0 .41 1845 1968)"/><path fill="#fff" d="M0 0h100v100H0z" transform="matrix(.41 0 0 .41 1886 1968)"/><path fill="#fff" d="M0 0h100v100H0z" transform="matrix(.41 0 0 .41 1927 1968)"/><path fill="#fff" d="M0 0h100v100H0z" transform="matrix(.41 0 0 .41 1968 1968)"/><g fill="#fff"><path fill="none" d="M15 15h70v70H15z" transform="scale(2.87)"/><path d="M85 0H0v100h100V0H85zm0 85H15V15h70v70z" transform="scale(2.87)"/></g><g fill="#fff"><path fill="none" d="M15 15h70v70H15z" transform="translate(1722) scale(2.87)"/><path d="M85 0H0v100h100V0H85zm0 85H15V15h70v70z" transform="translate(1722) scale(2.87)"/></g><g fill="#fff"><path fill="none" d="M15 15h70v70H15z" transform="matrix(2.87 0 0 2.87 0 1722)"/><path d="M85 0H0v100h100V0H85zm0 85H15V15h70v70z" transform="matrix(2.87 0 0 2.87 0 1722)"/></g><path fill="#fff" d="M0 0h100v100H0z" transform="matrix(1.23 0 0 1.23 82 82)"/><path fill="#fff" d="M0 0h100v100H0z" transform="matrix(1.23 0 0 1.23 1804 82)"/><path fill="#fff" d="M0 0h100v100H0z" transform="matrix(1.23 0 0 1.23 82 1804)"/></mask></defs><path fill="url(#a)" d="M0 0h2009v2009H0z" mask="url(#b)" transform="translate(82 82)"/></svg>